<?xml version="1.0" encoding="UTF-8"?>
<!DOCTYPE svg PUBLIC "-//W3C//DTD SVG 1.1//EN" "http://www.w3.org/Graphics/SVG/1.1/DTD/svg11.dtd">
<svg version="1.1" xmlns="http://www.w3.org/2000/svg" xmlns:xlink="http://www.w3.org/1999/xlink" x="0" y="0" width="566" height="71" viewBox="0, 0, 566, 71">
  <g id="Background">
    <rect x="0" y="0" width="566" height="71" fill="#FEFEFE" fill-opacity="0"/>
  </g>
  <g id="Layer_1">
    <g>
      <path d="M187.432,54.147 L180.249,41.924 L191.005,29.295 L191.217,27.813 L183.898,27.813 L177.407,35.915 C177.192,36.183 176.817,36.719 176.28,38.543 C176.333,36.719 175.958,36.183 175.851,35.969 L171.29,27.813 L162.868,27.813 L170.914,41.709 L158.093,56.623 L166.515,56.623 L173.758,47.824 C174.133,47.342 174.723,46.323 174.993,45.197 C174.993,46.323 175.261,47.395 175.529,47.824 L180.517,56.623 L187.077,56.623 z" fill="#FEFEFE"/>
      <path d="M162.15,23.951 L143.588,23.951 L142.247,33.231 L159.2,33.231 L156.57,39.241 L141.173,39.241 C141.281,39.615 141.281,40.045 141.227,40.26 L139.725,50.615 L158.34,50.615 L157.482,56.623 L131.677,56.623 L137.256,17.943 L163.008,17.943 z" fill="#FEFEFE"/>
      <path d="M206.337,32.428 C204.728,32.428 202.797,32.696 200.383,34.252 L197.97,50.938 C199.471,51.688 201.616,52.01 203.441,52.01 C207.786,52.01 210.147,49.219 211.167,41.976 C211.381,40.581 211.488,39.401 211.488,38.383 C211.488,34.09 209.773,32.428 206.337,32.428 M218.355,41.976 C217.015,51.418 212.828,57.481 202.69,57.481 C200.813,57.481 198.667,57.107 196.734,56.194 C196.897,56.782 197.058,57.481 196.95,58.073 L195.286,69.606 L188.098,69.606 L194.107,27.813 L199.257,27.813 L199.847,30.176 C202.314,28.028 205.212,26.955 207.894,26.955 C215.566,26.955 218.676,31.408 218.676,38.114 C218.676,39.349 218.568,40.636 218.355,41.976" fill="#FEFEFE"/>
      <path d="M240.349,33.394 C239.168,33.232 237.936,33.124 236.646,33.124 C234.608,33.124 232.462,33.446 230.584,34.575 L227.42,56.623 L220.231,56.623 L224.362,27.813 L230.262,27.813 L230.694,30.121 C233.106,27.813 235.521,26.955 238.096,26.955 C239.117,26.955 240.189,27.118 241.262,27.332 z" fill="#FEFEFE"/>
      <path d="M256.539,32.643 C252.463,32.643 250.477,34.198 249.297,39.242 L261.099,39.242 C261.207,38.598 261.26,38.006 261.26,37.471 C261.26,34.305 259.705,32.643 256.539,32.643 M267.751,44.284 L248.384,44.284 C248.276,45.142 248.224,45.893 248.224,46.591 C248.224,50.131 249.833,51.795 253.803,51.795 C257.505,51.795 259.598,50.186 261.152,47.824 L266.571,50.024 C264.049,54.852 259.329,57.481 252.999,57.481 C244.844,57.481 241.142,53.135 241.142,45.893 C241.142,44.713 241.249,43.481 241.411,42.191 C242.965,31.622 247.581,26.956 257.397,26.956 C266.304,26.956 268.343,33.232 268.343,38.598 C268.343,40.207 268.02,42.353 267.751,44.284" fill="#FEFEFE"/>
      <path d="M289.907,35.432 C288.889,33.608 287.01,32.588 284.059,32.588 C281.754,32.588 278.963,33.073 278.963,35.969 C278.963,36.989 279.446,37.847 280.734,38.062 L286.956,39.187 C290.873,39.885 294.091,42.083 294.091,46.27 C294.091,54.477 287.277,57.481 280.142,57.481 C275.1,57.481 271.132,55.764 269.2,51.259 L275.208,49.059 C276.336,51.097 278.159,52.01 280.896,52.01 C283.578,52.01 286.903,51.204 286.903,47.879 C286.903,46.699 286.367,45.84 284.81,45.571 L278.104,44.338 C274.993,43.747 271.934,41.387 271.934,36.934 C271.934,29.315 278.212,26.955 284.865,26.955 C290.82,26.955 294.091,29.37 295.54,32.803 z" fill="#FEFEFE"/>
      <path d="M316.248,35.432 C315.231,33.608 313.355,32.588 310.4,32.588 C308.096,32.588 305.307,33.073 305.307,35.969 C305.307,36.989 305.79,37.847 307.078,38.062 L313.3,39.187 C317.217,39.885 320.435,42.083 320.435,46.27 C320.435,54.477 313.619,57.481 306.484,57.481 C301.444,57.481 297.473,55.764 295.543,51.259 L301.549,49.059 C302.677,51.097 304.503,52.01 307.237,52.01 C309.922,52.01 313.245,51.204 313.245,47.879 C313.245,46.699 312.711,45.84 311.154,45.571 L304.448,44.338 C301.335,43.747 298.276,41.387 298.276,36.934 C298.276,29.315 304.553,26.955 311.209,26.955 C317.161,26.955 320.435,29.37 321.882,32.803 z" fill="#FEFEFE"/>
      <path d="M337.709,22.072 C337.653,22.556 337.653,22.556 337.225,22.556 L330.249,22.556 C329.82,22.556 329.82,22.556 329.875,22.072 L330.843,15.421 C330.893,14.885 330.893,14.83 331.322,14.83 L338.298,14.83 C338.727,14.83 338.727,14.885 338.672,15.421 z M336.262,57.106 L332.609,57.106 C328.428,57.106 326.388,55.28 326.388,51.525 C326.388,50.937 326.442,50.345 326.547,49.646 L328.697,34.788 C328.747,34.359 329.017,33.715 329.446,33.231 L324.242,33.231 L324.995,27.812 L336.851,27.812 L333.737,49.646 C333.687,49.916 333.687,50.185 333.687,50.4 C333.687,51.045 333.951,51.259 334.76,51.259 L337.065,51.259 z" fill="#FEFEFE"/>
      <path d="M355.467,32.643 C351.066,32.643 348.92,34.896 347.848,42.191 C347.633,43.64 347.524,44.928 347.524,46 C347.524,50.346 349.239,51.795 352.728,51.795 C357.073,51.795 359.384,49.54 360.456,42.191 C360.671,40.795 360.776,39.563 360.776,38.491 C360.776,34.09 359.004,32.643 355.467,32.643 M367.642,42.191 C366.194,52.17 361.849,57.481 351.924,57.481 C343.446,57.481 340.388,52.278 340.388,45.733 C340.388,44.606 340.498,43.373 340.657,42.191 C342.105,32.051 346.401,26.956 356.325,26.956 C364.747,26.956 367.911,31.892 367.911,38.543 C367.911,39.723 367.806,40.903 367.642,42.191" fill="#FEFEFE"/>
      <path d="M396.097,38.49 L393.468,56.623 L386.332,56.623 L388.962,38.49 C389.072,37.847 389.121,37.203 389.121,36.611 C389.121,34.144 388.159,32.535 385.474,32.535 C383.274,32.535 380.7,33.767 378.609,35.055 L375.495,56.623 L368.36,56.623 L372.492,27.812 L378.394,27.812 L378.878,30.442 C382.202,27.812 384.885,26.955 387.889,26.955 C393.897,26.955 396.312,30.763 396.312,35.861 C396.312,36.719 396.206,37.577 396.097,38.49" fill="#FEFEFE"/>
      <path d="M430.59,23.951 L412.029,23.951 L410.692,33.231 L427.641,33.231 L425.012,39.241 L409.613,39.241 C409.724,39.615 409.724,40.045 409.669,40.26 L408.167,50.615 L426.782,50.615 L425.925,56.623 L400.118,56.623 L405.702,17.943 L431.453,17.943 z" fill="#FEFEFE"/>
      <path d="M457.353,38.49 L454.724,56.623 L447.589,56.623 L450.219,38.49 C450.323,37.847 450.378,37.203 450.378,36.611 C450.378,34.144 449.41,32.535 446.732,32.535 C444.53,32.535 441.956,33.767 439.861,35.055 L436.753,56.623 L429.616,56.623 L433.749,27.812 L439.646,27.812 L440.129,30.442 C443.458,27.812 446.137,26.955 449.146,26.955 C455.154,26.955 457.568,30.763 457.568,35.861 C457.568,36.719 457.46,37.577 457.353,38.49" fill="#FEFEFE"/>
      <path d="M476.22,32.588 C472.193,32.588 469.888,34.896 469.888,38.865 C469.888,41.547 471.605,42.674 474.718,42.674 C478.74,42.674 480.994,40.529 480.994,36.56 C480.994,33.93 479.438,32.588 476.22,32.588 M476.913,56.731 L466.829,54.852 C465.223,56.568 464.524,57.695 464.524,60.11 C464.524,62.845 466.455,64.08 471.605,64.08 C474.983,64.08 479.653,63.543 479.653,59.197 C479.653,57.858 478.954,57.106 476.913,56.731 M493.334,33.231 L489.846,33.231 C489.363,33.231 488.18,33.18 487.272,32.75 C487.806,34.037 488.02,35.484 488.02,36.667 C488.02,45.034 481.368,48.252 473.909,48.252 C472.248,48.252 470.642,48.093 469.244,47.772 C469.03,47.717 468.815,47.664 468.546,47.664 C467.742,47.664 467.258,48.093 467.258,48.897 C467.258,49.433 467.528,49.809 468.705,50.023 L479.064,51.955 C484.802,53.027 486.787,55.495 486.787,58.66 C486.787,67.941 478.096,69.606 470.801,69.606 C465.008,69.606 457.444,68.049 457.444,60.807 C457.444,57.052 459.425,53.834 462.643,51.902 C461.999,51.097 461.68,50.186 461.68,49.325 C461.68,47.395 463.073,45.893 464.684,45.034 C463.666,43.747 462.808,41.709 462.808,39.349 C462.808,30.926 469.349,26.955 477.023,26.955 C479.707,26.955 482.546,27.439 484.642,28.778 L488.779,27.848 L493.983,27.848 z" fill="#FEFEFE"/>
      <path d="M504.755,22.072 C504.705,22.556 504.705,22.556 504.276,22.556 L497.301,22.556 C496.871,22.556 496.871,22.556 496.926,22.072 L497.89,15.421 C497.944,14.885 497.944,14.83 498.373,14.83 L505.349,14.83 C505.777,14.83 505.777,14.885 505.723,15.421 z M503.308,57.106 L499.66,57.106 C495.475,57.106 493.439,55.28 493.439,51.525 C493.439,50.937 493.493,50.345 493.599,49.646 L495.743,34.788 C495.799,34.359 496.068,33.715 496.497,33.231 L491.293,33.231 L492.041,27.812 L503.897,27.812 L500.788,49.646 C500.734,49.916 500.734,50.185 500.734,50.4 C500.734,51.045 501.003,51.259 501.806,51.259 L504.111,51.259 z" fill="#FEFEFE"/>
      <path d="M534.323,38.49 L531.693,56.623 L524.558,56.623 L527.188,38.49 C527.298,37.847 527.347,37.203 527.347,36.611 C527.347,34.144 526.385,32.535 523.7,32.535 C521.5,32.535 518.925,33.767 516.835,35.055 L513.721,56.623 L506.586,56.623 L510.718,27.812 L516.62,27.812 L517.104,30.442 C520.427,27.812 523.111,26.955 526.115,26.955 C532.123,26.955 534.538,30.763 534.538,35.861 C534.538,36.719 534.432,37.577 534.323,38.49" fill="#FEFEFE"/>
      <path d="M551.854,32.643 C547.778,32.643 545.793,34.198 544.609,39.242 L556.414,39.242 C556.52,38.598 556.575,38.006 556.575,37.471 C556.575,34.305 555.018,32.643 551.854,32.643 M563.065,44.284 L543.697,44.284 C543.591,45.142 543.536,45.893 543.536,46.591 C543.536,50.131 545.148,51.795 549.115,51.795 C552.818,51.795 554.914,50.186 556.464,47.824 L561.883,50.024 C559.364,54.852 554.643,57.481 548.312,57.481 C540.159,57.481 536.456,53.135 536.456,45.893 C536.456,44.713 536.56,43.481 536.726,42.191 C538.278,31.622 542.893,26.956 552.711,26.956 C561.619,26.956 563.655,33.232 563.655,38.598 C563.655,40.207 563.336,42.353 563.065,44.284" fill="#FEFEFE"/>
      <path d="M42.875,35.306 C43.898,29.526 45.704,24.919 48.239,21.6 C50.033,19.225 52.018,18.022 54.146,18.022 C55.272,18.022 56.225,18.455 56.977,19.313 C57.706,20.152 58.079,21.305 58.079,22.741 C58.079,26.062 56.585,29.085 53.64,31.737 C51.505,33.641 48.077,35.036 43.455,35.88 L42.748,36.01 z M63.017,43.381 C60.421,45.871 58.149,47.627 56.307,48.507 C54.369,49.426 52.367,49.891 50.358,49.891 C47.906,49.891 45.914,49.11 44.444,47.567 C42.973,46.028 42.227,43.821 42.227,41.003 L42.417,38.182 L42.808,38.114 C49.686,36.953 54.874,35.627 58.222,34.164 C61.534,32.721 63.951,31.004 65.408,29.062 C66.854,27.135 67.583,25.198 67.583,23.315 C67.583,21.03 66.718,19.202 64.933,17.707 C63.142,16.217 60.558,15.463 57.26,15.463 C52.677,15.463 48.34,16.532 44.37,18.643 C40.407,20.75 37.237,23.672 34.951,27.326 C32.671,30.977 31.514,34.844 31.514,38.817 C31.514,43.249 32.881,46.803 35.575,49.374 C38.28,51.952 42.058,53.254 46.805,53.254 C50.176,53.254 53.366,52.577 56.287,51.241 C59.08,49.963 61.969,47.748 64.887,44.759 C64.331,44.35 63.411,43.671 63.017,43.381" fill="#FEFEFE"/>
      <path d="M16.219,44.306 C12.312,29.018 21.564,13.036 37.451,5.744 C37.053,5.887 36.68,6.051 36.287,6.198 C36.689,6.006 37.048,5.845 37.326,5.75 L7.558,13.43 L15.494,18.125 C5.101,26.928 -0.261,37.837 2.309,47.897 C6.332,63.646 28.363,71.858 53.312,67.823 C35.895,69.119 20.123,59.593 16.219,44.306" fill="#FEFEFE"/>
      <path d="M85.977,25.545 C89.884,40.834 80.634,56.816 64.746,64.109 C65.143,63.965 65.516,63.801 65.909,63.652 C65.507,63.848 65.148,64.006 64.87,64.102 L94.638,56.423 L86.703,51.729 C97.095,42.925 102.457,32.014 99.888,21.955 C95.864,6.211 73.833,-2.005 48.884,2.034 C66.3,0.733 82.074,10.26 85.977,25.545" fill="#FEFEFE"/>
    </g>
  </g>
</svg>
