<svg height="682.667" viewBox="0 0 682.667 682.667" width="682.667" xmlns="http://www.w3.org/2000/svg"><g fill="none"><path d="m0 0h682.667v682.667h-682.667z"/><g stroke="#f62" stroke-linecap="round" stroke-linejoin="round" stroke-miterlimit="10" stroke-width="40"><path d="m622.667 662.667h-562.667c-22.091 0-40-17.91-40-40v-361.334h642.667v361.334c0 22.09-17.91 40-40 40z"/><path d="m662.667 261.333v-121.333c0-22.092-17.91-40-40-40h-361.334c0-44.183-35.817-80-80-80h-121.333c-22.091 0-40 17.908-40 40v201.333"/><path d="m100 261.333v-81.333h482.667v81.333"/><path d="m221.333 581.333 103.432-103.432"/><path d="m461.333 421.333c0 44.183-35.817 80-80 80-44.182 0-80-35.817-80-80 0-44.182 35.818-80 80-80 44.183 0 80 35.818 80 80z"/></g></g></svg>