<svg height="682.66669" viewBox="0 0 682.66669 682.66669" width="682.66669" xmlns="http://www.w3.org/2000/svg"><g style="fill:none;stroke:#000;stroke-width:30;stroke-linecap:round;stroke-linejoin:round;stroke-miterlimit:10"><path d="m0 0h-422c-16.568 0-30 13.432-30 30v271h482v-271c0-16.568-13.432-30-30-30z" transform="matrix(1.3333333 0 0 -1.3333333 622.6666511 662.6666705)"/><path d="m0 0v91c0 16.569-13.432 30-30 30h-271c0 33.137-26.863 60-60 60h-91c-16.568 0-30-13.431-30-30v-151" transform="matrix(1.3333333 0 0 -1.3333333 662.6666501 261.3333472)"/><path d="m0 0v61h362v-61" transform="matrix(1.3333333 0 0 -1.3333333 99.9999975 261.3333472)"/><path d="m0 0 77.574 77.574" transform="matrix(1.3333333 0 0 -1.3333333 221.3333278 581.3333392)"/><path d="m0 0c0-33.137-26.863-60-60-60s-60 26.863-60 60 26.863 60 60 60 60-26.863 60-60z" transform="matrix(1.3333333 0 0 -1.3333333 461.3333218 421.3333432)"/></g></svg>