<svg height="682.66669" viewBox="0 0 682.66669 682.66669" width="682.66669" xmlns="http://www.w3.org/2000/svg" xmlns:xlink="http://www.w3.org/1999/xlink"><mask id="a"><rect fill="#fff" height="100%" width="100%"/></mask><g mask="url(#a)"><path d="m0 0-231.562-231.562c-42.183-42.183-110.993-42.182-153.175 0l-1.427 1.428c-42.183 42.182-42.183 110.992 0 153.175l272.697 272.697c30.751 30.751 80.911 30.751 111.662 0l.711-.711c30.75-30.75 30.75-80.911 0-111.661l-271.273-271.273c-19.318-19.318-50.841-19.307-70.148 0l-.711.711c-19.306 19.306-19.306 50.842 0 70.148l230.478 230.478" style="fill:none;stroke:#000;stroke-width:30;stroke-linecap:round;stroke-linejoin:round;stroke-miterlimit:22.926" transform="matrix(1.3333333 0 0 -1.3333333 605.22198486945 311.73507927329)"/></g></svg>