<svg height="209" viewBox="0 0 209 209" width="209" xmlns="http://www.w3.org/2000/svg"><path d="m0 0h209v209h-209z" fill="none"/><path d="m38.927.333c32.709.001 39.84.002 98.316.002.641 0 1.447.494 2.015 1.068.854.863.877.868 1.27 1.317 7.656 8.743 43.639 52.031 43.639 52.031.733.913 1.676 1.682 1.69 3.256l.008 134.868c0 8.716-7.077 15.792-15.792 15.792h-131.146c-8.716 0-15.792-7.076-15.792-15.792v-176.75c0-8.715 7.076-15.792 15.792-15.792zm86.428 42.019h-31.864c-1.712 0-3.16 1.054-3.687 2.765l-21.726 65.836c-.395 1.185-.131 2.502.527 3.555.79 1.053 1.975 1.58 3.16 1.58h23.701l-3.029 46.348c-.131 1.844 1.054 3.555 2.897 4.082.395.132.79.132 1.053.132 1.449 0 2.766-.79 3.424-2.107l40.818-74.262c.658-1.186.658-2.634-.132-3.819-.658-1.185-1.975-1.975-3.423-1.975h-20.146l12.114-37c.395-1.185.131-2.501-.527-3.555-.658-1.053-1.975-1.58-3.16-1.58z"/></svg>