<svg viewBox="0 0 215.455 215.455" xmlns="http://www.w3.org/2000/svg"><path d="m107.728.001c-59.403 0-107.728 48.328-107.728 107.731.005 59.397 48.332 107.722 107.728 107.722 59.401 0 107.728-48.324 107.728-107.723-.001-59.402-48.327-107.73-107.728-107.73zm0 15c22.021 0 42.269 7.721 58.192 20.592l-130.327 130.326c-12.869-15.922-20.591-36.169-20.593-58.188 0-51.131 41.598-92.73 92.728-92.73zm0 185.453c-23.718 0-45.381-8.956-61.797-23.658l130.865-130.865c14.703 16.416 23.659 38.081 23.659 61.801 0 51.127-41.598 92.722-92.727 92.722z"/></svg>