<svg height="682.66669" viewBox="0 0 682.66669 682.66669" width="682.66669" xmlns="http://www.w3.org/2000/svg"><g style="fill:none;stroke:#000;stroke-width:30;stroke-linecap:round;stroke-linejoin:round;stroke-miterlimit:10"><path d="m0 0c0 77.32 62.68 140 140 140 47.013 0 88.611-23.175 114-58.722v230.722c0 16.569-13.432 30-30 30h-396c-16.568 0-30-13.431-30-30v-396c0-16.568 13.432-30 30-30h230.722c-35.547 25.389-58.722 66.987-58.722 114z" transform="matrix(1.3333333 0 0 -1.3333333 289.3333261 476.0000085)"/><path d="m0 0h-228" transform="matrix(1.3333333 0 0 -1.3333333 323.9999919 324.0000123)"/><path d="m0 0h70" transform="matrix(1.3333333 0 0 -1.3333333 125.3333302 172.0000161)"/><path d="m0 0v70" transform="matrix(1.3333333 0 0 -1.3333333 171.9999957 218.6666816)"/><path d="m0 0h60" transform="matrix(1.3333333 0 0 -1.3333333 435.9999891 172.0000161)"/><path d="m0 0h70" transform="matrix(1.3333333 0 0 -1.3333333 429.3333226 509.333341)"/><path d="m0 0h70" transform="matrix(1.3333333 0 0 -1.3333333 429.3333226 442.666676)"/><path d="m0 0 50-50" transform="matrix(1.3333333 0 0 -1.3333333 138.6666632 442.666676)"/><path d="m0 0 50 50" transform="matrix(1.3333333 0 0 -1.3333333 138.6666632 509.333341)"/><path d="m0 0c0-77.32-62.68-140-140-140s-140 62.68-140 140 62.68 140 140 140 140-62.68 140-140z" transform="matrix(1.3333333 0 0 -1.3333333 662.6666501 476.0000085)"/><path d="m0 0v260.722" transform="matrix(1.3333333 0 0 -1.3333333 323.9999919 367.62894454261)"/></g></svg>