<svg height="682.667" viewBox="0 0 682.667 682.667" width="682.667" xmlns="http://www.w3.org/2000/svg"><g fill="none"><path d="m0 0h682.667v682.667h-682.667z"/><g stroke="#ff6621" stroke-linecap="round" stroke-linejoin="round" stroke-miterlimit="10" stroke-width="40"><path d="m289.333 476c0-103.093 83.574-186.667 186.667-186.667 62.684 0 118.148 30.9 152 78.296v-307.629c0-22.092-17.909-40-40-40h-528c-22.091 0-40 17.908-40 40v528c0 22.091 17.909 40 40 40h307.629c-47.396-33.852-78.296-89.316-78.296-152z"/><path d="m324 324h-304"/><path d="m125.333 172h93.334"/><path d="m172 218.667v-93.334"/><path d="m436 172h80"/><path d="m429.333 509.333h93.334"/><path d="m429.333 442.667h93.334"/><path d="m138.667 442.667 66.666 66.666"/><path d="m138.667 509.333 66.666-66.666"/><path d="m662.667 476c0 103.093-83.574 186.667-186.667 186.667s-186.667-83.574-186.667-186.667 83.574-186.667 186.667-186.667 186.667 83.574 186.667 186.667z"/><path d="m324 367.629v-347.629"/></g></g></svg>