<svg height="682.66669" viewBox="0 0 682.66669 682.66669" width="682.66669" xmlns="http://www.w3.org/2000/svg" xmlns:xlink="http://www.w3.org/1999/xlink"><mask id="a"><rect fill="#fff" height="100%" width="100%"/></mask><g style="mask:url(#a);fill:none;stroke:#000;stroke-width:30;stroke-linecap:round;stroke-linejoin:round;stroke-miterlimit:10"><path d="m0 0c-42.33 69.287-118.656 115.54-205.793 115.54v-120.5c54.382 0 100.313-36.041 115.304-85.529l-34.971-34.971h160.667v160.667z" transform="matrix(1.3333333 0 0 -1.3333333 615.72465127355 174.05321604867)"/><path d="m0 0 34.971 34.971h-160.667v-160.666l35.207 35.206" transform="matrix(1.3333333 0 0 -1.3333333 187.59399531015 387.96161070096)"/><path d="m0 0 35.206-35.207c-69.286-42.33-115.539-118.655-115.539-205.793h120.5c0 54.383 36.041 100.314 85.528 115.305l34.972-34.972v160.667z" transform="matrix(1.3333333 0 0 -1.3333333 127.11106348889 20.0000199)"/><path d="m0 0c42.33-69.287 118.656-115.54 205.793-115.54 65.313 0 124.549 25.988 167.951 68.18l-85.294 85.294c-21.574-20.399-50.617-32.974-82.657-32.974-54.382 0-100.313 36.041-115.304 85.529" transform="matrix(1.3333333 0 0 -1.3333333 66.94199832645 508.61360768466)"/></g></svg>