<svg height="682.66669" viewBox="0 0 682.66669 682.66669" width="682.66669" xmlns="http://www.w3.org/2000/svg"><g fill="none" stroke="#000" stroke-linejoin="round" stroke-miterlimit="10" stroke-width="30"><path d="m0 0c-11.753 11.753-11.753 30.808 0 42.561l340.563 340.563c11.753 11.753 30.808 11.753 42.561 0 11.753-11.753 11.753-30.808 0-42.561l-340.563-340.563c-11.753-11.753-30.808-11.753-42.561 0z" stroke-linecap="round" transform="matrix(1.3333333 0 0 -1.3333333 33.07879917303 542.58507350204)"/><path d="m0 0-62.563 58.4v248.295l-42.561 42.561" transform="matrix(1.3333333 0 0 -1.3333333 584.24985206042 540.50507355404)"/><g stroke-linecap="round"><path d="m0 0c-17.629-17.629-152.615-124.032-170.244-106.403-17.63 17.63 88.773 152.615 106.402 170.245 17.63 17.629 46.213 17.629 63.842 0 17.629-17.63 17.629-46.213 0-63.842z" transform="matrix(1.3333333 0 0 -1.3333333 610.0626514151 518.17814077888)"/><path d="m0 0 14.805-14.667" transform="matrix(1.3333333 0 0 -1.3333333 455.2159886196 520.23320739417)"/><path d="m0 0h-38.459v38.459" transform="matrix(1.3333333 0 0 -1.3333333 661.34078346648 433.0560095736)"/><path d="m0 0 30.283 30.283" transform="matrix(1.3333333 0 0 -1.3333333 613.97105131739 429.14774300464)"/></g></g></svg>