<svg height="682.667" viewBox="0 0 682.667 682.667" width="682.667" xmlns="http://www.w3.org/2000/svg"><g fill="none"><path d="m0 0h682.667v682.667h-682.667z"/><g stroke="#f62" stroke-linejoin="round" stroke-miterlimit="10" stroke-width="40"><path d="m33.079 542.585c-15.671-15.671-15.671-41.077 0-56.748l454.084-454.084c15.67-15.671 41.077-15.671 56.748 0 15.67 15.671 15.67 41.077 0 56.748l-454.084 454.084c-15.671 15.671-41.078 15.671-56.748 0z" stroke-linecap="round"/><path d="m584.25 540.505-83.417-77.867v-331.06l-56.748-56.748"/><path d="m610.063 518.178c-23.506 23.505-203.487 165.376-226.992 141.871-23.507-23.507 118.364-203.487 141.869-226.994 23.507-23.505 61.617-23.505 85.123 0 23.505 23.507 23.505 61.618 0 85.123z" stroke-linecap="round"/><path d="m455.216 520.233 19.74 19.556" stroke-linecap="round"/><path d="m661.341 433.056h-51.279v-51.279" stroke-linecap="round"/><path d="m613.971 429.148 40.377-40.378" stroke-linecap="round"/></g></g></svg>