<svg height="512" viewBox="0 0 512 512" width="512" xmlns="http://www.w3.org/2000/svg"><path d="m0 0h512v512h-512z" fill="none"/><g fill="#ff6621"><path d="m217.043-0h-200.347c-9.221 0-16.696 7.475-16.696 16.696v200.348c0 9.22 7.475 16.696 16.696 16.696h200.348c9.22 0 16.696-7.475 16.696-16.696v-200.348c-.001-9.221-7.476-16.696-16.697-16.696zm-16.695 200.348h-166.957v-166.957h166.957z"/><path d="m495.304-0h-200.347c-9.22 0-16.696 7.475-16.696 16.696v200.348c0 9.22 7.475 16.696 16.696 16.696h200.348c9.22 0 16.696-7.475 16.696-16.696v-200.348c-.001-9.221-7.476-16.696-16.697-16.696zm-16.695 200.348h-166.957v-166.957h166.957z"/><path d="m217.043 278.261h-200.347c-9.221 0-16.696 7.475-16.696 16.696v200.348c0 9.22 7.475 16.695 16.696 16.695h200.348c9.22 0 16.696-7.475 16.696-16.696v-200.347c-.001-9.221-7.476-16.696-16.697-16.696zm-16.695 200.348h-166.957v-166.957h166.957z"/><path d="m495.304 278.261h-200.347c-9.22 0-16.696 7.475-16.696 16.696v200.348c0 9.22 7.475 16.696 16.696 16.696h200.348c9.22 0 16.696-7.475 16.696-16.696v-200.348c-.001-9.221-7.476-16.696-16.697-16.696zm-16.695 200.348h-166.957v-166.957h166.957z"/></g></svg>