<svg height="682.66669" viewBox="0 0 682.66669 682.66669" width="682.66669" xmlns="http://www.w3.org/2000/svg"><g style="fill:none;stroke:#000;stroke-width:30;stroke-linecap:round;stroke-linejoin:round;stroke-miterlimit:10"><path d="m0 0-96.065 96.066c-7.811 7.811-20.475 7.811-28.286 0l-96.065-96.066c-6.3-6.299-1.838-17.07 7.071-17.07h58.137v-105c0-8.285 6.716-15 15-15h60c8.284 0 15 6.715 15 15v105h58.137c8.909-0 13.371 10.771 7.071 17.07z" transform="matrix(1.3333333 0 0 -1.3333333 488.2773211264 479.90627506901)"/><path d="m0 0c2.6 9.821 3.99 20.134 3.99 30.772 0 66.275-53.725 120-120 120-49.041 0-91.205-29.422-109.819-71.575-11.073 4.868-23.31 7.575-36.181 7.575-49.132 0-89.062-39.371-89.978-88.284-35.018-8.523-61.022-40.074-61.022-77.716 0-44.182 35.818-80 80-80h85.721l61.137 61.137c7.81 7.811 20.474 7.811 28.285 0l61.137-61.137h85.72c44.183 0 80 35.818 80 80-0 40.446-30.019 73.86-68.99 79.228z" transform="matrix(1.3333333 0 0 -1.3333333 570.67971906634 221.03001487425)"/></g></svg>