<svg height="800" viewBox="0 0 32 32" width="800" xmlns="http://www.w3.org/2000/svg"><path d="m25.079 15.102c-.015 0-.032-.001-.049-.001-.087 0-.174.005-.258.016l.01-.001c-.074.004-.136.054-.158.121v.001l-.422 1.468c-.068.187-.108.402-.108.627 0 .378.112.731.305 1.026l-.004-.007c.309.397.786.649 1.323.649h.005l2.304.142h.004c.067 0 .127.035.161.087v.001c.022.037.035.082.035.129 0 .023-.003.046-.009.068v-.002c-.04.107-.138.184-.254.194h-.001l-2.401.14c-1.447.159-2.644 1.089-3.18 2.366l-.01.026-.176.448c-.006.015-.01.032-.01.05 0 .07.057.127.127.127h.006 8.244.002c.099 0 .182-.066.208-.156v-.002c.138-.479.218-1.03.22-1.599v-.001c-.009-3.262-2.653-5.903-5.916-5.907zm-3.445 6.952c.068-.186.107-.401.107-.625 0-.379-.112-.731-.306-1.026l.004.007c-.308-.397-.785-.65-1.322-.65-.002 0-.003 0-.005 0l-10.821-.14c-.001 0-.002 0-.003 0-.068 0-.128-.035-.163-.088v-.001c-.022-.036-.036-.08-.036-.127 0-.024.003-.047.01-.069v.002c.04-.107.137-.184.253-.195h.001l10.917-.14c1.447-.16 2.643-1.09 3.182-2.366l.01-.026.624-1.626c.017-.039.027-.085.027-.133 0-.027-.003-.054-.009-.079v.002c-.735-3.203-3.561-5.555-6.936-5.555-3.109 0-5.751 1.996-6.717 4.776l-.015.05c-.528-.399-1.195-.64-1.919-.64-1.651 0-3.01 1.252-3.179 2.859l-.001.014c-.01.097-.016.21-.016.324 0 .281.035.555.1.816l-.005-.023c-2.452.071-4.413 2.076-4.413 4.539v.006c.002.234.018.463.047.687l-.003-.028c.017.104.104.182.211.184h19.971c.12-.003.22-.083.253-.192v-.002l.15-.533z"/></svg>