<svg height="682.667" viewBox="0 0 682.667 682.667" width="682.667" xmlns="http://www.w3.org/2000/svg"><g fill="none"><path d="m0 0h682.667v682.667h-682.667z"/><g stroke="#f62" stroke-linecap="round" stroke-linejoin="round" stroke-miterlimit="10" stroke-width="40"><path d="m488.277 479.906-128.086-128.088c-10.415-10.414-27.3-10.414-37.715 0l-128.087 128.088c-8.4 8.399-2.45 22.76 9.428 22.76h77.516v140c0 11.047 8.955 20 20 20h80c11.046 0 20-8.953 20-20v-140h77.516c11.879 0 17.828-14.361 9.428-22.76z"/><path d="m570.68 221.03c3.466-13.095 5.32-26.845 5.32-41.029 0-88.367-71.634-160-160-160-65.388 0-121.607 39.229-146.426 95.433-14.764-6.491-31.08-10.1-48.241-10.1-65.509 0-118.749 52.495-119.971 117.712-46.69 11.364-81.362 53.432-81.362 103.621 0 58.91 47.757 106.667 106.666 106.667h114.295l81.516-81.516c10.413-10.415 27.299-10.415 37.713 0l81.516 81.516h114.294c58.91 0 106.666-47.757 106.666-106.667 0-53.928-40.025-98.48-91.986-105.637z"/></g></g></svg>