<svg viewBox="0 0 230.795 230.795" xmlns="http://www.w3.org/2000/svg"><path d="m60.357 63.289c-2.929-2.929-7.678-2.93-10.606-.001l-47.554 47.548c-1.407 1.407-2.197 3.315-2.197 5.304s.79 3.896 2.196 5.303l47.348 47.35c1.465 1.465 3.384 2.197 5.304 2.197 1.919 0 3.839-.732 5.303-2.196 2.93-2.929 2.93-7.678.001-10.606l-42.045-42.048 42.25-42.245c2.929-2.929 2.929-7.678 0-10.606z"/><path d="m228.598 110.639-47.355-47.352c-2.928-2.928-7.677-2.929-10.606.001-2.929 2.929-2.929 7.678.001 10.607l42.051 42.048-42.249 42.243c-2.93 2.929-2.93 7.678-.001 10.606 1.465 1.465 3.384 2.197 5.304 2.197 1.919 0 3.839-.732 5.303-2.196l47.554-47.547c1.407-1.406 2.197-3.314 2.197-5.304-.002-1.988-.792-3.896-2.199-5.303z"/><path d="m155.889 61.302c-3.314-2.484-8.017-1.806-10.498 1.51l-71.994 96.184c-2.482 3.316-1.807 8.017 1.51 10.498 1.348 1.01 2.925 1.496 4.488 1.496 2.282 0 4.537-1.038 6.01-3.006l71.993-96.184c2.483-3.316 1.807-8.016-1.509-10.498z"/></svg>