<svg height="682.66669" viewBox="0 0 682.66669 682.66669" width="682.66669" xmlns="http://www.w3.org/2000/svg"><g style="fill:none;stroke:#000;stroke-width:30;stroke-linecap:round;stroke-linejoin:round;stroke-miterlimit:10"><path d="m0 0h-230.004c-16.568 0-30-13.432-30-30v-422c0-16.568 13.432-30 30-30h300c16.568 0 30 13.432 30 30v351.997z" transform="matrix(1.3333333 0 0 -1.3333333 448.00518879987 20.0000199)"/><path d="m0 0v-100h100z" transform="matrix(1.3333333 0 0 -1.3333333 447.9999888 20.0000199)"/><path d="m0 0 50 60-50 60" transform="matrix(1.3333333 0 0 -1.3333333 434.6666558 474.6666752)"/><path d="m0 0-50 60 50 60" transform="matrix(1.3333333 0 0 -1.3333333 247.9999938 474.6666752)"/><path d="m0 0 40 120" transform="matrix(1.3333333 0 0 -1.3333333 314.6666588 474.6666752)"/></g></svg>