<svg height="682.66669" viewBox="0 0 682.66669 682.66669" width="682.66669" xmlns="http://www.w3.org/2000/svg"><g style="fill:none;stroke:#000;stroke-width:30;stroke-linecap:round;stroke-linejoin:round;stroke-miterlimit:10"><path d="m0 0c17.681-4.563 34.383-11.568 49.719-20.638 0 0 7.389 7.391 15.688 15.69 6.026 6.032 14.203 9.415 22.727 9.415 8.514 0 16.693-3.383 22.718-9.415 7.31-7.311 15.408-15.408 22.718-22.719 6.033-6.025 9.415-14.203 9.415-22.718 0-8.524-3.382-16.701-9.415-22.726-8.299-8.299-15.689-15.689-15.689-15.689 9.069-15.336 16.074-32.037 20.638-49.719h22.147c17.746 0 32.134-14.388 32.134-32.133v-32.134c0-17.745-14.388-32.133-32.134-32.133h-22.147c-4.564-17.681-11.569-34.383-20.638-49.718 0 0 7.39-7.391 15.689-15.689 6.033-6.026 9.415-14.203 9.415-22.727 0-8.515-3.382-16.693-9.415-22.718-7.31-7.31-15.408-15.408-22.718-22.718-6.025-6.033-14.204-9.415-22.718-9.415-8.524 0-16.701 3.382-22.727 9.415-8.299 8.299-15.688 15.689-15.688 15.689-15.336-9.069-32.038-16.075-49.719-20.637v-22.148c0-17.746-14.388-32.134-32.134-32.134h-32.133c-17.746 0-32.133 14.388-32.133 32.134v22.148c-17.681 4.562-34.383 11.568-49.719 20.637 0 0-7.39-7.39-15.689-15.689-6.025-6.033-14.203-9.415-22.726-9.415-8.515 0-16.694 3.382-22.718 9.415-7.31 7.31-15.408 15.408-22.719 22.718-6.032 6.025-9.415 14.203-9.415 22.718 0 8.524 3.383 16.701 9.415 22.727 8.299 8.298 15.69 15.689 15.69 15.689-9.07 15.335-16.074 32.037-20.638 49.718h-22.147c-17.746 0-32.134 14.388-32.134 32.133v32.134c0 17.745 14.388 32.133 32.134 32.133h22.147c4.564 17.682 11.568 34.383 20.638 49.719 0 0-7.391 7.39-15.69 15.689-6.032 6.025-9.415 14.202-9.415 22.726 0 8.515 3.383 16.693 9.415 22.718 7.311 7.311 15.409 15.408 22.719 22.719 6.024 6.032 14.203 9.415 22.718 9.415 8.523 0 16.701-3.383 22.726-9.415 8.299-8.299 15.689-15.69 15.689-15.69 15.336 9.07 32.038 16.075 49.719 20.638v22.148c0 17.746 14.387 32.133 32.133 32.133h32.133c17.746-0 32.134-14.387 32.134-32.133z" transform="matrix(1.3333333 0 0 -1.3333333 405.60025652666 92.37508475729)"/><path d="m0 0c53.205 0 96.4-43.195 96.4-96.4 0-53.204-43.195-96.4-96.4-96.4s-96.4 43.196-96.4 96.4c0 53.205 43.195 96.4 96.4 96.4z" transform="matrix(1.3333333 0 0 -1.3333333 341.3333248 212.80014841333)"/></g></svg>