<svg height="682.66669" viewBox="0 0 682.66669 682.66669" width="682.66669" xmlns="http://www.w3.org/2000/svg"><g style="fill:none;stroke:#000;stroke-width:30;stroke-linecap:round;stroke-linejoin:round;stroke-miterlimit:10"><path d="m0 0v-160c0-22.092 17.909-40 40-40h100l40-60 40 60h100c22.092 0 40 17.908 40 40v160c0 22.092-17.908 40-40 40h-280c-22.091 0-40-17.908-40-40z" transform="matrix(1.3333333 0 0 -1.3333333 182.6666621 74.6666852)"/><path d="m0 0h-110" transform="matrix(1.3333333 0 0 -1.3333333 246.6666605 341.3333452)"/><path d="m0 0h-242" transform="matrix(1.3333333 0 0 -1.3333333 422.6666561 421.3333432)"/><path d="m0 0h-240" transform="matrix(1.3333333 0 0 -1.3333333 419.9999895 501.3333412)"/><path d="m0 0h-82c-22.091 0-40-17.908-40-40v-160c0-22.092 17.909-40 40-40h100l40-60 40 60h100c22.092 0 40 17.908 40 40v140" transform="matrix(1.3333333 0 0 -1.3333333 182.6666621 261.3333472)"/><path d="m0 0 21.631-43.83 48.369-7.028-35-34.117 8.263-48.173-43.263 22.745-43.263-22.745 8.263 48.173-35 34.117 48.369 7.028z" transform="matrix(1.3333333 0 0 -1.3333333 422.6666561 92.56775141914)"/></g></svg>