<svg height="682.667" viewBox="0 0 682.667 682.667" width="682.667" xmlns="http://www.w3.org/2000/svg"><g fill="none"><path d="m0 0h682.667v682.667h-682.667z"/><g stroke="#ff6621" stroke-linecap="round" stroke-linejoin="round" stroke-miterlimit="10" stroke-width="40"><path d="m182.667 74.667v213.333c0 29.456 23.878 53.333 53.333 53.333h133.333l53.334 80 53.333-80h133.333c29.456 0 53.334-23.877 53.334-53.333v-213.333c0-29.456-23.878-53.334-53.334-53.334h-373.333c-29.455 0-53.333 23.878-53.333 53.334z"/><path d="m246.667 341.333h-146.667"/><path d="m422.667 421.333h-322.667"/><path d="m420 501.333h-320"/><path d="m182.667 261.333h-109.334c-29.454 0-53.333 23.878-53.333 53.334v213.333c0 29.456 23.879 53.333 53.333 53.333h133.334l53.333 80 53.333-80h133.334c29.456 0 53.333-23.877 53.333-53.333v-186.667"/><path d="m422.667 92.568 28.841 58.44 64.492 9.37-46.667 45.49 11.018 64.23-57.684-30.326-57.684 30.326 11.017-64.23-46.667-45.49 64.492-9.37z"/></g></g></svg>