<svg height="682.66669" viewBox="0 0 682.66669 682.66669" width="682.66669" xmlns="http://www.w3.org/2000/svg"><g fill="none" stroke="#000" stroke-linejoin="round" stroke-miterlimit="10" stroke-width="30" transform="matrix(1.3333333 0 0 -1.3333333 0 682.66667)"><path d="m0 0h-434.083c-13.232 0-23.959 10.727-23.959 23.958v313.584c0 13.231 10.727 23.958 23.959 23.958h434.083c13.232 0 23.958-10.727 23.958-23.958v-313.584c0-13.231-10.726-23.958-23.958-23.958z" transform="translate(473.0417 105.375)"/><path d="m316.25 45.125h-120.5v60.25h120.5z"/><path d="m0 0h-190.75" stroke-linecap="round" transform="translate(351.375 45.125)"/><path d="m0 0h-482" transform="translate(497 165.625)"/><g stroke-linecap="round"><path d="m0 0 17.848-17.848 42.402 28.268" transform="translate(225.875 319.9644)"/><path d="m0 0c0-49.913-40.462-90.375-90.375-90.375s-90.375 40.462-90.375 90.375 40.462 90.375 90.375 90.375 90.375-40.462 90.375-90.375z" transform="translate(346.375 316.25)"/></g></g></svg>