<svg height="682.66669" viewBox="0 0 682.66669 682.66669" width="682.66669" xmlns="http://www.w3.org/2000/svg"><g style="fill:none;stroke:#000;stroke-width:30;stroke-linecap:round;stroke-linejoin:round;stroke-miterlimit:10" transform="matrix(1.3333333 0 0 -1.3333333 0 682.66667)"><path d="m0 0h-402v40c0 22.091 17.908 40 40 40h322c22.092 0 40-17.909 40-40z" transform="translate(417 417)"/><path d="m0 0v80" transform="translate(317 417)"/><path d="m0 0 140 242.487c8.284 14.349 26.632 19.265 40.98 10.981 14.349-8.284 19.265-26.632 10.981-40.981l-140-242.487-70.981-62.942z" transform="translate(301.0146 168.9424)"/><path d="m0 0 51.961-30" transform="translate(301.0146 168.9424)"/><path d="m0 0 51.961-30" transform="translate(426.0146 385.4487)"/><path d="m0 0 51.961-30" transform="translate(396.0146 333.4873)"/><path d="m266 216h-190v140h190z"/><path d="m0 0 60 60 60-60" transform="translate(76 216)"/><path d="m0 0h-205.995" transform="translate(281.9951 76)"/><path d="m0 0-60 80-38.571-51.429" transform="translate(266 216)"/><path d="m0 0h-220.319" transform="translate(296.3193 146)"/><path d="m0 0v47.165h-402v-362c0-22.091 17.908-40 40-40h322c22.092 0 40 17.909 40 40v194.835" transform="translate(417 369.8354)"/></g></svg>