<svg height="682.66669" viewBox="0 0 682.66669 682.66669" width="682.66669" xmlns="http://www.w3.org/2000/svg"><g style="fill:none;stroke:#000;stroke-width:30;stroke-linecap:round;stroke-linejoin:round;stroke-miterlimit:10" transform="matrix(1.3333333 0 0 -1.3333333 0 682.66667)"><path d="m0 0h420c16.568 0 30-13.432 30-30v-240c0-16.568-13.432-30-30-30h-420c-16.568 0-30 13.432-30 30v240c0 16.568 13.432 30 30 30z" transform="translate(46 315)"/><path d="m0 0-342.514-124.665" transform="translate(439.459 439.665)"/><path d="m0 0 187.606 68.283" transform="translate(272.374 315)"/><path d="m0 0-62.78 172.488c-5.667 15.57-22.882 23.597-38.451 17.93l-338.29-123.127c-15.569-5.667-23.596-22.882-17.93-38.451l7.141-19.621" transform="translate(488.5586 304.7646)"/><path d="m76 255h100v-60h-100z"/><path d="m0 0h40" transform="translate(76 135)"/><path d="m0 0h100" transform="translate(76 75)"/><path d="m0 0h40" transform="translate(176 135)"/><path d="m0 0h40" transform="translate(276 135)"/><path d="m0 0h40" transform="translate(376 135)"/></g></svg>