<svg height="682.66669" viewBox="0 0 682.66669 682.66669" width="682.66669" xmlns="http://www.w3.org/2000/svg"><g style="fill:none;stroke:#000;stroke-width:30;stroke-linecap:round;stroke-linejoin:round;stroke-miterlimit:10"><path d="m0 0h-422c-16.568 0-30 13.432-30 30v292c0 16.568 13.432 30 30 30h422c16.568 0 30-13.432 30-30v-292c0-16.568-13.432-30-30-30z" transform="matrix(1.3333333 0 0 -1.3333333 622.6666511 512.0000076)"/><path d="m0 0h-128l16 96h96z" transform="matrix(1.3333333 0 0 -1.3333333 426.666656 640.0000044)"/><path d="m0 0h192" transform="matrix(1.3333333 0 0 -1.3333333 213.333328 640.0000044)"/><path d="m0 0v-160h128" transform="matrix(1.3333333 0 0 -1.3333333 106.666664 170.6666828)"/><path d="m0 0v112" transform="matrix(1.3333333 0 0 -1.3333333 191.9999952 384.0000108)"/><path d="m0 0v64" transform="matrix(1.3333333 0 0 -1.3333333 277.3333264 384.0000108)"/><path d="m0 0c0-39.765-32.235-72-72-72s-72 32.235-72 72 32.235 72 72 72 72-32.235 72-72z" transform="matrix(1.3333333 0 0 -1.3333333 575.9999856 277.3333468)"/><path d="m0 0v-72h72" transform="matrix(1.3333333 0 0 -1.3333333 479.999988 181.3333492)"/><path d="m0 0-50.91-50.91" transform="matrix(1.3333333 0 0 -1.3333333 479.999988 277.3333468)"/><path d="m0 0v-32" transform="matrix(1.3333333 0 0 -1.3333333 341.3333248 42.666686)"/></g></svg>