<svg height="682.667" viewBox="0 0 682.667 682.667" width="682.667" xmlns="http://www.w3.org/2000/svg"><g fill="none"><path d="m0 0h682.667v682.667h-682.667z"/><g stroke="#ff6621" stroke-linecap="round" stroke-linejoin="round" stroke-miterlimit="10" stroke-width="40"><path d="m622.667 512h-562.667c-22.091 0-40-17.909-40-40v-389.333c0-22.091 17.909-40 40-40h562.667c22.09 0 40 17.909 40 40v389.333c0 22.091-17.91 40-40 40z"/><path d="m426.667 640h-170.667l21.333-128h128z"/><path d="m213.333 640h256"/><path d="m106.667 170.667v213.333h170.666"/><path d="m192 384v-149.333"/><path d="m277.333 384v-85.333"/><path d="m576 277.333c0 53.02-42.98 96-96 96s-96-42.98-96-96 42.98-96 96-96 96 42.98 96 96z"/><path d="m480 181.333v96h96"/><path d="m480 277.333-67.88 67.88"/><path d="m341.333 42.667v42.666"/></g></g></svg>