<svg viewBox="0 0 512 512" xmlns="http://www.w3.org/2000/svg"><path d="m403.995 27.498c-40.065-17.733-92.623-27.498-147.993-27.498-55.375 0-107.931 9.756-147.986 27.469-44.53 19.692-69.053 47.47-69.053 78.217 0 .242.014.482.018.723-.004.149-.022.294-.022.443l.004 304.974c0 29.476 24.488 55.911 68.954 74.439 39.829 16.596 92.421 25.735 148.09 25.735s108.26-9.139 148.089-25.735c44.465-18.528 68.843-44.964 68.843-74.439v-306.087c0-.058.104-.112.102-.17-.09-30.679-24.6-58.4-69.046-78.071zm-282.473 30.509c35.895-15.874 83.654-24.616 134.48-24.616 50.817 0 98.576 8.751 134.478 24.641 30.791 13.628 49.174 31.462 49.174 47.707s-18.383 34.079-49.174 47.707c-35.902 15.89-83.661 24.641-134.478 24.641-105.11 0-183.648-38.224-183.648-72.401-0-16.241 18.381-34.064 49.168-47.679zm318.137 353.819c0 14.682-18.096 30.987-48.406 43.617-35.853 14.938-83.885 23.166-135.246 23.166s-99.393-8.228-135.246-23.166c-30.31-12.63-48.518-28.935-48.518-43.617v-45.178c9.831 7.149 21.84 13.68 35.675 19.445 39.828 16.594 92.419 25.734 148.088 25.734s108.26-9.139 148.089-25.735c13.834-5.764 25.732-12.295 35.563-19.444v45.178zm-48.406-56.557c-35.853 14.938-83.885 23.166-135.246 23.166s-99.393-8.228-135.246-23.166c-30.31-12.63-48.406-28.935-48.406-43.617 0-.01-.112-.019-.112-.028l-.001-45.152c9.832 7.149 21.841 13.68 35.676 19.446 39.829 16.594 92.42 25.734 148.089 25.734s108.26-9.139 148.089-25.735c13.834-5.764 25.732-12.295 35.563-19.444v45.178c0 14.683-18.096 30.988-48.406 43.618zm0-100.174c-35.853 14.938-83.885 23.166-135.246 23.166s-99.393-8.228-135.246-23.166c-30.31-12.63-48.522-28.935-48.522-43.617 0-.019.001-.038.001-.057l-.001-48.105c9.853 7.559 21.895 14.488 35.769 20.635 40.072 17.751 92.632 27.527 147.995 27.527 55.369 0 107.927-9.765 147.992-27.498 13.877-6.142 25.809-13.069 35.664-20.626v48.124c0 14.682-18.096 30.987-48.406 43.617z"/></svg>