<svg height="512" viewBox="0 0 512 512" width="512" xmlns="http://www.w3.org/2000/svg"><g style="fill:none;stroke:#000;stroke-width:30;stroke-linecap:round;stroke-linejoin:round;stroke-miterlimit:10"><path d="m455.5 323.4v-228.4h-146.87l-58.78-60-19.6-20h-173.75v308.4"/><path d="m249.85 35h205.65v60h-146.87"/><path d="m400.2 382.21-41.67 11.89 22.13 42.27-41.69 41.5-40.52-23.01-13.04 42.14h-58.82l-13.04-42.14-40.52 23.01-41.69-41.5 22.13-42.27-41.67-11.89v-58.81l42.42-13.72-23.41-39.97 41.5-41.69 41.53 22.6 12.75-42.01h58.82l12.75 42.01 41.53-22.6 41.5 41.69-23.41 39.97 42.42 13.72z"/><circle cx="256" cy="353" r="50"/><path d="m455.5 323.4h-55.3"/><path d="m111.8 323.4h-55.3"/></g></svg>