<svg height="682.667" viewBox="0 0 682.667 682.667" width="682.667" xmlns="http://www.w3.org/2000/svg"><g fill="none"><path d="m0 0h682.667v682.667h-682.667z"/><g stroke="#f62" stroke-linecap="round" stroke-linejoin="round" stroke-miterlimit="10" stroke-width="40"><path d="m341.333 434.667c-51.546 0-93.333-41.787-93.333-93.334 0-51.546 41.787-93.333 93.333-93.333 51.547 0 93.334 41.787 93.334 93.333 0 51.547-41.787 93.334-93.334 93.334zm213.334-61.962v-62.744l-42.767-10.064c-4.324-17.852-11.359-34.598-20.671-49.854l23.138-37.375-44.368-44.368-37.375 23.137c-15.256-9.312-32.003-16.346-49.855-20.67l-10.064-42.767h-62.744l-10.064 42.767c-17.852 4.324-34.598 11.358-49.854 20.67l-37.375-23.137-44.368 44.368 23.137 37.375c-9.312 15.256-16.346 32.002-20.67 49.854l-42.767 10.064v62.744l42.767 10.064c4.324 17.852 11.358 34.599 20.67 49.855l-23.137 37.375 44.368 44.368 37.375-23.138c15.256 9.312 32.002 16.347 49.854 20.671l10.064 42.767h62.744l10.064-42.767c17.852-4.324 34.599-11.359 49.855-20.671l37.375 23.138 44.368-44.368-23.138-37.375c9.314-15.256 16.347-32.003 20.671-49.855z"/><path d="m473.294 108.33 74.588-13.152-13.152-74.588"/><path d="m209.373 574.337-74.588 13.152 13.152 74.588"/><path d="m547.852 95.214c-55.853-46.916-127.868-75.214-206.519-75.214-177.466 0-321.333 143.866-321.333 321.334"/><path d="m134.814 587.452c55.853 46.918 127.868 75.215 206.52 75.215 177.467 0 321.333-143.867 321.333-321.333"/></g></g></svg>