<svg height="512" viewBox="0 0 512 512" width="512" xmlns="http://www.w3.org/2000/svg"><g style="fill:none;stroke:#000;stroke-width:30;stroke-linecap:round;stroke-linejoin:round;stroke-miterlimit:10"><path d="m94.267 360.931c-12.926-19.867-22.292-42.272-27.186-66.291l-52.081-6.507v-64.267l52.081-6.507c5.002-24.542 14.67-47.389 28.036-67.584l-32.251-41.468 45.443-45.444 41.466 32.254c20.189-13.367 43.04-23.032 67.581-28.036l6.51-52.08h64.267l6.51 52.08c24.539 5.005 47.389 14.669 67.581 28.036l41.466-32.254 45.443 45.444-32.251 41.468c13.367 20.188 23.036 43.043 28.036 67.584l52.082 6.508v64.267l-52.081 6.507c-5.002 24.542-14.67 47.389-28.036 67.584l32.251 41.468-45.443 45.444-41.466-32.254c-20.189 13.367-43.04 23.032-67.581 28.036l-6.51 52.08h-64.267l-6.51-52.08c-24.016-4.9-46.415-14.259-66.285-27.185"/><path d="m358.695 210.114c6.279 14.01 9.772 29.547 9.772 45.886 0 62.073-50.395 112.467-112.467 112.467-16.344 0-31.878-3.494-45.89-9.769l-138.305 138.302-56.805-56.804 138.306-138.31c-6.279-14.01-9.773-29.547-9.773-45.886 0-62.073 50.395-112.467 112.467-112.467 16.342 0 31.875 3.494 45.89 9.769l-73.961 73.963 12.004 44.802 44.8 12.002z"/></g></svg>