<svg height="682.66669" viewBox="0 0 682.66669 682.66669" width="682.66669" xmlns="http://www.w3.org/2000/svg"><g style="fill:none;stroke:#000;stroke-width:30;stroke-linecap:round;stroke-linejoin:round;stroke-miterlimit:10"><path d="m0 0c-38.66 0-70 31.34-70 70s31.34 70 70 70 70-31.34 70-70-31.34-70-70-70zm160 46.471v47.058l-32.075 7.548c-3.243 13.389-8.519 25.949-15.503 37.391l17.353 28.031-33.276 33.276-28.031-17.353c-11.442 6.984-24.002 12.26-37.391 15.503l-7.548 32.075h-47.058l-7.548-32.075c-13.389-3.243-25.949-8.519-37.391-15.503l-28.031 17.353-33.276-33.276 17.353-28.031c-6.984-11.442-12.26-24.002-15.503-37.391l-32.075-7.548v-47.058l32.075-7.548c3.243-13.389 8.519-25.949 15.503-37.391l-17.353-28.031 33.276-33.276 28.031 17.353c11.442-6.984 24.002-12.26 37.391-15.503l7.548-32.075h47.058l7.548 32.075c13.389 3.243 25.949 8.519 37.391 15.503l28.031-17.353 33.276 33.276-17.353 28.031c6.985 11.442 12.26 24.002 15.503 37.391z" transform="matrix(1.3333333 0 0 -1.3333333 341.3333248 434.6666762)"/><path d="m0 0 55.941 9.864-9.864 55.941" transform="matrix(1.3333333 0 0 -1.3333333 473.29412150098 108.32975102509)"/><path d="m0 0-55.941-9.864 9.864-55.941" transform="matrix(1.3333333 0 0 -1.3333333 209.37252809902 574.33693937491)"/><path d="m0 0c-41.89 35.187-95.901 56.41-154.889 56.41-133.1 0-241-107.899-241-241" transform="matrix(1.3333333 0 0 -1.3333333 547.85185297037 95.21361801966)"/><path d="m0 0c41.89-35.188 95.901-56.411 154.89-56.411 133.1 0 241 107.9 241 241" transform="matrix(1.3333333 0 0 -1.3333333 134.81399662965 587.45227238036)"/></g></svg>