<svg height="682.66669" viewBox="0 0 682.66669 682.66669" width="682.66669" xmlns="http://www.w3.org/2000/svg"><g style="fill:none;stroke:#000;stroke-width:30;stroke-linecap:round;stroke-linejoin:round;stroke-miterlimit:10"><path d="m0 0c-27.105-.512-52.921 5.651-75.94 17.42l-88.26-17.45 17.45 87.259c-11.16 21.831-17.45 46.55-17.45 72.741 0 88.37 72.63 160 161 160 77.42 0 141.99-54.981 156.8-128.031" transform="matrix(1.3333333 0 0 -1.3333333 238.93359402666 469.29294200101)"/><path d="m0 0c0-88.37 71.63-160 160-160 26.189 0 50.91 6.29 72.74 17.45l88.26-17.45-17.45 87.26c11.16 21.83 17.45 46.551 17.45 72.74 0 88.37-72.63 160-161 160s-160-71.63-160-160z" transform="matrix(1.3333333 0 0 -1.3333333 234.6666608 426.6666764)"/></g></svg>