<svg height="682.66669" viewBox="0 0 682.66669 682.66669" width="682.66669" xmlns="http://www.w3.org/2000/svg"><g style="fill:none;stroke:#000;stroke-width:30;stroke-linecap:round;stroke-linejoin:round;stroke-miterlimit:10"><path d="m0 0h-220c-22.092 0-40-17.908-40-40v-320c0-22.092 17.908-40 40-40h320c22.092 0 40 17.908 40 40v220" transform="matrix(1.3333333 0 0 -1.3333333 366.6666575 129.3333505)"/><path d="m0 0-226.274-226.273-70.711-14.143 14.142 70.711 226.274 226.274c7.81 7.81 20.474 7.81 28.284 0l28.285-28.285c7.81-7.81 7.81-20.473 0-28.284z" transform="matrix(1.3333333 0 0 -1.3333333 654.85678362858 103.23575115244)"/><path d="m0 0 56.568-56.568" transform="matrix(1.3333333 0 0 -1.3333333 541.71878645703 65.52348542858)"/></g></svg>