<svg height="682.66669" viewBox="0 0 682.66669 682.66669" width="682.66669" xmlns="http://www.w3.org/2000/svg"><g style="fill:none;stroke:#000;stroke-width:30;stroke-linecap:round;stroke-linejoin:round;stroke-miterlimit:10" transform="matrix(1.3333333 0 0 -1.3333333 0 682.66667)"><path d="m0 0c-44.183 0-80-35.817-80-80h160c0 44.183-35.817 80-80 80z" transform="translate(95 95)"/><path d="m0 0c-44.183 0-80-35.817-80-80h160c0 44.183-35.817 80-80 80z" transform="translate(417 95)"/><path d="m0 0c0-22.091-17.909-40-40-40s-40 17.909-40 40 17.909 40 40 40 40-17.909 40-40z" transform="translate(135 135)"/><path d="m0 0c0-22.091-17.908-40-40-40s-40 17.909-40 40 17.908 40 40 40 40-17.909 40-40z" transform="translate(457 135)"/><path d="m396 317h-280v180h280z"/><path d="m0 0 130-100h20l130 100" transform="translate(116 497)"/><path d="m0 0-40 40 40 40" transform="translate(196 177)"/><path d="m0 0h-200" transform="translate(356 217)"/><path d="m0 0 40 40-40 40" transform="translate(316 177)"/><path d="m0 0 118.481 88.86" transform="translate(116 317)"/><path d="m0 0 118.48-88.86" transform="translate(277.5195 405.8604)"/></g></svg>