<svg height="512.001" viewBox="0 0 512.001 512.001" width="512.001" xmlns="http://www.w3.org/2000/svg"><path d="m0 0h512.001v512.001h-512.001z" fill="none"/><path d="m497.001 289.2h-196.166c40.283-29 66.564-76.285 66.564-129.6 0-88.004-71.596-159.6-159.6-159.6s-159.6 71.596-159.6 159.6c0 62.141 35.7 116.094 87.665 142.442-79.232 29.33-135.863 105.652-135.863 194.959 0 8.284 6.716 15 15 15h192.799 289.201c8.284 0 15-6.716 15-15v-192.801c-.001-8.284-6.716-15-15-15zm-47.729 30-96.872 63.468-96.871-63.468zm-256.472 162.801h-162.172c7.225-86.102 76.072-154.934 162.172-162.161zm-114.601-322.4c0-71.462 58.138-129.6 129.6-129.6s129.6 58.138 129.6 129.6-58.138 129.6-129.6 129.6-129.6-58.139-129.6-129.6zm403.802 322.4h-259.201v-148.378l121.379 79.524c2.497 1.636 5.358 2.453 8.221 2.453 2.861 0 5.725-.818 8.221-2.453l121.38-79.524z" fill="#f62"/></svg>