<svg height="512" viewBox="0 0 512 512" width="512" xmlns="http://www.w3.org/2000/svg"><path d="m0 0h512v512h-512z" fill="none"/><g fill="#f62"><path d="m506.668 246.465c-.891-.906-54.297-54.309-55.668-55.68v-135.785c0-30.328-24.672-55-55-55h-280c-30.328 0-55 24.672-55 55v135.785c-59.621 59.621-60 57.516-60 66.215v210c0 24.812 20.188 45 45 45h420c24.812 0 45-20.188 45-45v-210c0-3.855-1.539-7.711-4.332-10.535zm-35.992 6.426-19.676 9.839v-29.515zm-354.676-222.891h280c13.785 0 25 11.215 25 25v222.73l-120 60c0-5.738 0-131.589 0-140.73 0-8.285-6.715-15-15-15h-150c-8.285 0-15 6.715-15 15v95.73l-30-15c0-5.191 0-203.8 0-222.73 0-13.785 11.215-25 25-25zm155 257.973-66.68-44.453c-4.48-2.985-10.215-3.344-15.027-.938l-38.293 19.148v-49.73h120zm-120 7.297 43.922-21.961 76.078 50.718v28.703l-15 7.5-105-52.5zm-90-32.54-19.676-9.839 19.676-19.676zm405 219.27h-420c-8.27 0-15-6.73-15-15v-185.73l218.293 109.148c4.223 2.109 9.191 2.109 13.414 0l218.293-109.148v185.73c0 8.27-6.73 15-15 15zm0 0"/><path d="m196 91h120c8.285 0 15-6.715 15-15s-6.715-15-15-15h-120c-8.285 0-15 6.715-15 15s6.715 15 15 15zm0 0"/><path d="m136 151h240c8.285 0 15-6.715 15-15s-6.715-15-15-15h-240c-8.285 0-15 6.715-15 15s6.715 15 15 15zm0 0"/><path d="m376 181h-30c-8.285 0-15 6.715-15 15s6.715 15 15 15h30c8.285 0 15-6.715 15-15s-6.715-15-15-15zm0 0"/><path d="m376 241h-30c-8.285 0-15 6.715-15 15s6.715 15 15 15h30c8.285 0 15-6.715 15-15s-6.715-15-15-15zm0 0"/></g></svg>