<svg height="512" viewBox="0 0 512 512" width="512" xmlns="http://www.w3.org/2000/svg"><path d="m0 0h512v512h-512z" fill="none"/><g fill="#f62"><path d="m341.645 117.809h30.964c8.286 0 15-6.715 15-15 0-8.286-6.714-15-15-15h-30.964c-8.286 0-15 6.714-15 15 0 8.285 6.714 15 15 15zm0 0"/><path d="m480.016 175.926h15.949c8.285 0 15-6.719 15-15 0-8.285-6.715-15-15-15h-15.949c-8.286 0-15 6.715-15 15 0 8.281 6.714 15 15 15zm0 0"/><path d="m511.992 243.223c-.058-8.118-6.875-14.887-14.992-14.887h-204.547v-53.395h128.742c8.282 0 15-6.718 15-15 0-8.285-6.718-15-15-15h-128.742v-82.941c0-8.16-6.844-15-15-15h-262.453c-8.156 0-15 6.84-15 15v206.457c0 8.285 6.715 15 15 15h204.547v82.547h-124.746c-8.285 0-15 6.719-15 15 0 8.285 6.715 15 15 15h124.746v53.789c0 8.281 6.715 15 15 15h262.453c8.285 0 15-6.719 15-15v-206.457c0-.039-.004-.074-.008-.113zm-58.32 15.113-87.899 69.144-87.898-69.144zm-219.547-181.336-87.898 69.145-87.899-69.145zm-204.125 176.457v-160.574l106.953 84.137c2.723 2.136 6 3.207 9.274 3.207 3.277 0 6.554-1.071 9.277-3.207l106.953-84.137v52.058h-.703c-8.285 0-15 6.715-15 15 0 8.282 6.715 15 15 15h.703v53.395h-27.91c-8.156 0-15 6.84-15 15v10.121zm219.547 181.336v-38.789h.465c8.285 0 15-6.715 15-15 0-8.281-6.715-15-15-15h-.465v-91.785l106.953 84.133c2.719 2.14 5.996 3.21 9.273 3.21 3.278 0 6.551-1.07 9.274-3.21l106.953-84.133v160.574zm0 0"/><path d="m35.816 366.004h-20.816c-8.285 0-15 6.719-15 15 0 8.285 6.715 15 15 15h20.816c8.286 0 15-6.715 15-15 0-8.281-6.714-15-15-15zm0 0"/><path d="m179.949 424.477h-36.832c-8.285 0-15 6.714-15 15 0 8.285 6.715 15 15 15h36.832c8.285 0 15-6.715 15-15 0-8.286-6.715-15-15-15zm0 0"/></g></svg>