<svg height="513" viewBox="0 0 513 513" width="513" xmlns="http://www.w3.org/2000/svg"><path d="m0 0h513v513h-513z" fill="none"/><g fill="#fff"><path d="m139.119 358.928c7.049 4.018 4.962 1.362 7.637 6.668 1.337 4.887-1.538 9.93-6.424 11.273l-85.187 23.346c-4.887 1.344-9.93-1.531-11.267-6.417-1.344-4.881 1.531-9.93 6.417-11.267l85.187-23.353z"/><path d="m121.847 294.288c7.03 4.056 4.955 1.387 7.599 6.712 1.312 4.893-1.594 9.923-6.487 11.229l-109.952 29.464c-4.893 1.313-9.923-1.593-11.229-6.486-1.312-4.887 1.587-9.917 6.48-11.23l109.958-29.464z"/><path d="m104.493 229.635c7.043 4.025 4.956 1.369 7.624 6.681 1.331 4.886-1.556 9.929-6.443 11.254l-55.66 15.154c-4.886 1.331-9.923-1.55-11.254-6.436-1.331-4.887 1.55-9.93 6.436-11.261l55.66-15.154z"/><path d="m397.68 44.589c17.141.387 28.326 9.017 34.294 24.752l77.557 289.45c4.781 17.853-5.805 36.206-23.665 40.981l-251.849 67.489c-17.853 4.787-36.2-5.811-40.987-23.665l-77.557-289.449c-4.787-17.853 5.812-36.201 23.659-40.987l251.855-67.484zm-9.999 294.311-5.305.337-88.193 23.622c-7.143 1.918-11.38 9.261-9.467 16.403l5.211 19.441c1.913 7.143 9.255 11.38 16.392 9.467l88.198-23.633c7.143-1.919 11.38-9.255 9.468-16.392l-5.212-19.447c-3.862-7.767-.831-3.874-11.092-9.798zm52.742-65.609-171.942 46.074 3.068 11.461 171.948-46.074zm-209.974-22.059-21.39 37.251-18.448-10.717-4.936 8.598 22.734 13.204 4.293 2.494 2.468-4.306 23.853-41.55zm196.538-28.089-171.948 46.068 3.075 11.467 171.942-46.075zm-209.274-19.429-21.384 37.251-18.447-10.717-4.943 8.605 22.74 13.198 4.287 2.487 2.475-4.293 23.852-41.55zm196.22-29.289-171.942 46.068 3.068 11.467 171.943-46.074zm-32.207-85.487-3.375.525-145.165 38.901c-8.986 2.405-13.954 12.191-11.411 21.69l4.137 15.441c2.55 9.505 11.736 15.492 20.735 13.086l145.165-38.9c8.998-2.413 13.966-12.199 11.417-21.703l-4.137-15.435c-3.006-8.124-8.424-13.148-17.366-13.605zm1.912 9.499c5.899 4.049 4.112 1.581 6.405 6.53l4.131 15.442c1.262 4.705-1.019 9.211-4.781 10.223l-145.177 38.894c-3.762 1.006-7.993-1.75-9.255-6.455l-4.137-15.442c-1.256-4.705 1.031-9.211 4.793-10.217l145.165-38.9z"/></g></svg>