<svg height="682.66669" viewBox="0 0 682.66669 682.66669" width="682.66669" xmlns="http://www.w3.org/2000/svg"><g style="fill:none;stroke:#000;stroke-width:30;stroke-linecap:round;stroke-linejoin:round;stroke-miterlimit:10"><path d="m0 0h-422c-16.568 0-30 13.432-30 30v150c0 16.568 13.432 30 30 30h422c16.568 0 30-13.432 30-30v-150c0-16.568-13.432-30-30-30z" transform="matrix(1.3333333 0 0 -1.3333333 622.6666511 481.3333417)"/><path d="m0 0v-330" transform="matrix(1.3333333 0 0 -1.3333333 515.9999871 121.3333507)"/><path d="m0 0h80" transform="matrix(1.3333333 0 0 -1.3333333 462.6666551 121.3333507)"/><path d="m0 0h80" transform="matrix(1.3333333 0 0 -1.3333333 462.6666551 561.3333397)"/></g></svg>