<svg height="682.66669" viewBox="0 0 682.66669 682.66669" width="682.66669" xmlns="http://www.w3.org/2000/svg"><g style="fill:none;stroke:#000;stroke-width:30;stroke-linecap:round;stroke-linejoin:round;stroke-miterlimit:10"><path d="m0 0h-196.35c-17.576 0-31.825 14.249-31.825 31.825 0 5.363 1.356 10.639 3.94 15.338l96.422 175.313c5.945 10.808 17.302 17.524 29.638 17.524s23.694-6.716 29.639-17.524l96.422-175.313c2.584-4.699 3.939-9.975 3.939-15.338 0-17.576-14.249-31.825-31.825-31.825z" transform="matrix(1.3333333 0 0 -1.3333333 472.23305486084 662.6666705)"/><path d="m0 0h244.333c16.568 0 30-13.432 30-30v-30" transform="matrix(1.3333333 0 0 -1.3333333 296.8893259111 60.0000189)"/><path d="m0 0h137.1c16.568 0 30 13.432 30 30v220h-241l-41.428 74.569c-5.291 9.524-15.329 15.431-26.225 15.431h-143.347c-16.569 0-30-13.432-30-30v-280c0-16.568 13.431-30 30-30h137.099" transform="matrix(1.3333333 0 0 -1.3333333 439.86718900332 473.3333419)"/><path d="m0 0v70" transform="matrix(1.3333333 0 0 -1.3333333 341.3333248 529.3333405)"/></g><path d="m0 0c0-8.284-6.716-15-15-15s-15 6.716-15 15 6.716 15 15 15 15-6.716 15-15" transform="matrix(1.3333333 0 0 -1.3333333 361.3333243 596.0000055)"/></svg>