<svg height="512" viewBox="0 0 512 512" width="512" xmlns="http://www.w3.org/2000/svg"><g fill="none"><path d="m0 0h512v512h-512z"/><g stroke="#ff6623" stroke-linecap="round" stroke-linejoin="round" stroke-miterlimit="10" stroke-width="30"><path d="m461.583 213.094c-5.425-26.129-15.779-50.421-29.929-72.006l.054-.118 15.917-34.169-42.425-42.427-34.17 15.918-.12.054c-21.586-14.15-45.877-24.503-72.005-29.929l-12.905-35.417h-60l-12.906 35.417c-26.128 5.425-50.419 15.779-72.005 29.929l-.12-.054-34.169-15.918-42.426 42.426 15.917 34.169.054.118c-14.15 21.586-24.503 45.878-29.929 72.006l-35.416 12.907v60l35.417 12.906c5.426 26.129 15.779 50.42 29.929 72.006l-.054.119-15.918 34.169 42.426 42.426 34.169-15.917.119-.054c21.586 14.15 45.877 24.503 72.006 29.929l12.906 35.416h60l12.906-35.417c26.129-5.426 50.42-15.779 72.006-29.929l.119.054 34.169 15.917 42.426-42.426-15.917-34.169-.054-.119c14.15-21.586 24.503-45.877 29.929-72.006l35.416-12.905v-60z"/><path d="m406 256c0 82.843-67.157 150-150 150s-150-67.157-150-150 67.157-150 150-150 150 67.157 150 150z"/><path d="m316 286 30-30-30-30"/><path d="m196 286-30-30 30-30"/><path d="m236 336 40-160"/></g></g></svg>