<svg height="682.66669" viewBox="0 0 682.66669 682.66669" width="682.66669" xmlns="http://www.w3.org/2000/svg"><g style="fill:none;stroke:#000;stroke-width:30;stroke-linecap:round;stroke-linejoin:round;stroke-miterlimit:10"><path d="m0 0-241 80.333 241 80.333 241-80.333z" transform="matrix(1.3333333 0 0 -1.3333333 341.3333248 277.06641347334)"/><path d="m0 0v-144.601c79.872-79.861 209.349-79.861 289.2 0v144.601l-144.6-48.2z" transform="matrix(1.3333333 0 0 -1.3333333 148.53319628667 212.79948174668)"/><path d="m0 0v-209.937" transform="matrix(1.3333333 0 0 -1.3333333 619.82225117111 189.95054898457)"/><path d="m0 0c0 17.747-14.38 32.133-32.133 32.133-17.734 0-32.134-14.386-32.134-32.133v-80.333h64.267z" transform="matrix(1.3333333 0 0 -1.3333333 662.6666501 512.71094091556)"/></g></svg>