<svg height="682.66669" viewBox="0 0 682.66669 682.66669" width="682.66669" xmlns="http://www.w3.org/2000/svg" xmlns:xlink="http://www.w3.org/1999/xlink"><mask id="a"><rect fill="#fff" height="100%" width="100%"/></mask><g fill="none" mask="url(#a)" stroke="#000" stroke-miterlimit="10" stroke-width="30"><path d="m0 0c-.411 3.917-2.427 7.489-5.565 9.867l-35.831 27.9c-.892.674-1.269 1.835-.945 2.905l13.401 44.217c1.142 3.77.673 7.843-1.295 11.256-1.969 3.41-5.263 5.853-9.098 6.749l-44.997 10.505c-1.09.255-1.905 1.161-2.044 2.271l-5.744 45.846c-.489 3.908-2.574 7.439-5.761 9.753-3.185 2.316-7.188 3.21-11.056 2.466l-45.378-8.704c-1.099-.21-2.212.285-2.791 1.243l-23.898 39.545c-3.608 5.97-11.311 8.827-18.692 5.413-.155-.071-.303-.158-.442-.255l-39.112-27.244c-.918-.639-2.137-.639-3.055 0l-37.914 26.408c-3.233 2.25-7.253 3.062-11.103 2.244-3.853-.819-7.194-3.196-9.231-6.568l-23.893-39.546c-.579-.958-1.693-1.453-2.791-1.243l-45.379 8.704c-3.867.741-7.87-.151-11.056-2.466-3.185-2.315-5.271-5.844-5.761-9.752l-5.743-45.847c-.139-1.109-.955-2.016-2.045-2.271l-46.483-10.853c-.171-.056-.343-.112-.514-.168-7.409-3.24-10.407-10.837-8.393-17.486l13.398-44.219c.325-1.07-.052-2.23-.943-2.905l-37.028-28.805c-.133-.121-.268-.243-.402-.363-5.464-5.968-5.124-14.142-.571-19.404l29.223-34.946c.733-.846.86-2.059.32-3.038l-23.03-41.79c-.072-.163-.144-.327-.216-.491-2.566-7.666 1.071-14.998 7.371-17.955l41.825-19.63c1.013-.476 1.622-1.531 1.527-2.646l-3.913-46.04c-.334-3.924.972-7.811 3.609-10.738 2.633-2.927 6.364-4.632 10.3-4.711l46.199-.921c1.118-.022 2.104-.738 2.47-1.796l15.151-43.648c1.29-3.721 4.063-6.742 7.661-8.343 3.599-1.604 7.699-1.643 11.329-.114l42.579 17.948c1.031.435 2.224.181 2.988-.635l32.625-34.814c.135-.12.27-.242.405-.363 6.508-4.81 14.595-3.612 19.352 1.462l31.595 33.714c.765.817 1.958 1.071 2.988.636l42.576-17.948c3.629-1.528 7.73-1.487 11.327.114 3.598 1.601 6.373 4.62 7.664 8.342l15.151 43.649c.367 1.058 1.352 1.774 2.472 1.796l47.704.951c.178.02.358.038.537.058 7.926 1.616 12.452 8.429 11.863 15.361l-3.913 46.04c-.095 1.115.515 2.17 1.527 2.646l41.829 19.63c3.567 1.673 6.279 4.749 7.496 8.493 1.216 3.744.829 7.827-1.073 11.277l-22.301 40.467c-.541.979-.413 2.191.319 3.038l29.227 34.946c2.576 2.977 3.802 6.89 3.392 10.806z" transform="matrix(1.3333333 0 0 -1.3333333 662.36585010752 304.11854613037)"/><path d="m0 0c0-62.081-50.327-112.408-112.408-112.408-62.082 0-112.409 50.327-112.409 112.408s50.327 112.408 112.409 112.408c62.081 0 112.408-50.327 112.408-112.408z" transform="matrix(1.3333333 0 0 -1.3333333 493.333321 341.3333452)"/><g stroke-linecap="round"><path d="m0 0-69.786-69.786" transform="matrix(1.3333333 0 0 -1.3333333 406.42452317272 302.73054616507)"/><path d="m0 0 26.667-26.668" transform="matrix(1.3333333 0 0 -1.3333333 277.82025972116 360.2213447278)"/></g></g></svg>