<svg height="511" viewBox="0 0 511 511" width="511" xmlns="http://www.w3.org/2000/svg"><path d="m0 0h511v511h-511z" fill="none"/><g fill="#f62"><path d="m435.5 59.883h-35.148c-49.34 0-98.27-20.593-134.247-56.495-5.855-5.848-15.355-5.848-21.21 0-35.977 35.902-84.907 56.495-134.247 56.495h-35.148c-8.285 0-15 6.702-15 14.971v179.648c0 59.926 18.828 110.546 57.555 154.752 32.453 37.045 73.367 62.838 106.242 83.563 8.16 5.143 15.867 10 22.883 14.671 2.519 1.676 5.422 2.514 8.32 2.514s5.801-.838 8.32-2.514c6.793-4.519 14.36-9.279 22.368-14.316 65.433-41.162 164.312-103.364 164.312-238.67v-179.648c0-8.269-6.715-14.971-15-14.971zm-15 194.619c0 118.787-86.875 173.434-150.309 213.337-5.082 3.201-9.992 6.284-14.687 9.302-4.863-3.131-9.934-6.328-15.188-9.637-63.226-39.864-149.816-94.452-149.816-213.002v-164.678h20.148c52.508 0 104.528-20.015 144.852-55.348 40.324 35.333 92.344 55.348 144.852 55.348h20.148zm0 0"/><path d="m255.5 119.766c-74.438 0-135 60.44-135 134.736 0 74.292 60.562 134.737 135 134.737s135-60.445 135-134.737c0-74.296-60.559-134.736-135-134.736zm0 239.531c-57.898 0-105-47.009-105-104.795 0-57.785 47.102-104.795 105-104.795s105 47.01 105 104.795c0 57.786-47.102 104.795-105 104.795zm0 0"/><path d="m304.895 213.976-64.395 64.265-34.395-34.324c-5.855-5.848-15.355-5.848-21.21 0-5.86 5.844-5.86 15.326 0 21.17l45 44.912c2.925 2.924 6.765 4.386 10.605 4.386s7.68-1.462 10.605-4.386l75-74.853c5.86-5.848 5.86-15.326 0-21.174-5.855-5.844-15.355-5.844-21.21.004zm0 0"/></g></svg>