<svg height="682.66669" viewBox="0 0 682.66669 682.66669" width="682.66669" xmlns="http://www.w3.org/2000/svg"><g style="fill:none;stroke:#000;stroke-width:30;stroke-linecap:round;stroke-linejoin:round;stroke-miterlimit:10"><path d="m0 0c0-33.137-26.863-60-60-60s-60 26.863-60 60 26.863 60 60 60 60-26.863 60-60z" transform="matrix(1.3333333 0 0 -1.3333333 421.3333228 341.3333452)"/><path d="m0 0-90-90h180z" transform="matrix(1.3333333 0 0 -1.3333333 341.3333248 20.0000199)"/><path d="m0 0 90-90 90 90z" transform="matrix(1.3333333 0 0 -1.3333333 221.3333278 542.6666735)"/><path d="m0 0v-180l90 90z" transform="matrix(1.3333333 0 0 -1.3333333 542.6666531 221.3333482)"/><path d="m0 0 90-90v180z" transform="matrix(1.3333333 0 0 -1.3333333 19.9999995 341.3333452)"/></g></svg>