<svg height="682.66669" viewBox="0 0 682.66669 682.66669" width="682.66669" xmlns="http://www.w3.org/2000/svg"><g style="fill:none;stroke:#000;stroke-width:30;stroke-linecap:round;stroke-linejoin:round;stroke-miterlimit:10"><path d="m0 0h-240c-44.183 0-80-35.817-80-80v-80h400v80c0 44.183-35.817 80-80 80z" transform="matrix(1.3333333 0 0 -1.3333333 501.3333208 449.3333425)"/><path d="m0 0v-80l-30-80" transform="matrix(1.3333333 0 0 -1.3333333 501.3333208 449.3333425)"/><path d="m0 0-30 80v80" transform="matrix(1.3333333 0 0 -1.3333333 221.3333278 662.6666705)"/><path d="m0 0h-50l-10 60h70z" transform="matrix(1.3333333 0 0 -1.3333333 374.6666573 529.3333405)"/><path d="m0 0h-100l25 100h50z" transform="matrix(1.3333333 0 0 -1.3333333 407.9999898 662.6666705)"/><path d="m0 0c0-22.091-17.908-40-40-40s-40 17.909-40 40 17.908 40 40 40 40-17.909 40-40z" transform="matrix(1.3333333 0 0 -1.3333333 301.3333258 313.3333459)"/><path d="m0 0c0-22.091-17.908-40-40-40s-40 17.909-40 40 17.908 40 40 40 40-17.909 40-40z" transform="matrix(1.3333333 0 0 -1.3333333 487.9999878 313.3333459)"/><path d="m0 0h71.096" transform="matrix(1.3333333 0 0 -1.3333333 293.93612598493 286.6666799)"/><path d="m0 0h340" transform="matrix(1.3333333 0 0 -1.3333333 114.6666638 180.0000159)"/><path d="m0 0v80c0 22.091 17.908 40 40 40h120c22.092 0 40-17.909 40-40v-80" transform="matrix(1.3333333 0 0 -1.3333333 207.9999948 180.0000159)"/><path d="m0 0h200" transform="matrix(1.3333333 0 0 -1.3333333 207.9999948 100.0000179)"/></g></svg>