<svg height="682.66669" viewBox="0 0 682.66669 682.66669" width="682.66669" xmlns="http://www.w3.org/2000/svg"><g style="fill:none;stroke:#000;stroke-width:30;stroke-linecap:round;stroke-linejoin:round;stroke-miterlimit:10"><path d="m0 0h-330" transform="matrix(1.3333333 0 0 -1.3333333 561.3333193 20.0000199)"/><path d="m0 0h330" transform="matrix(1.3333333 0 0 -1.3333333 121.3333303 662.6666705)"/><path d="m0 0c-11.93-2.616-26.286-4.702-41.732-4.702-41.421 0-75 15-75 15s-33.579 15-75 15c-19.871 0-37.937-3.452-51.357-7.044" transform="matrix(1.3333333 0 0 -1.3333333 496.97585424227 175.06414935673)"/><path d="m0 0c-19.001 15.923-30.556 36.949-30.556 60 0 113.137 270 247.863 270 361 0 23.051-11.554 45.077-30.555 61" transform="matrix(1.3333333 0 0 -1.3333333 202.07426161481 662.6666705)"/><path d="m0 0-.498.071" transform="matrix(1.3333333 0 0 -1.3333333 202.73759493156 662.76107049764)"/><path d="m0 0c-7.248 50.919-73.947 91.071-103.947 91.071s-96.699-40.152-103.947-91.071" transform="matrix(1.3333333 0 0 -1.3333333 479.92905466844 662.76107049764)"/><path d="m0 0-.498-.071" transform="matrix(1.3333333 0 0 -1.3333333 480.59238798519 662.6666705)"/><path d="m0 0c-19.001-15.923-30.556-37.949-30.556-61 0-113.137 270-247.863 270-361 0-23.051-11.554-44.077-30.555-60" transform="matrix(1.3333333 0 0 -1.3333333 202.07426161481 20.0000199)"/><path d="m0 0v-60" transform="matrix(1.3333333 0 0 -1.3333333 341.3333248 341.3333452)"/><path d="m0 0v-30" transform="matrix(1.3333333 0 0 -1.3333333 341.3333248 501.3333412)"/></g></svg>