<svg viewBox="0 0 512 512" xmlns="http://www.w3.org/2000/svg"><path d="m111.4 0h-96.4c-8.284 0-15 6.716-15 15v96.4c0 8.284 6.716 15 15 15h96.4c8.284 0 15-6.716 15-15v-96.4c0-8.284-6.715-15-15-15zm-15 96.4h-66.4v-66.4h66.4z"/><path d="m111.4 192.8h-96.4c-8.284 0-15 6.716-15 15v96.401c0 8.284 6.716 15 15 15h96.4c8.284 0 15-6.716 15-15v-96.401c0-8.284-6.715-15-15-15zm-15 96.401h-66.4v-66.401h66.4z"/><path d="m111.4 385.602h-96.4c-8.284 0-15 6.716-15 15v96.398c0 8.284 6.716 15 15 15h96.4c8.284 0 15-6.716 15-15v-96.398c0-8.285-6.715-15-15-15zm-15 96.398h-66.4v-66.398h66.4z"/><path d="m497 48.2h-289.2c-8.284 0-15 6.716-15 15s6.716 15 15 15h289.2c8.284 0 15-6.716 15-15s-6.716-15-15-15z"/><path d="m497 433.801h-289.2c-8.284 0-15 6.716-15 15s6.716 15 15 15h289.2c8.284 0 15-6.716 15-15s-6.716-15-15-15z"/><path d="m497 241h-289.2c-8.284 0-15 6.716-15 15s6.716 15 15 15h289.2c8.284 0 15-6.716 15-15s-6.716-15-15-15z"/></svg>