<svg viewBox="0 0 330 330" xmlns="http://www.w3.org/2000/svg"><path d="m75 60h240c8.284 0 15-6.716 15-15s-6.716-15-15-15h-240c-8.284 0-15 6.716-15 15s6.716 15 15 15z"/><path d="m315 150h-240c-8.284 0-15 6.716-15 15s6.716 15 15 15h240c8.284 0 15-6.716 15-15s-6.716-15-15-15z"/><path d="m315 270h-240c-8.284 0-15 6.716-15 15s6.716 15 15 15h240c8.284 0 15-6.716 15-15s-6.716-15-15-15z"/><path d="m15 30c-3.95 0-7.81 1.6-10.61 4.39-2.79 2.799-4.39 6.66-4.39 10.61s1.6 7.81 4.39 10.609c2.8 2.79 6.66 4.391 10.61 4.391s7.81-1.601 10.61-4.391c2.79-2.799 4.39-6.659 4.39-10.609s-1.6-7.811-4.39-10.61c-2.8-2.79-6.66-4.39-10.61-4.39z"/><path d="m15 150c-3.95 0-7.81 1.6-10.61 4.39-2.79 2.79-4.39 6.66-4.39 10.61s1.6 7.81 4.39 10.609c2.8 2.79 6.66 4.391 10.61 4.391s7.82-1.601 10.61-4.391c2.79-2.799 4.39-6.659 4.39-10.609s-1.6-7.82-4.39-10.61-6.66-4.39-10.61-4.39z"/><path d="m15 270c-3.95 0-7.81 1.6-10.61 4.39-2.79 2.8-4.39 6.66-4.39 10.61s1.6 7.81 4.39 10.609c2.8 2.79 6.66 4.391 10.61 4.391s7.81-1.601 10.61-4.391c2.79-2.799 4.39-6.659 4.39-10.609s-1.6-7.81-4.39-10.61c-2.8-2.79-6.66-4.39-10.61-4.39z"/></svg>