<svg height="682.66669" viewBox="0 0 682.66669 682.66669" width="682.66669" xmlns="http://www.w3.org/2000/svg"><g style="fill:none;stroke:#000;stroke-width:30;stroke-linecap:round;stroke-linejoin:round;stroke-miterlimit:10"><path d="m0 0h-299.927c-17.003 0-30.786 13.784-30.786 30.787v239.676c0 17.003 13.783 30.787 30.786 30.787h299.927c17.003 0 30.787-13.784 30.787-30.787v-239.676c0-17.003-13.784-30.787-30.787-30.787z" transform="matrix(1.3333333 0 0 -1.3333333 541.28451980122 662.6666705)"/><path d="m0 0c0-16.638-13.487-30.125-30.125-30.125s-30.125 13.487-30.125 30.125 13.487 30.125 30.125 30.125 30.125-13.487 30.125-30.125z" transform="matrix(1.3333333 0 0 -1.3333333 381.4999904625 425.13307643834)"/><path d="m0 0v-60.25" transform="matrix(1.3333333 0 0 -1.3333333 341.3333248 465.29974210084)"/><path d="m0 0h-60v67.416c0 29.456-23.878 53.334-53.334 53.334h-14.082c-29.456 0-53.334-23.878-53.334-53.334v-67.416h-60v60.375c0 66.481 53.894 120.375 120.375 120.375 66.481 0 120.375-53.894 120.375-120.375z" transform="matrix(1.3333333 0 0 -1.3333333 501.8333207875 261.000013875)"/></g></svg>