<svg height="682.667" viewBox="0 0 682.667 682.667" width="682.667" xmlns="http://www.w3.org/2000/svg"><g fill="none"><path d="m0 0h682.667v682.667h-682.667z"/><g stroke="#ff6623" stroke-linecap="round" stroke-linejoin="round" stroke-miterlimit="10" stroke-width="40"><path d="m541.285 662.667h-399.903c-22.671 0-41.048-18.379-41.048-41.05v-319.568c0-22.67 18.377-41.049 41.048-41.049h399.903c22.67 0 41.049 18.379 41.049 41.049v319.568c0 22.671-18.379 41.05-41.049 41.05z"/><path d="m381.5 425.133c0 22.184-17.983 40.167-40.167 40.167s-40.166-17.983-40.166-40.167 17.982-40.167 40.166-40.167 40.167 17.983 40.167 40.167z"/><path d="m341.333 465.3v80.333"/><path d="m501.833 261h-80v-89.888c0-39.275-31.837-71.112-71.112-71.112h-18.776c-39.274 0-71.112 31.837-71.112 71.112v89.888h-80v-80.5c0-88.641 71.859-160.5 160.5-160.5 88.642 0 160.5 71.859 160.5 160.5z"/></g></g></svg>