<svg height="682.667" viewBox="0 0 682.667 682.667" width="682.667" xmlns="http://www.w3.org/2000/svg"><g fill="none"><path d="m0 0h682.667v682.667h-682.667z"/><path d="m661.333 340-106.666-80v40c-67.072 0-127.968 26.384-173.334 69.088v-242.421h40l-80-106.667-80 106.667h40v109.088c-45.365-42.704-106.262-69.088-173.333-69.088v-40l-106.667 80 106.667 80v-40c95.58 0 173.333 77.76 173.333 173.333v242.667h80v-109.334c0-95.573 77.754-173.333 173.334-173.333v40z" stroke="#ff6623" stroke-linecap="round" stroke-linejoin="round" stroke-miterlimit="10" stroke-width="40"/><path d="m114.667 482.667h106.666" stroke="#ff6623" stroke-linecap="round" stroke-linejoin="round" stroke-miterlimit="10" stroke-width="40"/></g><path d="m61.333 482.667c0 11.045-8.954 20-20 20-11.045 0-20-8.955-20-20 0-11.046 8.955-20 20-20 11.046 0 20 8.954 20 20" fill="#ff6623"/><path d="m61.333 482.667c0 11.045-8.954 20-20 20-11.045 0-20-8.955-20-20 0-11.046 8.955-20 20-20 11.046 0 20 8.954 20 20" fill="none" stroke="#ff6623" stroke-width="1.333"/><path d="m114.667 482.667h106.666" style="stroke:#ff6623;stroke-width:40;stroke-linecap:round;stroke-linejoin:round;stroke-miterlimit:10;fill:none"/><path d="m61.333 482.667c0 11.045-8.954 20-20 20-11.045 0-20-8.955-20-20 0-11.046 8.955-20 20-20 11.046 0 20 8.954 20 20" fill="#ff6623"/><path d="m61.333 482.667c0 11.045-8.954 20-20 20-11.045 0-20-8.955-20-20 0-11.046 8.955-20 20-20 11.046 0 20 8.954 20 20" fill="none" stroke="#ff6623" stroke-width="1.333"/><path d="m114.667 402.667h106.666" style="stroke:#ff6623;stroke-width:40;stroke-linecap:round;stroke-linejoin:round;stroke-miterlimit:10;fill:none"/><path d="m61.333 402.667c0 11.045-8.954 20-20 20-11.045 0-20-8.955-20-20 0-11.046 8.955-20 20-20 11.046 0 20 8.954 20 20" fill="#ff6623"/><path d="m61.333 402.667c0 11.045-8.954 20-20 20-11.045 0-20-8.955-20-20 0-11.046 8.955-20 20-20 11.046 0 20 8.954 20 20" fill="none" stroke="#ff6623" stroke-width="1.333"/><path d="m114.667 562.667h106.666" style="stroke:#ff6623;stroke-width:40;stroke-linecap:round;stroke-linejoin:round;stroke-miterlimit:10;fill:none"/><path d="m61.333 562.667c0 11.045-8.954 20-20 20-11.045 0-20-8.955-20-20 0-11.046 8.955-20 20-20 11.046 0 20 8.954 20 20" fill="#ff6623"/><path d="m61.333 562.667c0 11.045-8.954 20-20 20-11.045 0-20-8.955-20-20 0-11.046 8.955-20 20-20 11.046 0 20 8.954 20 20" fill="none" stroke="#ff6623" stroke-width="1.333"/><path d="m114.667 642.667h106.666" style="stroke:#ff6623;stroke-width:40;stroke-linecap:round;stroke-linejoin:round;stroke-miterlimit:10;fill:none"/><path d="m61.333 642.667c0 11.045-8.954 20-20 20-11.045 0-20-8.955-20-20 0-11.046 8.955-20 20-20 11.046 0 20 8.954 20 20" fill="#ff6623"/><path d="m61.333 642.667c0 11.045-8.954 20-20 20-11.045 0-20-8.955-20-20 0-11.046 8.955-20 20-20 11.046 0 20 8.954 20 20" fill="none" stroke="#ff6623" stroke-width="1.333"/></svg>