<svg height="682.66669" viewBox="0 0 682.66669 682.66669" width="682.66669" xmlns="http://www.w3.org/2000/svg"><path d="m0 0-80 60v-30c-50.304 0-95.976-19.788-130-51.816v181.816h30l-60 80-60-80h30v-81.816c-34.024 32.028-79.697 51.816-130 51.816v30l-80-60 80-60v30c71.685 0 130-58.32 130-130v-182h60v82c0 71.68 58.315 130 130 130v-30z" style="fill:none;stroke:#000;stroke-width:30;stroke-linecap:round;stroke-linejoin:round;stroke-miterlimit:10" transform="matrix(1.3333333 0 0 -1.3333333 661.3333168 340.0000119)"/><path d="m0 0h80" style="fill:none;stroke:#000;stroke-width:30;stroke-linecap:round;stroke-linejoin:round;stroke-miterlimit:10" transform="matrix(1.3333333 0 0 -1.3333333 114.6666638 482.666675)"/><path d="m0 0c0-8.284-6.716-15-15-15s-15 6.716-15 15 6.716 15 15 15 15-6.716 15-15" transform="matrix(1.3333333 0 0 -1.3333333 61.3333318 482.666675)"/><path d="m0 0h80" style="fill:none;stroke:#000;stroke-width:30;stroke-linecap:round;stroke-linejoin:round;stroke-miterlimit:10" transform="matrix(1.3333333 0 0 -1.3333333 114.6666638 482.666675)"/><path d="m0 0c0-8.284-6.716-15-15-15s-15 6.716-15 15 6.716 15 15 15 15-6.716 15-15" transform="matrix(1.3333333 0 0 -1.3333333 61.3333318 482.666675)"/><path d="m0 0h80" style="fill:none;stroke:#000;stroke-width:30;stroke-linecap:round;stroke-linejoin:round;stroke-miterlimit:10" transform="matrix(1.3333333 0 0 -1.3333333 114.6666638 402.666677)"/><path d="m0 0c0-8.284-6.716-15-15-15s-15 6.716-15 15 6.716 15 15 15 15-6.716 15-15" transform="matrix(1.3333333 0 0 -1.3333333 61.3333318 402.666677)"/><path d="m0 0h80" style="fill:none;stroke:#000;stroke-width:30;stroke-linecap:round;stroke-linejoin:round;stroke-miterlimit:10" transform="matrix(1.3333333 0 0 -1.3333333 114.6666638 562.666673)"/><path d="m0 0c0-8.284-6.716-15-15-15s-15 6.716-15 15 6.716 15 15 15 15-6.716 15-15" transform="matrix(1.3333333 0 0 -1.3333333 61.3333318 562.666673)"/><path d="m0 0h80" style="fill:none;stroke:#000;stroke-width:30;stroke-linecap:round;stroke-linejoin:round;stroke-miterlimit:10" transform="matrix(1.3333333 0 0 -1.3333333 114.6666638 642.666671)"/><path d="m0 0c0-8.284-6.716-15-15-15s-15 6.716-15 15 6.716 15 15 15 15-6.716 15-15" transform="matrix(1.3333333 0 0 -1.3333333 61.3333318 642.666671)"/></svg>