<svg height="64" viewBox="0 0 64 64" width="64" xmlns="http://www.w3.org/2000/svg"><g fill="#fff"><path d="m36.293 1.929c5.177-1.387 10.497 1.685 11.884 6.861l1.33 4.961-2.817 10.512-3.508-13.089c-.693-2.589-3.377-4.118-5.995-3.417l-24.075 6.451c-2.617.701-4.177 3.368-3.483 5.956l9.292 34.679c.693 2.588 3.377 4.117 5.995 3.416l24.075-6.451c2.67-.824 3.928-3.205 3.495-5.882l2.821-10.527 2.531 9.447c1.388 5.176-1.684 10.497-6.861 11.884l-25.255 6.767c-5.176 1.387-10.497-1.685-11.884-6.861l-9.661-36.056c-1.387-5.176 1.685-10.497 6.861-11.884z"/><path d="m57.814 4.692c1.631.396 2.655 1.811 2.255 3.308s-9.088 33.569-9.088 33.569c-1.399 1.91-2.797 3.82-4.187 5.736-.242.335-.689.22-.717-.222l-.972-7.105s8.681-32.064 9.091-33.568c.411-1.505 1.986-2.115 3.618-1.718z"/><path d="m10.278 21.205 32.929-8.823c1.599-.429 3.131.105 3.423 1.192.291 1.087-.769 2.316-2.368 2.744l-32.93 8.824c-1.599.428-3.131-.106-3.422-1.193-.292-1.087.768-2.315 2.368-2.744z"/><path d="m33.986.251c1.252-.336 2.538.407 2.874 1.659l1.367 5.102c.336 1.252-.407 2.539-1.659 2.874-1.252.336-2.539-.407-2.874-1.659l-1.367-5.103c-.336-1.251.407-2.538 1.659-2.873z"/><path d="m24.236 27.409 11.622-3.114.877 3.275-8.893 2.383.376 6.024.081.047q.515-1.033 1.539-1.772 1.023-.738 2.147-1.039 1.669-.448 3.136-.239 1.467.209 2.636.98 1.17.77 2.006 2.026.835 1.256 1.265 2.861.361 1.348.311 2.893-.051 1.545-.684 2.97-.633 1.426-1.908 2.576-1.274 1.15-3.329 1.7-1.637.439-3.15.38-1.512-.059-2.804-.642-1.292-.583-2.257-1.683-.966-1.101-1.486-2.785l3.66-.981q.65 1.787 2.004 2.474 1.354.687 3.152.205 1.156-.31 1.855-.91.699-.6 1.016-1.408.317-.807.285-1.762-.032-.955-.307-1.982-.25-.931-.735-1.713-.484-.782-1.17-1.287-.686-.504-1.608-.67-.922-.166-2.013.127-1.156.309-2.051 1.014-.895.704-1.026 2.012l-3.66.981z"/><path d="m12.546 5.995c1.252-.335 2.538.408 2.874 1.66l1.367 5.102c.336 1.252-.407 2.539-1.659 2.874-1.252.336-2.539-.407-2.874-1.659l-1.367-5.103c-.336-1.252.407-2.538 1.659-2.874z"/></g></svg>