<svg viewBox="0 0 512 512" xmlns="http://www.w3.org/2000/svg"><path d="m268.35 95.152-42.429-42.429c-5.857-5.858-15.356-5.858-21.214 0s-5.858 15.356 0 21.214l42.429 42.429c5.857 5.858 15.357 5.859 21.214 0 5.858-5.859 5.858-15.356 0-21.214z"/><path d="m459.276 286.079-42.429-42.429c-5.857-5.858-15.356-5.858-21.214 0-5.857 5.858-5.857 15.356.001 21.214l42.429 42.429c2.929 2.929 6.768 4.394 10.606 4.394s7.678-1.464 10.606-4.394c5.859-5.858 5.859-15.355.001-21.214z"/><path d="m459.277 52.723c-5.857-5.858-15.356-5.858-21.214 0l-42.429 42.429c-5.858 5.858-5.858 15.356 0 21.214 5.857 5.858 15.357 5.859 21.214 0l42.429-42.429c5.858-5.859 5.858-15.356-0-21.214z"/><path d="m331.992.001c-8.284 0-15.001 6.716-15.001 15.001v60.002c0 8.284 6.716 15.001 15.001 15.001s15.001-6.716 15.001-15.001v-60.003c0-8.284-6.716-15-15.001-15z"/><path d="m496.999 165.008h-60.002c-8.284 0-15.001 6.716-15.001 15.001s6.716 15.001 15.001 15.001h60.002c8.284 0 15.001-6.716 15.001-15.001s-6.716-15.001-15.001-15.001z"/><path d="m374.42 158.793-21.214-21.214c-17.589-17.589-46.054-17.589-63.643 0l-276.405 276.406c-17.545 17.547-17.545 46.096.001 63.642l21.214 21.214c17.549 17.547 46.098 17.544 63.642 0l276.405-276.406c17.589-17.588 17.59-46.054 0-63.642zm-297.619 318.833c-5.848 5.849-15.365 5.85-21.214 0l-21.214-21.214c-5.849-5.848-5.849-15.365 0-21.214l180.941-180.941 42.429 42.429zm276.404-276.403-74.25 74.25-42.429-42.429 74.251-74.25c5.864-5.863 15.351-5.863 21.214 0l21.214 21.215c5.864 5.863 5.864 15.35 0 21.214z"/></svg>