<svg height="682.66669" viewBox="0 0 682.66669 682.66669" width="682.66669" xmlns="http://www.w3.org/2000/svg"><g style="fill:none;stroke:#000;stroke-width:30;stroke-linecap:round;stroke-linejoin:round;stroke-miterlimit:10"><path d="m0 0 189.819 142.364" transform="matrix(1.3333333 0 0 -1.3333333 34.90826579396 652.48573742119)"/><path d="m0 0-189.819 142.364" transform="matrix(1.3333333 0 0 -1.3333333 647.75838380604 652.48573742119)"/><path d="m0 0c-22.092 0-40 17.909-40 40 0 22.092 17.908 40 40 40s40-17.908 40-40c0-22.091-17.908-40-40-40zm100 40c0 7.458-.879 14.7-2.427 21.692l21.35 12.328-30 51.96-21.412-12.361c-10.658 9.778-23.372 17.347-37.511 21.788v24.593h-60v-24.593c-14.139-4.441-26.853-12.01-37.511-21.788l-21.412 12.361-30-51.96 21.35-12.328c-1.548-6.992-2.427-14.234-2.427-21.692s.879-14.7 2.427-21.692l-21.35-12.328 30-51.96 21.412 12.362c10.658-9.779 23.372-17.348 37.511-21.789v-24.593h60v24.593c14.139 4.441 26.853 12.01 37.511 21.789l21.412-12.362 30 51.96-21.35 12.328c1.548 6.992 2.427 14.234 2.427 21.692z" transform="matrix(1.3333333 0 0 -1.3333333 341.3333248 233.3333479)"/><path d="m0 0h-107.231c-16.569 0-30-13.432-30-30v-240c0-16.568 13.431-30 30-30h420c16.568 0 30 13.432 30 30v240c0 16.568-13.432 30-30 30h-107.232" transform="matrix(1.3333333 0 0 -1.3333333 204.30852822562 262.6666805)"/><path d="m0 0 229.819-172.364 229.819 172.364" transform="matrix(1.3333333 0 0 -1.3333333 34.90826579396 272.84761357881)"/></g></svg>