<svg height="682.66669" viewBox="0 0 682.66669 682.66669" width="682.66669" xmlns="http://www.w3.org/2000/svg"><g style="fill:none;stroke:#000;stroke-width:30;stroke-linecap:round;stroke-linejoin:round;stroke-miterlimit:10" transform="matrix(1.3333333 0 0 -1.3333333 0 682.66667)"><path d="m0 0s44.9 33.397 52.142 96.461" transform="translate(198.1584 183.5)"/><path d="m0 0c0-23.409-18.976-42.385-42.385-42.385s-42.385 18.976-42.385 42.385 18.976 42.385 42.385 42.385 42.385-18.976 42.385-42.385z" transform="translate(250.7624 286.115)"/><path d="m0 0h30.992v-145" transform="translate(75 328.5)"/><path d="m0 0h30.992v-145" transform="translate(75 328.5)"/><path d="m497 123.5h-482v265h482z"/><path d="m0 0h24.86c21.21 0 38.4-17.19 38.4-38.4v-405.2c0-21.21-17.19-38.4-38.4-38.4h-24.86" transform="translate(323.74 497)"/><path d="m0 0h-24.86c-21.21 0-38.4 17.19-38.4 38.4v405.2c0 21.21 17.19 38.4 38.4 38.4h24.86" transform="translate(450.26 15)"/></g></svg>