<svg height="682.66669" viewBox="0 0 682.66669 682.66669" width="682.66669" xmlns="http://www.w3.org/2000/svg"><g style="fill:none;stroke:#000;stroke-width:30;stroke-linecap:round;stroke-linejoin:round;stroke-miterlimit:10"><path d="m0 0c0-24.853-20.147-45-45-45s-45 20.147-45 45 20.147 45 45 45 45-20.147 45-45z" transform="matrix(1.3333333 0 0 -1.3333333 401.3333233 321.3333457)"/><path d="m0 0c16.42 21.861 42.563 36.002 72.009 36.002s55.589-14.141 72.009-36.002" transform="matrix(1.3333333 0 0 -1.3333333 245.32159386696 469.33654199992)"/><path d="m0 0c0-66.274-53.726-120-120-120s-120 53.726-120 120 53.726 120 120 120 120-53.726 120-120z" transform="matrix(1.3333333 0 0 -1.3333333 501.3333208 341.3333452)"/><path d="m0 0v-177.9c0-121.8-89.399-226-210-243.1-60.3 8.401-112.8 39.701-150.3 82.901-37.5 42.9-59.7 99.3-59.7 160.199v177.9h11.7c70.8 0 139.499 22 198.3 61 58.801-39 127.5-61 198.3-61z" transform="matrix(1.3333333 0 0 -1.3333333 621.3333178 101.3333512)"/></g></svg>