<svg height="800" viewBox="0 0 800 800" width="800" xmlns="http://www.w3.org/2000/svg"><path d="m0 0h800v800h-800z" fill="none"/><g fill="#ff6621"><path d="m235.656 514.695c0-13.285-9.219-21.208-25.485-21.208-6.642 0-11.14.655-13.493 1.282v42.627c2.786.627 6.211.836 10.931.836 17.338 0 28.047-8.759 28.047-23.537z"/><path d="m336.349 493.933c-7.284 0-11.992.629-14.776 1.281v94.406c2.786.653 7.284.653 11.351.653 29.55.209 48.822-16.056 48.822-50.523.209-29.971-17.352-45.817-45.397-45.817z"/><path d="m523.43-0h-321.313c-46.941 0-85.145 38.231-85.145 85.145v314.853h-8.316c-18.946 0-34.311 15.35-34.311 34.312v208.079c0 18.961 15.363 34.309 34.311 34.309h8.316v38.155c0 46.966 38.204 85.145 85.145 85.145h438.417c46.911 0 85.121-38.181 85.121-85.145v-513.336zm-359.074 471.861c10.055-1.699 24.188-2.98 44.101-2.98 20.124 0 34.467 3.841 44.104 11.557 9.205 7.271 15.418 19.272 15.418 33.396 0 14.121-4.708 26.125-13.273 34.257-11.14 10.487-27.615 15.194-46.888 15.194-4.289 0-8.133-.212-11.14-.629v51.597h-32.322zm476.178 275.993h-438.417c-18.175 0-32.976-14.801-32.976-33.001v-38.155h408.695c18.948 0 34.312-15.348 34.312-34.309v-208.079c0-18.962-15.364-34.312-34.312-34.312h-408.695v-314.853c0-18.149 14.802-32.949 32.976-32.949l301.805-.316v111.558c0 32.585 26.438 59.048 59.048 59.048l109.283-.313 1.229 492.678c0 18.202-14.774 33.003-32.948 33.003zm-351.713-134.255v-141.738c11.988-1.908 27.613-2.98 44.103-2.98 27.405 0 45.175 4.917 59.1 15.402 14.985 11.14 24.398 28.897 24.398 54.392 0 27.615-10.055 46.68-23.982 58.446-15.194 12.631-38.322 18.62-66.578 18.62-16.921 0-28.909-1.071-37.041-2.142zm233.67-83.917v26.542h-51.819v58.029h-32.754v-144.3h88.206v26.751h-55.452v32.978z"/></g></svg>