<svg height="512" viewBox="0 0 512 512" width="512" xmlns="http://www.w3.org/2000/svg"><path d="m0 0h512v512h-512z" fill="none"/><g fill="#ff6621"><path d="m437.019 74.98c-48.352-48.352-112.639-74.98-181.019-74.98-68.381 0-132.668 26.628-181.02 74.98-48.351 48.351-74.98 112.639-74.98 181.02 0 68.38 26.629 132.667 74.98 181.019 48.352 48.352 112.64 74.981 181.02 74.981s132.667-26.629 181.019-74.981 74.981-112.64 74.981-181.019c0-68.381-26.629-132.668-74.981-181.02zm-181.019 407.02c-124.617 0-226-101.383-226-226s101.383-226 226-226 226 101.383 226 226-101.383 226-226 226z"/><path d="m392.033 243.01-192.801-111.313c-4.641-2.68-10.359-2.68-15 0-4.641 2.679-7.5 7.631-7.5 12.99v222.621c0 5.359 2.859 10.311 7.5 12.99 2.32 1.34 4.91 2.01 7.5 2.01s5.18-.67 7.5-2.009l192.801-111.309c4.641-2.68 7.5-7.632 7.5-12.991 0-5.358-2.859-10.31-7.5-12.989zm-185.301 98.319v-170.661l147.8 85.332z"/></g></svg>