<svg height="30" viewBox="0 0 30 30" width="30" xmlns="http://www.w3.org/2000/svg"><path d="m10.679688 4.1816406c-.611001 0-1.177688.1367813-1.679688.4257813-1.5688703.9057903-2.1660349 3.1131243-1.8496094 5.8613281-2.53769 1.100083-4.1503906 2.719917-4.1503906 4.53125s1.6127006 3.431167 4.1503906 4.53125c-.3162621 2.748096.2807391 4.955538 1.8496094 5.861328.501.289 1.067687.425781 1.679688.425781 1.302626 0 2.808162-.65377 4.320312-1.77539 1.512282 1.12162 3.01964 1.77539 4.322266 1.77539.611 0 1.177687-.136781 1.679687-.425781 1.568861-.905785 2.166023-3.113146 1.849609-5.861328 2.536735-1.100072 4.148438-2.72031 4.148438-4.53125 0-1.811333-1.612701-3.431167-4.150391-4.53125.316263-2.7480962-.280739-4.9555378-1.849609-5.8613281-.501-.29-1.067688-.4257813-1.679688-.4257813-1.302626 0-2.808162.6537703-4.320312 1.7753906-1.512237-1.1216203-3.018137-1.7753906-4.320312-1.7753906zm0 1.75c.781633 0 1.815272.415608 2.9375 1.1855469-.659818.6226842-1.306035 1.3307446-1.927735 2.1191406-1.008374.1445885-1.9591058.3553627-2.8398436.6191407-.0047301-.0610786-.0159318-.125168-.0195313-.1855469-.107-1.78.2839219-3.106875 1.0449219-3.546875.225-.13.487688-.1914063.804688-.1914063zm8.640624 0c.316 0 .579688.0614063.804688.1914063.761.439 1.151922 1.766875 1.044922 3.546875-.003627.0603789-.014777.1244683-.019531.1855469-.881291-.2639436-1.832722-.4745423-2.841797-.6191407-.621692-.7882864-1.265978-1.4965288-1.925782-2.1191406 1.12215-.7698103 2.156271-1.1855469 2.9375-1.1855469zm-4.320312 2.296875c.27108.246735.540266.5075189.8125.7929688-.269782-.0090624-.538127-.0214844-.8125-.0214844-.273714 0-.541402.0124652-.810547.0214844.271993-.2851536.539721-.5464677.810547-.7929688zm0 2.5214844c.828688 0 1.614128.046321 2.359375.126953.454486.617744.902399 1.270858 1.322266 1.998047.402433.697033.758297 1.410488 1.072265 2.125-.31401.714942-.66959 1.429502-1.072265 2.126953-.418563.725091-.865362 1.373996-1.31836 1.990235-.77157.084419-1.563062.132812-2.363281.132812-.828688 0-1.614128-.046321-2.359375-.126953-.454486-.617744-.902399-1.268905-1.322266-1.996094-.402675-.697451-.758165-1.412011-1.072265-2.126953.313878-.714512.669832-1.427967 1.072265-2.125.418724-.725091.865253-1.375949 1.31836-1.992188.77157-.084419 1.563062-.132812 2.363281-.132812zm4.746094.541016c.396747.095788.778159.199193 1.136718.314453-.081233.367051-.180577.741139-.292968 1.11914-.12868-.241468-.253469-.483706-.392578-.724609-.143127-.247804-.302022-.470442-.451172-.708984zm-9.494141.001953c-.148648.237807-.3065507.460022-.4492186.707031-.1390678.240944-.2639373.483106-.3925782.724609-.1126462-.37878-.2136063-.753314-.2949218-1.121093.3651354-.115366.7455956-.21753 1.1367186-.310547zm-2.783203.953125c.2106964.88962.5029797 1.811824.8789062 2.751953-.3751299.937896-.6661833 1.858406-.8769531 2.746094-1.7414704-.840938-2.7207031-1.887768-2.7207031-2.744141 0-.879.951875-1.880734 2.546875-2.677734.0544419-.027235.1162475-.049574.171875-.076172zm15.060547.009765c1.74147.840938 2.720703 1.887768 2.720703 2.744141 0 .879-.951875 1.880734-2.546875 2.677734-.054442.027235-.116248.049574-.171875.076172-.21082-.890142-.500709-1.813207-.876953-2.753906.37468-.937087.664406-1.857196.875-2.744141zm-7.529297.744141c-1.105 0-2 .895-2 2s.895 2 2 2 2-.895 2-2-.895-2-2-2zm-5.5898438 4.275391c.1287232.241557.25537.483617.3945313.724609.142971.247625.3002275.470608.4492185.708984-.396747-.095788-.7781594-.199193-1.1367185-.314453.0812938-.367281.1804801-.740898.2929687-1.11914zm11.1796878.001953c.11252.378415.213673.751706.294922 1.11914-.365136.115366-.745596.21753-1.136719.310547.148648-.237807.306551-.460022.449219-.707031.138778-.240443.264183-.481656.392578-.722656zm-11.7402346 2.867187c.881291.263944 1.8327216.474542 2.8417966.619141.621882.788673 1.265679 1.498263 1.925782 2.121094-1.122146.769715-2.155916 1.185546-2.9375 1.185546-.316001 0-.579688-.063359-.804688-.193359-.761-.439-1.1519219-1.764922-1.0449219-3.544922.0036643-.061008.0147157-.125778.0195313-.1875zm12.3007816 0c.004791.061722.015894.126492.019531.1875.107 1.78-.283922 3.104922-1.044922 3.544922-.225.13-.487688.19336-.804688.193359-.781584 0-1.815354-.415703-2.9375-1.185546.660152-.622903 1.30573-1.332312 1.927735-2.121094 1.008374-.144589 1.959106-.355363 2.839844-.619141zm-6.962891.833985c.269782.009062.538127.021484.8125.021484s.542718-.012422.8125-.021484c-.272234.285448-.54142.546249-.8125.792968-.27108-.246735-.540266-.507518-.8125-.792968z"/></svg>