<svg height="682.66669" viewBox="0 0 682.66669 682.66669" width="682.66669" xmlns="http://www.w3.org/2000/svg"><path d="m0 0h382v70c0 16.568-13.432 30-30 30h-322c-16.568 0-30-13.432-30-30z" style="fill:none;stroke:#000;stroke-width:30;stroke-linecap:round;stroke-linejoin:round;stroke-miterlimit:10" transform="matrix(1.3333333 0 0 -1.3333333 19.9999995 194.6666822)"/><path d="m0 0c0-8.284 6.716-15 15-15s15 6.716 15 15-6.716 15-15 15-15-6.716-15-15" transform="matrix(1.3333333 0 0 -1.3333333 429.3333226 128.0000172)"/><path d="m0 0c0-8.284 6.716-15 15-15s15 6.716 15 15-6.716 15-15 15-15-6.716-15-15" transform="matrix(1.3333333 0 0 -1.3333333 349.3333246 128.0000172)"/><path d="m0 0c0-8.284 6.716-15 15-15s15 6.716 15 15-6.716 15-15 15-15-6.716-15-15" transform="matrix(1.3333333 0 0 -1.3333333 269.3333266 128.0000172)"/><g style="fill:none;stroke:#000;stroke-width:30;stroke-linecap:round;stroke-linejoin:round;stroke-miterlimit:10"><path d="m0 0v100.449h-382v-210c0-16.569 13.432-30 30-30h236.472" transform="matrix(1.3333333 0 0 -1.3333333 529.3333201 328.59827885171)"/><path d="m0 0h160" transform="matrix(1.3333333 0 0 -1.3333333 99.9999975 274.6666802)"/><path d="m0 0h160" transform="matrix(1.3333333 0 0 -1.3333333 99.9999975 354.6666782)"/><path d="m0 0c0-60.751-49.249-110-110-110s-110 49.249-110 110 49.249 110 110 110 110-49.249 110-110z" transform="matrix(1.3333333 0 0 -1.3333333 662.6666501 474.6666752)"/><path d="m0 0h100" transform="matrix(1.3333333 0 0 -1.3333333 449.3333221 474.6666752)"/><path d="m0 0v100" transform="matrix(1.3333333 0 0 -1.3333333 515.9999871 541.3333402)"/></g></svg>