<svg height="682.667" viewBox="0 0 682.667 682.667" width="682.667" xmlns="http://www.w3.org/2000/svg"><path d="m0 0h682.667v682.667h-682.667z" fill="none"/><path d="m20 194.667h509.333v-93.334c0-22.09-17.909-40-40-40h-429.333c-22.091 0-40 17.91-40 40z" style="stroke:#f62;stroke-width:40;stroke-linecap:round;stroke-linejoin:round;stroke-miterlimit:10;fill:none"/><path d="m429.333 128c0 11.045 8.955 20 20 20 11.046 0 20-8.955 20-20s-8.954-20-20-20c-11.045 0-20 8.955-20 20" fill="#f62"/><path d="m349.333 128c0 11.045 8.955 20 20 20 11.046 0 20-8.955 20-20s-8.954-20-20-20c-11.045 0-20 8.955-20 20" fill="#f62"/><path d="m269.333 128c0 11.045 8.955 20 20 20 11.046 0 20-8.955 20-20s-8.954-20-20-20c-11.045 0-20 8.955-20 20" fill="#f62"/><g style="fill:none;stroke:#f62;stroke-width:40;stroke-linecap:round;stroke-linejoin:round;stroke-miterlimit:10"><path d="m529.333 328.598v-133.932h-509.333v280c0 22.092 17.909 40 40 40h315.296"/><path d="m100 274.667h213.333"/><path d="m100 354.667h213.333"/><path d="m662.667 474.667c0 81.001-65.666 146.666-146.667 146.666s-146.667-65.665-146.667-146.666c0-81.002 65.666-146.667 146.667-146.667s146.667 65.665 146.667 146.667z"/><path d="m449.333 474.667h133.334"/><path d="m516 541.333v-133.333"/></g></svg>