<svg height="682.66669" viewBox="0 0 682.66669 682.66669" width="682.66669" xmlns="http://www.w3.org/2000/svg"><g transform="matrix(1.3333333 0 0 -1.3333333 0 682.66667)"><path d="m291 30h-70v70h70zm15 100h-100c-8.284 0-15-6.716-15-15v-100c0-8.284 6.716-15 15-15h100c8.284 0 15 6.716 15 15v100c0 8.284-6.716 15-15 15"/><path d="m482 412h-452v70h452zm15 100h-482c-8.284 0-15-6.716-15-15v-100c0-8.284 6.716-15 15-15h482c8.284 0 15 6.716 15 15v100c0 8.284-6.716 15-15 15"/><path d="m100 30h-70v70h70zm15 100h-100c-8.284 0-15-6.716-15-15v-100c0-8.284 6.716-15 15-15h100c8.284 0 15 6.716 15 15v100c0 8.284-6.716 15-15 15"/><path d="m0 0c8.284 0 15 6.716 15 15v103.787l14.394-14.393c5.857-5.859 15.355-5.859 21.212 0 5.859 5.857 5.859 15.355 0 21.212l-40 40c-5.857 5.859-15.355 5.859-21.212 0l-40-40c-5.859-5.857-5.859-15.355 0-21.212 5.857-5.859 15.355-5.859 21.212 0l14.394 14.393v-103.787c0-8.284 6.716-15 15-15" transform="translate(256 171)"/><path d="m482 30h-70v70h70zm15 100h-100c-8.284 0-15-6.716-15-15v-100c0-8.284 6.716-15 15-15h100c8.284 0 15 6.716 15 15v100c0 8.284-6.716 15-15 15"/><path d="m0 0c8.284 0 15 6.716 15 15v103.787l14.394-14.393c5.857-5.859 15.355-5.859 21.212 0 5.859 5.857 5.859 15.355 0 21.212l-40 40c-5.857 5.859-15.355 5.859-21.212 0l-40-40c-5.859-5.857-5.859-15.355 0-21.212 5.857-5.859 15.355-5.859 21.212 0l14.394 14.393v-103.787c0-8.284 6.716-15 15-15" transform="translate(447 171)"/><path d="m0 0c8.284 0 15 6.716 15 15v103.787l14.394-14.393c5.857-5.859 15.355-5.859 21.212 0 5.859 5.857 5.859 15.355 0 21.212l-40 40c-5.857 5.859-15.355 5.859-21.212 0l-40-40c-5.859-5.857-5.859-15.355 0-21.212 5.857-5.859 15.355-5.859 21.212 0l14.394 14.393v-103.787c0-8.284 6.716-15 15-15" transform="translate(65 171)"/></g></svg>