<svg height="682.667" viewBox="0 0 682.667 682.667" width="682.667" xmlns="http://www.w3.org/2000/svg"><path d="m0 0h682.667v682.667h-682.667z" fill="none"/><g fill="#ff6621"><path d="m388 642.667h-93.333v-93.334h93.333zm20-133.334h-133.333c-11.046 0-20 8.955-20 20v133.334c0 11.045 8.954 20 20 20h133.333c11.045 0 20-8.955 20-20v-133.334c0-11.045-8.955-20-20-20"/><path d="m642.667 133.333h-602.667v-93.333h602.667zm20-133.333h-642.667c-11.045 0-20 8.955-20 20v133.333c0 11.046 8.955 20 20 20h642.667c11.045 0 20-8.954 20-20v-133.333c0-11.045-8.955-20-20-20"/><path d="m133.333 642.667h-93.333v-93.334h93.333zm20-133.334h-133.333c-11.045 0-20 8.955-20 20v133.334c0 11.045 8.955 20 20 20h133.333c11.046 0 20-8.955 20-20v-133.334c0-11.045-8.954-20-20-20"/><path d="m341.333 454.667c11.046 0 20-8.955 20-20v-138.383l19.192 19.191c7.81 7.812 20.474 7.812 28.283 0 7.812-7.81 7.812-20.474 0-28.283l-53.333-53.333c-7.81-7.812-20.474-7.812-28.283 0l-53.333 53.333c-7.812 7.809-7.812 20.473 0 28.283 7.809 7.812 20.473 7.812 28.282 0l19.192-19.191v138.383c0 11.045 8.955 20 20 20"/><path d="m642.667 642.667h-93.334v-93.334h93.334zm20-133.334h-133.334c-11.045 0-20 8.955-20 20v133.334c0 11.045 8.955 20 20 20h133.334c11.045 0 20-8.955 20-20v-133.334c0-11.045-8.955-20-20-20"/><path d="m596 454.667c11.045 0 20-8.955 20-20v-138.383l19.192 19.191c7.809 7.812 20.473 7.812 28.283 0 7.812-7.81 7.812-20.474 0-28.283l-53.334-53.333c-7.809-7.812-20.473-7.812-28.282 0l-53.334 53.333c-7.812 7.809-7.812 20.473 0 28.283 7.81 7.812 20.474 7.812 28.283 0l19.192-19.191v138.383c0 11.045 8.955 20 20 20"/><path d="m86.667 454.667c11.045 0 20-8.955 20-20v-138.383l19.192 19.191c7.809 7.812 20.473 7.812 28.282 0 7.812-7.81 7.812-20.474 0-28.283l-53.333-53.333c-7.809-7.812-20.473-7.812-28.283 0l-53.333 53.333c-7.812 7.809-7.812 20.473 0 28.283 7.809 7.812 20.473 7.812 28.283 0l19.192-19.191v138.383c0 11.045 8.954 20 20 20"/></g></svg>