<svg height="682.66669" viewBox="0 0 682.66669 682.66669" width="682.66669" xmlns="http://www.w3.org/2000/svg"><g style="fill:none;stroke:#000;stroke-width:30;stroke-linecap:round;stroke-linejoin:round;stroke-miterlimit:10"><path d="m0 0c39.053-39.053 39.053-102.369 0-141.421-39.052-39.053-102.368-39.053-141.421 0-39.053 39.052-39.053 102.368 0 141.421s102.369 39.053 141.421 0z" transform="matrix(1.3333333 0 0 -1.3333333 481.24478796888 292.68361308291)"/><path d="m0 0h202" transform="matrix(1.3333333 0 0 -1.3333333 99.9999975 182.6666825)"/><path d="m0 0h-179.153" transform="matrix(1.3333333 0 0 -1.3333333 338.87105819489 262.6666805)"/><path d="m0 0h121.004" transform="matrix(1.3333333 0 0 -1.3333333 99.9999975 342.6666785)"/><path d="m0 0h-118.928" transform="matrix(1.3333333 0 0 -1.3333333 258.57026020241 422.6666765)"/><path d="m0 0h-165.703" transform="matrix(1.3333333 0 0 -1.3333333 320.93745864323 502.6666745)"/><path d="m0 0h202" transform="matrix(1.3333333 0 0 -1.3333333 99.9999975 582.6666725)"/><path d="m0 0h-140v42c0 11.046 8.954 20 20 20h100c11.046 0 20-8.954 20-20z" transform="matrix(1.3333333 0 0 -1.3333333 327.9999918 102.6666845)"/><path d="m0 0h61c16.568 0 30-13.432 30-30v-124.825" transform="matrix(1.3333333 0 0 -1.3333333 327.9999918 62.6666855)"/><path d="m0 0h-61c-16.568 0-30-13.432-30-30v-390c0-16.568 13.432-30 30-30h262c16.568 0 30 13.432 30 30v88.379" transform="matrix(1.3333333 0 0 -1.3333333 141.3333298 62.6666855)"/><path d="m0 0c-11.716-11.716-30.71-11.716-42.426 0l-42.923 42.922c-11.441 11.442-11.441 29.993 0 41.434l.993.993c11.441 11.441 29.992 11.441 41.434 0l42.922-42.923c11.716-11.716 11.716-30.71 0-42.426z" transform="matrix(1.3333333 0 0 -1.3333333 650.95051705957 650.95053745957)"/><path d="m0 0-42.427 42.427" transform="matrix(1.3333333 0 0 -1.3333333 537.81385322132 537.81387362132)"/><path d="m0 0-56.568-56.568-28.285 28.284" transform="matrix(1.3333333 0 0 -1.3333333 443.53252224502 349.25267833535)"/></g></svg>