<svg height="682.667" viewBox="0 0 682.667 682.667" width="682.667" xmlns="http://www.w3.org/2000/svg"><g fill="none"><path d="m0 0h682.667v682.667h-682.667z"/><g stroke="#ff6623" stroke-linecap="round" stroke-linejoin="round" stroke-miterlimit="10" stroke-width="40"><path d="m481.245 292.684c52.07 52.07 52.07 136.492 0 188.561-52.07 52.071-136.491 52.071-188.562 0-52.07-52.069-52.07-136.491 0-188.561 52.071-52.071 136.492-52.071 188.562 0z"/><path d="m100 182.667h269.333"/><path d="m338.871 262.667h-238.871"/><path d="m100 342.667h161.339"/><path d="m258.57 422.667h-158.57"/><path d="m320.937 502.667h-220.937"/><path d="m100 582.667h269.333"/><path d="m328 102.667h-186.667v-56c0-14.728 11.939-26.667 26.667-26.667h133.333c14.728 0 26.667 11.939 26.667 26.667z"/><path d="m328 62.667h81.333c22.091 0 40 17.909 40 40v166.433"/><path d="m141.333 62.667h-81.333c-22.091 0-40 17.909-40 40v520c0 22.09 17.909 40 40 40h349.333c22.091 0 40-17.91 40-40v-117.839"/><path d="m650.951 650.951c-15.622 15.621-40.947 15.621-56.568 0l-57.231-57.23c-15.255-15.256-15.255-39.99 0-55.245l1.324-1.324c15.255-15.255 39.989-15.255 55.245 0l57.23 57.231c15.621 15.621 15.621 40.946 0 56.568z"/><path d="m537.814 537.814-56.569-56.569"/><path d="m443.533 349.253-75.424 75.424-37.714-37.712"/></g></g></svg>