<svg height="512" viewBox="0 0 512 512" width="512" xmlns="http://www.w3.org/2000/svg"><g style="fill:none;stroke:#000;stroke-width:30;stroke-linecap:round;stroke-linejoin:round;stroke-miterlimit:10"><path d="m15 256c0 133.101 107.899 241 241 241s241-107.899 241-241-107.899-241-241-241c-74.869 0-141.764 34.14-185.967 87.702l8.201-56.243"/><path d="m70.033 102.702 55.292-8.202"/><circle cx="256" cy="256" r="154.18"/><path d="m255.985 218.863v37.169h36.508"/><path d="m101.82 256h32.193"/><path d="m377.987 256h32.193"/><path d="m256 101.82v32.193"/><path d="m256 377.987v32.193"/><path d="m147.082 147.082 22.66 22.66"/><path d="m342.258 342.258 22.724 22.724"/><path d="m365.069 146.931-22.811 22.811"/><path d="m169.742 342.258-22.573 22.573"/></g></svg>