<svg height="682.66669" viewBox="0 0 682.66669 682.66669" width="682.66669" xmlns="http://www.w3.org/2000/svg"><g style="fill:none;stroke:#000;stroke-width:30;stroke-linecap:round;stroke-linejoin:round;stroke-miterlimit:22.926"><path d="m0 0-27.667-75.279h-68.744l120.548 327.999 59.479.001 120.553-328h-10.485-58.26l-27.668 75.279zm53.877 146.594-30.163-82.07h60.327z" transform="matrix(1.3333333 0 0 -1.3333333 148.54559628636 459.62827557596)"/><path d="m0 0c39.656 0 72 32.344 72 72s-32.344 72-72 72-72-32.344-72-72 32.344-72 72-72z" transform="matrix(1.3333333 0 0 -1.3333333 566.66865249995 559.99933973335)"/><path d="m0 0v-144" transform="matrix(1.3333333 0 0 -1.3333333 662.66731676665 368.0000112)"/></g></svg>