<svg enable-background="new 0 0 64 64" height="800" viewBox="0 0 64 64" width="800" xmlns="http://www.w3.org/2000/svg"><path d="m63.8251495 32.9945984c-.1864853-.2723999-.4950981-.4354973-.8251991-.4354973h-1.8331985l-8.7243996-15.7354011c-.0451012-.0813007-.1013031-.1539993-.1653023-.2182007-.0056-.0056-.0128975-.0091-.0187988-.0146999-.0770988-.0739994-.1661987-.1308002-.2619019-.1766987-.0278969-.0132999-.0550003-.0247002-.0842972-.0354004-.1096001-.0408001-.224102-.0696011-.3446999-.0696011h-.0049019-18.5625v-4.9833994c0-.5528002-.4472008-1-1-1-.5526981 0-1 .4471998-1 1v4.9833994h-18.5663985c-.0018892 0-.0028887 0-.0048885 0-.1191111.0006008-.232111.0293007-.3405113.0696011-.0300999.0110989-.0573997.0231991-.0857.0370998-.0906.0436993-.1743002.0981998-.2483006.1672001-.0102997.0095997-.0226994.0160999-.0326996.0261002-.0651999.0662003-.1223001.1406994-.1677885.2243996l-8.5102113 15.7256011h-2.0434999c-.33 0-.6386.1630974-.8252.4354973-.1865.2725029-.2265.6192017-.1064.9267998 1.2704999 3.2685013 6.3554997 5.5508003 12.3652 5.5508003 6.0077991 0 11.0928001-2.282299 12.3633003-5.5508003.1201-.3075981.0800991-.6542969-.1064014-.9267998-.1865997-.2723999-.4951992-.4354973-.8251991-.4354973h-1.8337994l-7.8999004-14.2500019h16.8683987v29.3094997h-5.9628983c-.1767006 0-.3505001.0469017-.5029011.1357994l-6.9638996 4.0557022c-.3905888.2275009-.5799999.6884003-.4627991 1.125.1180992.4365005.5135994.7392006.9657993.7392006h27.8514996c.452198 0 .8476982-.3027.9659119-.7392006.1170883-.4365997-.0723114-.8974991-.4629135-1.125l-6.9618988-4.0557022c-.152401-.0888977-.3261871-.1357994-.5029984-.1357994h-5.9629021v-29.3094997h16.8889999l-7.7117004 14.2500019h-2.0424995c-.3300858 0-.6386986.1630974-.8251991.4354973-.1865005.2725029-.2266006.6192017-.1063995.9267998 1.2705116 3.2685013 6.3554001 5.5508003 12.3642006 5.5508003s11.0937996-2.282299 12.3643112-5.5508003c.1200863-.3075982.0800854-.6542969-.1065144-.9267998zm-51.3915977 4.4776001c-4.0448885 0-7.7528892-1.184597-9.5478001-2.9130974h19.0937004c-1.7949009 1.7285004-5.5018997 2.9130974-9.5459003 2.9130974zm-7.1153998-4.9130974 7.1262002-13.1690006 7.3003111 13.1690006zm36.9035124 19.1152h-20.444313l3.5293121-2.0557022h13.3856888zm9.3564873-32.2842006 7.3005104 13.1690006h-14.4268112zm-.0107994 18.082098c-4.0449028 0-7.7518997-1.184597-9.5469017-2.9130974h19.0937996c-1.794899 1.7285004-5.5019989 2.9130974-9.5468979 2.9130974z"/></svg>