<svg viewBox="0 0 512 512" xmlns="http://www.w3.org/2000/svg"><g style="fill:none;stroke:#000;stroke-width:30;stroke-linecap:round;stroke-linejoin:round;stroke-miterlimit:10"><path d="m265.816 240.872 48.159 48.249 139.644-139.904-48.159-48.249z"/><path d="m313.975 289.121-54.062 34.122-26.885-26.936 32.788-55.435"/><path d="m405.46 100.968 42.757-42.826 48.159 48.249-42.757 42.826"/><path d="m66.65 131.473h-51.65v47.947"/><path d="m15.773 402.125v51.733h47.87"/><path d="m445.35 453.858h51.65v-47.948"/><path d="m32.845 288.998c5.824-18.355 18.203-39.72 32.97-58.124 9.112-11.355 27.352-3.292 25.059 11.093-4.412 27.69-7.363 59.73-9.291 87.156-1.074 15.285 19.435 21.206 26.635 7.686l22.115-41.524c5.525-10.374 20.532-9.913 25.392.79 5.549 12.218 12.133 25.291 17.504 34.252h53.222l20.251-20.29"/></g></svg>