<svg height="682.66669" viewBox="0 0 682.66669 682.66669" width="682.66669" xmlns="http://www.w3.org/2000/svg"><g style="fill:none;stroke:#000;stroke-width:30;stroke-linecap:round;stroke-linejoin:round;stroke-miterlimit:10" transform="matrix(1.3333333 0 0 -1.3333333 0 682.66667)"><path d="m0 0-65.98-54.282 14.019 84.282 110 190.525 51.961-30z" transform="translate(321.9805 275.4746)"/><path d="m0 0 51.961-30" transform="translate(270.0195 305.4746)"/><path d="m166 137h-90v360h90z"/><path d="m0 0h30" transform="translate(76 437)"/><path d="m0 0h30" transform="translate(76 377)"/><path d="m0 0h30" transform="translate(76 317)"/><path d="m0 0h30" transform="translate(76 257)"/><path d="m0 0h30" transform="translate(76 197)"/><path d="m0 0h-75.146l75.146 75.146zm-220-60h280v280z" transform="translate(376 75)"/><path d="m0 0h-61v-360h201" transform="translate(76 436)"/><path d="m0 0h-179.378" transform="translate(345.3779 436)"/><path d="m0 0h61v360h-82.34" transform="translate(436 76)"/></g></svg>