<svg height="682.667" viewBox="0 0 682.667 682.667" width="682.667" xmlns="http://www.w3.org/2000/svg"><g fill="none"><path d="m0 0h682.667v682.667h-682.667z"/><g stroke="#f62" stroke-linecap="round" stroke-linejoin="round" stroke-miterlimit="10" stroke-width="40"><path d="m429.307 315.367-87.973 72.376 18.692-112.376 146.667-254.033 69.281 40z"/><path d="m360.026 275.367 69.281 40"/><path d="m221.333 500h-120v-480h120z"/><path d="m101.333 100h40"/><path d="m101.333 180h40"/><path d="m101.333 260h40"/><path d="m101.333 340h40"/><path d="m101.333 420h40"/><path d="m501.333 582.667h-100.194l100.194-100.195zm-293.333 80h373.333v-373.334z"/><path d="m101.333 101.333h-81.333v480h268"/><path d="m460.504 101.333h-239.171"/><path d="m581.333 581.333h81.334v-480h-109.787"/></g></g></svg>