<svg viewBox="0 0 512 512" xmlns="http://www.w3.org/2000/svg"><path d="m506.786 214.631-55.785-48.012v-121.619c0-24.813-20.187-45-45-45h-300c-24.813 0-45 20.187-45 45v121.619l-55.785 48.012c-3.27 2.818-5.215 7.057-5.215 11.369v271c0 8.331 6.811 14.996 14.994 15h.005 482 .005c8.156-.003 14.994-6.65 14.994-15v-271c.002-4.349-1.981-8.585-5.213-11.369zm-55.785-8.431 23.084 19.868-23.084 20.107zm-360-161.2c0-8.271 6.729-15 15-15h300c8.271 0 15 6.729 15 15v227.307c-7.035 6.114-155.015 135.025-155.123 135.119-5.632 4.927-14.124 4.927-19.779-.022-1.539-1.348-70.322-61.254-155.098-135.097zm-30 161.2v39.975l-23.084-20.107zm-31 52.758 136.379 118.792-136.379 91.178zm34.425 223.042 125.393-83.833 36.549 31.836c8.451 7.395 19.047 11.089 29.642 11.089 10.585 0 21.169-3.691 29.599-11.067l36.575-31.858 125.392 83.833zm417.575-13.072-136.379-91.177 136.379-118.793z"/><path d="m259.001 61.075c-61.1-1.571-109.744 41.725-120.502 95.122-5.779 28.69-1.336 57.966 12.502 82.935v16.868c0 24.813 20.187 45 45 45h120c24.813 0 45-20.187 45-45v-16.867c9.826-17.725 15-37.73 15-58.133 0-65.092-51.736-118.246-117-119.925zm74.152 166.297c-1.408 2.337-2.152 5.013-2.152 7.742v20.886c0 8.271-6.729 15-15 15h-15v-15c0-8.284-6.716-15-15-15s-15 6.716-15 15v15h-30v-15c0-8.284-6.716-15-15-15s-15 6.716-15 15v15h-15c-8.271 0-15-6.729-15-15v-20.886c0-2.728-.744-5.405-2.152-7.742-11.64-19.317-15.525-42.49-10.94-65.25 7.784-38.644 42.387-71.078 87.878-71.078 50.221 0 90.214 40.346 90.214 89.956-0 16.388-4.442 32.423-12.848 46.372z"/><path d="m232.709 167.583-30-15c-7.406-3.704-16.419-.702-20.124 6.708s-.702 16.421 6.708 20.125l30 15c7.418 3.709 16.424.692 20.124-6.708 3.705-7.41.702-16.42-6.708-20.125z"/><path d="m329.417 159.292c-3.704-7.409-12.713-10.414-20.124-6.708l-30 15c-7.41 3.705-10.413 12.715-6.708 20.125 3.699 7.398 12.704 10.417 20.124 6.708l30-15c7.41-3.705 10.413-12.715 6.708-20.125z"/></svg>