<svg height="682.667" viewBox="0 0 682.667 682.667" width="682.667" xmlns="http://www.w3.org/2000/svg"><g fill="none"><path d="m0 0h682.667v682.667h-682.667z"/><path d="m622.667 662.667h-562.667c-22.091 0-40-17.91-40-40v-562.667c0-22.092 17.909-40 40-40h562.667c22.09 0 40 17.908 40 40v562.667c0 22.09-17.91 40-40 40z" stroke="#ff6624" stroke-linecap="round" stroke-linejoin="round" stroke-miterlimit="10" stroke-width="40"/><path d="m20 180h642.667" stroke="#ff6624" stroke-linecap="round" stroke-linejoin="round" stroke-miterlimit="10" stroke-width="40"/></g><path d="m161.333 99c0 11.045-8.954 20-20 20-11.045 0-20-8.955-20-20s8.955-20 20-20c11.046 0 20 8.955 20 20" fill="#ff6623"/><path d="m241.333 100c0 11.045-8.954 20-20 20-11.045 0-20-8.955-20-20s8.955-20 20-20c11.046 0 20 8.955 20 20" fill="#ff6623"/><path d="m321.333 100c0 11.045-8.954 20-20 20-11.045 0-20-8.955-20-20s8.955-20 20-20c11.046 0 20 8.955 20 20" fill="#ff6623"/><path d="m542.667 381.333h-401.334v-121.333h401.334z" style="stroke:#ff6624;stroke-width:40;stroke-linecap:round;stroke-linejoin:round;stroke-miterlimit:10;fill:none"/><path d="m341.333 582.667h-200v-121.334h200z" style="stroke:#ff6624;stroke-width:40;stroke-linecap:round;stroke-linejoin:round;stroke-miterlimit:10;fill:none"/><path d="m542.667 582.667h-121.334v-121.334h121.334z" style="stroke:#ff6624;stroke-width:40;stroke-linecap:round;stroke-linejoin:round;stroke-miterlimit:10;fill:none"/></svg>