<svg height="682.66669" viewBox="0 0 682.66669 682.66669" width="682.66669" xmlns="http://www.w3.org/2000/svg"><g transform="matrix(1.3333333 0 0 -1.3333333 0 682.66667)"><path d="m0 0h-422c-16.568 0-30 13.432-30 30v422c0 16.569 13.432 30 30 30h422c16.568 0 30-13.431 30-30v-422c0-16.568-13.432-30-30-30z" style="fill:none;stroke:#000;stroke-width:30;stroke-linecap:round;stroke-linejoin:round;stroke-miterlimit:10" transform="translate(467 15)"/><path d="m0 0h482" style="fill:none;stroke:#000;stroke-width:30;stroke-linecap:round;stroke-linejoin:round;stroke-miterlimit:10" transform="translate(15 377)"/><path d="m0 0c0-8.284-6.716-15-15-15s-15 6.716-15 15 6.716 15 15 15 15-6.716 15-15" transform="translate(121 437)"/><path d="m0 0c0-8.284-6.716-15-15-15s-15 6.716-15 15 6.716 15 15 15 15-6.716 15-15" transform="translate(181 437)"/><path d="m0 0c0-8.284-6.716-15-15-15s-15 6.716-15 15 6.716 15 15 15 15-6.716 15-15" transform="translate(241 437)"/><g style="fill:none;stroke:#000;stroke-width:30;stroke-linecap:round;stroke-linejoin:round;stroke-miterlimit:10"><path d="m407 226h-301v91h301z"/><path d="m256 75h-150v91h150z"/><path d="m407 75h-91v91h91z"/></g></g></svg>