<svg viewBox="0 0 218.598 218.598" xmlns="http://www.w3.org/2000/svg"><path d="m175.43 36.592c-2.162 0-4.248.329-6.215.934v-7.146c0-11.697-9.514-21.214-21.209-21.214-3.14 0-6.113.703-8.798 1.932-3.599-6.606-10.608-11.098-18.647-11.098-11.042 0-20.13 8.482-21.115 19.273-1.993-.623-4.112-.959-6.307-.959-11.698 0-21.215 9.521-21.215 21.223v57.094l-4.888-6.687c-7.709-11.637-22.998-15.47-34.254-8.492-5.259 3.333-8.915 8.586-10.294 14.791-1.437 6.467-.212 13.479 3.361 19.331 1.68 3.621 12.629 26.754 28.854 50.241 24.195 35.023 47.572 52.782 69.481 52.782 59.486 0 72.514-51.663 72.514-71.569v-89.222c-.001-11.698-9.541-21.214-21.268-21.214zm6.267 110.436c0 .565-.658 56.569-57.514 56.569-34.176 0-72.872-68.363-84.897-94.704-.146-.319-.314-.63-.503-.926-1.667-2.607-2.269-5.694-1.652-8.471.359-1.615 1.289-3.859 3.618-5.336 4.374-2.713 10.581-.85 13.837 4.149.074.113.15.225.23.334l18.553 25.382c1.915 2.62 5.296 3.71 8.382 2.704 3.085-1.008 5.172-3.885 5.172-7.13v-80.062c0-3.432 2.788-6.223 6.215-6.223 3.424 0 6.209 2.791 6.209 6.223v57.188c0 4.143 3.358 7.5 7.5 7.5s7.5-3.357 7.5-7.5v-57.188-18.324c0-3.426 2.787-6.213 6.213-6.213 3.43 0 6.22 2.787 6.22 6.213v9.167 66.345c0 4.143 3.358 7.5 7.5 7.5s7.5-3.357 7.5-7.5v-66.345c0-3.427 2.793-6.214 6.225-6.214 3.424 0 6.209 2.787 6.209 6.214v27.426 48.074c0 4.143 3.358 7.5 7.5 7.5s7.5-3.357 7.5-7.5v-48.074c0-3.427 2.788-6.214 6.215-6.214 3.456 0 6.268 2.787 6.268 6.214z"/></svg>