<svg height="800" viewBox="0 0 800 800" width="800" xmlns="http://www.w3.org/2000/svg"><path d="m0 0h800v800h-800z" fill="none"/><path d="m400 0c220.914 0 400 179.086 400 400s-179.086 400-400 400-400-179.086-400-400 179.086-400 400-400zm78.527 349.32c-8.538-.031-16.757 3.241-22.937 9.133l-1.524-7.258h-25.781v136.469l29.258-6.203.117-33.125c4.211 3.047 10.414 7.375 20.719 7.375 20.953 0 40.031-16.852 40.031-53.953-.094-33.946-19.406-52.438-39.883-52.438zm-7.031 26.016c10.649 0 18.024 11.937 18.024 27.273.007 15.649-7.25 27.352-18.016 27.352h-.008c-6.906 0-11-2.461-13.812-5.469l-.118-43.422c3.047-3.39 7.258-5.734 13.93-5.734zm-173.453-49.422-28.523 6.117-.118 93.75c0 17.321 12.993 30.078 30.313 30.078 9.594 0 16.617-1.757 20.484-3.859v-23.789c-3.742 1.523-22.234 6.906-22.234-10.414v-41.555h22.234v-24.93h-22.273zm-69.148 23.406c-23.758 0-39.563 12.407-39.563 33.125 0 32.305 44.477 27.157 44.477 41.078 0 5.383-4.688 7.141-11.235 7.141-9.711 0-22.125-3.976-31.953-9.375v27.859c10.089 4.366 20.96 6.636 31.953 6.672 24.344 0 41.078-12.054 41.078-33.008-.132-34.867-44.726-28.664-44.726-41.773 0-4.562 3.742-6.32 9.945-6.32 10.125.212 20.061 2.777 29.024 7.492v-27.524c-9.232-3.636-19.079-5.458-29-5.367zm339.523 0c-27.734 0-44.711 23.641-44.711 53.375 0 35.227 19.898 53.024 48.438 53.024 13.929 0 24.46-3.125 32.421-7.61v-23.437c-7.961 3.976-17.086 6.437-28.671 6.437-11.352 0-21.422-3.976-22.704-17.789h57.235c.008-1.5.242-7.586.242-10.39 0-29.961-14.516-53.61-42.25-53.61zm-.11 23.742c7.141 0 14.751 5.469 14.751 18.75h-30.204c0-13.226 8.079-18.75 15.454-18.75zm-150.882-21.75h-29.375v102.415h29.375zm-42.432-1.161c-8.095-.364-14.333 2.812-18.428 9.818l-1.89-8.657h-25.266v102.407h29.258v-69.407c6.906-9.015 18.609-7.374 22.234-6.085v-26.915c-1.892-.748-3.911-.914-5.908-1.161zm42.432-37.815-29.375 6.203v23.875l29.375-6.32z"/></svg>