<svg height="682.66669" viewBox="0 0 682.66669 682.66669" width="682.66669" xmlns="http://www.w3.org/2000/svg"><g style="fill:none;stroke:#000;stroke-width:30;stroke-linecap:round;stroke-linejoin:round;stroke-miterlimit:10"><path d="m0 0v-46.989s-3.759-93.288 86.072-93.288 86.073 93.288 86.073 93.288v46.989" transform="matrix(1.3333333 0 0 -1.3333333 226.57026100241 475.6226751761)"/><path d="m0 0 136.671-58.149c11.067-4.708 18.252-15.571 18.255-27.598l.002-7.545h-482l.001 7.544c.002 12.027 7.188 22.891 18.255 27.6l136.671 58.148" transform="matrix(1.3333333 0 0 -1.3333333 456.09638859759 538.27494027646)"/><path d="m0 0c-65.059 0-112.046 47.906-112.046 107v123.179c23.046 110.32 79.934 49.653 112.046 49.653s86.072 60.667 112.046-49.653v-123.179c0-59.094-46.987-107-112.046-107z" transform="matrix(1.3333333 0 0 -1.3333333 341.3333248 525.10720727232)"/><path d="m0 0h-40c-16.568 0-30 13.431-30 30v64.51c0 16.568 13.432 30 30 30h40z" transform="matrix(1.3333333 0 0 -1.3333333 191.93826186821 384.21494412796)"/><path d="m0 0h-40v124.51h40c16.569 0 30-13.432 30-30v-64.51c0-16.569-13.431-30-30-30z" transform="matrix(1.3333333 0 0 -1.3333333 544.06171973179 384.21494412796)"/><path d="m0 0-35.211-23.48c-11.501-7.668-25.013-11.761-38.836-11.761h-25.369" transform="matrix(1.3333333 0 0 -1.3333333 490.72838773179 384.21494412796)"/><path d="m0 0v5.189c0 79.231-33.461 143.461-143.461 143.461s-143.461-64.23-143.461-143.461v-5.189" transform="matrix(1.3333333 0 0 -1.3333333 532.61478668463 218.20174827829)"/></g></svg>