<svg height="682.667" viewBox="0 0 682.667 682.667" width="682.667" xmlns="http://www.w3.org/2000/svg"><g fill="none"><path d="m0 0h682.667v682.667h-682.667z"/><g stroke="#f62" stroke-linecap="round" stroke-linejoin="round" stroke-miterlimit="10" stroke-width="40"><path d="m226.57 475.623v62.652s-5.012 124.384 114.763 124.384 114.764-124.384 114.764-124.384v-62.652"/><path d="m456.096 538.275 182.228 77.532c14.756 6.277 24.336 20.761 24.34 36.797l.003 10.06h-642.667l.002-10.058c.002-16.036 9.584-30.522 24.34-36.8l182.228-77.531"/><path d="m341.333 525.107c-86.745 0-149.394-63.874-149.394-142.666v-164.239c30.728-147.093 106.578-66.204 149.394-66.204s114.763-80.889 149.395 66.204v164.239c0 78.792-62.649 142.666-149.395 142.666z"/><path d="m191.938 384.215h-53.333c-22.091 0-40-17.908-40-40v-86.013c0-22.091 17.909-40 40-40h53.333z"/><path d="m544.062 384.215h-53.334v-166.013h53.334c22.092 0 40 17.909 40 40v86.013c0 22.092-17.908 40-40 40z"/><path d="m490.728 384.215-46.948 31.307c-15.334 10.224-33.35 15.681-51.781 15.681h-33.825"/><path d="m532.615 218.202v-6.919c0-105.641-44.615-191.281-191.282-191.281-146.666 0-191.281 85.64-191.281 191.281v6.919"/></g></g></svg>