<svg height="682.66669" viewBox="0 0 682.66669 682.66669" width="682.66669" xmlns="http://www.w3.org/2000/svg"><g style="fill:none;stroke:#000;stroke-width:30;stroke-linecap:round;stroke-linejoin:round;stroke-miterlimit:22.926"><path d="m0 0h147.998c15.424 0 28.002-12.579 28.002-28.001v-309.999l-91.488 56.001h-181.509c-15.422 0-28.002 12.579-28.002 28.002v94.561" transform="matrix(1.3333333 0 0 -1.3333333 427.9986559667 212.0000151)"/><path d="m0 0c84.499 0 152.999-68.5 152.999-153 0-84.499-68.5-152.999-152.999-152.999-27.829 0-53.922 7.431-76.403 20.416l-76.597-28.309 27.251 73.732c-17.175 24.733-27.251 54.768-27.251 87.16 0 84.5 68.501 153 153 153z" transform="matrix(1.3333333 0 0 -1.3333333 223.9999944 20.0000199)"/><path d="m0 0 39.5-39.5 75.5 75.5" transform="matrix(1.3333333 0 0 -1.3333333 160.66599598335 216.66668165)"/><path d="m0 0 99-99" transform="matrix(1.3333333 0 0 -1.3333333 395.3319901167 334.66734536665)"/><path d="m0 0-99-99" transform="matrix(1.3333333 0 0 -1.3333333 527.3319868167 334.66734536665)"/></g></svg>