<svg viewBox="0 0 512 512" xmlns="http://www.w3.org/2000/svg"><path d="m467.692 44.308h-423.384c-24.432 0-44.308 19.876-44.308 44.307v334.769c0 24.431 19.876 44.308 44.308 44.308h423.385c24.431 0 44.308-19.876 44.308-44.308v-334.769c-.001-24.431-19.877-44.307-44.309-44.307zm-344.615 393.846h-78.769c-8.144 0-14.769-6.625-14.769-14.769v-47.589h93.538zm0-91.898h-93.539v-62.359h93.538v62.359zm0-91.897h-93.539v-62.359h93.538v62.359zm123.077 183.795h-93.539v-62.359h93.539zm0-91.898h-93.539v-62.359h93.539zm0-91.897h-93.539v-62.359h93.539zm123.077 183.795h-93.538v-62.359h93.538zm0-91.897h-93.538v-62.359h93.538zm0-91.898h-93.538v-62.359h93.538zm113.231 169.026c0 8.144-6.625 14.769-14.769 14.769h-68.923v-62.359h83.692zm0-77.129h-83.692v-62.359h83.692zm0-91.897h-83.692v-62.359h83.692zm0-91.897h-452.924v-73.847c0-8.144 6.625-14.769 14.769-14.769h423.385c8.144 0 14.769 6.625 14.769 14.769v73.847z"/></svg>