<svg height="682.66669" viewBox="0 0 682.66669 682.66669" width="682.66669" xmlns="http://www.w3.org/2000/svg"><g style="fill:none;stroke:#000;stroke-width:30;stroke-linecap:round;stroke-linejoin:round;stroke-miterlimit:10"><path d="m0 0h-194.316l-235.864-235.859c-15.599-15.604-15.599-41.135 0-56.734l177.703-177.701c15.602-15.601 41.129-15.601 56.733.002l235.859 235.862.006 194.315c-.002 22.064-18.055 40.115-40.121 40.115z" transform="matrix(1.3333333 0 0 -1.3333333 609.17185143737 20.00388656657)"/><path d="m0 0c-12.549-12.549-32.895-12.549-45.443 0-12.549 12.549-12.549 32.895 0 45.441 12.548 12.551 32.894 12.553 45.443 0 12.549-12.546 12.549-32.892 0-45.441z" transform="matrix(1.3333333 0 0 -1.3333333 536.66665325 206.58721523532)"/></g></svg>