<svg height="682.66669" viewBox="0 0 682.66669 682.66669" width="682.66669" xmlns="http://www.w3.org/2000/svg"><g style="fill:none;stroke:#000;stroke-width:30;stroke-linecap:round;stroke-linejoin:round;stroke-miterlimit:10"><path d="m0 0c-82.705 0-159.614 67.295-171.429 150s45.866 150 128.572 150c82.705 0 157.513-67.295 169.328-150s-43.766-150-126.471-150z" transform="matrix(1.3333333 0 0 -1.3333333 411.23825638571 541.3333402)"/><path d="m0 0 8.571-60 68.572-60" transform="matrix(1.3333333 0 0 -1.3333333 371.23825738571 261.3333472)"/><path d="m0 0 4.286-30" transform="matrix(1.3333333 0 0 -1.3333333 354.09505781429 141.3333502)"/><path d="m0 0 4.286-30" transform="matrix(1.3333333 0 0 -1.3333333 405.52412319523 501.3333412)"/><path d="m0 0h30" transform="matrix(1.3333333 0 0 -1.3333333 182.6666621 341.3333452)"/><path d="m0 0h30" transform="matrix(1.3333333 0 0 -1.3333333 539.86651983667 341.3333452)"/><path d="m0 0c16.569-115.98-61.92-210-177.9-210s-223.432 94.02-240 210 64.02 210 180 210 221.332-94.02 237.9-210z" transform="matrix(1.3333333 0 0 -1.3333333 659.86651683667 341.3333452)"/><path d="m0 0h69.317" transform="matrix(1.3333333 0 0 -1.3333333 54.3319986417 461.3333422)"/><path d="m0 0h62" transform="matrix(1.3333333 0 0 -1.3333333 19.9999995 341.3333452)"/><path d="m0 0h64.521" transform="matrix(1.3333333 0 0 -1.3333333 26.44013267233 221.3333482)"/></g></svg>