<svg height="682.66669" viewBox="0 0 682.66669 682.66669" width="682.66669" xmlns="http://www.w3.org/2000/svg"><g style="fill:none;stroke:#000;stroke-width:30;stroke-linecap:round;stroke-linejoin:round;stroke-miterlimit:10" transform="matrix(1.3333333 0 0 -1.3333333 0 682.66667)"><path d="m0 0v60c0 22.092-17.909 40-40 40-11.046 0-20-8.954-20-20v-50c0-27.614-22.386-50-50-50h-30v-200h40c26.305-13.152 55.311-20 84.721-20h65.279" transform="translate(215 255)"/><path d="m0 0h20c16.568 0 30-13.432 30-30s-13.432-30-30-30h-30" transform="translate(275 75)"/><path d="m0 0h40c16.568 0 30-13.432 30-30s-13.432-30-30-30h-40" transform="translate(275 135)"/><path d="m0 0h60c16.568 0 30-13.432 30-30s-13.432-30-30-30h-60" transform="translate(275 195)"/><path d="m0 0h100c16.568 0 30-13.432 30-30s-13.432-30-30-30h-40" transform="translate(215 255)"/><path d="m75 15h-60v240h60z"/><path d="m0 0c0-55.229-44.771-100-100-100s-100 44.771-100 100 44.771 100 100 100 100-44.771 100-100z" transform="translate(497 397)"/><path d="m0 0-47.141-47.141-23.57 23.571" transform="translate(432.3555 414.3408)"/></g></svg>