<svg height="682.66669" viewBox="0 0 682.66669 682.66669" width="682.66669" xmlns="http://www.w3.org/2000/svg"><g style="fill:none;stroke:#000;stroke-width:30;stroke-linecap:round;stroke-linejoin:round;stroke-miterlimit:10"><path d="m0 0-49.497-77.781-35.356-7.072-197.177-197.177-42.427 42.426 197.178 197.178 7.071 35.356 77.781 49.497z" transform="matrix(1.3333333 0 0 -1.3333333 662.6666501 76.56908515244)"/><path d="m0 0c23.432-23.431 61.422-23.431 84.854 0l118.755 118.757-84.852 84.852-118.757-118.755c-23.431-23.432-23.431-61.422 0-84.854z" transform="matrix(1.3333333 0 0 -1.3333333 43.43093224756 639.23573775244)"/><path d="m0 0-113.138 113.138" transform="matrix(1.3333333 0 0 -1.3333333 333.76692498916 499.75000790625)"/><path d="m0 0-76.331-76.331" transform="matrix(1.3333333 0 0 -1.3333333 200.44146165563 482.22520834437)"/><path d="m0 0-89.049 89.05c-28.008-9.635-60.275-3.365-82.629 18.988-22.352 22.354-28.623 54.62-18.987 82.628l47.271-40.202 42.427 42.427-40.201 47.272c28.008 9.636 60.274 3.366 82.628-18.987 22.353-22.354 28.623-54.62 18.988-82.629l89.049-89.049" transform="matrix(1.3333333 0 0 -1.3333333 280.05079299873 346.04814508213)"/><path d="m0 0 89.049-89.049c28.008 9.635 60.275 3.364 82.629-18.989 22.352-22.353 28.623-54.619 18.987-82.627l-47.271 40.201-42.427-42.426 40.201-47.273c-28.008-9.634-60.274-3.364-82.628 18.989-22.353 22.354-28.623 54.619-18.988 82.627l-89.05 89.05" transform="matrix(1.3333333 0 0 -1.3333333 402.61585660127 336.61974531784)"/><path d="m0 0-89.05 89.049c9.635 28.008 3.365 60.275-18.988 82.629-22.354 22.352-54.62 28.623-82.628 18.987l40.202-47.271-42.427-42.427-47.272 40.201c-9.636-28.008-3.366-60.274 18.987-82.628 22.354-22.353 54.62-28.623 82.629-18.988l89.049-89.049" transform="matrix(1.3333333 0 0 -1.3333333 346.04812468213 280.05081339873)"/><path d="m0 0 89.049-89.049c-9.635-28.008-3.364-60.275 18.989-82.629 22.353-22.352 54.619-28.623 82.627-18.987l-40.201 47.271 42.426 42.427 47.273-40.201c9.634 28.008 3.364 60.274-18.989 82.628-22.354 22.353-54.619 28.623-82.627 18.988l-89.05 89.05" transform="matrix(1.3333333 0 0 -1.3333333 336.61972491784 402.61587700127)"/></g></svg>