<svg height="682.66669" viewBox="0 0 682.66669 682.66669" width="682.66669" xmlns="http://www.w3.org/2000/svg"><g style="fill:none;stroke:#000;stroke-width:30;stroke-linecap:round;stroke-linejoin:round;stroke-miterlimit:10"><path d="m0 0v82" transform="matrix(1.3333333 0 0 -1.3333333 261.3333268 662.6666705)"/><path d="m0 0v-82" transform="matrix(1.3333333 0 0 -1.3333333 421.3333228 553.3333399)"/><path d="m0 0h-200" transform="matrix(1.3333333 0 0 -1.3333333 474.6666548 662.6666705)"/><path d="m0 0h482" transform="matrix(1.3333333 0 0 -1.3333333 19.9999995 473.3333419)"/><path d="m0 0 94.709-172.802c10.445-19.059-3.346-42.344-25.08-42.344h-189.417c-21.733 0-35.524 23.285-25.079 42.344l94.708 172.802c10.855 19.805 39.305 19.805 50.159 0z" transform="matrix(1.3333333 0 0 -1.3333333 374.77212396403 106.47135107155)"/><path d="m0 0h-422c-16.568 0-30-13.431-30-30v-340c0-16.568 13.432-30 30-30h422c16.568 0 30 13.432 30 30v340c0 16.569-13.432 30-30 30z" transform="matrix(1.3333333 0 0 -1.3333333 622.6666511 20.0000199)"/></g><path d="m0 0c0-8.284-6.716-15-15-15-8.285 0-15 6.716-15 15 0 8.285 6.715 15 15 15 8.284 0 15-6.715 15-15" transform="matrix(1.3333333 0 0 -1.3333333 361.3333243 320.0000124)"/><path d="m0 0v60" style="fill:none;stroke:#000;stroke-width:30;stroke-linecap:round;stroke-linejoin:round;stroke-miterlimit:10" transform="matrix(1.3333333 0 0 -1.3333333 341.45305813034 260.0000139)"/></svg>