<svg height="330" viewBox="0 0 330 330" width="330" xmlns="http://www.w3.org/2000/svg"><path d="m0 0h330v330h-330z" fill="none"/><g fill="#ff6621"><path d="m165 0c-90.981 0-165 74.018-165 165 0 90.98 74.019 165 165 165s165-74.02 165-165c0-90.982-74.019-165-165-165zm0 300c-74.439 0-135-60.561-135-135s60.561-135 135-135 135 60.561 135 135-60.561 135-135 135z"/><path d="m175.608 64.393c-5.857-5.857-15.355-5.857-21.213 0l-57.275 57.271c-5.857 5.857-5.858 15.355-.001 21.213 5.858 5.857 15.355 5.859 21.214.002l31.669-31.668v83.789c0 8.283 6.716 15 15 15s15-6.717 15-15v-83.787l31.665 31.664c2.929 2.93 6.768 4.395 10.606 4.395 3.839 0 7.678-1.465 10.606-4.395 5.858-5.857 5.858-15.354 0-21.213z"/><path d="m195 240h-60c-8.284 0-15 6.715-15 15 0 8.283 6.716 15 15 15h60c8.284 0 15-6.717 15-15 0-8.285-6.716-15-15-15z"/></g></svg>