<svg height="682.66669" viewBox="0 0 682.66669 682.66669" width="682.66669" xmlns="http://www.w3.org/2000/svg"><g style="fill:none;stroke:#000;stroke-width:30;stroke-linecap:round;stroke-linejoin:round;stroke-miterlimit:10"><path d="m0 0c0-133.101-107.9-241-241-241-133.103 0-241 107.899-241 241 0 133.103 107.897 241 241 241 133.1 0 241-107.897 241-241z" transform="matrix(1.3333333 0 0 -1.3333333 662.6666501 341.3333452)"/><path d="m0 0c0-53.24-43.158-96.4-96.4-96.4-53.244 0-96.401 43.16-96.401 96.4 0 53.239 43.157 96.399 96.401 96.399 53.242 0 96.4-43.16 96.4-96.399z" transform="matrix(1.3333333 0 0 -1.3333333 469.86718825332 298.48827960446)"/><path d="m0 0c7.71 72.602 69.142 129.158 143.787 129.158 74.647 0 136.078-56.56 143.785-129.16" transform="matrix(1.3333333 0 0 -1.3333333 149.61719625957 599.23307208584)"/></g></svg>