<svg height="682.66669" viewBox="0 0 682.66669 682.66669" width="682.66669" xmlns="http://www.w3.org/2000/svg"><g style="fill:none;stroke:#000;stroke-width:30;stroke-linecap:round;stroke-linejoin:round;stroke-miterlimit:10"><path d="m0 0c57.64 0 104.434-46.794 104.434-104.434 0-57.638-46.794-104.432-104.434-104.432-57.639 0-104.434 46.794-104.434 104.432 0 57.64 46.795 104.434 104.434 104.434z" transform="matrix(1.3333333 0 0 -1.3333333 277.06639307334 20.0000199)"/><path d="m0 0c53.205 0 96.4-43.195 96.4-96.399 0-53.205-43.195-96.401-96.4-96.401-53.204 0-96.399 43.196-96.399 96.401 0 53.204 43.195 96.399 96.399 96.399z" transform="matrix(1.3333333 0 0 -1.3333333 534.13278664668 405.60027692666)"/><path d="m0 0h-385.6v80.333c0 106.41 86.391 192.801 192.8 192.801 66.878 0 125.851-34.126 160.442-85.909-37.307-13.311-64.041-48.971-64.041-90.825 0-53.205 43.195-96.4 96.399-96.4z" transform="matrix(1.3333333 0 0 -1.3333333 534.13278664668 662.6666705)"/><path d="m0 0 32.133-32.134 96.4 96.401" transform="matrix(1.3333333 0 0 -1.3333333 491.28905438444 512.71094091556)"/></g></svg>