<svg height="800" viewBox="0 0 800 800" width="800" xmlns="http://www.w3.org/2000/svg"><path d="m0 0h800v800h-800z" fill="none"/><path d="m599.133 233.333c.569-5.537.858-11.1.867-16.666.034-86.884-60.922-161.86-145.983-179.56-85.061-17.701-170.866 26.735-205.493 106.419-34.628 79.685-8.569 172.733 62.409 222.841l-71.6 137.433c-7.379-2.351-15.057-3.631-22.8-3.8-46.023.074-83.273 37.443-83.199 83.467.073 46.023 37.442 83.273 83.466 83.199 46.024-.073 83.274-37.442 83.2-83.466.503-25.111-11.016-48.953-31-64.167l85.867-164.766-13.667-8.034c-62.859-36.593-90.407-113.01-65.356-181.295 25.05-68.284 95.48-108.757 167.091-96.02 71.61 12.737 123.764 75.014 123.732 147.749-.008 5.031-.253 10.058-.734 15.066zm-382.366 399.967c-27.619.074-50.066-22.259-50.133-49.878-.068-27.618 22.27-50.06 49.888-50.122 27.619-.061 50.056 22.281 50.111 49.9-.25 27.48-22.388 49.736-49.866 50.133zm399.9-233.3c-16.302-.328-32.578 1.431-48.434 5.233l-91.466-131.366c15.041-15.219 23.402-35.803 23.233-57.2.653-37.657-23.61-71.233-59.568-82.434-35.959-11.2-74.997 2.658-95.844 34.025s-18.508 72.725 5.743 101.541c24.251 28.817 64.603 38.185 99.069 23.001l105.667 151.9 12-4.333c15.987-5.261 32.78-7.642 49.6-7.034 82.842.074 149.94 67.291 149.866 150.134-.073 82.842-67.29 149.94-150.133 149.866h-.2c-39.102-1.491-76.218-17.611-104-45.166l-23.433 23.666c33.992 33.85 79.615 53.46 127.566 54.834h.367c101.252 0 183.333-82.081 183.333-183.334 0-101.252-82.081-183.333-183.333-183.333zm-250-183.333c0-27.615 22.385-50 50-50 27.614 0 50 22.385 50 50 0 27.614-22.386 50-50 50-27.546-.164-49.837-22.454-50-50zm250 450c43.865.043 80.254-33.925 83.225-77.689 2.971-43.765-28.494-82.339-71.962-88.225-43.468-5.885-84.057 22.935-92.83 65.914h-168.333l-.1 16.566c-.777 82.536-67.466 149.269-150 150.1-82.646-.473-149.527-67.354-150-150-.116-66.11 42.189-124.838 104.933-145.666l-9.867-31.8c-76.619 25.239-128.392 96.797-128.4 177.466.583 101.01 82.324 182.751 183.334 183.334 94.365-1.11 172.903-72.795 182.6-166.667h136c7.747 38.8 41.834 66.717 81.4 66.667zm0-133.334c27.614 0 50 22.386 50 50 0 27.615-22.386 50-50 50-27.615 0-50-22.385-50-50 .163-27.546 22.454-49.836 50-50z" fill="#f62"/></svg>