<svg height="800" viewBox="0 0 24 24" width="800" xmlns="http://www.w3.org/2000/svg"><path d="m17.974 7a4.967 4.967 0 0 0 .026-.5 5.5 5.5 0 1 0 -8.672 4.491l-2.148 4.123a2.428 2.428 0 0 0 -.684-.114 2.5 2.5 0 1 0 2.504 2.496 2.36 2.36 0 0 0 -.93-1.925l2.576-4.943-.41-.241a4.5 4.5 0 1 1 6.764-3.887 4.8 4.8 0 0 1 -.022.452zm-11.471 11.999a1.5 1.5 0 1 1 1.496-1.503 1.518 1.518 0 0 1 -1.496 1.504zm11.997-6.999a5.735 5.735 0 0 0 -1.453.157l-2.744-3.941a2.414 2.414 0 0 0 .697-1.716 2.544 2.544 0 1 0 -1.518 2.284l3.17 4.557.36-.13a4.267 4.267 0 0 1 1.488-.211 4.5 4.5 0 1 1 -.008 9h-.006a4.684 4.684 0 0 1 -3.12-1.355l-.703.71a5.653 5.653 0 0 0 3.827 1.645h.011a5.5 5.5 0 0 0 0-11zm-7.5-5.5a1.5 1.5 0 1 1 1.5 1.5 1.509 1.509 0 0 1 -1.5-1.5zm7.5 13.5a2.5 2.5 0 1 0 -2.447-3h-5.05l-.003.497a4.546 4.546 0 0 1 -4.5 4.503 4.526 4.526 0 0 1 -4.5-4.5 4.596 4.596 0 0 1 3.148-4.37l-.296-.954a5.606 5.606 0 0 0 -3.852 5.324 5.532 5.532 0 0 0 5.5 5.5 5.573 5.573 0 0 0 5.478-5h4.08a2.487 2.487 0 0 0 2.442 2zm0-4a1.5 1.5 0 1 1 -1.5 1.5 1.509 1.509 0 0 1 1.5-1.5z"/><path d="m0 0h24v24h-24z" fill="none"/></svg>