<svg height="512" viewBox="0 0 512 512" width="512" xmlns="http://www.w3.org/2000/svg"><g style="fill:none;stroke:#000;stroke-width:30;stroke-linecap:round;stroke-linejoin:round;stroke-miterlimit:10"><path d="m104.926 394.34h-74.926c-8.284 0-15-6.716-15-15v-349.34c0-8.284 6.716-15 15-15h452c8.284 0 15 6.716 15 15v349.34c0 8.284-6.716 15-15 15h-74.362"/><path d="m222.523 394.34h-55.671"/><path d="m345.302 394.34h-60.284"/><circle cx="252.523" cy="165.047" r="30"/><circle cx="134.926" cy="224.52" r="30"/><circle cx="375.302" cy="185.96" r="30"/><path d="m497 75.326h-482"/><path d="m436.979 497h-361.958"/><path d="m345.398 299.099h59.808v197.901h-59.808z" transform="matrix(-1 -0 0 -1 750.6038 796.0989)"/><path d="m225.21 278.399h59.808v218.601h-59.808z" transform="matrix(-1 -0 0 -1 510.2274 775.3986)"/><path d="m105.021 337.523h59.808v159.477h-59.808z" transform="matrix(-1 -0 0 -1 269.851 834.5233)"/><path d="m166.852 208.374 55.671-28.155"/><path d="m340.109 179.966-53.848-9.172"/></g></svg>