<svg height="682.66669" viewBox="0 0 682.66669 682.66669" width="682.66669" xmlns="http://www.w3.org/2000/svg"><g style="fill:none;stroke:#000;stroke-width:30;stroke-linecap:round;stroke-linejoin:round;stroke-miterlimit:10"><path d="m0 0c0-132.548-108.452-241-241-241s-241 108.452-241 241 108.452 241 241 241 241-108.452 241-241z" transform="matrix(1.3333333 0 0 -1.3333333 662.6666501 341.3333452)"/><path d="m0 0 16.5-49.477c6.623-19.46-7.844-39.666-28.401-39.666h-18.099c-16.569 0-30-13.431-30-30v-10.112c0-11.284-5.472-22.523-15.449-27.64-24.178-12.4-35.41-40.53-23.258-64.834l8.707-17.414-68.127 45.418c-12.586 8.391-17.306 25.077-10.024 38.336 10.013 18.234.011 40.781-19.948 45.771l-38.624 9.405" transform="matrix(1.3333333 0 0 -1.3333333 381.3333238 22.47575317144)"/><path d="m0 0c9.193-18.386 27.985-30 48.541-30h26.459v-30c0-16.706-6.828-31.818-17.846-42.697-31.238-30.843-58.272-66.656-72.154-108.303l-10.819 21.638c-12.614 25.227-19.181 54.044-19.181 82.248 0 10.958-4.353 21.467-12.102 29.215l-17.898 17.899 8.941 8.941c12.576 12.576 15.694 31.789 7.74 47.697l-16.681 33.362h26.459c20.556 0 39.348-11.614 48.541-30z" transform="matrix(1.3333333 0 0 -1.3333333 361.3333243 381.3333442)"/><path d="m0 0-7.475-22.425c-1.473-4.418-3.954-8.433-7.247-11.726l-16.206-16.206c-5.626-5.626-8.786-13.256-8.786-21.213v-17.574c0-16.568 13.431-30 30-30 16.568 0 30-13.431 30-30v-22.918c0-4.657-1.085-9.25-3.167-13.416l-5.125-10.249c-9.973-19.947 4.531-43.417 26.833-43.417h34.898" transform="matrix(1.3333333 0 0 -1.3333333 554.28585280952 102.47521783812)"/></g></svg>