<svg height="682.667" viewBox="0 0 682.667 682.667" width="682.667" xmlns="http://www.w3.org/2000/svg"><g fill="none"><path d="m0 0h682.667v682.667h-682.667z"/><g stroke="#f62" stroke-linecap="round" stroke-linejoin="round" stroke-miterlimit="10" stroke-width="40"><path d="m662.667 341.333c0 176.731-144.603 321.334-321.334 321.334-176.73 0-321.333-144.603-321.333-321.334 0-176.73 144.603-321.333 321.333-321.333 176.731 0 321.334 144.603 321.334 321.333z"/><path d="m381.333 22.476 22 65.969c8.831 25.947-10.458 52.888-37.868 52.888h-24.132c-22.092 0-40 17.908-40 40v13.483c0 15.045-7.296 30.03-20.598 36.853-32.238 16.533-47.214 54.04-31.011 86.445l11.609 23.219-90.836-60.557c-16.781-11.188-23.074-33.436-13.365-51.115 13.351-24.312.015-54.375-26.597-61.028l-51.499-12.54"/><path d="m361.333 381.333c12.258 24.515 37.314 40 64.722 40h35.278v40c0 22.275-9.104 42.424-23.794 56.93-41.651 41.124-77.696 88.874-96.206 144.404l-14.425-28.851c-16.819-33.636-25.575-72.059-25.575-109.664 0-14.611-5.804-28.623-16.136-38.953l-23.864-23.866 11.922-11.921c16.768-16.768 20.925-42.385 10.32-63.596l-22.242-44.483h35.279c27.408 0 52.464 15.486 64.721 40z"/><path d="m554.286 102.475-9.967 29.9c-1.964 5.891-5.272 11.244-9.662 15.635l-21.608 21.608c-7.502 7.501-11.715 17.675-11.715 28.284v23.432c0 22.091 17.908 40 40 40 22.091 0 40 17.908 40 40v30.557c0 6.21-1.447 12.334-4.223 17.888l-6.833 13.666c-13.297 26.596 6.041 57.889 35.777 57.889h46.531"/></g></g></svg>