<svg height="32" viewBox="0 0 32 32" width="32" xmlns="http://www.w3.org/2000/svg"><g fill="none"><path d="m0 0h32v32h-32z"/><g stroke="#ff6621" stroke-linecap="round" stroke-linejoin="round" stroke-miterlimit="10" stroke-width="2"><path d="m3 11h13"/><path d="m16 11h13"/><path d="m16 2v28"/><path d="m16 27h13v-22h-13"/><path d="m16 5h-13v22h13"/><path d="m22.5 19h-2.5v-3h2.5c.8 0 1.5.7 1.5 1.5 0 .8-.7 1.5-1.5 1.5z"/><path d="m23.5 22h-3.5v-3h3.5c.8 0 1.5.7 1.5 1.5 0 .8-.7 1.5-1.5 1.5z"/><path d="m6 22 3.5-6 3.5 6"/><path d="m7 21h5"/></g></g></svg>