<svg height="82" viewBox="0 0 82 82" width="82" xmlns="http://www.w3.org/2000/svg"><path d="m0 0h82v82h-82z" fill="none"/><path d="m41 0c-33.498 0-41 .316-41 41s7.502 41 41 41 41-.316 41-41c0-40.684-7.502-41-41-41z" fill="#058ffe"/><path d="m39.833 49.38-2.034 4.581c-.89 1.779-3.38 1.779-4.091 0l-1.957-4.624q-2.845-6.225-8.892-8.893l-5.336-2.49c-1.779-.711-1.779-3.379 0-4.091l5.158-2.312q6.225-2.845 8.893-9.248l2.312-4.802c.711-1.779 3.201-1.779 3.913 0l1.956 4.802q2.846 6.403 9.071 9.248l5.335 2.312c1.779.712 1.779 3.38 0 4.091l-5.335 2.49q-6.263 2.617-8.931 8.842m18.001 14.458-.711 1.422c-.356.89-1.779.89-2.134 0l-.712-1.422c-1.033-2.436-2.935-4.401-5.335-5.514l-1.779-.889c-.473-.189-.783-.647-.783-1.156 0-.51.31-.968.783-1.157l1.779-.711c2.433-1.156 4.339-3.189 5.335-5.691l.712-1.601c.355-.889 1.778-.889 2.134 0l.711 1.601c.997 2.502 2.903 4.535 5.336 5.691l1.779.711q1.6 1.245 0 2.313l-1.779.889c-2.4 1.113-4.302 3.078-5.336 5.514" fill="#fff"/></svg>