<svg height="300" viewBox="0 0 300 300" width="300" xmlns="http://www.w3.org/2000/svg"><path d="m0 0h300v300h-300z" fill="none"/><g fill="#00cbff"><path d="m168.558 129.383c-17.233-17.24-29.029-47.345-34.882-74.736-5.863 27.397-17.646 57.508-34.886 74.747-17.233 17.228-47.347 29.024-74.733 34.889 27.397 5.854 57.506 17.643 74.739 34.883 17.233 17.233 29.029 47.344 34.892 74.736 5.853-27.398 17.645-57.509 34.876-74.748 17.233-17.233 47.347-29.023 74.733-34.889-27.391-5.854-57.499-17.648-74.739-34.882z"/><path d="m231.469 26.098c-2.379 11.111-7.157 23.335-14.148 30.326-6.991 6.986-19.209 11.774-30.319 14.153 11.11 2.384 23.328 7.157 30.319 14.153 6.991 6.99 11.778 19.204 14.157 30.321 2.377-11.117 7.157-23.33 14.151-30.326 6.986-6.991 19.207-11.774 30.314-14.157-11.107-2.375-23.328-7.157-30.319-14.149-6.989-6.986-11.778-19.209-14.155-30.321z"/></g></svg>