<svg height="512" viewBox="0 0 512 512" width="512" xmlns="http://www.w3.org/2000/svg"><path d="m0 0h512v512h-512z" fill="none"/><g fill="#ff6621"><path d="m72.584 267.049c34.721.515 58.069-37.773 42.312-68.344l51.611-51.611c15.304 10.957 35.773 11.705 51.815 2.076l50.778 26.503c4.453 21.479 23.52 37.673 46.3 37.673 31.256.53 54.83-31.615 45.184-61.223l54.631-54.632c30.612 16.352 69.348-7.172 68.876-42.045 0-26.071-21.211-47.282-47.283-47.282-34.378-.45-57.921 37.257-42.571 67.848l-51.504 51.504c-22.716-16.785-56.794-8.149-69.198 16.607l-35.436-18.496c6.488-16.91 2.939-36.821-10.672-50.432-35.123-34.556-92.638.678-78.661 47.184l-55.098 55.098c-17.695-8.8-39.792-5.849-54.518 8.877-29.766 29.632-8.093 80.976 33.434 80.695zm364.225-228.862c9.518 0 17.261 7.742 17.261 17.26-.868 22.868-33.659 22.862-34.522 0 0-9.518 7.743-17.26 17.261-17.26zm-121.408 110.613c5.502 0 10.399 2.597 13.562 6.619.509 1.071 1.137 2.098 1.915 3.048 5.759 10.99-2.992 25.164-15.477 24.855-22.867-.867-22.863-33.657 0-34.522zm-133.614-52.378c6.73-6.73 17.681-6.73 24.411 0 6.746 6.742 6.727 17.738-.045 24.452-16.804 15.473-39.898-7.702-24.366-24.452zm-121.409 111.159c6.731-6.729 17.68-6.73 24.411 0 6.73 6.73 6.73 17.682 0 24.412-16.783 15.555-39.963-7.633-24.411-24.412z"/><path d="m497.089 473.817h-16.366v-298.509c0-8.29-6.721-15.011-15.012-15.011h-57.805c-8.29 0-15.011 6.721-15.011 15.011v298.509h-33.581v-195.276c0-8.29-6.721-15.011-15.011-15.011h-57.806c-8.29 0-15.011 6.721-15.011 15.011v195.276h-33.581v-233.199c0-8.29-6.721-15.011-15.011-15.011h-57.804c-8.291 0-15.012 6.721-15.012 15.011v233.198h-33.581v-157.246c0-8.29-6.721-15.011-15.011-15.011h-57.804c-8.291 0-15.012 6.721-15.012 15.011v157.246h-13.659c-8.29 0-15.011 6.721-15.011 15.012 0 8.29 6.721 15.011 15.011 15.011h482.078c19.709-.651 20.053-29.229 0-30.022zm-438.396 0v-142.236h27.782v142.235h-27.782zm121.409 0v-218.188h27.782v218.187h-27.782zm121.408 0v-180.264h27.782v180.264zm121.407 0v-283.498h27.783v283.498z"/></g></svg>