<svg height="512" viewBox="0 0 512 512" width="512" xmlns="http://www.w3.org/2000/svg"><g fill="none"><path d="m0 0h512v512h-512z"/><g stroke="#f62" stroke-linecap="round" stroke-linejoin="round" stroke-width="30"><path d="m292.224 70.471c25.27 4.907 48.741 14.849 69.327 28.74l43.645-34.839 42.426 42.426-34.842 43.657c13.884 20.587 23.83 44.051 28.736 69.317l55.484 6.224v59.999l-55.471 6.229c-4.907 25.269-14.849 48.741-28.74 69.327l34.839 43.645-42.426 42.426-43.657-34.842c-20.588 13.885-44.053 23.831-69.321 28.737l-6.229 55.483h-59.999l-6.224-55.472c-25.269-4.908-48.739-14.85-69.327-28.741l-43.648 34.835-42.426-42.426 34.846-43.654c-13.885-20.586-23.829-44.051-28.735-69.318l-55.482-6.229v-59.999l55.47-6.224c4.906-25.271 14.846-48.745 28.736-69.335l-34.829-43.64 42.426-42.426 43.638 34.833c20.589-13.889 44.062-23.828 69.331-28.734l6.224-55.47h59.999z" stroke-miterlimit="22.926"/><path d="m137.363 309.021 45.009-106.007" stroke-miterlimit="10"/><path d="m182.372 203.014c.92-2.017 4.103-2.02 5.027-.005" stroke-miterlimit="10"/><path d="m187.4 203.01 44.6 106.011" stroke-miterlimit="10"/><path d="m151.4 282.62h66.79" stroke-miterlimit="10"/><path d="m373.999 201.5v107.521" stroke-miterlimit="10"/><path d="m271.125 201.5v107.521" stroke-miterlimit="10"/><path d="m332 231.842c0 16.758-14.179 30.343-30.936 30.343-8.311 0-29.73.134-29.73.134s-.134-22.029-.134-30.476c0-6.938-.074-30.343-.074-30.343h29.939c16.756 0 30.935 13.585 30.935 30.342" stroke-miterlimit="10"/></g></g></svg>