<svg height="209" viewBox="0 0 209 209" width="209" xmlns="http://www.w3.org/2000/svg"><path d="m0 0h209v209h-209z" fill="none"/><path d="m185.857 58.007c-.014-1.574-.957-2.343-1.69-3.256 0 0-35.983-43.288-43.639-52.031-.393-.449-.416-.454-1.27-1.317-.568-.574-1.374-1.068-2.015-1.068-58.476 0-65.607-.001-98.316-.002-8.716 0-15.792 7.077-15.792 15.792v176.75c0 8.716 7.076 15.792 15.792 15.792h131.146c8.715 0 15.792-7.076 15.792-15.792z" fill="#333f4c"/><path d="m140.497 86.462c-.658-1.185-1.975-1.975-3.423-1.975h-20.146l12.114-37c.395-1.185.131-2.501-.527-3.555-.658-1.053-1.975-1.58-3.16-1.58h-31.864c-1.712 0-3.16 1.054-3.687 2.765l-21.726 65.836c-.395 1.185-.131 2.502.527 3.555.79 1.053 1.975 1.58 3.16 1.58h23.701l-3.029 46.348c-.131 1.844 1.054 3.555 2.897 4.082.395.132.79.132 1.053.132 1.449 0 2.766-.79 3.424-2.107l40.818-74.262c.658-1.186.658-2.634-.132-3.819z" fill="#fec136"/></svg>