<svg height="800" viewBox="0 0 800 800" width="800" xmlns="http://www.w3.org/2000/svg"><path d="m0 0h800v800h-800z" fill="none"/><g fill="#f62"><path d="m261.33 384.356c-5.513 25.215-28.006 44.154-54.851 44.154-7.156 0-12.958 5.8-12.958 12.959 0 7.158 5.802 12.959 12.958 12.959 41.079 0 75.2-30.336 81.151-69.782 25.151-2.719 48.368-13.926 66.341-32.271 5.01-5.113 4.925-13.318-.188-18.326-5.111-5.005-13.316-4.926-18.326.187-15.894 16.224-37.154 25.159-59.863 25.159-46.208 0-83.801-37.593-83.801-83.801 0-7.159-5.803-12.959-12.959-12.959-7.157 0-12.959 5.8-12.959 12.959 0 55.663 41.674 101.743 95.455 108.762z"/><path d="m316.199 496.76c0-7.158-5.802-12.959-12.959-12.959-60.5 0-109.719 49.22-109.719 109.72 0 .625.022 1.252.032 1.879-4.819-.649-9.726-1.016-14.719-1.016-7.157 0-12.959 5.801-12.959 12.959 0 7.159 5.802 12.959 12.959 12.959 46.208 0 83.801 37.594 83.801 83.802 0 7.158 5.802 12.959 12.959 12.959s12.959-5.801 12.959-12.959c0-45.98-28.444-85.421-68.65-101.714-.307-2.936-.465-5.906-.465-8.869 0-46.209 37.594-83.802 83.802-83.802 7.157 0 12.959-5.8 12.959-12.959z"/><path d="m758.531 386.177c0-29.503-11.784-57.462-32.613-78.023 3.298-10.554 4.967-21.471 4.967-32.56 0-53.346-38.275-97.899-88.801-107.696 3.862-9.626 5.864-19.945 5.864-30.533 0-33.792-20.532-62.872-49.773-75.44-48.717-38.801-101.999-61.925-142.883-61.925-22.727 0-42.881 11.176-55.292 28.309-12.411-17.133-32.565-28.309-55.292-28.309-40.884 0-94.166 23.124-142.883 61.925-29.241 12.568-49.773 41.648-49.773 75.44 0 10.588 2.002 20.907 5.864 30.533-50.526 9.797-88.802 54.35-88.802 107.696 0 11.089 1.668 22.004 4.968 32.56-20.829 20.561-32.613 48.52-32.613 78.023 0 23.064 7.169 44.477 19.374 62.16-12.684 18.336-19.374 39.725-19.374 62.246 0 39.893 21.748 76.444 56.183 95.717-.593 4.928-.892 9.9-.892 14.866 0 53.813 35.102 101.389 86.03 117.604 22.153 37.912 62.506 61.23 106.627 61.23 48.371 0 90.313-27.959 110.583-68.551 20.27 40.592 62.212 68.551 110.583 68.551 44.121 0 84.474-23.318 106.626-61.23 50.929-16.216 86.031-63.793 86.031-117.604 0-4.966-.299-9.938-.892-14.866 34.435-19.273 56.183-55.824 56.183-95.717 0-22.521-6.69-43.91-19.374-62.246 12.205-17.683 19.374-39.096 19.374-62.16zm-469.114 387.905c-36.335 0-69.445-20.033-86.409-52.278-1.681-3.195-4.615-5.543-8.1-6.481-42.528-11.446-72.23-50.164-72.23-94.157 0-6.583.664-13.176 1.972-19.601 1.213-5.956-1.879-11.956-7.434-14.427-30.27-13.457-49.829-43.508-49.829-76.555 0-15.031 3.898-29.398 11.336-42.123 19.345 17.055 44.709 27.436 72.465 27.436 7.157 0 12.959-5.8 12.959-12.959 0-7.158-5.802-12.959-12.959-12.959-46.208 0-83.801-37.593-83.801-83.801 0-24.874 10.975-48.318 30.113-64.313 4.319-3.611 5.814-9.598 3.697-14.814-4.091-10.084-6.165-20.667-6.165-31.456 0-46.208 37.593-83.801 83.802-83.801 46.208 0 83.801 37.593 83.801 83.801 0 7.158 5.802 12.959 12.959 12.959s12.959-5.801 12.959-12.959c0-58.129-45.446-105.819-102.671-109.469-5.187-8.67-7.912-18.529-7.912-28.76 0-23.1 14.023-42.981 34.001-51.592.772-.23 1.529-.531 2.26-.911 6.189-2.353 12.891-3.652 19.894-3.652 21.697 0 41.066 12.131 50.551 31.663 3.127 6.439 10.882 9.124 17.318 5.995 6.438-3.125 9.123-10.878 5.996-17.316-10.827-22.295-31.318-38.319-54.915-43.995 33.074-20.182 65.636-31.639 91.633-31.639 23.342 0 42.333 18.989 42.333 42.333v167.69c-11.644-9.237-26.35-14.775-42.333-14.775-7.156 0-12.959 5.801-12.959 12.959 0 7.159 5.803 12.959 12.959 12.959 23.342 0 42.333 18.989 42.333 42.333v311.497c-16.112-20.788-38.827-36.477-65.546-43.656-6.91-1.851-14.02 2.241-15.878 9.152-1.857 6.914 2.241 14.022 9.153 15.878 42.552 11.433 72.271 50.156 72.271 94.17 0 53.83-43.794 97.624-97.624 97.624zm393.367-186.942c-5.555 2.47-8.647 8.469-7.434 14.427 1.308 6.424 1.972 13.018 1.972 19.601 0 43.993-29.702 82.711-72.23 94.156-3.485.939-6.421 3.287-8.1 6.482-16.964 32.243-50.074 52.276-86.409 52.276-53.83 0-97.624-43.794-97.624-97.624 0-3.644-.169-7.257-.486-10.836.308-1.107.486-2.27.486-3.476v-428.021c0-23.343 18.991-42.332 42.333-42.332 7.156 0 12.959-5.801 12.959-12.959 0-7.159-5.803-12.959-12.959-12.959-15.983 0-30.689 5.538-42.333 14.775v-112.399c0-23.344 18.991-42.333 42.333-42.333 25.997 0 58.559 11.457 91.633 31.639-23.597 5.674-44.088 21.7-54.915 43.995-3.127 6.439-.442 14.192 5.996 17.316 6.438 3.128 14.191.444 17.318-5.995 9.485-19.532 28.854-31.663 50.551-31.663 7.003 0 13.707 1.299 19.894 3.652.729.38 1.486.679 2.255.909 19.981 8.612 34.006 28.492 34.006 51.594 0 10.231-2.725 20.09-7.912 28.76-57.225 3.65-102.671 51.34-102.671 109.469 0 7.158 5.802 12.959 12.959 12.959s12.959-5.801 12.959-12.959c0-46.208 37.593-83.801 83.801-83.801 46.209 0 83.802 37.593 83.802 83.801 0 10.789-2.074 21.372-6.164 31.456-2.116 5.218-.622 11.203 3.698 14.814 19.136 15.995 30.111 39.439 30.111 64.313 0 46.208-37.593 83.801-83.801 83.801-7.157 0-12.959 5.801-12.959 12.959 0 7.159 5.802 12.959 12.959 12.959 27.756 0 53.12-10.381 72.465-27.436 7.44 12.725 11.336 27.092 11.336 42.123 0 33.047-19.559 63.098-49.829 76.557z"/><path d="m621.166 414.687c-26.844 0-49.337-18.939-54.851-44.154 53.782-7.019 95.456-53.099 95.456-108.762 0-7.158-5.802-12.959-12.959-12.959s-12.959 5.801-12.959 12.959c0 46.208-37.593 83.801-83.801 83.801-22.709 0-43.969-8.934-59.864-25.159-5.007-5.111-13.213-5.196-18.325-.187-5.113 5.009-5.198 13.213-.189 18.326 17.974 18.345 41.191 29.552 66.342 32.271 5.95 39.446 40.072 69.782 81.15 69.782 7.157 0 12.959-5.801 12.959-12.959 0-7.159-5.802-12.959-12.959-12.959z"/><path d="m579.698 566.739c-4.994 0-9.901.366-14.72 1.016.01-.628.033-1.255.033-1.88 0-60.5-49.22-109.72-109.719-109.72-7.157 0-12.959 5.801-12.959 12.959 0 7.159 5.802 12.959 12.959 12.959 46.208 0 83.801 37.594 83.801 83.802 0 2.961-.157 5.933-.465 8.869-40.206 16.294-68.65 55.734-68.65 101.714 0 7.158 5.803 12.959 12.959 12.959 7.157 0 12.959-5.801 12.959-12.959 0-46.208 37.593-83.801 83.802-83.801 7.156 0 12.959-5.801 12.959-12.959 0-7.159-5.803-12.959-12.959-12.959z"/></g></svg>