<svg height="512" viewBox="0 0 512 512" width="512" xmlns="http://www.w3.org/2000/svg"><path d="m0 0h512v512h-512z" fill="none"/><path d="m497.229 260.925h-88.615v-30.708c44.584-7.102 78.769-45.816 78.769-92.368v-19.692c0-8.156-6.613-14.769-14.769-14.769s-14.769 6.613-14.769 14.769v19.692c0 30.206-21.04 55.573-49.23 62.261v-13.03c0-13.573-11.042-24.615-24.615-24.615h-14.77v-54.153c0-31.066-22.254-57.024-51.656-62.793l10.998-24.746c3.313-7.453-.044-16.182-7.498-19.494-7.455-3.314-16.182.044-19.494 7.498l-15.794 35.536h-59.573l-15.793-35.538c-3.312-7.453-12.041-10.811-19.494-7.498-7.453 3.312-10.81 12.041-7.498 19.494l10.998 24.746c-29.401 5.77-51.655 31.726-51.655 62.793v54.153h-14.769c-13.573 0-24.615 11.042-24.615 24.615v13.03c-28.19-6.687-49.23-32.055-49.23-62.261v-19.692c0-8.156-6.613-14.769-14.769-14.769s-14.769 6.613-14.769 14.769v19.692c0 46.552 34.185 85.265 78.769 92.368v30.708h-88.617c-8.156 0-14.769 6.613-14.769 14.769s6.613 14.769 14.769 14.769h88.615v30.708c-44.584 7.102-78.769 45.816-78.769 92.368v19.692c0 8.156 6.613 14.769 14.769 14.769s14.769-6.613 14.769-14.769v-19.692c0-30.206 21.04-55.573 49.23-62.261v8.107c.001 84.154 68.464 152.617 152.615 152.617s152.614-68.463 152.614-152.614v-8.107c28.19 6.688 49.23 32.055 49.23 62.261v19.692c0 8.156 6.613 14.769 14.769 14.769s14.769-6.613 14.769-14.769v-19.692c0-46.552-34.185-85.265-78.769-92.368v-30.708h88.615c8.156 0 14.769-6.613 14.769-14.769s-6.612-14.77-14.768-14.77zm-324.921-152.614c0-19.002 15.459-34.461 34.461-34.461h98.461c19.002 0 34.461 15.459 34.461 34.461v54.153h-167.383zm206.768 251.075c0 67.864-55.212 123.076-123.076 123.076s-123.076-55.212-123.076-123.076v-167.383h108.307v142.768c0 8.156 6.613 14.769 14.769 14.769s14.769-6.613 14.769-14.769v-142.768h108.307z" fill="#f62"/></svg>