<svg height="800" viewBox="0 0 800 800" width="800" xmlns="http://www.w3.org/2000/svg"><path d="m0 0h800v800h-800z" fill="none"/><path d="m294.27 13.363c-158.905 0-287.819 41.728-292.807 93.449h-.733v578.651c-.253 1.641-.733 3.469-.733 5.131 0 1.037.635 1.903.733 2.931 4.989 51.721 133.902 93.083 292.807 93.083 51.308 0 99.21-4.134 141.09-11.727-59.39-13.431-98.706-35.543-101.145-60.834-.079-.82-.733-1.736-.733-2.565 0-1.327.531-2.72.733-4.031v-462.481h.366c3.986-41.321 106.853-74.393 233.806-74.393 6.819 0 13.487.18 20.156.366v-64.132h-.733c-4.989-51.72-133.902-93.448-292.807-93.448zm-19.056 45.075c7.498-.206 15.022 0 22.721 0 123.185 0 222.811 27.001 222.811 60.101s-99.626 60.1-222.811 60.1-223.179-27-223.179-60.1c0-31.032 87.988-57.007 200.458-60.101zm295.005 119.468c-124.396 0-225.136 32.438-229.041 72.927h-.733v452.953c-.198 1.285-.367 2.731-.367 4.031 0 .813.289 1.761.367 2.566 3.905 40.489 104.645 72.927 229.042 72.927 124.396 0 225.502-32.438 229.408-72.927h1.099v-459.55h-.733c-3.906-40.489-104.645-72.927-229.042-72.927zm2.932 35.181c96.434 0 174.438 20.996 174.438 46.908s-78.004 47.274-174.438 47.274-174.805-21.362-174.805-47.274 78.371-46.908 174.805-46.908zm90.151 130.462-104.81 174.439 104.81-1.099-192.762 203.022 81.723-164.91h-81.723l192.762-211.451z" fill="#f62"/></svg>