<svg height="800" viewBox="0 -1.14 68.219 68.219" width="800" xmlns="http://www.w3.org/2000/svg"><path d="m75.3125 347.3125c-13.55041 0-24.54336 3.55833-24.96875 7.96875h-.0625v49.34375c-.0216.13993-.0625.29585-.0625.4375 0 .0885.0541.16232.0625.25.42539 4.41042 11.41834 7.9375 24.96875 7.9375 4.375251 0 8.460026-.35251 12.03125-1-5.064416-1.14533-8.416985-3.03084-8.625-5.1875-.0067-.07-.0625-.14805-.0625-.21875 0-.11316.0453-.23196.0625-.34375v-39.4375h.03125c.33986-3.52359 9.11175-6.34375 19.9375-6.34375.581485 0 1.150081.0153 1.71875.0312v-5.46875h-.0625c-.4254-4.41037-11.41834-7.9687-24.96875-7.9687zm-1.625 3.84375c.63938-.0176 1.280972 0 1.9375 0 10.50445 0 19 2.30243 19 5.125 0 2.82258-8.49555 5.125-19 5.125s-19.03125-2.30242-19.03125-5.125c0-2.64616 7.50305-4.86118 17.09375-5.125zm25.15625 10.1875c-10.60778 0-19.19823 2.7661-19.53125 6.21875h-.0625v38.625c-.0169.10954-.03125.23287-.03125.34375 0 .0693.02465.15011.03125.21875.33301 3.45265 8.92348 6.21875 19.53125 6.21875 10.60779 0 19.22948-2.7661 19.5625-6.21875h.0937v-39.1875h-.0625c-.33302-3.45265-8.92347-6.21875-19.53125-6.21875zm.25 3c8.22328 0 14.875 1.79039 14.875 4 0 2.20963-6.65172 4.03125-14.875 4.03125s-14.90625-1.82162-14.90625-4.03125c0-2.20961 6.68297-4 14.90625-4zm7.6875 11.125-8.9375 14.875 8.9375-.0937-16.4375 17.3125 6.96875-14.0625h-6.96875l16.4375-18.03125z" transform="translate(-50.219 -347.313)"/></svg>