<svg height="500" viewBox="0 0 500 500" width="500" xmlns="http://www.w3.org/2000/svg"><path d="m0 0h500v500h-500z" fill="none"/><path d="m180.185 48.504c71.125-18.993 40.186-10.748 92.807-24.762 78.849-20.664 95.594 40.993 101.289 61.094 3.382 12.239 6.657 24.51 9.957 36.773l-13.501 50.388c-7.366-27.093-14.463-54.267-22.31-81.229-11.88-39.632-28.037-51.097-70.905-41.099-41.099 11.081-162.359 43.381-177.93 47.74-24.583 7.015-51.284 20.427-38.736 69.275 12.466 46.616 47.927 178.909 68.705 256.446 14.691 56.483 46.159 49.19 70.88 43.943 21.723-5.63 150.863-40.244 178.395-47.895 42.232-11.741 48.351-34.01 38.362-72.608l-3.251-12.262 13.648-50.902c5.035 18.839 10.071 37.685 15.114 56.532 20.045 74.963-23.556 94.323-57.925 105.151-18.618 5.044-107.685 28.894-175.95 47.17-80.072 21.943-98.405-40.366-104.304-61.999-5.9-21.633-55.277-206.099-68.681-256.454-21.283-78.361 38.736-96.466 56.564-101.583 29.211-8.075 58.504-15.864 87.772-23.719z" fill="#fff"/><path d="m449.171 46.679c12.54 3.047 20.411 13.925 17.331 25.43-3.072 11.505-69.854 258.01-69.854 258.01-10.747 14.683-21.495 29.358-32.177 44.09-1.866 2.575-5.296 1.695-5.516-1.703l-7.472-54.617s66.725-246.44 69.878-258.002c3.162-11.562 15.27-16.256 27.81-13.208z" fill="#ff6624"/><g fill="#fff"><path d="m189.954 222.833 89.402-23.955 6.746 25.185-68.403 18.334 2.884 46.338.628.367q3.96-7.945 11.839-13.632 7.871-5.679 16.516-7.993 12.842-3.447 24.127-1.834 11.277 1.606 20.28 7.529 8.996 5.932 15.425 15.588 6.429 9.663 9.737 22.008 2.778 10.372 2.387 22.26-.391 11.88-5.263 22.848-4.865 10.967-14.675 19.808-9.802 8.849-25.61 13.086-12.589 3.373-24.224 2.917-11.644-.457-21.576-4.938-9.933-4.482-17.364-12.947-7.431-8.466-11.432-21.422l28.152-7.545q5.011 13.746 15.424 19.026 10.414 5.288 24.241 1.581 8.89-2.38 14.276-7 5.377-4.62 7.814-10.829 2.436-6.217 2.191-13.558-.244-7.341-2.363-15.245-1.922-7.162-5.654-13.176-3.724-6.021-9.004-9.9-5.272-3.878-12.361-5.157-7.097-1.272-15.489.977-8.89 2.38-15.775 7.798-6.885 5.419-7.896 15.482l-28.151 7.545z"/><path d="m362.877 95.391c3.962 1.037 6.293 3.598 7.762 7.298 1.459 5.435-1.768 11.016-7.203 12.475l-304.976 81.717c-5.435 1.459-11.024-1.768-12.475-7.203-1.458-5.434 1.768-11.016 7.203-12.474l304.976-81.718c.993-.296 2.021-.286 3.045-.343z"/><path d="m96.716 50.068 1.953.29c4.643 1.216 7.374 4.216 9.095 8.551l11.09 41.384c1.703 6.364-2.07 12.907-8.442 14.618-6.363 1.703-12.906-2.078-14.617-8.441l-11.09-41.385c-1.703-6.363 2.078-12.906 8.442-14.617 1.164-.346 2.368-.333 3.569-.4z"/><path d="m271.583 2.459c5.383.419 9.404 3.743 11.048 8.841l11.09 41.384c1.711 6.364-2.07 12.907-8.442 14.618-6.363 1.703-12.906-2.078-14.617-8.442l-11.082-41.384c-1.711-6.364 2.07-12.907 8.434-14.618 1.97-.422.788-.231 3.569-.399z"/></g></svg>