<svg height="682.667" viewBox="0 0 682.667 682.667" width="682.667" xmlns="http://www.w3.org/2000/svg"><g fill="none"><path d="m0 0h682.667v682.667h-682.667z"/><g stroke="#f62" stroke-linecap="round" stroke-linejoin="round" stroke-miterlimit="10" stroke-width="40"><path d="m615.725 174.053c-56.44-92.382-158.208-154.053-274.391-154.053v160.667c72.509 0 133.751 48.054 153.739 114.038l-46.628 46.628h214.222v-214.222z"/><path d="m187.594 387.962 46.628-46.628h-214.223v214.221l46.943-46.941"/><path d="m127.111 20 46.941 46.943c-92.381 56.44-154.052 158.206-154.052 274.39h160.667c0-72.51 48.055-133.752 114.037-153.74l46.63 46.63v-214.223z"/><path d="m66.942 508.614c56.44 92.382 158.208 154.053 274.391 154.053 87.084 0 166.065-34.651 223.934-90.907l-113.725-113.725c-28.765 27.199-67.489 43.965-110.209 43.965-72.51 0-133.751-48.054-153.739-114.038"/></g></g></svg>