<svg height="512" viewBox="0 0 512 512" width="512" xmlns="http://www.w3.org/2000/svg"><path d="m0 0h512v512h-512z" fill="none"/><g fill="#f62"><path d="m400.73 47.523h-58.386c-1.551-13.359-12.934-23.761-26.703-23.761h-16.489c-9.164-14.649-25.273-23.762-42.914-23.762-17.633 0-33.746 9.113-42.929 23.762h-16.477c-13.77 0-25.152 10.402-26.703 23.761h-58.336c-34.074 0-61.793 27.723-61.793 61.793v340.894c0 34.07 27.719 61.789 61.793 61.789h288.937c34.071 0 61.793-27.719 61.793-61.789v-340.894c0-34.074-27.718-61.793-61.793-61.793zm-200.781 6.239h20.34c7.379 0 14.023-4.383 16.926-11.168 3.273-7.653 10.742-12.594 19.023-12.594 8.278 0 15.735 4.934 18.989 12.566 2.898 6.801 9.546 11.196 16.937 11.196h20.359v41.285h-112.574zm232.574 396.444c0 17.531-14.261 31.793-31.793 31.793h-288.937c-17.531 0-31.793-14.262-31.793-31.793v-340.89c0-17.531 14.262-31.793 31.793-31.793h58.156v20.645c0 14.82 12.059 26.879 26.883 26.879h118.809c14.824 0 26.882-12.059 26.882-26.879v-20.645h58.207c17.532 0 31.793 14.262 31.793 31.793zm0 0"/><path d="m225.148 211.703h158.704c8.285 0 15-6.719 15-15 0-8.285-6.715-15-15-15h-158.704c-8.285 0-15 6.715-15 15 0 8.281 6.715 15 15 15zm0 0"/><path d="m131.098 224.777c3.101 3.101 7.175 4.648 11.246 4.648 4.07 0 8.144-1.547 11.246-4.648l35.199-35.203c5.859-5.856 5.859-15.356 0-21.211-5.855-5.859-15.355-5.859-21.211 0l-25.234 25.23-4.617-4.617c-5.86-5.855-15.356-5.855-21.215 0-5.856 5.86-5.856 15.356 0 21.215zm0 0"/><path d="m224.809 318.226h158.707c8.281 0 15-6.719 15-15 0-8.285-6.719-15-15-15h-158.707c-8.282 0-15 6.715-15 15 0 8.281 6.718 15 15 15zm0 0"/><path d="m130.762 331.3c3.004 3.004 6.996 4.656 11.246 4.656h.012c4.25-.004 8.246-1.66 11.23-4.656l35.203-35.203c5.859-5.855 5.859-15.355 0-21.211-5.855-5.859-15.355-5.859-21.211 0l-25.234 25.231-4.621-4.618c-5.856-5.855-15.352-5.855-21.211 0-5.86 5.86-5.86 15.356 0 21.215zm0 0"/><path d="m385.742 393.691h-158.703c-8.285 0-15 6.714-15 15 0 8.285 6.715 15 15 15h158.703c8.285 0 15-6.715 15-15 0-8.286-6.715-15-15-15zm0 0"/><path d="m169.469 380.351-25.235 25.234-4.621-4.617c-5.859-5.859-15.351-5.859-21.211 0-5.859 5.855-5.859 15.355 0 21.215l14.586 14.582c3.102 3.101 7.172 4.652 11.246 4.652 4.071 0 8.145-1.551 11.243-4.652l35.203-35.199c5.859-5.86 5.859-15.356 0-21.215-5.856-5.86-15.356-5.86-21.211 0zm0 0"/></g></svg>