<svg height="512" viewBox="0 0 512 512" width="512" xmlns="http://www.w3.org/2000/svg"><path d="m0 0h512v512h-512z" fill="none"/><path d="m348.584 357.449c13.598-32.14-4.944-46.974-23.487-46.974l-182.951-2.472c-4.945 0-4.945-7.417 1.236-8.653l185.424-2.472c21.015-1.236 45.738-18.543 53.155-40.793 0 0 12.361-25.96 11.125-29.668-11.002-53.084-56.252-92.183-110.371-95.366-54.118-3.184-103.641 30.34-120.79 81.768-46.974-30.904-96.421 11.125-85.295 56.863-59.336 3.709-80.351 56.864-74.17 89.004 0 1.236 1.236 2.472 3.709 2.472h338.707c1.236 0 3.708-1.236 3.708-3.709z" fill="#f38020"/><path d="m410.392 231.361c-4.944 0-7.417-1.236-8.653 1.237l-6.181 25.959c-6.18 19.778 3.709 37.085 24.724 38.321l39.557 2.472c4.944 0 4.944 7.417-1.236 8.653l-40.794 1.236c-44.501 4.945-56.863 48.21-56.863 48.21 0 2.473 0 3.709 2.472 3.709h139.686l3.709-2.472c8.521-30.193 2.398-62.634-16.542-87.644-18.94-25.011-48.506-39.698-79.879-39.681" fill="#faae40"/></svg>