<svg height="682.667" viewBox="0 0 682.667 682.667" width="682.667" xmlns="http://www.w3.org/2000/svg"><g fill="none"><path d="m0 0h682.667v682.667h-682.667z"/><g stroke="#f62" stroke-linecap="round" stroke-linejoin="round" stroke-miterlimit="10" stroke-width="40"><path d="m405.6 92.375c23.575 6.084 45.844 15.424 66.292 27.517 0 0 9.852-9.854 20.918-20.92 8.034-8.042 18.937-12.553 30.302-12.553 11.352 0 22.258 4.511 30.291 12.553 9.747 9.748 20.544 20.544 30.291 30.292 8.044 8.034 12.553 18.938 12.553 30.291 0 11.365-4.509 22.268-12.553 30.301-11.066 11.066-20.919 20.919-20.919 20.919 12.092 20.448 21.432 42.716 27.517 66.292h29.53c23.661 0 42.845 19.184 42.845 42.844v42.845c0 23.66-19.184 42.844-42.845 42.844h-29.53c-6.085 23.575-15.425 45.844-27.517 66.291 0 0 9.853 9.855 20.919 20.919 8.044 8.034 12.553 18.937 12.553 30.302 0 11.354-4.509 22.258-12.553 30.291-9.747 9.747-20.544 20.544-30.291 30.291-8.033 8.044-18.939 12.553-30.291 12.553-11.365 0-22.268-4.509-30.302-12.553-11.066-11.066-20.918-20.919-20.918-20.919-20.448 12.092-42.717 21.433-66.292 27.516v29.531c0 23.661-19.184 42.845-42.845 42.845h-42.844c-23.661 0-42.844-19.184-42.844-42.845v-29.531c-23.575-6.083-45.844-15.424-66.292-27.516 0 0-9.853 9.853-20.919 20.919-8.033 8.044-18.937 12.553-30.301 12.553-11.353 0-22.259-4.509-30.291-12.553-9.746-9.747-20.544-20.544-30.292-30.291-8.042-8.033-12.553-18.937-12.553-30.291 0-11.365 4.511-22.268 12.553-30.302 11.066-11.064 20.92-20.919 20.92-20.919-12.093-20.447-21.432-42.716-27.517-66.291h-29.529c-23.662 0-42.846-19.184-42.846-42.844v-42.845c0-23.66 19.184-42.844 42.846-42.844h29.529c6.085-23.576 15.424-45.844 27.517-66.292 0 0-9.854-9.853-20.92-20.919-8.042-8.033-12.553-18.936-12.553-30.301 0-11.353 4.511-22.257 12.553-30.291 9.748-9.748 20.546-20.544 30.292-30.292 8.032-8.042 18.938-12.553 30.291-12.553 11.364 0 22.268 4.511 30.301 12.553 11.066 11.066 20.919 20.92 20.919 20.92 20.448-12.093 42.717-21.433 66.292-27.517v-29.531c0-23.661 19.183-42.844 42.844-42.844h42.844c23.661 0 42.845 19.183 42.845 42.844z"/><path d="m341.333 212.8c70.94 0 128.534 57.593 128.534 128.533 0 70.939-57.594 128.534-128.534 128.534s-128.533-57.595-128.533-128.534c0-70.94 57.593-128.533 128.533-128.533z"/></g></g></svg>