<svg height="512" viewBox="0 0 512 512" width="512" xmlns="http://www.w3.org/2000/svg"><g fill="none"><path d="m0 0h512v512h-512z"/><g stroke="#f62" stroke-linecap="round" stroke-linejoin="round" stroke-miterlimit="10" stroke-width="30"><path d="m95.334 55.167c0 22.184-17.983 40.167-40.167 40.167s-40.167-17.983-40.167-40.167 17.983-40.167 40.167-40.167 40.167 17.983 40.167 40.167z"/><path d="m497 127.467h-313.3v-80.334l-32.133-32.133h345.433z"/><path d="m95.334 424.7c0 22.184-17.983 40.167-40.167 40.167s-40.167-17.983-40.167-40.167 17.983-40.167 40.167-40.167 40.167 17.983 40.167 40.167z"/><path d="m497 497h-313.3v-80.333l-32.133-32.134h345.433z"/><path d="m95.334 239.933c0 22.184-17.983 40.167-40.167 40.167s-40.167-17.983-40.167-40.167 17.983-40.167 40.167-40.167 40.167 17.983 40.167 40.167z"/><path d="m497 312.233h-313.3v-80.333l-32.133-32.133h345.433z"/></g></g></svg>