<svg height="682.667" viewBox="0 0 682.667 682.667" width="682.667" xmlns="http://www.w3.org/2000/svg"><g fill="none"><path d="m0 0h682.667v682.667h-682.667z"/><g stroke="#f62" stroke-linejoin="round" stroke-miterlimit="10" stroke-width="40"><path d="m630.722 542.167h-578.777c-17.643 0-31.945-14.303-31.945-31.944v-418.112c0-17.642 14.302-31.944 31.945-31.944h578.777c17.643 0 31.944 14.302 31.944 31.944v418.112c0 17.641-14.301 31.944-31.944 31.944z"/><path d="m421.667 622.5h-160.667v-80.333h160.667z"/><path d="m468.5 622.5h-254.333" stroke-linecap="round"/><path d="m662.667 461.833h-642.667"/><path d="m301.167 256.047 23.797 23.798 56.536-37.691" stroke-linecap="round"/><path d="m461.833 261c0 66.551-53.949 120.5-120.5 120.5-66.55 0-120.5-53.949-120.5-120.5s53.95-120.5 120.5-120.5c66.551 0 120.5 53.949 120.5 120.5z" stroke-linecap="round"/></g></g></svg>