<svg height="512" viewBox="0 0 512 512" width="512" xmlns="http://www.w3.org/2000/svg"><path d="m0 0h512v512h-512z" fill="none"/><g fill="#f62"><path d="m466 0h-421c-24.812 0-45 20.188-45 45v422c0 24.812 20.188 45 45 45h421c24.812 0 45-20.188 45-45v-422c0-24.812-20.188-45-45-45zm-421 30h421c8.27 0 15 6.73 15 15v75h-451v-75c0-8.27 6.73-15 15-15zm421 452h-421c-8.27 0-15-6.73-15-15v-317h451v317c0 8.27-6.73 15-15 15zm0 0"/><path d="m255 90h181c8.285 0 15-6.715 15-15s-6.715-15-15-15h-181c-8.285 0-15 6.715-15 15s6.715 15 15 15zm0 0"/><path d="m89.973 75c0 8.285-6.719 15-15 15-8.285 0-15-6.715-15-15s6.715-15 15-15c8.281 0 15 6.715 15 15zm0 0"/><path d="m149.973 75c0 8.285-6.719 15-15 15-8.285 0-15-6.715-15-15s6.715-15 15-15c8.281 0 15 6.715 15 15zm0 0"/><path d="m209.973 75c0 8.285-6.719 15-15 15-8.285 0-15-6.715-15-15s6.715-15 15-15c8.281 0 15 6.715 15 15zm0 0"/><path d="m386.914 274.48-30-51.96c-4.141-7.176-13.316-9.633-20.488-5.493l-22.133 12.782c-4.551-3.149-9.324-5.914-14.293-8.289v-25.52c0-8.285-6.715-15-15-15h-60c-8.285 0-15 6.715-15 15v25.52c-4.969 2.375-9.738 5.14-14.293 8.285l-22.133-12.778c-7.172-4.14-16.347-1.683-20.488 5.493l-30 51.96c-4.141 7.176-1.684 16.348 5.488 20.489l21.824 12.601c-.265 2.903-.398 5.7-.398 8.426 0 2.731.133 5.527.398 8.43l-21.824 12.601c-7.172 4.141-9.629 13.317-5.488 20.489l30 51.961c4.141 7.175 13.316 9.632 20.488 5.492l22.133-12.778c4.551 3.145 9.324 5.914 14.293 8.286v25.523c0 8.285 6.715 15 15 15h60c8.285 0 15-6.715 15-15v-25.52c4.969-2.375 9.738-5.14 14.293-8.285l22.133 12.778c7.172 4.14 16.347 1.683 20.488-5.493l30-51.96c4.141-7.176 1.684-16.348-5.488-20.493l-21.824-12.597c.265-2.903.398-5.703.398-8.43s-.133-5.527-.398-8.43l21.82-12.597c7.176-4.145 9.633-13.317 5.492-20.493zm-58.316 27.872c.957 5.183 1.402 9.519 1.402 13.648s-.445 8.465-1.402 13.648c-1.149 6.243 1.754 12.536 7.254 15.711l17.582 10.149-15 25.98-17.817-10.285c-5.5-3.176-12.402-2.543-17.234 1.582-7 5.973-14.875 10.535-23.406 13.57-5.981 2.125-9.977 7.786-9.977 14.133v20.512h-30v-20.512c0-6.347-3.996-12.008-9.977-14.133-8.531-3.035-16.406-7.597-23.406-13.57-4.832-4.125-11.734-4.758-17.234-1.582l-17.817 10.285-15-25.98 17.582-10.149c5.5-3.175 8.403-9.468 7.254-15.711-.957-5.183-1.402-9.519-1.402-13.648s.445-8.465 1.402-13.648c1.149-6.243-1.754-12.536-7.254-15.711l-17.582-10.149 15-25.98 17.817 10.285c5.5 3.176 12.402 2.543 17.234-1.582 7-5.973 14.875-10.535 23.406-13.57 5.981-2.125 9.977-7.786 9.977-14.133v-20.512h30v20.512c0 6.347 3.996 12.008 9.977 14.133 8.531 3.035 16.406 7.597 23.406 13.57 4.832 4.121 11.734 4.758 17.234 1.582l17.817-10.285 15 25.98-17.582 10.149c-5.5 3.175-8.403 9.468-7.254 15.711zm0 0"/><path d="m255 271c-24.812 0-45 20.188-45 45s20.188 45 45 45 45-20.188 45-45-20.188-45-45-45zm0 60c-8.27 0-15-6.73-15-15s6.73-15 15-15 15 6.73 15 15-6.73 15-15 15zm0 0"/></g></svg>