<svg height="682.667" viewBox="0 0 682.667 682.667" width="682.667" xmlns="http://www.w3.org/2000/svg"><g fill="none"><path d="m0 0h682.667v682.667h-682.667z"/><g stroke="#f62" stroke-linecap="round" stroke-linejoin="round" stroke-miterlimit="10" stroke-width="40"><path d="m180.111 308.944v125.257"/><path d="m340.215 378.264v55.938"/><path d="m260.163 358.269v75.932"/><path d="m100.053 365.41v-154.567c0-21.908 17.211-40.37 39.066-40.878 22.596-.527 40.986 17.678 40.986 40.064v121.492c0-22.136 17.919-40.076 40.027-40.076 11.047 0 21.053 4.489 28.297 11.742 7.246 7.254 11.728 17.272 11.728 28.334v40.077c0-22.136 17.919-40.077 40.027-40.077 11.047 0 21.053 4.489 28.297 11.744 7.246 7.253 11.728 17.272 11.728 28.333v6.664 2.351c0-.788.027-1.564.067-2.326"/><path d="m100.059 360.363v139.031"/><path d="m340.28 425.359v-14.453"/><path d="m100.053 424.934-.28.013"/><path d="m20 429.6c0-11.053 4.48-21.066 11.72-28.306 7.253-7.24 17.253-11.722 28.307-11.722 20.533 0 37.453 15.454 39.746 35.375.187 1.519.28 3.079.28 4.653v69.8"/><path d="m340.214 410.906h.066v-2.638c0-23.322 18.867-42.227 42.132-42.227 11.202 0 21.415 4.387 28.988 11.572 7.56 7.187 12.48 17.173 13.094 28.375"/><path d="m424.495 405.987v120.301c0 75.32-61.059 136.379-136.378 136.379h-131.737c-75.32 0-136.379-61.059-136.379-136.379v-96.688"/><path d="m180.107 225.293h444.96c20.76 0 37.6-16.827 37.6-37.6v-130.093c0-20.76-16.84-37.6-37.6-37.6h-567.467c-20.76 0-37.6 16.84-37.6 37.6v130.093c0 20.773 16.84 37.6 37.6 37.6h42.453"/><path d="m508.04 122.911 28.282 28.282 57.088-57.088"/><path d="m438.784 20v205.296"/><path d="m100.001 100h258.783"/></g></g></svg>