<svg height="682.66669" viewBox="0 0 682.66669 682.66669" width="682.66669" xmlns="http://www.w3.org/2000/svg"><g style="fill:none;stroke:#000;stroke-width:30;stroke-linecap:round;stroke-linejoin:round;stroke-miterlimit:10"><path d="m0 0v-93.943" transform="matrix(1.3333333 0 0 -1.3333333 180.1106621639 308.9440126764)"/><path d="m0 0v-41.953" transform="matrix(1.3333333 0 0 -1.3333333 340.21479149463 378.26427761006)"/><path d="m0 0v-56.949" transform="matrix(1.3333333 0 0 -1.3333333 260.16279349593 358.26947810993)"/><path d="m0 0v115.925c0 16.431 12.908 30.278 29.299 30.659 16.947.395 30.74-13.259 30.74-30.048v-91.119c0 16.602 13.439 30.057 30.02 30.057 8.285 0 15.79-3.367 21.223-8.807 5.434-5.44 8.796-12.954 8.796-21.25v-30.058c0 16.602 13.439 30.058 30.02 30.058 8.285 0 15.79-3.367 21.223-8.808 5.434-5.44 8.796-12.954 8.796-21.25v-4.998-1.763c0 .591.02 1.173.05 1.744" transform="matrix(1.3333333 0 0 -1.3333333 100.053330832 365.41014459808)"/><path d="m0 0v-104.273" transform="matrix(1.3333333 0 0 -1.3333333 100.05853083187 360.36334472425)"/><path d="m0 0v10.84" transform="matrix(1.3333333 0 0 -1.3333333 340.279991493 425.35934309935)"/><path d="m0 0-.21-.01" transform="matrix(1.3333333 0 0 -1.3333333 100.053330832 424.93360977666)"/><path d="m0 0c0 8.29 3.36 15.8 8.79 21.23 5.44 5.43 12.94 8.791 21.23 8.791 15.4 0 28.09-11.59 29.81-26.531.14-1.139.21-2.309.21-3.49v-52.35" transform="matrix(1.3333333 0 0 -1.3333333 19.9999995 429.60027632666)"/><path d="m0 0h.05v1.979c0 17.491 14.15 31.67 31.599 31.67 8.401 0 16.061-3.29 21.741-8.679 5.67-5.39 9.36-12.88 9.82-21.281" transform="matrix(1.3333333 0 0 -1.3333333 340.21359149466 410.90627679401)"/><path d="m0 0v-90.226c0-56.49-45.794-102.284-102.283-102.284h-98.803c-56.49 0-102.284 45.794-102.284 102.284v72.516" transform="matrix(1.3333333 0 0 -1.3333333 424.49478938763 405.98694358366)"/><path d="m0 0h333.72c15.57 0 28.2 12.62 28.2 28.2v97.57c0 15.57-12.63 28.2-28.2 28.2h-425.6c-15.57 0-28.2-12.63-28.2-28.2v-97.57c0-15.58 12.63-28.2 28.2-28.2h31.84" transform="matrix(1.3333333 0 0 -1.3333333 180.10679549733 225.29294810101)"/><path d="m0 0 21.211-21.211 42.816 42.816" transform="matrix(1.3333333 0 0 -1.3333333 508.04038729899 122.91148399388)"/><path d="m0 0v-153.972" transform="matrix(1.3333333 0 0 -1.3333333 438.78385569707 20.0000199)"/><path d="m0 0h194.087" transform="matrix(1.3333333 0 0 -1.3333333 100.0013308333 100.0000179)"/></g></svg>