<svg height="682.667" viewBox="0 0 682.667 682.667" width="682.667" xmlns="http://www.w3.org/2000/svg"><g fill="none"><path d="m0 0h682.667v682.667h-682.667z"/><g stroke="#f62" stroke-linecap="round" stroke-linejoin="round" stroke-miterlimit="10" stroke-width="40"><path d="m556 126.667h-536v-53.334c0-29.454 23.877-53.333 53.333-53.333h429.334c29.456 0 53.333 23.879 53.333 53.333z"/><path d="m422.667 126.667v-106.667"/><path d="m401.353 457.41 186.666-323.316c11.046-19.132 35.51-25.687 54.64-14.641 19.132 11.045 25.687 35.509 14.642 54.641l-186.667 323.316-94.641 83.923z"/><path d="m401.353 457.41 69.281 40"/><path d="m568.019 168.735 69.282 40"/><path d="m528.019 238.017 69.282 40"/><path d="m354.667 394.667h-253.334v-186.667h253.334z"/><path d="m101.333 394.667 80-80 80 80"/><path d="m375.993 581.333h-274.66"/><path d="m354.667 394.667-80-106.667-51.428 68.572"/><path d="m395.092 488h-293.758"/><path d="m556 189.553v-62.887h-536v482.667c0 29.454 23.877 53.333 53.333 53.333h429.334c29.456 0 53.333-23.879 53.333-53.333v-259.78"/></g></g></svg>