<svg height="800" viewBox="0 0 800 800" width="800" xmlns="http://www.w3.org/2000/svg"><path d="m0 0h800v800h-800z" fill="none"/><path d="m715.8-0h-631.6c-22.358-.089-43.827 8.753-59.637 24.563s-24.652 37.279-24.563 59.637v631.6c-.089 22.358 8.753 43.827 24.563 59.637s37.279 24.652 59.637 24.563h631.6c46.442-.146 84.054-37.758 84.2-84.2v-631.6c.089-22.358-8.753-43.827-24.563-59.637s-37.279-24.652-59.637-24.563m-317.2 487.5c26.2 0 54.267-10.333 81.4-34.633l37.433 43.033c-39.333 31.833-84.233 49.6-129.133 49.6-88.9 0-145-58.967-131.933-142.233 13.1-83.267 88.9-142.2 177.8-142.2 43 0 83.266 16.833 111.333 47.7l-52.4 43.033c-15-19.667-40.233-32.733-68.333-32.733-53.334 0-94.467 34.633-102.9 84.2-7.467 49.6 22.466 84.233 76.733 84.233" fill="#d44f38"/></svg>