<svg height="512" viewBox="0 0 512 512" width="512" xmlns="http://www.w3.org/2000/svg"><path d="m0 0h512v512h-512z" fill="none"/><path d="m482 331.588v-166.629c18.204-13.697 30-35.475 30-59.959 0-32.66-41.712-79.126-64.682-100.887-5.786-5.483-14.851-5.483-20.637 0-21.116 20.006-64.681 67.352-64.681 100.887 0 24.484 11.796 46.262 30 59.959v58.93c-1.642-1.633-3.32-3.236-5.043-4.8-16.308-14.804-35.408-25.696-55.957-32.17v-81.919c0-2.31-.617-4.778-1.583-6.708l-45-90c-2.542-5.082-7.735-8.292-13.417-8.292s-10.875 3.21-13.417 8.292l-45 90c-.946 1.89-1.583 4.36-1.583 6.708v90c0 1.701.296 3.329.818 4.853-5.527 3.206-10.884 6.782-16.041 10.733-5.208 3.99-10.142 8.329-14.777 12.968v-208.554c0-8.284-6.716-15-15-15h-90c-8.284 0-15 6.716-15 15v270.918c-35.713 20.454-61 58.872-61 104.082 0 66.232 54.72 122 121 122h286c57.891 0 105-48.765 105-107 0-28.395-11.343-54.181-29.719-73.1-.088-.107-.19-.207-.281-.312zm-44.995-295.402c21.249 22.202 44.995 53.043 44.995 68.814 0 24.813-20.187 45-45 45s-45-20.187-45-45c0-15.733 23.755-46.591 45.005-68.814zm14.995 142.305v131.582c-5.796-2.752-11.839-4.956-18.062-6.596-2.338-12.919-6.368-25.406-11.938-37.177v-87.809c4.848.988 9.864 1.509 15 1.509s10.152-.521 15-1.509zm-181-129.95 20.729 41.459h-41.459zm-30 71.459h60v60.759c-4.963-.498-9.967-.759-15-.759-15.496 0-30.613 2.348-45 6.92zm-150 90h15c8.284 0 15-6.716 15-15s-6.716-15-15-15h-15v-30h15c8.284 0 15-6.716 15-15s-6.716-15-15-15h-15v-30h15c8.284 0 15-6.716 15-15s-6.716-15-15-15h-15v-30h60v236.193c-1.067 2.254-2.093 4.528-3.048 6.833-8.74-1.996-17.766-3.026-26.952-3.026-10.241 0-20.3 1.281-30 3.756zm316 272h-286c-49.327 0-91-42.131-91-92 0-49.685 40.903-90 91-90 18.311 0 29.95 6.087 34.098 6.666 10.647 4.355 20.762 10.915 29.541 19.694 5.86 5.859 15.356 5.857 21.213 0 5.858-5.858 5.858-15.355 0-21.213-7.527-7.527-15.882-13.924-24.853-19.12v-12.967c20.562-38.513 60.246-63.06 105.001-63.06 54.822 0 102.865 38.354 116.463 90.103-26.655 1.129-52.212 12.154-70.709 30.651-5.858 5.858-5.858 15.355 0 21.213 5.857 5.858 15.355 5.858 21.213 0 18.607-18.607 46.336-25.773 71.033-20.023 33.081 7.702 58 37.472 58 73.057 0 41.737-34.346 76.999-75 76.999z" fill="#f62"/></svg>