<svg height="800" viewBox="0 0 800 800" width="800" xmlns="http://www.w3.org/2000/svg"><path d="m0 0h800v800h-800z" fill="none"/><path d="m214.818 529.631c0 1.815.222 3.555.259 5.37-132.177-27.6-223.727-148.487-214.469-283.198 9.258-134.71 116.485-241.937 251.195-251.195 134.711-9.258 255.598 82.292 283.198 214.469-1.815 0-3.555-.259-5.37-.259-10.849-.001-21.69.555-32.481 1.666-26.487-111.78-130.437-187.619-244.968-178.719-114.53 8.9-205.517 99.887-214.417 214.417-8.9 114.531 66.939 218.481 178.719 244.968-1.111 10.791-1.667 21.632-1.666 32.481zm36.407-417.405-4.407-36.741c-99.406 12.009-173.841 96.914-172.74 197.036.074 5.667.37 11.222.889 16.667l36.851-3.445c-.419-4.519-.654-9.054-.703-13.592-.929-81.244 59.449-150.162 140.11-159.925zm548.775 417.405c0 149.321-121.048 270.369-270.369 270.369s-270.369-121.048-270.369-270.369 121.048-270.369 270.369-270.369c149.253.163 270.206 121.116 270.369 270.369zm-37.037 0c0-128.866-104.466-233.332-233.332-233.332s-233.332 104.466-233.332 233.332 104.466 233.332 233.332 233.332c128.807-.143 233.189-104.525 233.332-233.332zm-391.85 15.37c-.431-4.519-.678-9.053-.741-13.592-.928-81.244 59.45-150.162 140.111-159.925l-4.407-36.741c-99.406 12.009-173.841 96.913-172.74 197.036.074 5.667.37 11.222.889 16.667zm297.332-154.184-26.185 26.185c62.203 62.203 62.203 163.055 0 225.258s-163.055 62.203-225.258 0l-26.185 26.185c76.665 76.665 200.963 76.665 277.628 0s76.665-200.963 0-277.628z" fill="#f62"/></svg>