<svg height="682.667" viewBox="0 0 682.667 682.667" width="682.667" xmlns="http://www.w3.org/2000/svg"><g fill="none"><path d="m0 0h682.667v682.667h-682.667z"/><g stroke="#f62" stroke-linecap="round" stroke-linejoin="round" stroke-miterlimit="10" stroke-width="40"><path d="m526.667 60h-453.334c-29.454 0-53.333 23.879-53.333 53.333v80h560v-80c0-29.454-23.877-53.333-53.333-53.333z"/><path d="m132 100v-80"/><path d="m468 100v-80"/><path d="m356 100v-80"/><path d="m244 100v-80"/><path d="m342.667 283.333h33.333"/><path d="m224 283.333h33.333"/><path d="m461.333 283.333h33.334"/><path d="m105.333 373.333h33.334"/><path d="m224 373.333h33.333"/><path d="m342.667 373.333h33.333"/><path d="m105.333 463.333h33.334"/><path d="m224 463.333h33.333"/><path d="m662.667 516c0 81.001-65.666 146.667-146.667 146.667s-146.667-65.666-146.667-146.667 65.666-146.667 146.667-146.667 146.667 65.666 146.667 146.667z"/><path d="m516 449.333v66.667h66.667"/><path d="m580 384.002v-190.668h-560v320c0 22.091 17.909 40 40 40h314.135"/></g></g></svg>