<svg height="682.66669" viewBox="0 0 682.66669 682.66669" width="682.66669" xmlns="http://www.w3.org/2000/svg"><g style="fill:none;stroke:#000;stroke-width:30;stroke-linecap:round;stroke-linejoin:round;stroke-miterlimit:10"><path d="m0 0h-340c-22.091 0-40-17.909-40-40v-60h420v60c0 22.091-17.908 40-40 40z" transform="matrix(1.3333333 0 0 -1.3333333 526.6666535 60.0000189)"/><path d="m0 0v60" transform="matrix(1.3333333 0 0 -1.3333333 131.9999967 100.0000179)"/><path d="m0 0v60" transform="matrix(1.3333333 0 0 -1.3333333 467.9999883 100.0000179)"/><path d="m0 0v60" transform="matrix(1.3333333 0 0 -1.3333333 355.9999911 100.0000179)"/><path d="m0 0v60" transform="matrix(1.3333333 0 0 -1.3333333 243.9999939 100.0000179)"/><path d="m0 0h25" transform="matrix(1.3333333 0 0 -1.3333333 342.6666581 283.33334665)"/><path d="m0 0h25" transform="matrix(1.3333333 0 0 -1.3333333 223.9999944 283.33334665)"/><path d="m0 0h25" transform="matrix(1.3333333 0 0 -1.3333333 461.3333218 283.33334665)"/><path d="m0 0h25" transform="matrix(1.3333333 0 0 -1.3333333 105.3333307 373.3333444)"/><path d="m0 0h25" transform="matrix(1.3333333 0 0 -1.3333333 223.9999944 373.3333444)"/><path d="m0 0h25" transform="matrix(1.3333333 0 0 -1.3333333 342.6666581 373.3333444)"/><path d="m0 0h25" transform="matrix(1.3333333 0 0 -1.3333333 105.3333307 463.33334215)"/><path d="m0 0h25" transform="matrix(1.3333333 0 0 -1.3333333 223.9999944 463.33334215)"/><path d="m0 0c0-60.751-49.249-110-110-110s-110 49.249-110 110 49.249 110 110 110 110-49.249 110-110z" transform="matrix(1.3333333 0 0 -1.3333333 662.6666501 516.0000075)"/><path d="m0 0v-50h50" transform="matrix(1.3333333 0 0 -1.3333333 515.9999871 449.3333425)"/><path d="m0 0v143.001h-420v-240c0-16.568 13.432-30 30-30h235.601" transform="matrix(1.3333333 0 0 -1.3333333 579.9999855 384.00201079995)"/></g></svg>