<svg height="682.667" viewBox="0 0 682.667 682.667" width="682.667" xmlns="http://www.w3.org/2000/svg"><g fill="none"><path d="m0 0h682.667v682.667h-682.667z"/><g stroke="#f62" stroke-linecap="round" stroke-linejoin="round" stroke-miterlimit="10" stroke-width="40"><path d="m238.934 469.293c-36.14.683-70.562-7.535-101.254-23.227l-117.68 23.267 23.267-116.345c-14.88-29.108-23.267-62.067-23.267-96.988 0-117.827 96.84-213.334 214.667-213.334 103.227 0 189.32 73.308 209.067 170.708"/><path d="m234.667 426.667c0 117.826 95.506 213.333 213.333 213.333 34.919 0 67.88-8.387 96.987-23.267l117.68 23.267-23.267-116.347c14.88-29.106 23.267-62.068 23.267-96.986 0-117.827-96.84-213.334-214.667-213.334s-213.333 95.507-213.333 213.334z"/></g></g></svg>