<svg height="511.999" viewBox="0 0 511.999 511.999" width="511.999" xmlns="http://www.w3.org/2000/svg"><path d="m0 0h511.999v511.999h-511.999z" fill="none"/><path d="m456.831 32.133h-185.832v-17.133c0-8.284-6.716-15-15-15s-15 6.716-15 15v17.133h-185.831c-8.284 0-15 6.716-15 15v257.065c0 8.284 6.716 15 15 15h114.921l-30.925 82.466h-19.73c-8.284 0-15 6.716-15 15s6.716 15 15 15h8.48l-22.525 60.066c-2.909 7.757 1.021 16.402 8.778 19.311 1.735.65 3.515.959 5.265.959 6.073 0 11.789-3.716 14.047-9.737l26.475-70.599h192.093l26.475 70.599c2.258 6.022 7.974 9.737 14.047 9.737 1.749 0 3.53-.309 5.265-.959 7.756-2.909 11.686-11.555 8.778-19.311l-22.525-60.066h8.48c8.284 0 15-6.716 15-15s-6.716-15-15-15h-19.73l-30.926-82.466h114.921c8.284 0 15-6.716 15-15v-257.065c-.001-8.284-6.716-15-15.001-15zm-285.627 369.531 30.925-82.466h107.742l30.926 82.466zm270.628-112.466h-371.665v-227.065h371.664v227.065z" fill="#f62"/></svg>