<svg viewBox="0 0 512 512" xmlns="http://www.w3.org/2000/svg"><path d="m467 76h-422c-24.863 0-45 20.262-45 45v270c0 24.885 20.285 45 45 45h422c24.655 0 45-20.03 45-45v-270c0-24.694-20.057-45-45-45zm-6.302 30c-9.194 9.145-167.415 166.533-172.878 171.967-8.5 8.5-19.8 13.18-31.82 13.18s-23.32-4.681-31.848-13.208c-3.674-3.655-160.149-159.305-172.85-171.939zm-430.698 278.894v-257.769l129.638 128.955zm21.321 21.106 129.587-128.763 22.059 21.943c14.166 14.166 33 21.967 53.033 21.967s38.867-7.801 53.005-21.939l22.087-21.971 129.587 128.763zm430.679-21.106-129.638-128.814 129.638-128.955z"/></svg>