<svg height="682.667" viewBox="0 0 682.667 682.667" width="682.667" xmlns="http://www.w3.org/2000/svg"><g fill="none"><path d="m0 0h682.667v682.667h-682.667z"/><g stroke="#f62" stroke-linecap="round" stroke-linejoin="round" stroke-miterlimit="10" stroke-width="40"><path d="m126.667 556c-58.911 0-106.667 47.756-106.667 106.667h213.333c0-58.911-47.756-106.667-106.666-106.667z"/><path d="m556 556c-58.911 0-106.667 47.756-106.667 106.667h213.334c0-58.911-47.756-106.667-106.667-106.667z"/><path d="m180 502.667c0 29.454-23.879 53.333-53.333 53.333-29.455 0-53.334-23.879-53.334-53.333 0-29.455 23.879-53.334 53.334-53.334 29.454 0 53.333 23.879 53.333 53.334z"/><path d="m609.333 502.667c0 29.454-23.877 53.333-53.333 53.333s-53.333-23.879-53.333-53.333c0-29.455 23.877-53.334 53.333-53.334s53.333 23.879 53.333 53.334z"/><path d="m528 260h-373.333v-240h373.333z"/><path d="m154.667 20 173.333 133.333h26.667l173.333-133.333"/><path d="m261.333 446.667-53.333-53.334 53.333-53.333"/><path d="m474.667 393.333h-266.667"/><path d="m421.333 446.667 53.334-53.334-53.334-53.333"/><path d="m154.667 260 157.974-118.48"/><path d="m370.026 141.519 157.973 118.48"/></g></g></svg>