<svg height="682.66669" viewBox="0 0 682.66669 682.66669" width="682.66669" xmlns="http://www.w3.org/2000/svg"><g style="fill:none;stroke:#000;stroke-width:30;stroke-linecap:round;stroke-linejoin:round;stroke-miterlimit:10" transform="matrix(1.3333333 0 0 -1.3333333 0 682.66667)"><path d="m497 15h-482v271h482z"/><path d="m0 0v120h360v-120" transform="translate(76 286)"/><path d="m0 0v91h240v-91" transform="translate(136 406)"/><path d="m0 0 149-119" transform="translate(77 405)"/><path d="m0 0-149-119" transform="translate(435 405)"/><path d="m0 0 89-89" transform="translate(137 495)"/><path d="m0 0-89-89" transform="translate(375 495)"/><path d="m0 0 240-180 240 180" transform="translate(16 285)"/><path d="m0 0 196.363 121.727" transform="translate(16 16)"/><path d="m0 0 196.363-121.727" transform="translate(299.6367 137.7271)"/></g></svg>