<svg height="512" viewBox="0 0 512 512" width="512" xmlns="http://www.w3.org/2000/svg"><g fill="none"><path d="m0 0h512v512h-512z"/><g stroke="#f62" stroke-linecap="round" stroke-linejoin="round" stroke-miterlimit="10" stroke-width="30"><path d="m87 15h60v77h-60z"/><path d="m335 15h60v77h-60z"/><path d="m335 44h-188"/><path d="m395 44h72v108h-452v-108h72"/><path d="m467 290.05v-138.05"/><path d="m15 152v295h253.06"/><path d="m75 212h60v60h-60z"/><path d="m75 332h60v60h-60z"/><path d="m403.5 373.5c0 16.569-13.431 30-30 30s-30-13.431-30-30 13.431-30 30-30 30 13.431 30 30z"/><path d="m497 396.714v-46.429l-44.179-3.156c-1.269-3.819-2.807-7.515-4.59-11.068l29.012-33.475-32.83-32.83-33.475 29.012c-3.552-1.783-7.248-3.321-11.068-4.59l-3.156-44.178h-46.429l-3.156 44.179c-3.819 1.269-7.515 2.807-11.068 4.59l-33.475-29.012-32.83 32.83 29.012 33.475c-1.783 3.552-3.321 7.248-4.59 11.068l-44.178 3.156v46.429l44.179 3.156c1.269 3.819 2.807 7.515 4.59 11.068l-29.012 33.475 32.83 32.83 33.475-29.012c3.552 1.783 7.248 3.321 11.068 4.59l3.156 44.178h46.429l3.156-44.179c3.819-1.269 7.515-2.807 11.068-4.59l33.475 29.012 32.83-32.83-29.012-33.475c1.783-3.552 3.321-7.248 4.59-11.068z"/></g></g></svg>