<svg height="682.667" viewBox="0 0 682.667 682.667" width="682.667" xmlns="http://www.w3.org/2000/svg"><g fill="none"><path d="m0 0h682.667v682.667h-682.667z"/><path d="m472.233 662.667h-261.8c-23.435 0-42.433-18.999-42.433-42.434 0-7.15 1.808-14.185 5.253-20.45l128.563-233.751c7.926-14.411 23.069-23.365 39.517-23.365s31.592 8.954 39.519 23.365l128.562 233.751c3.446 6.265 5.252 13.3 5.252 20.45 0 23.435-18.998 42.434-42.433 42.434z" stroke="#f62" stroke-linecap="round" stroke-linejoin="round" stroke-miterlimit="10" stroke-width="40"/><path d="m296.889 60h325.778c22.09 0 40 17.909 40 40v40" stroke="#f62" stroke-linecap="round" stroke-linejoin="round" stroke-miterlimit="10" stroke-width="40"/><path d="m439.867 473.333h182.8c22.091 0 40-17.909 40-40v-293.333h-321.333l-55.237-99.425c-7.055-12.699-20.439-20.575-34.967-20.575h-191.129c-22.092 0-40 17.909-40 40v373.333c0 22.091 17.908 40 40 40h182.798" stroke="#f62" stroke-linecap="round" stroke-linejoin="round" stroke-miterlimit="10" stroke-width="40"/><path d="m341.333 529.333v-93.333" stroke="#f62" stroke-linecap="round" stroke-linejoin="round" stroke-miterlimit="10" stroke-width="40"/></g><path d="m361.333 596c0 11.045-8.954 20-20 20-11.045 0-20-8.955-20-20s8.955-20 20-20c11.046 0 20 8.955 20 20" fill="#f62"/></svg>