<svg height="500" viewBox="0 0 500 500" width="500" xmlns="http://www.w3.org/2000/svg"><path d="m0 0h500v500h-500z" fill="none"/><path d="m177.311 31.271c74.084-19.783 41.859-11.194 96.669-25.792 82.13-21.524 99.571 42.699 105.504 63.637 3.522 12.747 6.934 25.529 10.371 38.302l-14.063 52.485c-7.673-28.22-15.065-56.525-23.238-84.609-12.374-41.281-29.204-53.223-73.855-42.809-42.81 11.543-169.116 45.186-185.334 49.726-25.606 7.308-53.419 21.278-40.348 72.158 12.985 48.555 49.921 186.353 71.563 267.116 15.303 58.833 48.08 51.237 73.83 45.772 22.627-5.865 157.14-41.918 185.818-49.888 43.989-12.23 50.363-35.425 39.957-75.629l-3.386-12.773 14.216-53.019c5.245 19.622 10.49 39.253 15.744 58.884 20.878 78.081-24.537 98.247-60.335 109.526-19.394 5.254-112.167 30.096-183.272 49.132-83.403 22.856-102.5-42.045-108.644-64.578-6.145-22.534-57.577-214.675-71.539-267.125-22.168-81.621 40.348-100.48 58.918-105.81 30.427-8.41 60.938-16.524 91.424-24.706z" fill="#fff"/><path d="m457.489 29.37c13.062 3.174 21.26 14.505 18.052 26.489-3.199 11.984-72.76 268.745-72.76 268.745-11.195 15.294-22.389 30.58-33.516 45.925-1.943 2.681-5.517 1.765-5.746-1.774l-7.782-56.89s69.501-256.694 72.785-268.737c3.293-12.043 15.905-16.932 28.967-13.758z" fill="#ff6624"/><g fill="#fff"><path d="m180.383 358.655 47.622-12.756c11.644-3.124 23.611 3.794 26.734 15.438l1.443 5.398c3.123 11.644-3.785 23.619-15.43 26.734l-47.621 12.765c-11.644 3.115-23.611-3.794-26.734-15.438l-1.443-5.407c-3.124-11.644 3.785-23.611 15.429-26.734z"/><path d="m216.301 123.315 86.306-23.119c6.043-1.622 12.264 1.969 13.885 8.011 1.621 6.052-1.969 12.264-8.02 13.885l-86.298 23.119c-6.051 1.621-12.264-1.96-13.885-8.011-1.621-6.043 1.969-12.264 8.012-13.885z"/><path d="m230.458 176.13 86.297-23.127c6.051-1.621 12.264 1.969 13.885 8.02 1.621 6.043-1.969 12.255-8.012 13.877l-86.306 23.127c-6.043 1.621-12.264-1.969-13.885-8.012-1.612-6.051 1.969-12.264 8.021-13.885z"/><path d="m349.04 257.785.832.475-6.306 23.544-181.693 48.682c-6.145 1.647-12.442-1.918-14.063-7.969-1.621-6.043 2.045-12.281 8.19-13.928l188.483-50.507z"/><path d="m142.021 256.419 188.483-50.499c6.145-1.646 12.434 1.918 14.055 7.97 1.621 6.042-2.045 12.28-8.19 13.927l-188.474 50.499c-6.145 1.646-12.443-1.919-14.064-7.961-1.621-6.052 2.054-12.29 8.19-13.936z"/><path d="m165.505 137.055c6.773-1.807 13.741 2.207 15.557 8.988l13.554 50.601c1.817 6.772-2.206 13.74-8.979 15.557l-50.601 13.554c-6.781 1.816-13.74-2.207-15.556-8.98l-13.563-50.6c-1.816-6.782 2.207-13.741 8.979-15.557zm-5.372 18.29-31.436 8.419c-3.387.908-5.398 4.397-4.49 7.783l8.419 31.437c.908 3.386 4.396 5.397 7.783 4.489l31.428-8.428c3.395-.908 5.406-4.387 4.498-7.774l-8.428-31.436c-.908-3.387-4.388-5.398-7.774-4.49z"/></g></svg>