<svg height="513" viewBox="0 0 513 513" width="513" xmlns="http://www.w3.org/2000/svg"><path d="m0 0h513v513h-513z" fill="none"/><path d="m311.857 1.725c9.455.381 18.979 1.176 28.058 4.046 27.829 9.131 42.179 29.424 55.659 78.994l7.102 26.38-7.102 26.38c-3.914 14.639-7.537 26.815-7.827 27.104-.58.725-2.03-4.058-11.596-39.569-16.523-60.877-21.886-74.501-33.192-84.213-3.334-2.754-9.421-6.087-13.77-7.392-15.654-4.493-24.35-2.754-122.622 23.481-132.334 35.511-125.811 33.337-138.566 45.223-10.291 9.566-13.48 18.842-12.466 36.67.58 11.886 3.769 24.931 22.467 94.939 12.03 44.642 29.713 110.302 39.28 145.813 11.305 42.614 18.987 67.979 22.031 74.356 11.885 24.496 29.279 32.033 59.282 25.8 16.089-3.334 193.645-50.875 206.545-55.368 11.306-3.914 22.901-11.596 28.119-18.843 8.407-11.596 9.421-30.148 3.044-55.369l-3.189-12.755 6.957-26.814c3.914-14.784 7.537-26.815 7.972-26.815.58 0 3.044 7.972 5.653 17.683 2.609 9.857 6.957 26.235 9.711 36.671 3.769 14.205 5.218 22.901 5.798 35.511 1.305 27.54-3.334 41.744-18.843 57.108-9.131 9.277-24.06 17.683-40.874 23.336-13.624 4.493-201.472 54.354-210.168 55.803-27.25 4.494-51.89-2.029-68.704-17.828-6.812-6.522-16.378-21.596-21.017-33.482-2.174-5.507-19.277-67.109-37.975-136.972-48.266-179.875-45.512-168.859-45.657-186.107 0-8.987 1.015-18.263 2.319-23.481 5.073-18.988 19.712-35.656 40.294-45.513 13.045-6.377 18.118-7.827 135.813-39.28 73.341-19.567 89.285-23.48 102.185-25.22 2.815-.277 1.059-.139 5.279-.277zm-93.695 328.865c2.465.29 3.914 4.348 10.436 28.554 4.204 15.509 7.682 29.279 7.682 30.583 0 1.739-6.957 4.203-30.728 10.436-16.958 4.493-30.873 7.972-30.873 7.827-.579-.87-15.509-57.833-15.799-59.862-.144-1.884 5.363-3.913 28.119-10.146 15.51-4.203 29.569-7.537 31.163-7.392zm49.912-116.573.239.038c.435.435 10.146 35.511 21.307 77.69 11.305 42.324 20.582 77.69 20.582 78.559 0 .87-3.479 2.61-7.537 3.914-20.582 5.798-53.485 14.205-53.919 13.77-.58-.58-41.019-151.177-41.744-155.525-.435-2.464 3.189-3.768 30.003-11.016 10.286-2.716 20.584-5.604 31.069-7.43zm191.448-177.611c6.193.311 10.861.273 16.35 3.427 6.233 3.768 11.161 11.305 11.161 17.393 0 2.754-2.609 14.494-5.653 26.235-19.567 73.052-68.703 253.507-69.428 254.811-5.363 8.842-34.641 46.962-36.091 46.962-2.319 0-2.464-.58-6.812-33.627l-3.624-26.96 16.379-60.731c9.131-33.337 22.466-82.763 29.858-109.868 23.771-88.27 28.989-106.388 30.728-109.577 1.015-1.739 4.494-4.348 7.682-5.943 3.043-1.274 6.112-1.998 9.45-2.122zm-142.798 60.535c.87-.145 11.451 37.25 23.626 82.762l22.176 83.053-7.827 28.119-7.682 28.119 2.754 19.423c1.595 10.581 2.464 20.147 2.03 21.017-.58 1.739-26.67 9.421-27.685 8.262-.724-.87-67.543-250.753-67.544-252.783.001-1.014 9.857-4.348 25.8-8.551 14.06-3.769 27.25-7.392 29.279-8.117s4.349-1.304 5.073-1.304z" fill="#f62"/></svg>