<svg height="82" viewBox="0 0 82 82" width="82" xmlns="http://www.w3.org/2000/svg"><path d="m0 0h82v82h-82z" fill="none"/><path d="m41-0c-33.498 0-41 .316-41 41s7.502 41 41 41 41-.316 41-41c0-40.684-7.502-41-41-41z" fill="#058ffe"/><path d="m20.106 18.3 24.269-6.503c4.801-1.287 9.736 1.563 11.023 6.364l9.249 34.517c1.286 4.801-1.563 9.736-6.364 11.022l-24.269 6.503c-4.801 1.287-9.736-1.563-11.023-6.364l-9.249-34.517c-1.286-4.801 1.563-9.736 6.364-11.022z" fill="#fff"/><path d="m66.357 15.288c1.539.374 2.505 1.709 2.128 3.121-.378 1.412-8.573 31.665-8.573 31.665-1.319 1.802-2.638 3.603-3.95 5.411-.228.316-.649.208-.676-.209l-.917-6.703s8.189-30.245 8.576-31.664 1.873-1.995 3.412-1.621z" fill="#ff6624"/><g fill="#058ffe"><path d="m31.116 55.51 6.323-1.694c1.546-.415 3.135.503 3.549 2.049l.192.717c.414 1.546-.503 3.135-2.049 3.55l-6.322 1.694c-1.546.414-3.135-.504-3.55-2.05l-.192-.717c-.414-1.546.503-3.135 2.049-3.549z"/><path d="m35.885 24.264 11.458-3.07c.803-.215 1.628.261 1.844 1.064.215.803-.262 1.628-1.065 1.843l-11.458 3.07c-.802.215-1.628-.261-1.843-1.064-.215-.803.262-1.628 1.064-1.843z"/><path d="m37.764 31.276 11.458-3.07c.803-.216 1.628.261 1.843 1.064.215.803-.261 1.628-1.064 1.843l-11.458 3.07c-.803.215-1.628-.261-1.843-1.064-.215-.803.261-1.628 1.064-1.843z"/><path d="m53.509 42.117.11.063-.838 3.125-24.123 6.464c-.815.219-1.651-.255-1.866-1.058-.215-.802.272-1.63 1.087-1.849l25.024-6.705z"/><path d="m26.023 41.936 25.024-6.705c.816-.219 1.652.255 1.867 1.058.215.802-.272 1.63-1.088 1.849l-25.024 6.705c-.815.219-1.651-.255-1.866-1.058-.215-.803.272-1.631 1.087-1.849z"/><path d="m29.14 26.088c.9-.241 1.825.293 2.066 1.193l1.8 6.718c.241.9-.293 1.824-1.192 2.065l-6.719 1.801c-.899.241-1.824-.293-2.065-1.193l-1.8-6.718c-.241-.9.293-1.824 1.192-2.065zm-.713 2.428-4.173 1.118c-.45.121-.717.583-.596 1.033l1.118 4.174c.12.449.583.716 1.032.596l4.174-1.119c.45-.12.717-.582.596-1.032l-1.118-4.174c-.121-.449-.583-.716-1.033-.596z"/></g></svg>