<svg height="512" viewBox="0 0 512 512" width="512" xmlns="http://www.w3.org/2000/svg"><path d="m0 0h512v512h-512z" fill="none"/><path d="m256 0c-141.492 0-256 114.497-256 256 0 141.492 114.497 256 256 256 141.492 0 256-114.497 256-256 0-141.492-114.497-256-256-256zm-99.054 52.753c-7.747 21.099-14.25 42.547-19.499 64.295-15.341-4.661-30.432-10.25-45.243-16.762 18.754-19.703 40.608-35.746 64.742-47.533zm-84.608 71.487c19.171 8.878 38.791 16.3 58.802 22.253-5.806 30.993-9.126 62.538-9.914 94.507h-90.724c2.763-42.441 17.226-82.61 41.836-116.76zm0 263.52c-24.61-34.15-39.073-74.319-41.836-116.76h90.724c.788 31.969 4.108 63.514 9.914 94.507-20.011 5.953-39.63 13.375-58.802 22.253zm19.866 23.955c14.811-6.513 29.901-12.102 45.243-16.762 5.25 21.748 11.752 43.196 19.499 64.295-24.122-11.781-45.978-27.821-64.742-47.533zm148.796 69.783c-15.754-1.025-31.197-3.655-46.135-7.825-11.865-28.12-21.335-56.952-28.398-86.363 24.318-5.437 49.199-8.616 74.533-9.515zm0-133.721c-27.448.907-54.405 4.307-80.751 10.175-5.234-28.529-8.25-57.55-9.013-86.952h89.764zm0-106.777h-89.764c.763-29.402 3.779-58.423 9.013-86.952 26.346 5.868 53.303 9.268 80.751 10.175zm0-106.795c-25.334-.899-50.215-4.078-74.533-9.515 7.063-29.411 16.533-58.243 28.398-86.363 14.938-4.17 30.381-6.8 46.135-7.825zm198.662-9.965c24.61 34.15 39.073 74.319 41.836 116.76h-90.724c-.788-31.969-4.108-63.514-9.914-94.507 20.011-5.953 39.63-13.375 58.802-22.253zm-19.866-23.955c-14.811 6.513-29.901 12.102-45.243 16.762-5.25-21.748-11.752-43.196-19.499-64.295 24.122 11.781 45.978 27.821 64.742 47.533zm-148.796-69.783c15.754 1.025 31.197 3.655 46.135 7.825 11.865 28.12 21.335 56.952 28.398 86.363-24.318 5.437-49.199 8.616-74.533 9.515zm0 133.721c27.448-.907 54.405-4.307 80.751-10.175 5.234 28.529 8.25 57.55 9.013 86.952h-89.764zm46.134 309.449c-14.937 4.171-30.38 6.801-46.134 7.826v-103.703c25.334.899 50.215 4.078 74.533 9.515-7.064 29.411-16.533 58.243-28.399 86.362zm-46.134-125.895v-76.777h89.764c-.763 29.402-3.779 58.423-9.013 86.952-26.346-5.868-53.303-9.268-80.751-10.175zm84.054 111.47c7.747-21.099 14.25-42.547 19.499-64.295 15.341 4.661 30.432 10.25 45.243 16.762-18.754 19.703-40.608 35.746-64.742 47.533zm84.608-71.487c-19.171-8.878-38.791-16.3-58.802-22.253 5.806-30.993 9.126-62.538 9.914-94.507h90.724c-2.763 42.441-17.226 82.61-41.836 116.76z" fill="#f62"/></svg>