<svg height="500" viewBox="0 0 500 500" width="500" xmlns="http://www.w3.org/2000/svg"><path d="m0 0h500v500h-500z" fill="none"/><path d="m228.613 4.59c6.641-3.028 13.965-4.59 21.289-4.59s14.649 1.562 21.289 4.59l212.305 95.214c9.962 4.493 16.406 14.356 16.406 25.294 0 10.937-6.444 20.801-16.406 25.292l-212.305 95.02c-6.738 3.028-13.965 4.59-21.289 4.59s-14.648-1.562-21.289-4.59l-212.304-95.118c-9.961-4.491-16.407-14.354-16.407-25.292s6.446-20.801 16.407-25.292zm21.289 26.66c-2.929 0-5.86.586-8.593 1.855l-204.981 91.895 205.078 91.895c2.734 1.171 5.567 1.855 8.594 1.855s5.86-.586 8.594-1.855l205.078-91.895-205.078-91.895c-2.832-1.269-5.761-1.855-8.692-1.855zm-233.593 318.458 44.824-20.118 38.183 17.089-62.988 28.321 205.078 91.895c2.734 1.171 5.567 1.855 8.594 1.855s5.86-.586 8.594-1.855l205.078-91.895-62.988-28.223 38.183-17.089 44.824 20.116c9.961 4.493 16.407 14.356 16.407 25.294 0 10.937-6.446 20.801-16.407 25.292l-212.5 95.02c-6.738 3.028-13.965 4.59-21.289 4.59s-14.648-1.562-21.289-4.59l-212.304-95.118c-9.961-4.491-16.407-14.354-16.407-25.292s6.446-20.801 16.407-25.292zm44.824-145.118 38.183 17.089-62.988 28.321 205.078 91.895c2.734 1.171 5.567 1.855 8.594 1.855s5.86-.586 8.594-1.855l205.078-91.895-62.988-28.223 38.183-17.089 44.824 20.116c9.961 4.493 16.407 14.356 16.407 25.294 0 10.937-6.446 20.801-16.407 25.292l-212.5 95.02c-6.738 3.028-13.965 4.59-21.289 4.59s-14.648-1.562-21.289-4.59l-212.304-95.118c-9.961-4.491-16.407-14.354-16.407-25.292s6.446-20.801 16.407-25.292z" fill="#f62"/></svg>