<svg height="682.667" viewBox="0 0 682.667 682.667" width="682.667" xmlns="http://www.w3.org/2000/svg"><g fill="none"><path d="m0 0h682.667v682.667h-682.667z"/><g stroke="#f62" stroke-miterlimit="10" stroke-width="40"><path d="m662.366 304.119c-.548-5.223-3.236-9.986-7.42-13.156l-47.775-37.2c-1.189-.899-1.692-2.447-1.26-3.874l17.868-58.956c1.523-5.026.898-10.457-1.726-15.008-2.626-4.546-7.018-7.804-12.131-8.998l-59.996-14.007c-1.453-.34-2.54-1.548-2.725-3.028l-7.659-61.128c-.652-5.211-3.432-9.919-7.681-13.004-4.247-3.088-9.584-4.28-14.742-3.288l-60.504 11.605c-1.465.28-2.949-.38-3.721-1.657l-31.864-52.727c-4.811-7.96-15.081-11.769-24.923-7.217-.206.095-.404.211-.589.34l-52.149 36.325c-1.224.852-2.85.852-4.074 0l-50.552-35.21c-4.31-3-9.67-4.083-14.804-2.992-5.137 1.092-9.592 4.261-12.308 8.757l-31.857 52.728c-.772 1.277-2.257 1.937-3.721 1.657l-60.506-11.605c-5.156-.988-10.493.201-14.741 3.288-4.247 3.087-7.028 7.792-7.681 13.003l-7.658 61.129c-.185 1.479-1.273 2.688-2.726 3.028l-61.978 14.471c-.228.074-.457.149-.685.224-9.879 4.32-13.876 14.449-11.191 23.314l17.864 58.959c.434 1.427-.069 2.973-1.257 3.873l-49.371 38.407c-.177.161-.357.324-.536.484-7.285 7.957-6.832 18.856-.761 25.872l38.964 46.595c.977 1.128 1.147 2.745.427 4.05l-30.707 55.72c-.096.218-.192.436-.288.655-3.421 10.221 1.428 19.997 9.828 23.94l55.767 26.173c1.35.635 2.162 2.042 2.036 3.528l-5.218 61.387c-.445 5.232 1.296 10.415 4.812 14.317 3.511 3.903 8.486 6.176 13.734 6.281l61.598 1.229c1.491.029 2.806.984 3.294 2.394l20.201 58.198c1.72 4.961 5.417 8.989 10.215 11.124 4.798 2.138 10.265 2.19 15.105.152l56.772-23.931c1.375-.58 2.965-.241 3.984.847l43.5 46.418c.18.16.36.323.54.484 8.677 6.414 19.46 4.816 25.803-1.949l42.126-44.952c1.02-1.089 2.611-1.428 3.984-.848l56.768 23.931c4.839 2.037 10.307 1.982 15.103-.152 4.797-2.135 8.497-6.161 10.219-11.123l20.201-58.199c.489-1.41 1.803-2.365 3.296-2.394l63.605-1.268c.238-.027.478-.051.716-.078 10.568-2.154 16.603-11.238 15.818-20.481l-5.218-61.387c-.126-1.486.687-2.893 2.036-3.528l55.772-26.173c4.756-2.231 8.372-6.332 9.995-11.324 1.621-4.992 1.105-10.436-1.431-15.036l-29.734-53.956c-.722-1.305-.551-2.921.425-4.051l38.969-46.594c3.435-3.97 5.07-9.187 4.523-14.408z"/><path d="m493.333 341.333c0 82.775-67.102 149.878-149.877 149.878-82.776 0-149.879-67.103-149.879-149.878 0-82.774 67.103-149.877 149.879-149.877 82.775 0 149.877 67.103 149.877 149.877z"/><path d="m406.425 302.731-93.048 93.048" stroke-linecap="round"/><path d="m277.82 360.221 35.556 35.558" stroke-linecap="round"/></g></g></svg>