<svg height="682.667" viewBox="0 0 682.667 682.667" width="682.667" xmlns="http://www.w3.org/2000/svg"><g fill="none"><path d="m0 0h682.667v682.667h-682.667z"/><g stroke="#f62" stroke-linecap="round" stroke-linejoin="round" stroke-miterlimit="10" stroke-width="40"><path d="m501.333 449.333h-320c-58.91 0-106.666 47.756-106.666 106.667v106.667h533.333v-106.667c0-58.911-47.756-106.667-106.667-106.667z"/><path d="m501.333 449.333v106.667l-40 106.667"/><path d="m221.333 662.667-40-106.667v-106.667"/><path d="m374.667 529.333h-66.667l-13.333-80h93.333z"/><path d="m408 662.667h-133.333l33.333-133.334h66.667z"/><path d="m301.333 313.333c0 29.455-23.877 53.334-53.333 53.334s-53.333-23.879-53.333-53.334c0-29.454 23.877-53.333 53.333-53.333s53.333 23.879 53.333 53.333z"/><path d="m488 313.333c0 29.455-23.877 53.334-53.333 53.334s-53.334-23.879-53.334-53.334c0-29.454 23.878-53.333 53.334-53.333s53.333 23.879 53.333 53.333z"/><path d="m293.936 286.667h94.795"/><path d="m114.667 180h453.333"/><path d="m208 180v-106.667c0-29.454 23.877-53.333 53.333-53.333h160c29.456 0 53.334 23.879 53.334 53.333v106.667"/><path d="m208 100h266.667"/></g></g></svg>