<svg height="682.667" viewBox="0 0 682.667 682.667" width="682.667" xmlns="http://www.w3.org/2000/svg"><g fill="none"><path d="m0 0h682.667v682.667h-682.667z"/><g stroke="#f62" stroke-linecap="round" stroke-linejoin="round" stroke-miterlimit="10" stroke-width="40"><path d="m561.333 20h-440"/><path d="m121.333 662.667h440"/><path d="m496.976 175.064c-15.907 3.488-35.048 6.269-55.643 6.269-55.228 0-100-20-100-20s-44.772-20-100-20c-26.494 0-50.582 4.603-68.476 9.392"/><path d="m202.074 662.667c-25.334-21.231-40.741-49.266-40.741-80 0-150.85 360-330.484 360-481.334 0-30.734-15.405-60.102-40.74-81.333"/><path d="m202.738 662.761-.664-.095"/><path d="m479.929 662.761c-9.664-67.892-98.596-121.428-138.596-121.428s-128.932 53.536-138.596 121.428"/><path d="m480.592 662.667-.664.094"/><path d="m202.074 20c-25.334 21.231-40.741 50.599-40.741 81.333 0 150.85 360 330.484 360 481.334 0 30.734-15.405 58.769-40.74 80"/><path d="m341.333 341.333v80"/><path d="m341.333 501.333v40"/></g></g></svg>