<svg height="640" viewBox="0 0 640 640" width="640" xmlns="http://www.w3.org/2000/svg"><path d="m0 0h640v640h-640z" fill="none"/><path d="m100 78c-12.1 0-22 9.9-22 22v440c0 12.1 9.9 22 22 22h440c12.1 0 22-9.9 22-22v-440c0-12.1-9.9-22-22-22zm-88 22c0-48.537 39.463-88 88-88h440c48.537 0 88 39.463 88 88v440c0 48.537-39.463 88-88 88h-440c-48.537 0-88-39.463-88-88zm176 44c24.337 0 44 19.663 44 44s-19.663 44-44 44-44-19.663-44-44 19.663-44 44-44zm187 99c11.688 0 22.55 6.188 28.462 16.225l110.001 187c6.05 10.175 6.05 22.825.137 33.137-5.912 10.313-16.775 16.638-28.6 16.638h-330c-12.238 0-23.65-6.875-29.287-17.737-5.638-10.863-4.813-24.063 2.199-34.1l77.001-110c6.187-8.801 16.224-14.025 27.087-14.025s20.9 5.224 27.087 14.025l23.65 33.824 63.938-108.625c5.912-10.037 16.775-16.225 28.463-16.225z" fill="#f62"/></svg>