<svg height="682.66669" viewBox="0 0 682.66669 682.66669" width="682.66669" xmlns="http://www.w3.org/2000/svg"><g style="fill:none;stroke:#000;stroke-width:30;stroke-linecap:round;stroke-linejoin:round;stroke-miterlimit:10"><path d="m0 0s107.899 150 241 150 241-150 241-150-107.899-150-241-150-241 150-241 150z" transform="matrix(1.3333333 0 0 -1.3333333 19.9999995 341.3333452)"/><path d="m0 0c0 49.706 40.294 90 90 90s90-40.294 90-90-40.294-90-90-90-90 40.294-90 90z" transform="matrix(1.3333333 0 0 -1.3333333 221.3333278 341.3333452)"/><path d="m0 0-482-482" transform="matrix(1.3333333 0 0 -1.3333333 662.6666501 20.0000199)"/></g></svg>