<svg height="512" viewBox="0 0 512 512" width="512" xmlns="http://www.w3.org/2000/svg"><path d="m0 0h512v512h-512z" fill="none"/><g fill="#f62"><path d="m511.987 104.637c0 .046.001.092.002.138-.005-.293-.001-.051 0-.002-.058-3.831-1.624-7.694-4.385-10.382l-89.995-89.995c-2.836-2.763-6.632-4.396-10.609-4.396h-241c-24.813 0-45 20.187-45 45v106h-76c-24.813 0-45 20.187-45 45v180c0 24.813 20.187 45 45 45h76v46c0 24.813 20.187 45 45 45h301c24.813 0 45-20.187 45-45v-362c-.009-.121-.013-.242-.013-.363zm-89.987-53.424 38.787 38.787h-38.787zm-377 339.787c-8.271 0-15-6.729-15-15v-180c0-8.271 6.729-15 15-15h302c8.271 0 15 6.729 15 15v180c0 8.271-6.729 15-15 15zm437 76c0 8.271-6.729 15-15 15h-301c-8.271 0-15-6.729-15-15v-46h196c24.813 0 45-20.187 45-45v-180c0-24.813-20.187-45-45-45h-196v-106c0-8.271 6.729-15 15-15h226v75c0 8.284 6.716 15 15 15h75z"/><path d="m256 271.001c-8.291 0-15-6.708-15-15 0-13.244 16.121-20.093 25.606-10.607 5.857 5.858 15.355 5.858 21.213 0s5.858-15.355 0-21.213c-8.499-8.5-19.799-13.181-31.819-13.181-24.872 0-45 20.127-45 45 0 24.872 20.127 45 45 45 13.268 0 20.075 16.137 10.606 25.607-5.863 5.863-15.349 5.862-21.214 0-5.857-5.857-15.355-5.857-21.213.001s-5.857 15.355.001 21.213c17.587 17.586 46.05 17.589 63.64-.001 8.499-8.5 13.18-19.8 13.18-31.819 0-24.871-20.126-45-45-45z"/><path d="m166 211c-8.284 0-15 6.716-15 15v90c0 8.271-6.729 15-15 15s-15-6.729-15-15c0-8.284-6.716-15-15-15s-15 6.716-15 15c0 24.813 20.187 45 45 45s45-20.187 45-45v-90c0-8.284-6.716-15-15-15z"/></g></svg>