<svg height="512" viewBox="0 0 512 512" width="512" xmlns="http://www.w3.org/2000/svg"><path d="m0 0h512v512h-512z" fill="none"/><g fill="#ff6621"><path d="m487.44 101.581-90.769-95.946c-1.024-1.083-2.185-2.007-3.428-2.796-2.465-1.778-5.484-2.839-8.758-2.839-.154 0-.303.019-.455.023-.148-.004-.295-.023-.444-.023h-215.58c-36.477 0-66.155 29.677-66.155 66.156v4.086h-56.06c-14.422 0-26.155 11.733-26.155 26.155v129.408c0 14.422 11.733 26.155 26.155 26.155h56.059v193.886c0 36.477 29.677 66.155 66.155 66.155h258.205c36.477 0 66.155-29.677 66.155-66.155v-331.887c0-4.627-1.751-9.023-4.925-12.378zm-87.956-49.325 43.558 46.042h-34.872c-4.79 0-8.687-3.896-8.687-8.687v-37.355zm-349.852 169.707v-121.726h228.118v121.726zm412.737 223.882c0 19.939-16.22 36.159-36.159 36.159h-258.204c-19.938 0-36.159-16.221-36.159-36.159v-193.886h149.746c14.422 0 26.155-11.732 26.155-26.155v-129.407c0-14.422-11.733-26.155-26.155-26.155h-149.746v-4.086c0-19.938 16.221-36.159 36.159-36.159h201.482v59.616c0 21.33 17.353 38.683 38.683 38.683h54.198z"/><path d="m154.332 119.795c-1.546-.965-3.4-1.449-5.562-1.449h-20.282c-1.778 0-3.129.773-4.057 2.318-.928 1.547-1.391 3.362-1.391 5.447 0 2.242.481 4.135 1.448 5.678.966 1.547 2.298 2.318 3.998 2.318h10.083v42.303c0 7.727-3.517 11.59-10.546 11.59-2.165 0-3.96-.348-5.39-1.043-1.431-.695-2.454-1.757-3.072-3.188-.619-1.429-1.024-2.608-1.217-3.535s-.367-2.202-.521-3.825c-.31-3.631-3.285-5.447-8.924-5.447-3.323 0-5.679.6-7.07 1.797-1.391 1.199-2.086 3.459-2.086 6.78 0 7.495 2.725 13.406 8.171 17.732 5.446 4.328 12.418 6.49 20.919 6.49 8.267 0 14.969-2.202 20.108-6.606 5.137-4.403 7.706-11.318 7.706-20.745v-52.501c.003-1.776-.77-3.147-2.315-4.114z"/><path d="m218.944 166.792c-1.817-3.555-4.076-6.317-6.78-8.288-2.706-1.971-5.66-3.784-8.866-5.447-3.208-1.661-6.162-3.014-8.866-4.057-2.706-1.043-4.965-2.298-6.779-3.767-1.816-1.467-2.725-3.09-2.725-4.867 0-1.931.966-3.573 2.898-4.925 1.93-1.351 4.827-2.028 8.692-2.028 3.631 0 6.953.735 9.967 2.202 3.014 1.469 4.983 2.203 5.91 2.203 2.24 0 4-1.1 5.273-3.298 1.274-2.198 1.913-4.316 1.913-6.359 0-2.148-.869-3.978-2.608-5.492-1.739-1.512-3.981-2.606-6.723-3.284-2.743-.677-5.214-1.136-7.417-1.375-2.202-.239-4.308-.359-6.315-.359-8.19 0-15.183 2.029-20.977 6.084-5.794 4.057-8.692 10.179-8.692 18.37 0 5.023 1.256 9.35 3.768 12.98 2.51 3.633 5.581 6.432 9.214 8.403 3.63 1.97 7.243 3.749 10.837 5.331 3.593 1.585 6.644 3.343 9.155 5.273 2.511 1.933 3.768 4.172 3.768 6.722s-1.121 4.461-3.361 5.736c-2.242 1.275-4.868 1.913-7.882 1.913-2.396 0-4.675-.467-6.837-1.405-2.164-.937-3.846-1.974-5.042-3.115-1.198-1.139-2.512-2.177-3.94-3.115-1.431-.937-2.724-1.406-3.883-1.406-2.087 0-3.922 1.083-5.505 3.246-1.585 2.164-2.376 4.328-2.376 6.49 0 3.865 2.781 7.341 8.345 10.431 5.562 3.092 12.091 4.636 19.586 4.636 8.653 0 15.646-2.219 20.977-6.657s7.997-10.641 7.997-18.609c-.001-4.556-.91-8.612-2.726-12.167z"/><path d="m240.172 400.557c-3.668 0-7.21-.63-10.622-1.892-3.415-1.261-5.119-3.305-5.119-6.132 0-.907.382-4.74 1.146-11.503.765-6.762 1.146-10.798 1.146-12.112 0-2.219-.611-4.312-1.834-6.28s-2.445-3.104-3.668-3.408c1.018-.301 2.189-1.488 3.516-3.556 1.322-2.068 1.986-4.162 1.986-6.282 0-1.211-.382-4.315-1.146-9.311-.764-4.995-1.146-8.098-1.146-9.311 0-3.527 1.757-6.05 5.272-7.564 3.516-1.514 7.004-2.271 10.47-2.271 2.24 0 3.997-1.03 5.272-3.093 1.272-2.063 1.91-4.362 1.91-6.903 0-3.066-1.02-5.63-3.057-7.694-2.04-2.063-5.452-3.095-10.24-3.095-8.252 0-15.894 2.825-22.924 8.47s-10.545 11.97-10.545 18.975c0 1.817.382 5.172 1.146 10.067.765 4.895 1.146 7.796 1.146 8.704 0 1.313-.484 2.321-1.451 3.028-.971.707-2.014 1.211-3.134 1.514-1.122.303-2.166 1.084-3.134 2.345-.969 1.261-1.451 3.104-1.451 5.525s.482 4.314 1.451 5.676c.968 1.363 2.012 2.197 3.134 2.498 1.12.303 2.163.833 3.134 1.59.967.757 1.451 1.841 1.451 3.253 0 .91-.382 4.618-1.146 11.128s-1.146 10.724-1.146 12.639c0 7.23 3.413 13.336 10.239 18.313 6.824 4.976 14.466 7.467 22.924 7.467 9.067 0 13.602-3.489 13.602-10.472 0-2.539-.562-4.892-1.682-7.061-1.121-2.167-2.955-3.252-5.5-3.252z"/><path d="m305.821 357.309c-2.293-2.343-5.019-3.516-8.177-3.516-3.41 0-6.251 1.146-8.524 3.439s-3.408 5.069-3.408 8.329c0 3.16 1.161 5.91 3.487 8.252 2.323 2.345 5.139 3.516 8.445 3.516 3.158 0 5.884-1.17 8.177-3.516 2.293-2.343 3.439-5.093 3.439-8.252 0-3.156-1.146-5.907-3.439-8.252z"/><path d="m304.923 399.107c-2.374-2.293-5.16-3.44-8.36-3.44s-5.963 1.146-8.283 3.439c-2.324 2.293-3.484 5.069-3.484 8.329 0 4.584 2.139 8.05 6.418 10.393l-3.821 8.252c-.408.814-.611 1.629-.611 2.446 0 1.731.814 3.157 2.445 4.279 1.629 1.12 3.363 1.682 5.196 1.682 2.24 0 3.768-.917 4.584-2.751 6.316-14.671 9.476-22.821 9.476-24.452.002-3.158-1.185-5.884-3.56-8.177z"/><path d="m398.725 353.257c-.969-1.264-2.013-2.045-3.132-2.348-1.123-.303-2.167-.807-3.134-1.514-.97-.707-1.452-1.715-1.452-3.028 0-.908.382-3.809 1.146-8.704s1.146-8.25 1.146-10.067c0-7.004-3.516-13.329-10.546-18.975-7.03-5.645-14.671-8.47-22.923-8.47-4.79 0-8.203 1.032-10.24 3.095-2.04 2.063-3.058 4.627-3.058 7.694 0 2.541.636 4.84 1.911 6.903 1.272 2.063 3.03 3.093 5.272 3.093 3.463 0 6.953.757 10.469 2.271s5.272 4.038 5.272 7.567c0 1.213-.383 4.314-1.146 9.311-.765 4.995-1.146 8.1-1.146 9.311 0 2.121.662 4.214 1.986 6.282s2.496 3.255 3.516 3.556c-1.223.303-2.445 1.44-3.668 3.408s-1.834 4.063-1.834 6.28c0 1.313.382 5.349 1.146 12.111s1.146 10.596 1.146 11.503c0 2.828-1.708 4.871-5.12 6.132-3.414 1.261-6.953 1.892-10.621 1.892-2.548 0-4.382 1.084-5.502 3.253-1.122 2.168-1.682 4.522-1.682 7.061 0 6.982 4.532 10.472 13.602 10.472 8.456 0 16.098-2.491 22.924-7.467 6.824-4.976 10.24-11.082 10.24-18.313 0-1.916-.383-6.129-1.146-12.639-.765-6.509-1.146-10.218-1.146-11.128 0-1.412.482-2.496 1.452-3.253.967-.757 2.011-1.287 3.134-1.59 1.119-.301 2.163-1.135 3.133-2.498.967-1.361 1.451-3.255 1.451-5.676s-.484-4.265-1.45-5.525z"/></g></svg>