<svg height="682.66669" viewBox="0 0 682.66669 682.66669" width="682.66669" xmlns="http://www.w3.org/2000/svg"><g style="fill:none;stroke:#000;stroke-width:30;stroke-linecap:round;stroke-linejoin:round;stroke-miterlimit:10"><path d="m0 0c0 55.229-44.772 100-100 100s-100-44.771-100-100c0-44.774 29.432-82.663 70-95.408v-224.592l30-20 50 60-20 30 20 30-20 30v94.592c40.568 12.745 70 50.634 70 95.408z" transform="matrix(1.3333333 0 0 -1.3333333 286.6666595 209.3333485)"/><path d="m0 0h40" transform="matrix(1.3333333 0 0 -1.3333333 126.6666635 156.0000165)"/><path d="m0 0v102" transform="matrix(1.3333333 0 0 -1.3333333 153.3333295 156.0000165)"/><path d="m0 0c13.914-2.991 28.49-3.037 42.723.134l112.296-194.503 35.981-2.32 13.301 76.961-32.321 15.981 2.321 35.981-32.321 15.98-47.295 81.92c28.76 31.321 35.304 78.85 12.917 117.625-23.061 39.944-69.517 57.951-112.067 46.721" transform="matrix(1.3333333 0 0 -1.3333333 193.3333285 339.70121190747)"/><path d="m0 0c6.811 3.776 13.22 8.367 19.065 13.734l194.503-112.297 32.32 15.981-26.962 73.302-35.98-2.321-15.981 32.321-35.981-2.321-81.919 47.296c9.247 41.506-8.85 85.939-47.626 108.326-21.492 12.409-45.675 15.927-68.297 11.706" transform="matrix(1.3333333 0 0 -1.3333333 334.81572496294 325.91347891883)"/></g></svg>