<svg height="682.667" viewBox="0 0 682.667 682.667" width="682.667" xmlns="http://www.w3.org/2000/svg"><g fill="none"><path d="m0 0h682.667v682.667h-682.667z"/><g stroke="#f62" stroke-linecap="round" stroke-linejoin="round" stroke-miterlimit="10" stroke-width="40"><path d="m286.667 209.333c0-73.638-59.696-133.333-133.334-133.333-73.637 0-133.333 59.695-133.333 133.333 0 59.699 39.243 110.218 93.333 127.211v299.456l40 26.667 66.667-80-26.667-40 26.667-40-26.667-40v-126.123c54.091-16.993 93.334-67.512 93.334-127.211z"/><path d="m126.667 156h53.333"/><path d="m153.333 156v-136"/><path d="m193.333 339.701c18.552 3.988 37.987 4.05 56.964-.178l149.728 259.337 47.975 3.093 17.735-102.614-43.095-21.308 3.095-47.975-43.095-21.307-63.06-109.226c38.347-41.762 47.072-105.134 17.223-156.834-30.748-53.258-92.69-77.268-149.423-62.294"/><path d="m334.816 325.913c9.081-5.034 17.626-11.156 25.42-18.312l259.337 149.73 43.093-21.308-35.949-97.736-47.973 3.094-21.308-43.094-47.975 3.094-109.225-63.061c12.329-55.341-11.8-114.585-63.502-144.435-28.656-16.545-60.9-21.236-91.062-15.608"/></g></g></svg>