<svg height="682.667" viewBox="0 0 682.667 682.667" width="682.667" xmlns="http://www.w3.org/2000/svg"><g fill="none"><path d="m0 0h682.667v682.667h-682.667z"/><g stroke="#f62" stroke-linecap="round" stroke-linejoin="round" stroke-miterlimit="22.926" stroke-width="40"><path d="m560.126 32.029c-54.561 46.522-108.521 85.012-164.833 109.969-64.035 28.38-131.097 37.393-196.627 36.445v142.051 141.987c65.53-.95 132.592 8.001 196.627 36.381 55.756 24.711 109.207 62.732 163.219 108.616"/><path d="m582.667 620c44.062 0 80-134.765 80-300s-35.938-300-80-300-80 134.765-80 300 35.938 300 80 300z"/><path d="m507.49 229.059c43.933 6.805 77.844 45.033 77.844 90.797 0 44.116-31.511 81.228-73.138 89.941"/><path d="m198.667 178.766h-90.667c-48.469 0-88 39.53-88 88v108c0 48.469 39.531 88 88 88h90.667z"/><path d="m282.667 474.667-53.702 156.928c-6.465 18.801-23.15 31.072-43.032 31.072h-1.933c-24.969 0-45.333-20.364-45.333-45.334v-154.568"/></g></g></svg>