<svg height="682.667" viewBox="0 0 682.667 682.667" width="682.667" xmlns="http://www.w3.org/2000/svg"><g fill="none"><path d="m0 0h682.667v682.667h-682.667z"/><g stroke="#f62" stroke-linecap="round" stroke-linejoin="round" stroke-miterlimit="10" stroke-width="40"><path d="m34.908 652.486 253.092-189.819"/><path d="m647.758 652.486-253.092-189.819"/><path d="m341.333 233.333c-29.456 0-53.333-23.878-53.333-53.333 0-29.456 23.877-53.333 53.333-53.333s53.334 23.877 53.334 53.333c0 29.455-23.878 53.333-53.334 53.333zm133.334-53.333c0-9.944-1.172-19.6-3.236-28.923l28.466-16.437-40-69.28-28.549 16.481c-14.211-13.037-31.163-23.129-50.015-29.05v-32.791h-80v32.791c-18.852 5.921-35.804 16.013-50.014 29.05l-28.55-16.481-40 69.28 28.467 16.437c-2.064 9.323-3.236 18.979-3.236 28.923s1.172 19.6 3.236 28.923l-28.467 16.437 40 69.28 28.55-16.483c14.21 13.039 31.162 23.131 50.014 29.052v32.791h80v-32.791c18.852-5.921 35.804-16.013 50.015-29.052l28.549 16.483 40-69.28-28.466-16.437c2.064-9.323 3.236-18.979 3.236-28.923z"/><path d="m204.309 262.667h-142.975c-22.092 0-40 17.909-40 40v320c0 22.09 17.908 40 40 40h560c22.09 0 40-17.91 40-40v-320c0-22.091-17.91-40-40-40h-142.976"/><path d="m34.908 272.848 306.426 229.818 306.425-229.818"/></g></g></svg>