<svg height="48" viewBox="0 0 48 48" width="48" xmlns="http://www.w3.org/2000/svg"><path d="m0 0h48v48h-48z" fill="none"/><path d="m24-0c-13.234 0-24 10.766-24 24s10.766 24 24 24 24-10.766 24-24-10.766-24-24-24zm0 3.6c11.249 0 20.4 9.151 20.4 20.4 0 7.022-3.567 13.224-8.984 16.896l-16.525-24.504c-.441-.656-1.266-.943-2.018-.715-.756.233-1.273.932-1.273 1.723v15.6c0 .994.806 1.8 1.8 1.8s1.8-.806 1.8-1.8v-9.712l13.052 19.352c-2.527 1.122-5.314 1.76-8.252 1.76-11.249 0-20.4-9.151-20.4-20.4s9.151-20.4 20.4-20.4zm6.6 9.6c-.994 0-1.8.806-1.8 1.8v10.184l3.6 5.163v-15.347c0-.994-.806-1.8-1.8-1.8z"/></svg>