<svg height="48" viewBox="0 0 48 48" width="48" xmlns="http://www.w3.org/2000/svg"><path d="m24 4c-11.028 0-20 8.972-20 20s8.972 20 20 20 20-8.972 20-20-8.972-20-20-20zm0 3c9.374 0 17 7.626 17 17 0 5.852-2.972328 11.020078-7.486328 14.080078l-13.771484-20.419922c-.367001-.547-1.054641-.785703-1.681641-.595703-.63.194-1.060547.776547-1.060547 1.435547v13c0 .828.672 1.5 1.5 1.5s1.5-.672 1.5-1.5v-8.09375l10.876953 16.126953c-2.106.935-4.428953 1.466797-6.876953 1.466797-9.374 0-17-7.626-17-17s7.626-17 17-17zm5.5 8c-.828 0-1.5.672-1.5 1.5v8.486328l3 4.302734v-12.789062c0-.828-.672-1.5-1.5-1.5z"/></svg>