<svg height="682.667" viewBox="0 0 682.667 682.667" width="682.667" xmlns="http://www.w3.org/2000/svg"><g fill="none"><path d="m0 0h682.667v682.667h-682.667z"/><g stroke="#f62" stroke-linecap="round" stroke-linejoin="round" stroke-miterlimit="10" stroke-width="40"><path d="m264.211 438s59.867-44.529 69.523-128.615"/><path d="m334.35 301.18c0 31.212-25.301 56.513-56.513 56.513s-56.514-25.301-56.514-56.513 25.302-56.513 56.514-56.513 56.513 25.301 56.513 56.513z"/><path d="m100 244.667h41.323v193.333"/><path d="m100 244.667h41.323v193.333"/><path d="m662.667 518h-642.667v-353.333h642.667z"/><path d="m431.653 20h33.147c28.28 0 51.2 22.92 51.2 51.2v540.267c0 28.28-22.92 51.2-51.2 51.2h-33.147"/><path d="m600.347 662.667h-33.147c-28.28 0-51.2-22.92-51.2-51.2v-540.267c0-28.28 22.92-51.2 51.2-51.2h33.147"/></g></g></svg>