<svg height="500" viewBox="0 0 500 500" width="500" xmlns="http://www.w3.org/2000/svg"><path d="m0 0h500v500h-500z" fill="none"/><path d="m343 126c17.147 0 31 13.853 31 31v186c0 17.147-13.853 31-31 31h-31c-17.147 0-31-13.853-31-31v-186c0-17.147 13.853-31 31-31zm-31-31c-34.197 0-62 27.803-62 62v186c0 34.197 27.803 62 62 62h31c34.197 0 62-27.803 62-62v-77.5h77.5c8.525 0 15.5-6.975 15.5-15.5s-6.975-15.5-15.5-15.5h-77.5v-77.5c0-34.197-27.803-62-62-62zm-310 155c0 8.525 6.975 15.5 15.5 15.5h201.5v-31h-201.5c-8.525 0-15.5 6.975-15.5 15.5z" fill="#f62"/></svg>