<svg height="682.667" viewBox="0 0 682.667 682.667" width="682.667" xmlns="http://www.w3.org/2000/svg"><g fill="none"><path d="m0 0h682.667v682.667h-682.667z"/><g stroke="#f62" stroke-linecap="round" stroke-linejoin="round" stroke-miterlimit="10" stroke-width="40"><path d="m401.333 321.333c0 33.138-26.862 60-60 60-33.137 0-60-26.862-60-60 0-33.137 26.863-60 60-60 33.138 0 60 26.863 60 60z"/><path d="m245.322 469.337c21.893-29.148 56.75-48.003 96.012-48.003 39.261 0 74.118 18.855 96.012 48.003"/><path d="m501.333 341.333c0 88.366-71.634 160-160 160-88.365 0-160-71.634-160-160 0-88.365 71.635-160 160-160 88.366 0 160 71.635 160 160z"/><path d="m621.333 101.333v237.2c0 162.4-119.198 301.334-280 324.134-80.4-11.202-150.4-52.935-200.4-110.535-50-57.2-79.6-132.4-79.6-213.599v-237.2h15.6c94.4 0 185.999-29.333 264.4-81.333 78.402 52 170 81.333 264.4 81.333z"/></g></g></svg>