<svg height="512" viewBox="0 0 512 512" width="512" xmlns="http://www.w3.org/2000/svg"><path d="m0 0h512v512h-512z" fill="none"/><g fill="#f62"><path d="m450.934 106.41-102.739-102.051c-2.808-2.793-6.609-4.359-10.57-4.359h-204.594c-8.285 0-15 6.715-15 15v45.207h-47.031c-8.285 0-15 6.715-15 15v421.793c0 8.285 6.715 15 15 15h307.332c8.285 0 15-6.715 15-15v-45.207h47.031c8.282 0 15-6.715 15-15v-319.738c0-3.996-1.593-7.828-4.429-10.645zm-98.309-55.367 51.352 51.012h-51.352zm10.707 430.957h-277.332v-391.793h32.031v346.586c0 8.285 6.715 15 15 15h230.301zm-215.301-60.207v-391.793h174.594v87.055c0 8.285 6.715 15 15 15h87.738v289.738zm0 0"/><path d="m381.441 340.012h-188.472c-8.285 0-15 6.715-15 15s6.715 15 15 15h188.472c8.286 0 15-6.715 15-15s-6.714-15-15-15zm0 0"/><path d="m381.441 280.012h-188.472c-8.285 0-15 6.715-15 15s6.715 15 15 15h188.472c8.286 0 15-6.715 15-15s-6.714-15-15-15zm0 0"/><path d="m381.441 220.012h-188.472c-8.285 0-15 6.715-15 15s6.715 15 15 15h188.472c8.286 0 15-6.715 15-15s-6.714-15-15-15zm0 0"/><path d="m192.969 190.012h72.379c8.285 0 15-6.715 15-15s-6.715-15-15-15h-72.379c-8.285 0-15 6.715-15 15s6.715 15 15 15zm0 0"/></g></svg>