<svg height="682.667" viewBox="0 0 682.667 682.667" width="682.667" xmlns="http://www.w3.org/2000/svg"><g fill="none"><path d="m0 0h682.667v682.667h-682.667z"/><g stroke="#f62" stroke-linecap="round" stroke-linejoin="round" stroke-miterlimit="10" stroke-width="40"><path d="m301.941 477.137c-3.836 21.754 10.691 42.501 32.447 46.338 21.755 3.836 42.501-10.692 46.337-32.446 3.836-21.756-10.69-42.503-32.446-46.339-21.755-3.836-42.502 10.691-46.338 32.447z"/><path d="m518.483 216.512c-20.759 7.554-31.463 30.509-23.907 51.268 7.556 20.76 30.51 31.462 51.268 23.906 20.76-7.554 31.463-30.509 23.908-51.268-7.556-20.76-30.51-31.462-51.269-23.906z"/><path d="m527.777 394.158c-16.922-14.2-42.153-11.994-56.354 4.929-14.199 16.924-11.992 42.155 4.932 56.353 16.922 14.2 42.152 11.994 56.352-4.929 14.201-16.924 11.992-42.155-4.93-56.353z"/><path d="m271.658 257.438c-7.242-16.49-5.955-36.25 5.132-52.083 17.036-24.332 26.512-19.267 42.334-39.454 15.63-19.942 26.494-58.844 26.494-58.844s64.1 94.424 18.548 159.479c-11.087 15.832-29.215 23.8-47.188 22.636"/><path d="m209.557 326.147c-10.233-9.053-22.477-15.952-36.104-19.75-16.57-4.622-33.109-4.524-48.353-.618-25.616 6.563-49.849-13.853-45.293-39.9l.601-3.433c28.131-159.544 180.271-266.072 339.813-237.94 159.542 28.131 266.072 180.271 237.94 339.813-28.132 159.543-180.27 266.072-339.813 237.94-2.683-.473-5.351-.98-8.001-1.524-74.335-15.21-110.043-96.105-77.775-164.777 1.669-3.551 3.105-7.245 4.331-11.055"/><path d="m271.806 257.318 45.235 31.674c-8.414 25.3-29.551 63.802-70.867 122.806-80.249 114.609-205.86 262.778-223.956 250.108-18.097-12.672 78.175-181.386 158.425-295.995 41.315-59.004 70.264-92.033 91.163-108.593z"/></g></g></svg>