<svg height="682.66669" viewBox="0 0 682.66669 682.66669" width="682.66669" xmlns="http://www.w3.org/2000/svg"><g style="fill:none;stroke:#000;stroke-width:30;stroke-linecap:round;stroke-linejoin:round;stroke-miterlimit:10"><path d="m0 0c-2.877-16.316 8.018-31.876 24.335-34.754 16.316-2.877 31.876 8.019 34.753 24.335 2.877 16.317-8.018 31.877-24.335 34.754-16.316 2.877-31.876-8.018-34.753-24.335z" transform="matrix(1.3333333 0 0 -1.3333333 301.94145911813 477.13667513825)"/><path d="m0 0c-15.569-5.666-23.597-22.882-17.93-38.451 5.667-15.57 22.882-23.597 38.451-17.93 15.57 5.666 23.597 22.882 17.931 38.451-5.667 15.57-22.883 23.597-38.452 17.93z" transform="matrix(1.3333333 0 0 -1.3333333 518.48305370459 216.51174832054)"/><path d="m0 0c-12.692 10.65-31.615 8.995-42.266-3.697-10.649-12.693-8.994-31.616 3.699-42.265 12.692-10.65 31.614-8.995 42.264 3.697 10.651 12.693 8.994 31.616-3.697 42.265z" transform="matrix(1.3333333 0 0 -1.3333333 527.7773201389 394.15761054606)"/><path d="m0 0c-5.431 12.367-4.466 27.187 3.849 39.062 12.777 18.249 19.884 14.45 31.751 29.59 11.722 14.957 19.87 44.133 19.87 44.133s48.075-70.818 13.911-119.609c-8.315-11.874-21.911-17.85-35.391-16.977" transform="matrix(1.3333333 0 0 -1.3333333 271.65759320856 257.43748063073)"/><path d="m0 0c-7.675 6.79-16.858 11.964-27.078 14.813-12.428 3.466-24.832 3.393-36.265.463-19.212-4.922-37.387 10.39-33.97 29.925l.451 2.575c21.098 119.658 135.203 199.554 254.86 178.455 119.656-21.098 199.554-135.203 178.455-254.86s-135.203-199.554-254.86-178.455c-2.012.355-4.013.735-6.001 1.143-55.751 11.408-82.532 72.079-58.331 123.583 1.252 2.663 2.329 5.434 3.248 8.291" transform="matrix(1.3333333 0 0 -1.3333333 209.5573280944 326.14721224632)"/><path d="m0 0 33.926-23.756c-6.31-18.975-22.163-47.851-53.15-92.104-60.187-85.957-154.395-197.084-167.967-187.581-13.573 9.504 58.631 136.039 118.819 221.996 30.986 44.253 52.698 69.025 68.372 81.445z" transform="matrix(1.3333333 0 0 -1.3333333 271.80599320485 257.31774730039)"/></g></svg>