<svg height="800" viewBox="0 0 800 800" width="800" xmlns="http://www.w3.org/2000/svg"><path d="m0 0h800v800h-800z" fill="none"/><path d="m414.553 618.289c-.001 16.075-13.031 29.106-29.106 29.106h-349.263c-16.074 0-29.105-13.031-29.105-29.106 0-16.074 13.031-29.105 29.105-29.105h349.263c16.075 0 29.105 13.031 29.106 29.105zm-378.369-436.578h640.316c16.074 0 29.105-13.031 29.105-29.106 0-16.074-13.031-29.105-29.105-29.105h-640.316c-16.074 0-29.105 13.031-29.105 29.105 0 16.075 13.031 29.106 29.105 29.106zm349.263 174.631h-349.263c-16.074 0-29.105 13.031-29.105 29.105 0 16.075 13.031 29.106 29.105 29.106h349.263c16.075 0 29.106-13.031 29.106-29.106 0-16.074-13.031-29.105-29.106-29.105zm393.795 120.844-232.842-145.526c-8.972-5.607-20.281-5.903-29.535-.774s-14.996 14.876-14.997 25.456v291.053c.001 10.58 5.743 20.327 14.997 25.456s20.563 4.833 29.535-.774l232.842-145.527c8.51-5.319 13.679-14.646 13.679-24.682 0-10.035-5.169-19.362-13.679-24.682z" fill="#f62"/></svg>