<svg height="512" viewBox="0 0 512 512" width="512" xmlns="http://www.w3.org/2000/svg"><g fill="none"><path d="m0 0h512v512h-512z"/><g stroke="#f62" stroke-linecap="round" stroke-linejoin="round" stroke-miterlimit="10" stroke-width="30"><path d="m191.733 79.267h305.267"/><path d="m191.733 256h305.267"/><path d="m191.733 432.733h305.267"/><path d="m111.4 79.267c0 26.62-21.58 48.2-48.2 48.2s-48.2-21.58-48.2-48.2 21.58-48.2 48.2-48.2 48.2 21.58 48.2 48.2z"/><path d="m111.4 256c0 26.62-21.58 48.2-48.2 48.2s-48.2-21.58-48.2-48.2 21.58-48.2 48.2-48.2 48.2 21.58 48.2 48.2z"/><path d="m111.4 432.733c0 26.62-21.58 48.2-48.2 48.2s-48.2-21.58-48.2-48.2 21.58-48.2 48.2-48.2 48.2 21.58 48.2 48.2z"/></g></g></svg>