<svg height="512" viewBox="0 0 512 512" width="512" xmlns="http://www.w3.org/2000/svg"><g fill="none"><path d="m0 0h512v512h-512z"/><g stroke="#f62" stroke-linecap="round" stroke-linejoin="round" stroke-miterlimit="10" stroke-width="30"><path d="m364.896 402.801-27.849 94.199h-111c0-28.538-11.337-55.907-31.516-76.086l-25.559-25.559c-11.616-11.616-12.24-30.559-.863-42.409 5.912-6.158 13.785-9.237 21.658-9.237 7.67 0 15.35 2.93 21.21 8.79l15.07 15.07v-123.962c0-16.393 12.896-30.217 29.285-30.599 8.563-.2 16.339 3.196 21.925 8.782 5.43 5.43 8.79 12.93 8.79 21.21v95.34l60.543 26.402c14.903 5.928 22.632 22.634 18.306 38.059z"/><path d="m256 15-27.325 37.016-43.649 14.549 26.761 37.427.349 46.008 43.864-13.885 43.864 13.885.349-46.008 26.761-37.427-43.649-14.549z"/><path d="m426.026 95-27.325 37.016-43.648 14.549 26.76 37.427.349 46.008 43.864-13.885 43.864 13.885.35-46.008 26.76-37.427-43.648-14.549z"/><path d="m85.974 95 27.325 37.016 43.648 14.549-26.76 37.427-.349 46.008-43.864-13.885-43.864 13.885-.35-46.008-26.76-37.427 43.648-14.549z"/></g></g></svg>