<svg height="232.058" viewBox="0 0 232.058 232.058" width="232.058" xmlns="http://www.w3.org/2000/svg"><path d="m0 0h232.058v232.058h-232.058z" fill="none"/><g fill="#ff6623"><path d="m16.45 103.92c5.972-33.874 29.885-61.607 61.536-73.034l-1.486 2.575c-2.072 3.587-.844 8.174 2.743 10.246 1.182.682 2.471 1.007 3.744 1.007 2.591 0 5.112-1.345 6.501-3.75l10.34-17.901c.995-1.723 1.266-3.77.751-5.691-.515-1.922-1.771-3.56-3.494-4.555l-17.906-10.341c-3.59-2.072-8.175-.842-10.246 2.744-2.071 3.587-.843 8.174 2.744 10.245l1.868 1.079c-36.955 13.084-64.914 45.335-71.866 84.771-3.364 19.06-1.651 38.703 4.953 56.807 1.11 3.043 3.984 4.931 7.047 4.931.853 0 1.722-.147 2.569-.456 3.892-1.42 5.896-5.725 4.476-9.616-5.702-15.629-7.18-32.593-4.274-49.061z"/><path d="m193.646 180.699c-3.172-2.666-7.902-2.256-10.567.915-21.818 25.955-56.084 38.429-89.437 32.542-16.189-2.855-31.295-9.876-43.866-20.192h2.413c4.143 0 7.5-3.358 7.5-7.5s-3.357-7.5-7.5-7.5h-19.967c-1.927-.182-3.923.376-5.523 1.718-1.56 1.308-2.449 3.116-2.639 4.993-.001.007-.002.013-.003.02v.006c-.021.215-.031.431-.033.647-.001.038-.006.074-.006.112l-.008 20.67c-.002 4.142 3.355 7.501 7.497 7.503h.003c4.141 0 7.498-3.356 7.5-7.497l.001-2.612c14.795 12.509 32.75 21.004 52.026 24.403 6.326 1.116 12.679 1.662 18.994 1.662 32.221 0 63.415-14.205 84.53-39.323 2.666-3.17 2.256-7.902-.915-10.567z"/><path d="m231.052 142.479c-2.07-3.587-6.659-4.816-10.245-2.745l-2.467 1.424c.102-.53.222-1.057.315-1.588 5.109-28.982-1.372-58.216-18.25-82.32s-42.132-40.191-71.109-45.296c-4.08-.718-7.97 2.006-8.687 6.085-.719 4.079 2.005 7.969 6.084 8.688 25.031 4.41 46.847 18.306 61.426 39.128 14.55 20.779 20.153 45.973 15.791 70.958l-1.099-1.903c-2.071-3.587-6.658-4.818-10.245-2.747-3.588 2.07-4.817 6.657-2.747 10.245l10.336 17.909c.995 1.723 2.633 2.98 4.555 3.495.639.171 1.291.256 1.941.256 1.305 0 2.6-.341 3.75-1.005l17.906-10.338c3.587-2.072 4.816-6.659 2.745-10.246z"/></g></svg>