<svg height="511" viewBox="0 0 511 511" width="511" xmlns="http://www.w3.org/2000/svg"><path d="m0 0h511v511h-511z" fill="none"/><g fill="#f62"><path d="m400.105 43.977 26.032-5.938c8.304-1.891 13.496-10.144 11.597-18.433-1.894-8.284-10.164-13.473-18.464-11.575l-62.86 14.332c-8.301 1.894-13.496 10.148-11.598 18.432l14.36 62.737c1.633 7.135 7.988 11.965 15.019 11.965 1.137 0 2.293-.125 3.45-.39 8.3-1.891 13.496-10.144 11.597-18.433l-6.191-27.052c68.723 46.573 106.5 127.282 97.172 210.771-6.66 59.649-36.196 113.135-83.168 150.608-40.297 32.152-89.285 49.217-140.133 49.213-8.418 0-16.891-.468-25.379-1.412-8.473-.943-16.09 5.147-17.035 13.591-.945 8.448 5.152 16.059 13.617 17.002 9.656 1.076 19.281 1.606 28.856 1.606 57.812-.004 113.515-19.403 159.332-55.957 53.402-42.608 86.988-103.423 94.562-171.239 10.617-95.041-32.449-186.912-110.766-239.828zm0 0"/><path d="m151.141 404.428c-1.895-8.284-10.164-13.469-18.469-11.575-8.301 1.895-13.492 10.145-11.598 18.433l6.524 28.503c-67.254-46.803-104.075-126.635-94.852-209.181 6.66-59.649 36.195-113.134 83.168-150.608 46.969-37.474 105.75-54.444 165.512-47.801 8.469.955 16.09-5.143 17.035-13.591.941-8.448-5.152-16.058-13.617-17.002-67.953-7.563-134.785 11.739-188.192 54.351-53.402 42.608-86.984 103.423-94.558 171.24-10.438 93.419 30.996 183.777 106.793 237.091l-24.711 5.633c-8.301 1.891-13.496 10.145-11.598 18.433 1.633 7.131 7.984 11.965 15.02 11.965 1.136 0 2.293-.125 3.449-.39l62.855-14.331c8.305-1.895 13.496-10.148 11.598-18.433zm0 0"/><path d="m391.094 151.357h-267.383c-8.516 0-15.418 6.888-15.418 15.391v177.532c0 8.499 6.902 15.392 15.418 15.392h267.383c8.515 0 15.422-6.893 15.422-15.392v-177.532c0-8.503-6.903-15.391-15.422-15.391zm-39.848 30.779-93.844 85.255-93.84-85.255zm-212.113 146.752v-127.321l107.89 98.015c2.942 2.671 6.661 4.008 10.379 4.008 3.719 0 7.438-1.337 10.379-4.008l107.891-98.015v127.321zm0 0"/></g></svg>