<svg height="682.66669" viewBox="0 0 682.66669 682.66669" width="682.66669" xmlns="http://www.w3.org/2000/svg"><g style="fill:none;stroke:#000;stroke-width:30;stroke-linecap:round;stroke-linejoin:round;stroke-miterlimit:10"><path d="m0 0c0-49.706 40.294-90 90-90s90 40.294 90 90-40.294 90-90 90-90-40.294-90-90z" transform="matrix(1.3333333 0 0 -1.3333333 342.6666581 462.6666755)"/><path d="m0 0 59.983-59.983c5.86-5.86 13.536-8.789 21.211-8.789 7.676 0 15.352 2.929 21.211 8.789 11.719 11.718 11.719 30.703 0 42.421l-59.983 59.984" transform="matrix(1.3333333 0 0 -1.3333333 514.40758713981 570.97000612575)"/><path d="m0 0h-242v332h362v-242" transform="matrix(1.3333333 0 0 -1.3333333 342.6666581 462.6666755)"/><path d="m0 0h362" transform="matrix(1.3333333 0 0 -1.3333333 19.9999995 100.0000179)"/><path d="m0 0v60" transform="matrix(1.3333333 0 0 -1.3333333 422.6666561 100.0000179)"/><path d="m0 0 30 90" transform="matrix(1.3333333 0 0 -1.3333333 241.3333273 342.6666785)"/><path d="m0 0-61 45 61 45" transform="matrix(1.3333333 0 0 -1.3333333 181.3333288 342.6666785)"/><path d="m0 0 60 45-60 45" transform="matrix(1.3333333 0 0 -1.3333333 342.6666581 342.6666785)"/></g></svg>