<svg height="682.667" viewBox="0 0 682.667 682.667" width="682.667" xmlns="http://www.w3.org/2000/svg"><g fill="none"><path d="m0 0h682.667v682.667h-682.667z"/><g stroke="#f62" stroke-linecap="round" stroke-linejoin="round" stroke-miterlimit="10" stroke-width="40"><path d="m342.667 462.667c0 66.274 53.725 120 120 120 66.274 0 120-53.726 120-120 0-66.275-53.726-120-120-120-66.275 0-120 53.725-120 120z"/><path d="m514.408 570.97 79.977 79.977c7.813 7.814 18.048 11.719 28.281 11.719 10.235 0 20.47-3.905 28.282-11.719 15.625-15.624 15.625-40.937 0-56.561l-79.978-79.979"/><path d="m342.667 462.667h-322.667v-442.667h482.667v322.667"/><path d="m20 100h482.667"/><path d="m422.667 100v-80"/><path d="m241.333 342.667 40-120"/><path d="m181.333 342.667-81.333-60 81.333-60"/><path d="m342.667 342.667 80-60-80-60"/></g></g></svg>