<svg height="800" viewBox="0 0 800 800" width="800" xmlns="http://www.w3.org/2000/svg"><path d="m0 0h800v800h-800z" fill="none"/><path d="m797.814 412.432c-2.331-3.405-6.188-5.443-10.315-5.443h-22.915l-109.055-196.693c-.563-1.016-1.266-1.925-2.066-2.727-.07-.07-.161-.114-.235-.184-.964-.925-2.077-1.635-3.274-2.209-.348-.166-.687-.308-1.053-.442-1.37-.51-2.802-.87-4.309-.87h-.061-232.032v-62.293c0-6.91-5.59-12.5-12.5-12.5-6.908 0-12.5 5.59-12.5 12.5v62.293h-232.08c-.023 0-.036 0-.061 0-1.489.007-2.901.366-4.256.87-.376.138-.718.29-1.071.464-1.133.546-2.179 1.227-3.104 2.09-.129.12-.284.201-.409.326-.815.827-1.529 1.758-2.097 2.805l-106.378 196.57h-25.544c-4.125 0-7.982 2.038-10.315 5.443-2.331 3.407-2.831 7.741-1.33 11.585 15.882 40.857 79.444 69.385 154.565 69.385 75.098 0 138.66-28.528 154.542-69.385 1.501-3.844 1.001-8.178-1.33-11.585-2.333-3.405-6.19-5.443-10.315-5.443h-22.923l-98.749-178.125h210.855v366.368h-74.536c-2.209 0-4.381.587-6.286 1.698l-87.049 50.696c-4.882 2.844-7.25 8.605-5.785 14.063 1.476 5.456 6.42 9.24 12.073 9.24h348.143c5.653 0 10.597-3.784 12.074-9.24 1.464-5.458-.904-11.219-5.786-14.063l-87.024-50.696c-1.905-1.111-4.077-1.698-6.287-1.698h-74.537v-366.368h211.113l-96.396 178.125h-25.532c-4.126 0-7.983 2.038-10.315 5.443-2.331 3.407-2.832 7.741-1.33 11.585 15.882 40.857 79.443 69.385 154.553 69.385s138.672-28.528 154.554-69.385c1.501-3.844 1.001-8.178-1.332-11.585zm-642.395 55.97c-50.561 0-96.911-14.807-119.347-36.413h238.671c-22.436 21.606-68.774 36.413-119.324 36.413zm-88.942-61.413 89.077-164.613 91.254 164.613zm461.294 238.94h-255.554l44.116-25.697h167.321zm116.956-403.553 91.256 164.613h-180.335zm-.135 226.026c-50.561 0-96.899-14.807-119.336-36.413h238.672c-22.436 21.606-68.775 36.413-119.336 36.413z" fill="#f62"/></svg>