<svg height="214.27" viewBox="0 0 214.27 214.27" width="214.27" xmlns="http://www.w3.org/2000/svg"><path d="m0 0h214.27v214.27h-214.27z" fill="none"/><g fill="#f62"><path d="m196.926 55.171c-.11-5.785-.215-11.25-.215-16.537 0-4.142-3.357-7.5-7.5-7.5-32.075 0-56.496-9.218-76.852-29.01-2.912-2.832-7.546-2.831-10.457 0-20.354 19.792-44.771 29.01-76.844 29.01-4.142 0-7.5 3.358-7.5 7.5 0 5.288-.104 10.755-.215 16.541-1.028 53.836-2.436 127.567 87.331 158.682.796.276 1.626.414 2.456.414s1.661-.138 2.456-.414c89.774-31.116 88.368-104.849 87.34-158.686zm-89.795 143.641c-76.987-27.967-75.823-89.232-74.79-143.351.062-3.248.122-6.396.164-9.482 30.04-1.268 54.062-10.371 74.626-28.285 20.566 17.914 44.592 27.018 74.634 28.285.042 3.085.102 6.231.164 9.477 1.032 54.121 2.195 115.388-74.798 143.356z"/><path d="m132.958 81.082-36.199 36.197-15.447-15.447c-2.929-2.928-7.678-2.928-10.606 0-2.929 2.93-2.929 7.678 0 10.607l20.75 20.75c1.464 1.464 3.384 2.196 5.303 2.196s3.839-.732 5.303-2.196l41.501-41.5c2.93-2.929 2.93-7.678.001-10.606-2.928-2.929-7.677-2.93-10.606-.001z"/></g></svg>