<svg height="512" viewBox="0 0 512 512" width="512" xmlns="http://www.w3.org/2000/svg"><g fill="none"><path d="m0 0h512v512h-512z"/><g stroke="#f62" stroke-linecap="round" stroke-linejoin="round" stroke-miterlimit="10" stroke-width="30"><path d="m257.252 290.146 50.01 50.104 145.011-145.281-50.01-50.103z"/><path d="m307.262 340.25-56.14 35.433-27.918-27.971 34.048-57.566"/><path d="m402.263 144.866 44.4-44.472 50.01 50.103-44.4 44.472"/><path d="m15.327 340.122c6.048-19.06 18.903-41.247 34.237-60.358 9.462-11.791 28.403-3.418 26.022 11.52-4.581 28.754-7.646 62.025-9.648 90.505-1.115 15.873 20.182 22.021 27.659 7.982l22.965-43.12c5.737-10.773 21.321-10.294 26.368.82 5.762 12.688 12.599 26.263 18.176 35.568h55.268l21.029-21.069"/></g></g></svg>