<svg height="100" viewBox="0 0 100 100" width="100" xmlns="http://www.w3.org/2000/svg"><path d="m0 0h100v100h-100z" fill="none"/><path d="m81.464 47.202c2.993 0 5.872-.49 8.559-1.394.252 1.919.382 3.877.382 5.865 0 24.688-20.014 44.702-44.703 44.702-7.61 0-14.776-1.902-21.049-5.256l-23.653 5.256 5.256-23.653c-3.354-6.273-5.256-13.439-5.256-21.049 0-24.689 20.014-44.703 44.702-44.703 4.049 0 8.005 1.227 11.735 2.235-1.767 3.577-2.794 6.916-2.794 11.176 0 14.813 12.008 26.821 26.821 26.821zm-58.113 4.471c0 12.344 10.007 22.351 22.351 22.351s22.352-10.007 22.352-22.351h-8.941c0 7.406-6.004 13.41-13.411 13.41-7.406 0-13.41-6.004-13.41-13.41z" fill="#8e8e8e"/><path d="m84.653 34.364-1.102 2.529c-.806 1.851-3.367 1.851-4.174 0l-1.102-2.529c-1.964-4.509-5.503-8.098-9.919-10.062l-3.396-1.511c-1.836-.816-1.836-3.488 0-4.305l3.206-1.426c4.529-2.014 8.132-5.737 10.062-10.399l1.132-2.733c.789-1.904 3.419-1.904 4.208 0l1.132 2.733c1.931 4.662 5.533 8.385 10.062 10.399l3.206 1.426c1.836.817 1.836 3.489 0 4.305l-3.396 1.511c-4.415 1.964-7.954 5.553-9.919 10.062z" fill="#00cbff"/></svg>