<svg height="682.667" viewBox="0 0 682.667 682.667" width="682.667" xmlns="http://www.w3.org/2000/svg"><g fill="none"><path d="m0 0h682.667v682.667h-682.667z"/><g stroke="#f62" stroke-linecap="round" stroke-linejoin="round" stroke-miterlimit="22.926" stroke-width="40"><path d="m427.999 212h197.33c20.566 0 37.336 16.772 37.336 37.335v413.332l-121.984-74.668h-242.012c-20.562 0-37.336-16.772-37.336-37.336v-126.082"/><path d="m224 20c112.665 0 203.999 91.333 203.999 204 0 112.665-91.334 203.999-203.999 203.999-37.105 0-71.896-9.908-101.871-27.222l-102.129 37.746 36.335-98.31c-22.9-32.977-36.335-73.024-36.335-116.213 0-112.667 91.335-204 204-204z"/><path d="m160.666 216.667 52.667 52.666 100.666-100.666"/><path d="m395.332 334.667 132 132"/><path d="m527.332 334.667-132 132"/></g></g></svg>