<svg height="512" viewBox="0 0 512 512" width="512" xmlns="http://www.w3.org/2000/svg"><path d="m0 0h512v512h-512z" fill="none"/><g fill="#f62"><path d="m437 43h-362c-41.355 0-75 33.645-75 75v276.879c0 41.351 33.645 75 75 75h362c41.355 0 75-33.649 75-75v-276.879c0-41.355-33.645-75-75-75zm45 351.875c0 24.813-20.188 45-45 45h-362c-24.812 0-45-20.187-45-45v-276.875c0-24.812 20.188-45 45-45h362c24.812 0 45 20.188 45 45zm0 0"/><path d="m409.77 187.938h-268.883l14.726-14.727c5.86-5.856 5.86-15.356 0-21.211-5.855-5.859-15.355-5.859-21.211 0l-40.336 40.332c-5.855 5.859-5.855 15.356 0 21.215l40.336 40.332c2.926 2.93 6.766 4.394 10.606 4.394 3.836 0 7.676-1.464 10.605-4.394 5.86-5.859 5.86-15.356 0-21.215l-14.726-14.726h268.883c8.285 0 15-6.715 15-15 0-8.286-6.715-15-15-15zm0 0"/><path d="m377.602 258.996c-5.86-5.855-15.356-5.855-21.215 0-5.86 5.859-5.86 15.356 0 21.215l14.726 14.727h-268.883c-8.285 0-15 6.714-15 15 0 8.285 6.715 15 15 15h268.883l-14.726 14.726c-5.86 5.859-5.86 15.356 0 21.215 2.929 2.926 6.765 4.391 10.605 4.391 3.836 0 7.68-1.461 10.606-4.391l40.332-40.336c5.859-5.855 5.859-15.355 0-21.211zm0 0"/></g></svg>