<svg height="682.667" viewBox="0 0 682.667 682.667" width="682.667" xmlns="http://www.w3.org/2000/svg"><g fill="none"><path d="m0 0h682.667v682.667h-682.667z"/><g stroke="#f62" stroke-linecap="round" stroke-linejoin="round" stroke-miterlimit="10" stroke-width="40"><path d="m609.172 20.004h-259.088l-314.485 314.479c-20.799 20.805-20.799 54.846 0 75.645l236.937 236.935c20.803 20.801 54.839 20.801 75.644-.003l314.479-314.483.008-259.086c-.003-29.419-24.074-53.487-53.495-53.487z"/><path d="m536.667 206.587c-16.732 16.732-43.86 16.732-60.591 0-16.732-16.732-16.732-43.86 0-60.588 16.731-16.734 43.859-16.737 60.591 0 16.732 16.728 16.732 43.856 0 60.588z"/></g></g></svg>