<svg viewBox="0 0 512 512" xmlns="http://www.w3.org/2000/svg"><path d="m461.056 70.867v-19.908c0-28.099-22.86-50.959-50.959-50.959h-141.726c-13.613 0-26.409 5.301-36.034 14.927l-200.438 200.439c-9.626 9.625-14.927 22.422-14.927 36.034s5.301 26.409 14.927 36.034l20.367 20.367c-.863 3.744-1.32 7.609-1.32 11.545 0 13.612 5.301 26.409 14.927 36.034l141.723 141.72c9.934 9.933 22.984 14.9 36.033 14.9s26.099-4.967 36.033-14.902l200.44-200.44c9.626-9.626 14.927-22.422 14.927-36.034v-141.72c0-22.144-14.203-41.025-33.973-48.037zm-405.135 192.544c-3.208-3.208-4.976-7.474-4.976-12.012s1.768-8.802 4.976-12.012l200.439-200.439c3.209-3.207 7.474-4.975 12.012-4.975h141.724c9.366 0 16.986 7.62 16.986 16.986v16.986h-124.738c-13.613 0-26.409 5.301-36.034 14.927l-195.462 195.464zm400.159 9.225-200.44 200.44c-6.625 6.624-17.4 6.622-24.022 0l-141.724-141.72c-3.208-3.208-4.976-7.474-4.976-12.012s1.768-8.802 4.976-12.012l200.439-200.44c3.209-3.207 7.474-4.975 12.012-4.975h141.724c9.366 0 16.986 7.62 16.986 16.986v141.72h.001c0 4.538-1.768 8.804-4.976 12.013z"/><path d="m376.124 135.891c-28.099 0-50.959 22.86-50.959 50.959s22.86 50.959 50.959 50.959 50.959-22.86 50.959-50.959-22.86-50.959-50.959-50.959zm0 67.946c-9.366 0-16.986-7.62-16.986-16.986s7.62-16.986 16.986-16.986 16.986 7.62 16.986 16.986-7.62 16.986-16.986 16.986z"/></svg>