<svg height="512" viewBox="0 0 512 512" width="512" xmlns="http://www.w3.org/2000/svg"><g fill="none"><path d="m0 0h512v512h-512z"/><g stroke="#f62" stroke-linecap="round" stroke-linejoin="round" stroke-miterlimit="10" stroke-width="30"><path d="m240.775 237v-101c0-16.569-13.431-30-30-30s-30 13.431-30 30v160"/><path d="m300.775 252.077v-11.046c0-16.569-13.431-30-30-30s-30 13.431-30 30v11.046"/><path d="m360.925 262v-9.968c0-16.569-13.431-30-30-30s-30 13.431-30 30v9.968"/><path d="m180.775 331v-75c-33.09 0-59.869 26.91-59.709 59.999l.161 33.086c.151 41.239 23.216 78.974 59.849 97.915 0 27.614 22.386 50 50 50h105.699c27.614 0 50-22.386 50-50v-9.933c21.801-19.132 34.301-46.731 34.301-75.737v-99.298c0-16.569-13.431-30-30-30s-30 13.432-30 30.001v10.044"/><path d="m300.925 136h30"/><path d="m274.564 72.36 21.214-21.213"/><path d="m147.285 72.36-21.213-21.213"/><path d="m90.925 136h30"/><path d="m210.925 44v-29"/></g></g></svg>