<svg height="512" viewBox="0 0 512 512" width="512" xmlns="http://www.w3.org/2000/svg"><path d="m0 0h512v512h-512z" fill="none"/><g fill="#f62"><path d="m495.304 61.217h-478.608c-9.221 0-16.696 7.476-16.696 16.696v356.174c0 9.22 7.475 16.696 16.696 16.696h478.609c9.22 0 16.696-7.475 16.696-16.696v-356.174c-.001-9.22-7.476-16.696-16.697-16.696zm-16.695 356.174h-445.218v-222.967h445.217v222.967zm0-256.358h-445.218v-66.424h445.217v66.424z"/><path d="m443.568 103.247c-12.275 0-22.261 9.986-22.261 22.261s9.985 22.261 22.261 22.261c12.275 0 22.261-9.986 22.261-22.261s-9.986-22.261-22.261-22.261z"/><path d="m382.926 103.247c-12.275 0-22.261 9.986-22.261 22.261s9.986 22.261 22.261 22.261 22.261-9.986 22.261-22.261-9.986-22.261-22.261-22.261z"/><path d="m322.285 103.247c-12.275 0-22.261 9.986-22.261 22.261s9.985 22.261 22.261 22.261c12.275 0 22.261-9.986 22.261-22.261s-9.986-22.261-22.261-22.261z"/><path d="m235.45 293.193-54.653-46.504c-7.022-5.976-17.559-5.128-23.535 1.896-5.976 7.022-5.127 17.559 1.896 23.535l39.709 33.789-39.709 33.789c-7.023 5.976-7.871 16.512-1.896 23.535 5.975 7.022 16.512 7.871 23.535 1.896l54.653-46.504c7.83-6.663 7.83-18.771 0-25.432z"/><path d="m342.022 335.716h-65.954c-9.22 0-16.696 7.475-16.696 16.696s7.475 16.696 16.696 16.696h65.954c9.22 0 16.696-7.475 16.696-16.696s-7.476-16.696-16.696-16.696z"/></g></svg>