<svg height="682.667" viewBox="0 0 682.667 682.667" width="682.667" xmlns="http://www.w3.org/2000/svg"><g fill="none"><path d="m0 0h682.667v682.667h-682.667z"/><g stroke="#f62" stroke-linecap="round" stroke-linejoin="round" stroke-miterlimit="10" stroke-width="40"><path d="m411.238 541.333c-110.273 0-212.818-89.726-228.572-200-15.753-110.273 61.155-200 171.43-200 110.273 0 210.017 89.727 225.77 200 15.754 110.274-58.354 200-168.628 200z"/><path d="m371.238 261.333 11.428 80 91.43 80"/><path d="m354.095 141.333 5.715 40"/><path d="m405.524 501.333 5.715 40"/><path d="m182.667 341.333h40"/><path d="m539.867 341.333h40"/><path d="m659.867 341.333c22.091 154.64-82.56 280-237.2 280s-297.91-125.36-320-280c-22.091-154.64 85.36-280 240-280s295.109 125.36 317.2 280z"/><path d="m54.332 461.333h92.423"/><path d="m20 341.333h82.667"/><path d="m26.44 221.333h86.028"/></g></g></svg>