<svg height="682.667" viewBox="0 0 682.667 682.667" width="682.667" xmlns="http://www.w3.org/2000/svg"><g fill="none"><path d="m0 0h682.667v682.667h-682.667z"/><g stroke="#f62" stroke-linecap="round" stroke-linejoin="round" stroke-miterlimit="10" stroke-width="40"><path d="m286.667 342.667v-80c0-29.456-23.879-53.334-53.334-53.334-14.728 0-26.666 11.939-26.666 26.667v66.667c0 36.818-29.848 66.666-66.667 66.666h-40v266.667h53.333c35.074 17.536 73.748 26.667 112.962 26.667h87.038"/><path d="m366.667 582.667h26.666c22.091 0 40 17.909 40 40 0 22.09-17.909 40-40 40h-40"/><path d="m366.667 502.667h53.333c22.091 0 40 17.909 40 40 0 22.09-17.909 40-40 40h-53.333"/><path d="m366.667 422.667h80c22.09 0 40 17.909 40 40 0 22.09-17.91 40-40 40h-80"/><path d="m286.667 342.667h133.333c22.091 0 40 17.909 40 40 0 22.09-17.909 40-40 40h-53.333"/><path d="m100 662.667h-80v-320h80z"/><path d="m662.667 153.333c0 73.639-59.695 133.334-133.334 133.334-73.638 0-133.333-59.695-133.333-133.334 0-73.638 59.695-133.333 133.333-133.333 73.639 0 133.334 59.695 133.334 133.333z"/><path d="m576.474 130.212-62.855 62.855-31.426-31.428"/></g></g></svg>