<svg height="512" viewBox="0 0 512 512" width="512" xmlns="http://www.w3.org/2000/svg"><g fill="none"><path d="m0 0h512v512h-512z"/><g stroke="#f62" stroke-linecap="round" stroke-linejoin="round" stroke-miterlimit="10" stroke-width="30"><path d="m329.559 423.445c-32.189 21.712-70.977 34.388-112.725 34.388-111.47 0-201.834-90.364-201.834-201.833s90.364-201.833 201.833-201.833 201.834 90.364 201.834 201.833c0 4.865-.172 9.69-.511 14.469"/><path d="m312.338 360.772c-25.222 23.011-58.753 37.061-95.504 37.061-78.208 0-141.834-63.626-141.834-141.833s63.626-141.833 141.834-141.833c78.207 0 141.833 63.626 141.833 141.833 0 10.408-1.127 20.558-3.265 30.333"/><path d="m161.53 256h55.303v-119.616"/><path d="m216.834 116.167v24.181"/><path d="m117.956 157.123 17.099 17.098"/><path d="m77 256h24.181"/><path d="m117.956 354.877 17.099-17.099"/><path d="m216.833 395.833v-24.181"/><path d="m312.67 351.838-14.058-14.059"/><path d="m356.667 256h-24.181"/><path d="m315.711 157.123-17.099 17.099"/><path d="m497 365.5c0 50.994-41.339 92.333-92.333 92.333s-92.333-41.339-92.333-92.333 41.339-92.333 92.333-92.333 92.333 41.339 92.333 92.333z"/><path d="m382.938 387.229 43.458-43.458"/><path d="m382.938 343.771 43.458 43.458"/></g></g></svg>