<svg height="512" viewBox="0 0 512 512" width="512" xmlns="http://www.w3.org/2000/svg"><path d="m0 0h512v512h-512z" fill="none"/><g fill="#f62"><path d="m437 212.82h-74.406c-8.285 0-15 6.719-15 15 0 1.957.386 3.821 1.066 5.535 2.203 5.543 7.606 9.465 13.934 9.465h74.406c24.812 0 45 20.188 45 45v149.18c0 24.812-20.188 45-45 45h-169.574c-24.813 0-45-20.188-45-45v-164.527c0-9.196 7.48-16.676 16.676-16.676h33.796c25.739 0 46.676-20.938 46.676-46.676v-134.121c0-41.355-33.644-75-75-75h-169.574c-41.355 0-75 33.645-75 75v159.574c0 41.356 33.645 75 75 75h117.426v127.426c0 41.355 33.644 75 75 75h169.574c41.355 0 75-33.645 75-75v-149.18c0-41.351-33.645-75-75-75zm-244.574 66.754h-117.426c-24.812 0-45-20.187-45-45v-159.574c0-24.812 20.188-45 45-45h169.574c24.813 0 45 20.188 45 45v134.121c0 9.195-7.48 16.676-16.676 16.676h-33.796c-25.739 0-46.676 20.937-46.676 46.676zm0 0"/><path d="m283.688 439.785c48.218 0 87.445-39.226 87.445-87.441v-4.528h13.672v76.969c0 8.285 6.715 15 15 15s15-6.715 15-15v-76.969h5.933c8.285 0 15-6.714 15-15 0-8.281-6.715-15-15-15h-5.933v-38.175c0-8.286-6.715-15-15-15s-15 6.714-15 15v38.175h-71.832c-8.285 0-15 6.719-15 15 0 8.286 6.715 15 15 15h28.16v4.528c0 31.672-25.77 57.441-57.445 57.441-8.286 0-15 6.719-15 15 0 8.285 6.714 15 15 15zm0 0"/><path d="m219.223 188.645-45.629-107.485c-2.352-5.539-7.789-9.137-13.809-9.137-6.015 0-11.453 3.598-13.805 9.137l-45.628 107.485c-3.239 7.625.32 16.429 7.945 19.667 1.91.813 3.898 1.196 5.851 1.196 5.84 0 11.391-3.43 13.817-9.141l8.855-20.863h45.934l8.855 20.863c3.239 7.625 12.043 11.184 19.668 7.945 7.625-3.238 11.184-12.042 7.946-19.667zm-69.664-39.141 10.226-24.098 10.231 24.098zm0 0"/></g></svg>