<svg viewBox="0 0 191.812 191.812" xmlns="http://www.w3.org/2000/svg"><g fill="#1d1d1b"><path d="m95.906 0c-52.883 0-95.906 43.023-95.906 95.906s43.023 95.906 95.906 95.906 95.906-43.023 95.906-95.906-43.023-95.906-95.906-95.906zm0 176.812c-44.612 0-80.906-36.294-80.906-80.906s36.294-80.906 80.906-80.906 80.906 36.294 80.906 80.906-36.294 80.906-80.906 80.906z"/><path d="m49.733 99.789 17.204-10.733c2.928-1.827 2.186-6.282-1.176-7.06l-6.611-1.531c5.92-14.888 20.465-25.205 37.179-25.205 16.422 0 30.998 9.842 37.132 25.073 1.547 3.842 5.917 5.701 9.759 4.155 3.842-1.547 5.703-5.917 4.155-9.759-8.433-20.939-28.47-34.47-51.046-34.47-23.767 0-44.345 15.177-51.914 36.792l-6.592-1.527c-3.362-.779-5.987 2.896-4.161 5.824l10.733 17.204c1.133 1.816 3.522 2.37 5.338 1.237z"/><path d="m158.188 113.465-10.404-17.405c-1.098-1.836-3.476-2.435-5.313-1.337l-17.405 10.404c-2.962 1.771-2.305 6.239 1.042 7.081l6.65 1.674c-6.611 13.846-20.795 22.953-36.816 22.662-15.772-.286-29.951-9.854-36.122-24.378-1.62-3.812-6.023-5.591-9.836-3.97-3.812 1.62-5.589 6.023-3.97 9.836 8.482 19.963 27.974 33.117 49.656 33.51.343.006.682.009 1.023.009 22.675 0 42.486-13.668 50.82-33.954l6.402 1.612c3.349.843 6.044-2.781 4.273-5.744z"/></g></svg>