<svg height="682.667" viewBox="0 0 682.667 682.667" width="682.667" xmlns="http://www.w3.org/2000/svg"><g fill="none"><path d="m0 0h682.667v682.667h-682.667z"/><path d="m261.333 662.667v-109.334" stroke="#f62" stroke-linecap="round" stroke-linejoin="round" stroke-miterlimit="10" stroke-width="40"/><path d="m421.333 553.333v109.334" stroke="#f62" stroke-linecap="round" stroke-linejoin="round" stroke-miterlimit="10" stroke-width="40"/><path d="m474.667 662.667h-266.667" stroke="#f62" stroke-linecap="round" stroke-linejoin="round" stroke-miterlimit="10" stroke-width="40"/><path d="m20 473.333h642.667" stroke="#f62" stroke-linecap="round" stroke-linejoin="round" stroke-miterlimit="10" stroke-width="40"/><path d="m374.772 106.471 126.279 230.403c13.926 25.412-4.462 56.459-33.44 56.459h-252.556c-28.978 0-47.366-31.047-33.439-56.459l126.277-230.403c14.474-26.406 52.407-26.406 66.879 0z" stroke="#f62" stroke-linecap="round" stroke-linejoin="round" stroke-miterlimit="10" stroke-width="40"/><path d="m622.667 20h-562.667c-22.091 0-40 17.908-40 40v453.333c0 22.091 17.909 40 40 40h562.667c22.09 0 40-17.909 40-40v-453.333c0-22.092-17.91-40-40-40z" stroke="#f62" stroke-linecap="round" stroke-linejoin="round" stroke-miterlimit="10" stroke-width="40"/></g><path d="m361.333 320c0 11.045-8.954 20-20 20s-20-8.955-20-20c0-11.047 8.954-20 20-20s20 8.953 20 20" fill="#f62"/><path d="m341.453 260v-80" style="stroke:#f62;stroke-width:40;stroke-linecap:round;stroke-linejoin:round;stroke-miterlimit:10;fill:none"/></svg>