<svg height="682.667" viewBox="0 0 682.667 682.667" width="682.667" xmlns="http://www.w3.org/2000/svg"><g fill="none"><path d="m0 0h682.667v682.667h-682.667z"/><g stroke="#f62" stroke-linecap="round" stroke-linejoin="round" stroke-miterlimit="10" stroke-width="40"><path d="m662.667 341.333c0 177.468-143.867 321.334-321.334 321.334-177.47 0-321.333-143.866-321.333-321.334 0-177.47 143.863-321.333 321.333-321.333 177.467 0 321.334 143.863 321.334 321.333z"/><path d="m469.867 298.488c0 70.987-57.544 128.534-128.533 128.534-70.992 0-128.535-57.547-128.535-128.534 0-70.985 57.543-128.532 128.535-128.532 70.989 0 128.533 57.547 128.533 128.532z"/><path d="m149.617 599.233c10.28-96.803 92.19-172.211 191.716-172.211 99.53 0 181.438 75.414 191.714 172.214"/></g></g></svg>