<svg height="800" viewBox="0 0 800 800" width="800" xmlns="http://www.w3.org/2000/svg"><path d="m0 0h800v800h-800z" fill="none"/><g fill="#f62"><path d="m299.124 289.953c0-55.712 45.163-100.875 100.876-100.875s100.876 45.163 100.876 100.875c0 55.713-45.163 100.876-100.876 100.876s-100.876-45.163-100.876-100.876zm100.876-45.852c-25.325 0-45.853 20.529-45.853 45.852 0 25.324 20.528 45.853 45.853 45.853s45.853-20.529 45.853-45.853c0-25.323-20.528-45.852-45.853-45.852z"/><path d="m400 409.171c-43.865 0-84.934 8.829-116.057 24.393-29.477 14.739-58.183 40.189-58.183 76.483l-.005 2.292c-.056 18.719-.151 50.244 29.726 71.872 13.864 10.032 32.158 16.433 54.82 20.512 22.871 4.116 52.18 6.199 89.699 6.199 37.518 0 66.828-2.083 89.699-6.199 22.662-4.079 40.956-10.48 54.821-20.512 29.874-21.628 29.783-53.153 29.724-71.872l-.004-2.292c0-36.294-28.707-61.744-58.185-76.483-31.121-15.564-72.19-24.393-116.055-24.393zm-119.217 100.876c0-4.226 4.14-15.455 27.768-27.27 21.984-10.99 54.275-18.583 91.449-18.583s69.465 7.593 91.449 18.583c23.627 11.815 27.768 23.044 27.768 27.27 0 22.174-1.412 25.574-6.962 29.591-4.475 3.239-13.694 7.582-32.299 10.931-18.396 3.309-44.11 5.33-79.956 5.33s-61.56-2.021-79.956-5.33c-18.605-3.349-27.823-7.692-32.3-10.931-5.549-4.017-6.961-7.417-6.961-29.591z"/><path d="m279.807 35.053c52.966-18.14 85.803-29.386 120.193-29.386 34.389 0 67.227 11.246 120.193 29.386l26.682 9.135c54.341 18.6 96.276 32.955 126.297 45.15 15.12 6.143 28.121 12.094 38.59 18.173 10.076 5.851 20.182 13.148 27.049 22.932 6.786 9.67 10.297 21.558 12.501 33.002 2.293 11.897 3.676 26.17 4.567 42.556 1.772 32.539 1.772 77.115 1.772 134.933v58.751c0 223.797-169.031 331.096-269.551 375.009l-.995.432c-12.464 5.448-24.18 10.565-37.643 14.013-14.214 3.639-29.313 5.194-49.462 5.194-20.15 0-35.248-1.555-49.462-5.194-13.463-3.448-25.178-8.565-37.642-14.013l-.995-.432c-100.52-43.913-269.552-151.212-269.552-375.009v-58.747c0-57.815 0-102.4 1.772-134.937.892-16.386 2.274-30.659 4.567-42.556 2.205-11.444 5.715-23.332 12.502-33.002 6.866-9.784 16.973-17.081 27.047-22.932 10.469-6.079 23.47-12.03 38.592-18.173 30.02-12.195 71.955-26.55 126.294-45.15zm120.193 25.637c-24.126 0-47.867 7.763-107.089 28.036l-21.013 7.192c-55.485 18.993-95.949 32.856-124.36 44.398-14.181 5.76-24.455 10.588-31.667 14.777-3.561 2.067-6.015 3.774-7.653 5.106-1.389 1.129-1.919 1.769-1.995 1.862-.071.115-.527.877-1.169 2.679-.733 2.059-1.545 5.009-2.337 9.117-1.602 8.313-2.816 19.733-3.655 35.136-1.68 30.857-1.69 73.93-1.69 132.928v57.764c0 189.833 141.956 283.263 236.556 324.585 13.627 5.954 21.496 9.321 30.256 11.563 8.367 2.142 18.575 3.477 35.816 3.477s27.449-1.335 35.816-3.477c8.76-2.242 16.628-5.609 30.256-11.563 94.6-41.322 236.556-134.752 236.556-324.585v-57.764c0-58.998-.011-102.071-1.691-132.928-.837-15.403-2.051-26.823-3.654-35.136-.792-4.108-1.603-7.058-2.336-9.117-.642-1.803-1.101-2.565-1.171-2.68-.077-.094-.605-.733-1.995-1.861-1.636-1.332-4.09-3.039-7.652-5.106-7.212-4.189-17.486-9.017-31.668-14.777-28.41-11.542-68.874-25.405-124.36-44.398l-21.011-7.192c-59.223-20.273-82.964-28.036-107.09-28.036z"/></g></svg>