<svg height="682.667" viewBox="0 0 682.667 682.667" width="682.667" xmlns="http://www.w3.org/2000/svg"><g fill="none"><path d="m0 0h682.667v682.667h-682.667z"/><g stroke="#f62" stroke-linecap="round" stroke-linejoin="round" stroke-miterlimit="10" stroke-width="40"><path d="m277.066 20c76.854 0 139.246 62.392 139.246 139.245 0 76.851-62.392 139.243-139.246 139.243-76.852 0-139.245-62.392-139.245-139.243 0-76.853 62.393-139.245 139.245-139.245z"/><path d="m534.133 405.6c70.94 0 128.533 57.594 128.533 128.532 0 70.94-57.593 128.535-128.533 128.535-70.939 0-128.532-57.595-128.532-128.535 0-70.938 57.593-128.532 128.532-128.532z"/><path d="m534.133 662.667h-514.134v-107.111c0-141.88 115.188-257.068 257.067-257.068 89.171 0 167.801 45.501 213.923 114.545-49.743 17.748-85.388 65.295-85.388 121.1 0 70.94 57.593 128.534 128.532 128.534z"/><path d="m491.289 512.711 42.844 42.845 128.533-128.534"/></g></g></svg>