<svg height="100" viewBox="0 0 100 100" width="100" xmlns="http://www.w3.org/2000/svg"><path d="m0 0h100v100h-100z" fill="none"/><path d="m52.344 41.687c1.307.305 1.968.469 3.699 1.774l41.084 41.083c2.608 2.608 2.608 6.851 0 9.46l-3.153 3.153c-2.608 2.608-6.851 2.608-9.459 0l-41.084-41.083c-2.614-2.615-2.614-6.846 0-9.46l3.153-3.153c2.203-2.016 4.416-2.086 5.76-1.774z" fill="#a8a8a8"/><g fill="#00cbff"><path d="m42.34 32.511-.89 2.042c-.65 1.494-2.717 1.494-3.369 0l-.89-2.042c-1.585-3.641-4.443-6.538-8.007-8.124l-2.742-1.22c-1.482-.658-1.482-2.816 0-3.475l2.588-1.152c3.657-1.626 6.565-4.631 8.123-8.395l.914-2.207c.637-1.537 2.76-1.537 3.397 0l.915 2.207c1.559 3.764 4.466 6.769 8.123 8.395l2.588 1.152c1.482.659 1.482 2.817 0 3.475l-2.742 1.22c-3.564 1.586-6.421 4.483-8.008 8.124z"/><path d="m12.981 41.139-.622 1.426c-.454 1.045-1.899 1.045-2.354 0l-.621-1.426c-1.109-2.543-3.104-4.568-5.595-5.675l-1.915-.852c-1.037-.461-1.037-1.968 0-2.428l1.807-.805c2.555-1.136 4.587-3.236 5.676-5.865l.638-1.541c.445-1.074 1.928-1.074 2.374 0l.638 1.541c1.089 2.629 3.121 4.729 5.675 5.865l1.809.805c1.035.46 1.035 1.967 0 2.428l-1.915.852c-2.49 1.107-4.487 3.132-5.595 5.675z"/><path d="m15.894 13.401-.425.975c-.311.713-1.298.713-1.61 0l-.424-.975c-.758-1.739-2.122-3.124-3.825-3.881l-1.31-.582c-.709-.315-.709-1.346 0-1.66l1.237-.551c1.746-.776 3.135-2.212 3.879-4.01l.436-1.054c.305-.733 1.319-.733 1.623 0l.437 1.054c.745 1.798 2.134 3.234 3.88 4.01l1.236.551c.708.314.708 1.345 0 1.66l-1.309.582c-1.703.757-3.067 2.142-3.825 3.881z"/></g></svg>