<svg height="512" viewBox="0 0 512 512" width="512" xmlns="http://www.w3.org/2000/svg"><g fill="none"><path d="m0 0h512v512h-512z"/><g stroke="#ff6621" stroke-linecap="round" stroke-linejoin="round" stroke-miterlimit="10" stroke-width="30"><path d="m104.926 394.34h-74.926c-8.284 0-15-6.716-15-15v-349.34c0-8.284 6.716-15 15-15h452c8.284 0 15 6.716 15 15v349.34c0 8.284-6.716 15-15 15h-74.362"/><path d="m222.523 394.34h-55.671"/><path d="m345.302 394.34h-60.284"/><path d="m282.523 165.047c0 16.569-13.431 30-30 30s-30-13.431-30-30 13.431-30 30-30 30 13.431 30 30z"/><path d="m164.926 224.52c0 16.569-13.431 30-30 30s-30-13.431-30-30 13.431-30 30-30 30 13.431 30 30z"/><path d="m405.302 185.96c0 16.569-13.431 30-30 30s-30-13.431-30-30 13.431-30 30-30 30 13.431 30 30z"/><path d="m497 75.326h-482"/><path d="m436.979 497h-361.958"/><path d="m405.206 497h-59.808v-197.901h59.808z"/><path d="m285.017 497h-59.808v-218.601h59.808z"/><path d="m164.83 497h-59.808v-159.477h59.808z"/><path d="m166.852 208.374 55.671-28.155"/><path d="m340.109 179.966-53.848-9.172"/></g></g></svg>