<svg height="300" viewBox="0 0 300 300" width="300" xmlns="http://www.w3.org/2000/svg" xmlns:xlink="http://www.w3.org/1999/xlink"><clipPath id="a"><path d="m52.134-0h195.732v300h-195.732z"/></clipPath><path d="m0 0h300v300h-300z" fill="none"/><g clip-path="url(#a)" fill="#174cff"><path d="m131.89 162.256c4.756 0 9.513-1.829 14.634-5.671 6.037-4.207 11.342-7.682 11.342-7.682l1.829-1.281-1.829-1.281c-.732-.548-80.305-55.792-88.537-61.097-3.841-2.744-8.232-3.293-11.707-1.647-3.293 1.647-5.122 5.122-5.122 9.33v18.841l.731.366c.55.366 55.244 38.415 65.854 45.549 4.39 3.11 8.598 4.573 12.805 4.573z"/><path d="m238.537 129.147c-4.756-3.476-175.428-122.562-182.744-127.684l-2.378-1.646v29.268c0 9.33 4.938 12.805 10.975 17.196 0 0 130.976 91.28 147.256 102.438-16.28 11.342-139.573 96.769-147.439 101.708-9.329 6.22-10.244 10.244-10.244 18.658v31.464s180.549-129.146 184.39-132.074c8.232-6.219 10.062-13.536 10.244-18.841v-3.293c.184-6.585-3.292-12.438-10.06-17.194z"/></g></svg>