<svg height="512" viewBox="0 0 512 512" width="512" xmlns="http://www.w3.org/2000/svg"><linearGradient id="ai-spam-icon" gradientUnits="userSpaceOnUse" x1="123.439" x2="456.622" y1="144.351" y2="423.979"><stop offset="0" stop-color="#eee"/><stop offset=".698" stop-color="#a9a9a9"/></linearGradient><path d="M0 0h512v512H0z" fill="none"/><path d="M425.966 243.355c0 38.994-12.658 75.014-33.981 104.238l107.551 107.635c10.619 10.62 10.619 27.865 0 38.484s-27.865 10.619-38.484 0L353.501 386.076c-29.224 21.324-65.244 33.982-104.237 33.982-97.612 0-176.703-79.092-176.703-176.703S151.652 66.653 249.264 66.653c97.611 0 176.702 79.091 176.702 176.702M249.264 365.688c67.562 0 122.332-54.77 122.332-122.333s-54.77-122.332-122.332-122.332c-67.563 0-122.333 54.77-122.333 122.332 0 67.563 54.77 122.333 122.333 122.333" fill="url(#ai-spam-icon)"/><path d="M136.797 112.765C120.9 96.862 110.019 69.091 104.62 43.823c-5.409 25.273-16.278 53.05-32.181 68.952-15.897 15.892-43.676 26.774-68.939 32.184 25.273 5.4 53.047 16.275 68.944 32.178 15.897 15.897 26.778 43.673 32.187 68.941 5.399-25.273 16.277-53.05 32.172-68.952 15.896-15.897 43.676-26.773 68.938-32.184-25.267-5.4-53.041-16.279-68.944-32.177m127.957 28.506c-3.017 14.091-9.077 29.593-17.942 38.459-8.866 8.859-24.361 14.931-38.45 17.948 14.089 3.023 29.584 9.076 38.45 17.948 8.865 8.865 14.936 24.354 17.953 38.453 3.015-14.099 9.076-29.587 17.946-38.459 8.859-8.866 24.358-14.931 38.443-17.953-14.085-3.012-29.584-9.077-38.449-17.944-8.864-8.859-14.937-24.36-17.951-38.452M241.744 9.824c-2.054 9.591-6.178 20.143-12.213 26.178-6.035 6.03-16.582 10.164-26.172 12.217 9.59 2.058 20.137 6.178 26.172 12.218 6.035 6.033 10.167 16.577 12.221 26.174 2.052-9.597 6.178-20.14 12.215-26.179 6.031-6.035 16.58-10.163 26.168-12.221-9.588-2.05-20.137-6.178-26.172-12.213-6.033-6.031-10.167-16.582-12.219-26.174" fill="#00cbff"/></svg>