<svg height="800" viewBox="0 0 800 800" width="800" xmlns="http://www.w3.org/2000/svg"><g fill="none"><path d="m0 0h800v800h-800z"/><path d="m310.611 720c124.25-127.8 248.5-242.237 248.5-383.4 0-141.164-111.257-255.6-248.5-255.6-137.242 0-248.5 114.436-248.5 255.6 0 141.163 124.25 255.6 248.5 383.4z" stroke="#a9a9a9" stroke-linecap="round" stroke-linejoin="round" stroke-width="60"/><path d="m310.611 436c58.82 0 106.5-47.68 106.5-106.5 0-58.818-47.68-106.5-106.5-106.5s-106.5 47.682-106.5 106.5c0 58.82 47.68 106.5 106.5 106.5z" stroke="#a9a9a9" stroke-linecap="round" stroke-linejoin="round" stroke-width="60"/></g><path d="m627.506 120c-44.941 0-85.443 19.018-114.165 49.312-.204.175-.458.237-.651.429-.305.306-.413.713-.695 1.041-25.974 28.099-41.995 65.53-41.995 106.721 0 86.844 70.649 157.497 157.5 157.497 86.84 0 157.5-70.653 157.5-157.497.006-86.85-70.655-157.503-157.494-157.503zm-132.12 157.497c0-30.056 10.207-57.72 27.178-79.95l184.871 184.884c-22.225 16.971-49.873 27.178-79.935 27.178-72.849 0-132.114-59.27-132.114-132.112zm230.688 87.658-186.239-186.219c23.355-20.799 54.012-33.556 87.671-33.556 72.843 0 132.114 59.264 132.114 132.117-.006 33.659-12.758 64.32-33.546 87.658z" fill="#f00"/></svg>