<svg height="800" viewBox="0 0 800 800" width="800" xmlns="http://www.w3.org/2000/svg"><path d="m0 0h800v800h-800z" fill="none"/><path d="m269.278 85.053c-67.568 29.063-152.219 95.072-195.339 181.311l-56.127-28.064c51.009-102.018 148.34-177.201 226.672-210.893 19.852-8.539 39.291-14.774 57.212-17.993 17.444-3.133 35.856-3.849 52.307 1.062 17.766 5.303 34.024 17.706 40.446 38.831 5.746 18.895 1.783 39.14-5.679 57.795-17.744 44.361-56.231 94.987-96.472 144.441-12.293 15.107-24.855 30.224-37.396 45.319-29.965 36.063-59.82 71.994-85.642 107.33-37.201 50.905-61.02 94.201-65.297 127.641-1.981 15.49.461 27.244 6.486 36.923 6.239 10.028 18.415 21.179 41.915 31.251 69.283 29.688 159.59 26.676 249.804 1.757 3.126-33.083 10.599-69.131 21.43-107.04 33.621-117.676 110.267-197.101 183.874-224.705 36.573-13.714 76.722-15.932 109.347 3.345 33.993 20.088 50.71 57.954 50.71 104.471 0 30.129-12.325 59.412-30.31 85.788-18.141 26.607-43.449 52.36-73.056 76.119-53.948 43.297-124.82 82.09-200.503 108.509 1.236 20.539 5.4 36.535 11.672 48.414 7.736 14.652 19.453 24.693 37.875 29.851 19.619 5.485 48.341 5.748 88.957-3.935 40.362-9.626 90.388-28.571 151.333-59.043l28.063 56.125c-63.549 31.778-118.263 52.85-164.838 63.958-46.323 11.044-86.739 12.745-120.42 3.326-34.877-9.758-60.619-30.975-76.464-60.99-9.377-17.758-14.913-37.852-17.51-59.363-93.11 23.174-192.292 26.4-274.683-8.911-31.408-13.461-55.51-31.722-70.475-55.768-15.179-24.392-18.865-51.371-15.453-78.043 6.508-50.883 39.558-105.638 76.877-156.705 27.038-37 58.931-75.387 89.416-112.079 12.233-14.723 24.239-29.174 35.614-43.152 41.14-50.558 73.25-94.061 86.882-128.14 2.691-6.726 3.564-11.09 3.823-13.596-3.846-.713-10.821-.947-21.54.978-12.108 2.175-26.888 6.726-43.511 13.875zm199.072 494.516c59.728-23.588 114.498-55.029 156.536-88.768 26.281-21.089 46.788-42.438 60.487-62.53 13.856-20.322 19.403-37.332 19.403-50.436 0-31.921-10.737-45.041-19.886-50.445-10.517-6.215-29.199-8.433-55.379 1.386-51.897 19.461-116.445 81.229-145.575 183.187-6.91 24.182-12.124 46.786-15.586 67.606z" fill="#a9a9a9"/><path d="m627.506 120c-44.941 0-85.443 19.018-114.165 49.312-.204.175-.458.237-.651.429-.305.306-.413.713-.695 1.041-25.974 28.099-41.995 65.53-41.995 106.721 0 86.844 70.649 157.497 157.5 157.497 86.84 0 157.5-70.653 157.5-157.497.006-86.85-70.655-157.503-157.494-157.503zm-132.12 157.497c0-30.056 10.207-57.72 27.178-79.95l184.871 184.884c-22.225 16.971-49.873 27.178-79.935 27.178-72.849 0-132.114-59.27-132.114-132.112zm230.688 87.658-186.239-186.219c23.355-20.799 54.012-33.556 87.671-33.556 72.843 0 132.114 59.264 132.114 132.117-.006 33.659-12.758 64.32-33.546 87.658z" fill="#f00"/></svg>