<svg height="800" viewBox="0 0 800 800" width="800" xmlns="http://www.w3.org/2000/svg"><path d="m0 0h800v800h-800z" fill="none"/><path d="m261.482 480.57-62.852-168.898-64.479 168.898zm160.912 175.783h-169.193v-36.852l10.962-.621c8.046.627 16.092-1.24 23.264-5.4 2.155-1.545 3.462-4.221 3.471-7.1-1.338-13.169-4.733-25.965-10.029-37.797l-19.434-52.133h-128.122l-22.067 58.018c-4.456 9.748-7.287 20.336-8.354 31.237 0 .972 0 3.212 3.686 6.506 8.865 4.857 18.661 7.148 28.506 6.669l10.723.891v36.555h-139.873v-35.368l9.574-1.889c8.477-.63 16.692-3.576 23.934-8.586 12.461-16.407 22.045-35.334 28.243-55.777l133.435-351.943h25.011l131.927 355.669c5.308 18.261 13.851 35.115 25.107 49.541 8.187 7.027 18.195 10.821 28.483 10.799l10.866.729z" fill="#a9a9a9"/><path d="m576.556 582.595v-107.586c-18.163 7.643-35.948 16.385-53.278 26.187-12.002 6.795-22.541 16.471-30.876 28.348-6.065 9.414-9.319 20.76-9.286 32.397-.409 13.504 3.799 26.668 11.752 36.771 6.66 9.146 16.554 14.518 27.046 14.687 20.634-3.525 39.757-14.304 54.642-30.804zm-79.773 79.616c-19.333.567-37.96-8.205-51.196-24.109-13.571-16.811-20.733-38.971-19.938-61.69-.29-14.961 3.152-29.712 9.933-42.575 10.891-18.36 25.611-33.425 42.867-43.872 27.757-16.963 56.713-31.303 86.571-42.872v-1.998c1.871-17.185-1.353-34.585-9.167-49.487-6.626-7.936-16.098-12.031-25.73-11.123-7.067-.57-14.058 1.943-19.53 7.019-4.07 3.413-6.517 8.752-6.63 14.471l.55 17.441c.56 11.433-2.878 22.657-9.573 31.263-6.714 7.478-15.792 11.627-25.226 11.53-9.434-.096-18.444-4.43-25.037-12.043-6.448-8.498-9.793-19.441-9.358-30.615.816-23.487 11.272-45.21 28.29-58.774 21.577-17.95 48.027-26.848 74.796-25.162 20.727-.805 41.32 4.048 60.027 14.147 13.191 7.847 23.48 20.726 29.033 36.339 4.995 19.264 6.971 39.363 5.84 59.395v95.842c-.427 15.752-.019 31.52 1.221 47.219.176 1.865.612 3.688 1.292 5.399 2.034-2.105 6.797-6.074 20.679-21.76l19.603-22.354v53.105l-2.394 3.455c-22.929 34.638-45.068 51.485-67.734 51.485-11.524.351-22.575-5.173-30.086-15.038-4.193-5.818-7.127-12.658-8.568-19.978-10.711 9.931-22.19 18.759-34.299 26.377-11.353 5.937-23.723 8.997-36.236 8.963z" fill="#a9a9a9"/><path d="m627.506 120c-44.941 0-85.443 19.018-114.165 49.312-.204.175-.458.237-.651.429-.305.306-.413.713-.695 1.041-25.974 28.099-41.995 65.53-41.995 106.721 0 86.844 70.649 157.497 157.5 157.497 86.84 0 157.5-70.653 157.5-157.497.006-86.85-70.655-157.503-157.494-157.503zm-132.12 157.497c0-30.056 10.207-57.72 27.178-79.95l184.871 184.884c-22.225 16.971-49.873 27.178-79.935 27.178-72.849 0-132.114-59.27-132.114-132.112zm230.688 87.658-186.239-186.219c23.355-20.799 54.012-33.556 87.671-33.556 72.843 0 132.114 59.264 132.114 132.117-.006 33.659-12.758 64.32-33.546 87.658z" fill="#f00"/></svg>