<svg height="800" viewBox="0 0 800 800" width="800" xmlns="http://www.w3.org/2000/svg"><path d="m0 0h800v800h-800z" fill="none"/><path d="m630.75 616.834c0 4.118-.791 8.014-1.928 11.728l-180.697-194.353 182.625-142.043zm-536.593 39.487 183.112-195.125 69.397 52.455 66.395-52.779 186.115 195.449c-2.902.669-502.117.669-505.019 0zm-31.574-39.487v-324.668l182.625 142.043-180.697 194.353c-1.137-3.714-1.928-7.61-1.928-11.728zm547.875-365.25-263.792 202.916-263.791-202.916zm-20.292-40.584h-487c-44.824 0-81.166 36.342-81.166 81.166v324.668c0 44.824 36.342 81.166 81.166 81.166h487c44.824 0 81.167-36.342 81.167-81.166v-324.668c0-44.824-36.343-81.166-81.167-81.166z" fill="#a9a9a9"/><path d="m627.506 120c-44.941 0-85.443 19.018-114.165 49.312-.204.175-.458.237-.651.429-.305.306-.413.713-.695 1.041-25.974 28.099-41.995 65.53-41.995 106.721 0 86.844 70.649 157.497 157.5 157.497 86.84 0 157.5-70.653 157.5-157.497.006-86.85-70.655-157.503-157.494-157.503zm-132.12 157.497c0-30.056 10.207-57.72 27.178-79.95l184.871 184.884c-22.225 16.971-49.873 27.178-79.935 27.178-72.849 0-132.114-59.27-132.114-132.112zm230.688 87.658-186.239-186.219c23.355-20.799 54.012-33.556 87.671-33.556 72.843 0 132.114 59.264 132.114 132.117-.006 33.659-12.758 64.32-33.546 87.658z" fill="#f00"/></svg>