<svg height="300" viewBox="0 0 300 300" width="300" xmlns="http://www.w3.org/2000/svg"><path d="m0 0h300v300h-300z" fill="none"/><path d="m104.92 111.758c8.737-6.68 31.466-60.514 34.693-57.107-7.648-8.701 93.969 95.165 93.969 95.165l56.974 60.365-166.283 23.807-110.107-22.331c2.263-2.105 3.835-4.278 6.095-6.547 32.523-32.655 55.014-70.68 84.659-93.352z" fill="#fff"/><path d="m10.731 212.457c2.294-2.147 90.173-105.895 91.538-109.985 1.364-4.091 29.993-45.673 36.127-49.079 6.137-3.41 66.805 57.942 66.805 57.942l41.173 44.138s12.672 13.219 22.215 23.444c6.66 7.137 17.21 17.335 31.411 30.639l-53.825 3.878c-10.006-19.401-35.904-52.831-41.66-61.202-7.499-10.907-25.905-42.262-24.541-38.856 1.364 3.409-1.364 29.277-1.364 29.277s-14.995-36.091-15.678-46.318c-.682-10.225-24.198-38.174-24.198-38.174-.682 3.069-1.024 21.814-1.024 21.814s8.181 14.316 8.863 17.724-2.044 10.225 4.088 19.086c6.137 8.863 9.545 23.858 9.545 23.858s-17.724-8.861-26.587-17.042c-8.861-8.181-23.858-12.269-23.858-12.269s27.949 36.81 36.812 41.582c6.034 3.25 29.105 37.496 43.235 55.775-53.357-.28-24.559-9.496-54.482-39.415-4.771-4.771-5.453 8.863-9.543 8.181-4.091-.68-10.225-22.497-14.996-33.402-4.772-10.907-13.383 77.853-25.688 87.168l-38.891-3.078z" fill="#333f4d"/><path d="m12.567 210.379c28.272 11.296 71.478 17.465 114.318 15.841 95.624-3.623 85.144-14.266 173.114-16.677l-59.082 12.021c-55.454 8.274-163.722 50.646-240.917 2.679z" fill="#b99b70"/></svg>