<svg height="300" viewBox="0 0 300 300" width="300" xmlns="http://www.w3.org/2000/svg"><path d="m0 0h300v300h-300z" fill="none"/><path d="m138.769 299.995c-82.636 0-138.769-67.36-138.769-138.952 0-72.698 57.237-135.456 133.431-138.401 2.945-.184 5.522 2.393 5.522 5.337v22.269c0 2.761-2.209 5.154-5.153 5.338-55.95 2.576-101.04 48.403-101.04 105.641 0 55.949 44.17 106.009 106.009 106.009 60.182 0 102.88-48.036 105.457-101.04.184-2.761 2.392-5.153 5.337-5.153h22.269c2.945 0 5.337 2.392 5.337 5.521-2.576 70.673-59.446 133.431-138.4 133.431z" fill="#1856ed"/><path d="m138.953 226.378c-36.809 0-65.336-29.263-65.336-65.335 0-33.68 25.95-61.839 59.63-64.6 3.129-.184 5.706 2.209 5.706 5.338v22.269c0 2.576-1.841 4.969-4.601 5.337-16.196 2.209-27.975 16.012-27.975 31.84 0 17.668 13.803 32.575 32.576 32.575 15.643 0 29.631-11.779 31.839-27.974.368-2.577 2.761-4.601 5.338-4.601h22.269c3.129 0 5.521 2.576 5.337 5.705-2.945 32.944-30.551 59.446-64.783 59.446z" fill="#1856ed"/><g fill="#ff9e1a"><path d="m267.231 133.804c-2.577-53.925-45.643-98.463-101.04-101.04-2.76-.184-5.153-2.392-5.153-5.337v-22.085c0-2.945 2.393-5.337 5.521-5.337 71.961 2.76 130.671 60.366 133.432 133.431.184 2.945-2.393 5.521-5.338 5.521h-22.269c-2.576 0-4.969-2.208-5.153-5.153z"/><path d="m167.111 106.934c-3.312-.552-5.705-3.313-5.705-6.073v-21.718c0-3.128 2.577-5.521 5.705-5.337 32.024 2.761 56.686 28.343 59.446 59.262.184 3.129-2.208 5.705-5.337 5.705h-23.373c-2.209 0-3.865-1.472-4.233-3.68-1.657-13.067-11.595-25.582-26.503-28.159z"/></g></svg>