<svg height="640" viewBox="0 0 640 640" width="640" xmlns="http://www.w3.org/2000/svg"><path d="m0 0h640v640h-640z" fill="none"/><path d="m128 192c0-53.019 42.981-96 96-96s96 42.981 96 96-42.981 96-96 96-96-42.981-96-96zm141.7 208c80 0 145 64.3 146.3 144h-384c1.2-79.7 66.2-144 146.3-144zm-45.7-80c70.692 0 128-57.308 128-128s-57.308-128-128-128-128 57.308-128 128 57.308 128 128 128zm-45.7 48c-98.5 0-178.3 79.8-178.3 178.3 0 16.4 13.3 29.7 29.7 29.7h388.6c16.4 0 29.7-13.3 29.7-29.7 0-98.5-79.8-178.3-178.3-178.3zm431 208c17 0 30.7-13.8 30.7-30.7 0-89.1-72.2-161.3-161.3-161.3h-61.4c-4.4 0-8.8.2-13.2.5 11.3 9.4 21.6 19.9 30.7 31.5h43.9c71 0 128.6 57.2 129.3 128h-128v2.3c0 10.8-2.8 20.9-7.6 29.7zm-177.3-256c61.9 0 112-50.1 112-112s-50.1-112-112-112c-24.8 0-47.7 8.1-66.3 21.7 5.2 9.8 9.3 20.3 12.4 31.2 14.2-13 33.1-20.9 53.9-20.9 44.2 0 80 35.8 80 80s-35.8 80-80 80c-25.2 0-47.6-11.6-62.3-29.8-4.7 10.3-10.4 19.9-17 28.9 20.3 20.3 48.3 32.9 79.3 32.9z"/></svg>