<svg height="512" viewBox="0 0 512 512" width="512" xmlns="http://www.w3.org/2000/svg"><path d="m0 0h512v512h-512z" fill="none"/><path d="m160 64c-17.7 0-32 14.3-32 32v320c0 11.7-3.1 22.6-8.6 32h312.6c26.5 0 48-21.5 48-48v-304c0-17.7-14.3-32-32-32zm-96 416c-35.3 0-64-28.7-64-64v-256c0-35.3 28.7-64 64-64v32c-17.7 0-32 14.3-32 32v256c0 17.7 14.3 32 32 32s32-14.3 32-32v-320c0-35.3 28.7-64 64-64h288c35.3 0 64 28.7 64 64v304c0 44.2-35.8 80-80 80zm320-368c0-8.8 7.2-16 16-16h32c8.8 0 16 7.2 16 16s-7.2 16-16 16h-32c-8.8 0-16-7.2-16-16zm0 64c0-8.8 7.2-16 16-16h32c8.8 0 16 7.2 16 16s-7.2 16-16 16h-32c-8.8 0-16-7.2-16-16zm0 64c0-8.8 7.2-16 16-16h32c8.8 0 16 7.2 16 16s-7.2 16-16 16h-32c-8.8 0-16-7.2-16-16zm-224 64c0-8.8 7.2-16 16-16h256c8.8 0 16 7.2 16 16s-7.2 16-16 16h-256c-8.8 0-16-7.2-16-16zm0 64c0-8.8 7.2-16 16-16h256c8.8 0 16 7.2 16 16s-7.2 16-16 16h-256c-8.8 0-16-7.2-16-16zm32-144h128v-96h-128zm-32-104c0-13.3 10.7-24 24-24h144c13.3 0 24 10.7 24 24v112c0 13.3-10.7 24-24 24h-144c-13.3 0-24-10.7-24-24z"/></svg>