<svg height="380" viewBox="0 0 380 380" width="380" xmlns="http://www.w3.org/2000/svg"><path d="m0 0h380v380h-380z" fill="none"/><path d="m317.896 364.184c0 8.577-57.261 15.53-127.896 15.53s-127.896-6.953-127.896-15.53c0-8.579 67.171-15.53 127.896-15.53 72.286 0 127.896 6.951 127.896 15.53" fill="#1a4658"/><path d="m309.979 252.124c-3.958 0-8.222-1.828-11.268-15.835s-7.612-28.32-7.612-28.32c4.872 0 7.612-2.132 7.612-2.132-3.35-1.523-10.658-6.699-15.53-13.094s-17.358-16.749-17.358-16.749v-20.706c0-14.008 8.985-24.969 8.985-24.969-6.09 0-8.985 5.48-8.985 5.48v-29.538c0-29.233 14.769-42.326 14.769-42.326-4.568-.304-7.613 1.827-7.613 1.827 2.132-21.62 8.756-28.015 8.756-28.015-24.361-6.395-37.95 7.917-37.95 7.917-2.741-13.093 7.975-20.709 7.975-20.709-12.485-2.741-22.811.914-22.811.914 0-19.184 7.627-25.583 7.627-25.583-38.064 0-59.677 28.62-59.677 28.62-1.522-12.181 1.83-22.849 1.83-22.849-36.845 15.53-46.587 49.923-46.587 49.923-2.436-5.785-2.74-18.92-2.74-18.92s-15.226 25.503-17.967 43.164c-2.74 17.663 2.436 68.364 2.436 68.364s-2.435-3.044-7.612-3.653c0 0 5.481 6.091 5.481 19.794 0 0-2.132-1.828-5.786-.914 0 0 5.786 5.176 6.395 14.007 0 0-6.699 4.568-10.354 9.136 0 0-5.786.304-8.831 1.218 0 0 4.873 2.74 5.787 5.177 0 0-14.313 14.616-21.621 26.492 0 0 6.395-3.958 10.962-2.74 0 0-10.049 12.18-13.398 32.278 0 0 4.872-2.435 7.003-1.218 0 0-6.09 12.789-6.394 26.188l-6.699 3.959 5.177 3.654s-3.959 16.444-4.873 25.884c0 0 3.044-3.045 5.481-3.959 0 0 3.35 7.917 7.918 14.007 4.568 6.091 14.922 11.268 21.012 11.268l11.446-.447c-1.419 6.126-4.22 11.321-10.123 11.593l-.655 1.052c-.124-.01-.246-.015-.365-.018-.117 1.789-3.727 2.111-4.719 3.35-3.018 3.765-5.32 8.938-6.852 13.551-1.123 3.38-.592 3.379-1.37 6.852-.255 1.136-1.434 2.35-1.827 3.501 3.288-1.104 12.4-1.842 17.2-2.195l.081 4.249s.791.736 2.102 1.269c.045-.009.089-.021.144-.017.445.036.875.102 1.295.206 7.203-.644 12.218.571 20.566-.122 1.624-.193 3.148-.422 4.569-1.231.405-1.208.459-1.282.649-2.842.041-.278.041-.564.108-.903.131-.022.258-.041.386-.06.049-.019.126-.035.298-.041.035-.011.065-.028.105-.031.133-.012.265-.023.397-.034.091-.034.178-.044.256-.022 1.511-.135 3.937-.263 5.447-.345 4.911-.008 11.372.557 11.372.557.4-5.504.799-14.045 9.707-38.939l2.207-1.37s27.358 9.64 52.742-.389c2.008 4.944 8.508 21.562 9.53 32.038.873 1.228.777 2.786.806 4.437.025 1.397.142 2.794.18 4.187.913-.124 4.209-.528 8.37-.521 1.51.082 3.936.21 5.447.345.079-.022.165-.012.256.022.132.011.264.022.396.034.041.003.071.02.107.031.171.006.248.022.298.041.127.019.254.038.385.06.067.339.067.625.108.903.19 1.56.244 1.634.648 2.842.131.074.262.138.395.204 4.545-.577 9.151-.683 13.725-.466 3.597.17 7.133.845 10.674 1.49 0 .033.003.067.003.101.357.038.706.064 1.054.086 1.9.34 3.805.656 5.722.863.036-2.398.023-4.495-.027-6.336 3.814.182 9.334.942 11.65 1.279.919.22 1.665.356 2.447.524.107.032.219.064.316.096-.004-.009-.008-.019-.012-.028.786.177 1.633.4 2.752.789-.17-2.06-.155-2.017-.427-4.6-.21-1.997-1.643-8.066-4.322-10.569 0 0 2.919 1.262 3.811 1.765-2.878-3.9-4.278-9.475-13.321-13.319 0 0 1.652-.779 3.162-.975-1.578-.973-2.784-1.355-4.381-1.239.543-1.542 2.931-5.43 4.935-5.929 0 0-1.23-.855-3.241-.194-.748.392-1.473.812-2.179 1.31-.266.188-.655-.007-.734-.299-.633-2.338-1.044-4.714-1.417-7.099 18.223-.661 20.779-10.009 20.779-10.009 1.523 1.218 1.522 3.958 1.522 3.958 7.917-10.353 7.004-20.707 7.004-20.707 1.827.304 3.35 1.523 3.35 1.523.914-15.835-3.959-42.937-3.959-42.937 2.437 1.218 3.959-.304 3.959-.304-2.741-1.218-3.045-4.264-3.045-4.264 3.959.305 4.568-3.349 4.568-3.349" fill="#edf7fa"/><g fill="#cde9ee"><path d="m135.768 367.014s.714-7.702-1.797-13.259c0 0 4.756.323 5.556 12.884 0 0-3.332.387-3.759.375"/><path d="m111.892 341.042.029-.237c.018.117.015.208-.029.237"/><path d="m116.346 366.417c-.028-.008-.043-.012-.043-.012s.019-.052.055-.144z"/><path d="m176.901 28.906c-1.522-12.181 1.83-22.849 1.83-22.849-36.846 15.53-46.589 49.923-46.589 49.923-2.436-5.785-2.74-18.92-2.74-18.92s-15.226 25.503-17.967 43.164c-2.74 17.663 2.436 68.364 2.436 68.364s-2.435-3.044-7.612-3.653c0 0 5.481 6.091 5.481 19.794 0 0-2.132-1.828-5.786-.914 0 0 5.786 5.176 6.395 14.007 0 0-6.699 4.568-10.354 9.136 0 0-5.786.304-8.831 1.218 0 0 4.873 2.74 5.787 5.177 0 0-14.313 14.616-21.621 26.492 0 0 6.395-3.958 10.962-2.74 0 0-10.049 12.18-13.398 32.278 0 0 4.872-2.435 7.003-1.218 0 0-6.09 12.789-6.394 26.188l-6.699 3.959 5.177 3.654s-3.959 16.444-4.873 25.884c0 0 3.044-3.045 5.481-3.959 0 0 3.35 7.917 7.918 14.007 4.568 6.091 14.922 11.268 21.012 11.268l.77-.106c-.339 2.1-.721 4.191-1.279 6.252-.079.292-.467.487-.734.299-.706-.498-1.431-.918-2.179-1.31-2.01-.661-3.241.194-3.241.194 2.004.499 4.392 4.387 4.936 5.929-1.599-.116-2.804.266-4.382 1.239 1.511.196 3.162.975 3.162.975-9.042 3.844-10.443 9.419-13.32 13.319.891-.503 3.81-1.765 3.81-1.765-2.679 2.503-4.111 8.572-4.322 10.569-.272 2.583-.257 2.54-.427 4.6 2.397-.833 3.562-.916 5.503-1.381 2.998-.436 11.378-1.585 14.456-1.266l-.485 5.92s.061 0 .151-.002c1.58-.453 2.867-.392 4.277-.544.021-1.631.106-3.262.24-4.887-.094-2.778.251-5.308.818-8.128.019-.095.042-.194.061-.289 1.119-3.85 3.063-6.042 4.326-7.39.419-.448.784-.978 1.095-1.521.754-1.003 1.538-2.31 2.143-3.96 1.251-3.416.715-10.921-1.801-18.245 2.653 3.816 5.069 7.165 6.215 8.31l-.077-9.325s4.872 4.869 9.233 8.547c2.1 1.834 4.689 4.218 6.528 5.168.133.083.253-.803.399.534h-.001c.018 0 .036-.264.055-.254 2.47 1.386 5.01 2.486 7.389 4.025.254.165.514.244.764.417 1.101.758 3.039 1.6 4.78 2.518l1.647 19.448c1.485-20.44 13.132-40.013 13.132-40.013l-.426-.131c-3.604-1.114-29.975-10.237-45.555-42.813-1.026-2.146 5.786 2.435 5.786 2.435-6.395-15.53-8.832-40.501-8.832-40.501 2.132 1.828 4.264 2.132 4.264 2.132-4.568-12.79-6.395-28.625-6.395-42.937-1.218-77.042 27.255-94.703 27.255-94.703-4.872-1.827-10.049-1.675-10.049-1.675 5.634-13.551 24.36-32.43 24.36-32.43-5.025.304-24.666 5.632-24.666 5.632 16.292-42.479 32.736-53.746 32.736-53.746-1.218 10.201 2.741 21.012 2.741 21.012 35.324-43.699 63.704-41.66 63.704-41.66 2.105-4.384 4.496-7.372 4.496-7.372-38.064 0-59.679 28.62-59.679 28.62"/><path d="m276.748 366.773s-.344-11.039-2.855-16.597c0 0 6.547 4.036 6.51 16.786 0 0-3.228-.176-3.655-.189"/></g><path d="m106.406 309.997c4.312-42.238 5.486-124.867 5.486-124.867-9.364 18.499-16.9 52.072-16.9 52.072l1.827 7.308-4.111-1.827c-6.607 22.931-2.137 53.626-.656 62.273 4.203 3.327 9.209 4.45 14.354 5.041" fill="#abd8d7"/><path d="m97.573 309.084c1.338 6.76 2.727 13.271 4.27 19.986 1.142.171 2.427.085 2.427.085 1.048-4.084 1.222-10.404 2.037-18.179-3.003-.352-5.948-.885-8.734-1.892" fill="#abd8d7"/><path d="m240.683 345.482c-.246.07-.432-.039-.533-.207-.474.093-.836.179-1.08.241 0-.001 0-.001 0-.001 6.283-4.572 6.86-9.406 6.86-9.406-4.167 1.878-8.591 2.58-10.744 2.828 14.521-12.587 16.934-35.959 16.934-35.959-5.947 7.301-14.388 13.471-20.911 17.612l.014-.028s-4.37 2.444-8.409 4.347c-.177-.027-.355.02-.488.227-2.075.961-4.009 1.745-5.149 1.936 0 0 3.364 6.21 4.768 9.559l-.275.223s4.865 11.5 6.636 22.64c.188 1.882.332 3.532.433 4.792.085 1.629.2 2.752.2 2.752 6.434-.951 15.521-.024 15.521-.024-.044 1.048.532 3.564.637 4.019 3.056-.411 6.138-.591 9.221-.618-.041-10.797-.516-28.738-13.635-24.933" fill="#cde9ee"/><path d="m106.068 313.255c-10.088-1.706-19.243-13.301-19.243-13.301 7.355 7.822 16.513 8.869 16.513 8.869 1.208-8.932-6.175-29.377-6.175-29.377 5.468 6.809 8.459 14.686 10.095 21.133z" fill="#83bac0"/><path d="m128.964 297.438s7.936 13.989 14.902 20.041c7.517 6.531 14.502 15.759 17.471 21.354 0 0 3.769-8.754 5.824-11.799 0 0-22.267-6.529-38.197-29.596" fill="#abd8d7"/><path d="m232.553 324.722c1.103-1.553 2.367-2.996 3.572-4.47 1.975-2.418 4.231-4.766 5.89-7.397-2.862 2.141-6.049 3.997-9.307 5.957-9.456 6.407-16.044 8.222-16.044 8.222 2.055 3.045 5.824 11.799 5.824 11.799 1.797-3.386 5.07-8.103 9.037-12.749.333-.461.703-.905 1.028-1.362" fill="#abd8d7"/><path d="m125.953 89.124c-.865.063-3.637.133-3.637.133-25.106 1.753-43.561-17.703-43.561-17.703s-1.65 15.186 9.257 28.494c10.909 13.308 33.016 15.586 33.016 15.586.719 3.112-.837 10.052-.837 10.052s6.464-7.151 8.106-20.699c1.152-9.494-1.808-15.902-2.344-15.863" fill="#545352"/><path d="m125.953 89.124c-.833.047-3.637.133-3.637.133-25.106 1.753-43.561-17.703-43.561-17.703s11.47 33.193 49.776 30.57c0 0 1.058-6.139-2.578-13" fill="#6e7979"/><path d="m251.306 89.124c.865.063 3.636.133 3.636.133 25.108 1.753 43.562-17.703 43.562-17.703s1.65 15.186-9.256 28.494c-10.911 13.308-33.018 15.586-33.018 15.586-.717 3.112.839 10.052.839 10.052s-6.465-7.151-8.107-20.699c-1.152-9.494 1.808-15.902 2.344-15.863" fill="#545352"/><path d="m251.306 89.124c.832.047 3.636.133 3.636.133 25.108 1.753 43.562-17.703 43.562-17.703s-11.47 33.193-49.775 30.57c0 0-1.059-6.139 2.577-13" fill="#6e7979"/><path d="m112.848 201.573s-18.047 64.862 0 106.428z" fill="#cde9ee"/><path d="m292.545 304.173c-8.907 6.797-18.175 7.228-18.175 7.228-.413-8.88 9.295-28.294 9.295-28.294-2.209 1.304-3.985 2.882-5.445 4.612l-.064-6.515 7.004-5.785-5.633-4.568 7.155-28.777-6.851 4.568s-2.131-40.956-.609-58.618c0 0-8.678-8.68-12.941-12.181 0 0 .805 12.61 1.724 32.759 3.89 16.163 9.93 49.611 2.416 79.028.087 5.963.151 12.019.186 18.132 0 0 3.744 13.011 4.961 22.146 0 0 1.218.343 3.045.039l-.137-13.991c9.408-2.841 14.069-9.783 14.069-9.783" fill="#cde9ee"/><path d="m208.117 178.58c0 6.918 4.43 12.526 9.897 12.526s9.898-5.608 9.898-12.526c0-6.92-4.431-12.528-9.898-12.528s-9.897 5.608-9.897 12.528" fill="#cde9ee"/><path d="m208.423 175.234c0 6.811 4.362 12.332 9.744 12.332s9.745-5.521 9.745-12.332c0-6.812-4.363-12.333-9.745-12.333s-9.744 5.521-9.744 12.333" fill="#fff"/><path d="m215.58 168.875c-.078.303-.131.618-.131.953 0 1.737 1.132 3.144 2.528 3.144 1.24 0 2.268-1.113 2.482-2.578.796 1.044 1.286 2.449 1.286 4.002 0 3.217-2.096 5.824-4.681 5.824-2.586 0-4.682-2.607-4.682-5.824 0-2.571 1.34-4.748 3.198-5.521" fill="#474746"/><path d="m160.613 178.58c0 6.918 4.431 12.526 9.898 12.526 5.465 0 9.897-5.608 9.897-12.526 0-6.92-4.432-12.528-9.897-12.528-5.467 0-9.898 5.608-9.898 12.528" fill="#cde9ee"/><path d="m160.918 175.234c0 6.811 4.363 12.332 9.745 12.332s9.745-5.521 9.745-12.332c0-6.812-4.363-12.333-9.745-12.333s-9.745 5.521-9.745 12.333" fill="#fff"/><path d="m169.903 168.875c-.078.303-.131.618-.131.953 0 1.737 1.132 3.144 2.528 3.144 1.24 0 2.268-1.113 2.482-2.578.796 1.044 1.286 2.449 1.286 4.002 0 3.217-2.096 5.824-4.682 5.824-2.585 0-4.681-2.607-4.681-5.824 0-2.571 1.34-4.748 3.198-5.521" fill="#474746"/><path d="m243.777 188.408c-.621 1.869-2.729 2.365-8.738 3.527l-.409.079c-5.886 1.13-16.411.982-22.176.14-.248-.035-.488-.072-.717-.11-5.342-.904-5.951-1.595-7.669-4.365-1.775-2.866-2.866-11.281-3.067-12.941l-.01-.083c-.213-1.754-.319-2.632 1.935-3.641 3.03-1.359 16.481-3.257 21.993-3.505 4.351-.192 13.575.414 17.793 1.03.661.097 1.151.186 1.454.266.485.129 2.272.998 2.181 2.898-.119 2.504-1.73 14.178-2.57 16.705zm-58.664-13.753-.011.083c-.201 1.66-1.291 10.075-3.066 12.941-1.719 2.77-2.327 3.461-7.67 4.365-.228.038-.468.075-.717.11-5.764.842-16.289.99-22.176-.14l-.408-.079c-6.009-1.162-8.118-1.658-8.738-3.527-.84-2.527-2.452-14.201-2.57-16.705-.091-1.9 1.696-2.769 2.181-2.898.302-.08.792-.169 1.453-.266 4.219-.616 13.442-1.222 17.794-1.03 5.512.248 18.962 2.146 21.993 3.505 2.253 1.009 2.148 1.887 1.935 3.641zm66.38-11.117c-4.414-.645-12.116-1.376-21.362-.904-12.033.619-22.342 2.289-28.501 3.287-1.838.298-3.282.533-4.384.679l-1.203.163c-1.351.186-2.236.303-2.991.341-.755-.038-1.641-.155-2.991-.341l-1.203-.163c-1.102-.146-2.546-.381-4.385-.679-6.158-.998-16.468-2.668-28.5-3.287-9.246-.472-16.948.259-21.362.904 0 0-4.71.6-8.737 2.304l.768 5.119s4.255-1.013 8.412-1.568c.773 7.219 2.276 16.495 2.276 16.495l.024.287c.115.468.221.922.336 1.417.856 3.648 1.706 5.792 5.127 7.078 3.36 1.268 11.309 2.443 19.326 2.856 2.981.155 6.364-.029 9.787-.527 5.075-.741 9.665-2.108 11.419-3.404 2.552-1.887 3.917-6.633 4.821-9.773l.271-.926c.319-1.071.596-2.195.865-3.286.385-1.565.783-3.183 1.123-3.742.062-.098.348-.435 1.463-.599.345-.049.734-.076 1.16-.082.426.006.814.033 1.16.082 1.115.164 1.401.501 1.463.599.339.559.738 2.177 1.123 3.742.268 1.091.546 2.215.865 3.286l.27.926c.904 3.14 2.27 7.886 4.822 9.773 1.753 1.296 6.343 2.663 11.419 3.404 3.422.498 6.806.682 9.786.527 8.018-.413 15.967-1.588 19.327-2.856 3.42-1.286 4.27-3.43 5.127-7.078.115-.495.221-.949.335-1.417l.024-.287s1.503-9.276 2.276-16.495c4.157.555 8.413 1.568 8.413 1.568l.768-5.119c-4.028-1.704-8.737-2.304-8.737-2.304z" fill="#545352"/><path d="m173.565 150.574s-11.008-5.25-17.308 4.498c0 0-.651-9.694 8.239-10.776 8.891-1.085 9.069 6.278 9.069 6.278" fill="#a0d1de"/><path d="m169.436 136.33s-10.204-4.816-14.854 4.44c0 0-1.518-8.087 5.764-10.038 7.283-1.953 9.09 5.598 9.09 5.598" fill="#a0d1de"/><path d="m212.997 156.517s8.549-4.077 13.443 3.495c0 0 .505-7.528-6.399-8.371-6.905-.842-7.044 4.876-7.044 4.876" fill="#a0d1de"/><path d="m219.076 143.034s8.651-1.401 10.132 6.506c0 0 2.872-5.708-2.143-8.73-5.016-3.023-7.989 2.224-7.989 2.224" fill="#a0d1de"/><path d="m172.8 227.369s6.04-4.059 9.605-4.618c0 0 .778 7.66 4.32 11.434 0 0 7.646-6.892 15.207-7.382 0 0 1.952 4.2 5.121 5.758l-.018.049c1.144.714 2.545 1.435 3.902 1.737 0 0 4.339-2.626 5.595-7.423 0 0 .418 10.126-5.938 15.645 0 0-4.847-2.366-8.339-6.151-1.048-1.022-2.139-2.21-2.668-3.175 0 0-11.213 7.932-11.623 12.456 0 0-8.094-7.892-10.854-13.972 0 0-5.402 1.705-6.901 2.804 0 0-4.342-7.102-5.223-13.51 0 0 5.221 4.987 7.814 6.348" fill="#b2dce5"/><path d="m193.182 207.468c-.448-.095 11.374.818 22.981.406 0 0 .621-2.215 1.511-3.431 0 0-.194 3.727.849 4.49 0 0-5.809 2.286-11.666 2.27 0 0 6.383-1.066 8.524-2.167 0 0-11.649.648-22.199-1.568" fill="#545352"/></svg>