<svg height="300" viewBox="0 0 300 300" width="300" xmlns="http://www.w3.org/2000/svg"><path d="m0 0h300v300h-300z" fill="none"/><path d="m149.482.001h112.673c10.063-.087 19.739 3.872 26.855 10.988 7.117 7.116 11.076 16.792 10.989 26.855v112.67c-.021 82.55-66.938 149.465-149.491 149.486h-.851c-39.674.044-77.739-15.68-105.815-43.711-28.074-28.035-43.847-66.083-43.842-105.757 0-82.838 66.816-149.653 149.491-150.503z" fill="#25c16f"/><path d="m149.482 66.816c-37.938 0-68.693 30.753-68.693 68.69v46.705c.284 12.497 10.348 22.561 22.846 22.844h19.434v-53.599h-26.245v-14.998c1.598-28.251 24.97-50.337 53.268-50.337 28.297 0 51.752 22.179 53.268 50.337v14.998h-26.588v53.599h17.559v.851c-.183 11.595-9.539 20.951-21.135 21.134h-20.979c-1.7 0-3.576.85-3.576 2.56.092 1.848 1.636 3.493 3.576 3.576h21.136c15.022-.095 27.176-12.249 27.271-27.27v-1.701c10.325-2.357 17.626-11.571 17.559-22.16v-45.68c.952-38.702-29.73-69.549-68.701-69.549z" fill="#fff"/></svg>