<svg height="500" viewBox="0 0 500 500" width="500" xmlns="http://www.w3.org/2000/svg"><path d="m0 0h500v500h-500z" fill="none"/><path d="m449.377 73.177c-97.638-97.612-255.917-97.599-353.538.031-97.621 97.629-97.621 255.908 0 353.538 97.621 97.629 255.9 97.643 353.538.031l-53-53c-68.344 68.336-179.145 68.333-247.483-.009-68.339-68.341-68.339-179.142 0-247.483 68.338-68.341 179.139-68.345 247.483-.008z" fill="#ffab00"/><path d="m95.777 426.777c97.636 97.662 255.963 97.662 353.6 0l-53-53c-68.343 68.35-179.157 68.35-247.5 0z" fill="#ffc400"/><g fill="#ffab00"><path d="m235.077 249.977c0 20.71-16.79 37.5-37.5 37.5-20.711 0-37.5-16.79-37.5-37.5 0-20.711 16.789-37.5 37.5-37.5 20.71 0 37.5 16.789 37.5 37.5z"/><path d="m385.077 249.977c0 20.71-16.79 37.5-37.5 37.5-20.711 0-37.5-16.79-37.5-37.5 0-20.711 16.789-37.5 37.5-37.5 20.71 0 37.5 16.789 37.5 37.5z"/></g></svg>