<svg height="576" viewBox="0 0 576 576" width="576" xmlns="http://www.w3.org/2000/svg"><path d="m0 0h576v576h-576z" fill="none"/><path d="m306.011 82c-43.1-9.9-86 16.9-95.9 60-7.9 34.1 7.4 68.2 35.5 85.9 5.4 3.4 9.2 8.8 10.7 15s.3 12.7-3 18.1l-82.9 132.5c3.6 6.7 5.6 14.4 5.6 22.5 0 26.5-21.5 48-48 48s-48-21.5-48-48 21.5-48 48-48h1.7l71.3-114.1c-32.5-30.2-48.4-76.4-37.7-122.7 15.9-68.9 84.6-111.8 153.5-95.9 65.9 15.2 108 78.7 97.7 144.4-2.1 13.1-14.3 22-27.4 20s-22-14.3-20-27.4c6.4-41.1-20-80.8-61.1-90.3zm-16.3 126c-.6 0-1.1 0-1.7 0-26.5 0-48-21.5-48-48s21.5-48 48-48 48 21.5 48 48c0 8.1-2 15.8-5.6 22.5l71.3 114.1c45.8-17.7 99.8-8.2 136.8 28.9 50 50 50 131 0 181-43 43-109 49-158.4 18-11.2-7-14.6-21.8-7.6-33.1s21.8-14.6 33.1-7.6c30.9 19.3 72.1 15.5 99-11.3 31.2-31.2 31.2-81.9 0-113.1-26.8-26.8-68.1-30.6-99-11.3-5.4 3.4-11.9 4.5-18.1 3s-11.6-5.3-15-10.7zm158.3 256c-17.8 0-33.3-9.7-41.6-24h-152.6c-9.2 48.3-46 88.9-97 100.7-68.9 15.9-137.6-27-153.5-95.9-14.3-61.8 18.8-123.4 75.4-147 12.2-5.1 26.3.7 31.4 12.9s-.7 26.3-12.9 31.4c-35.4 14.7-56 53.3-47.1 91.8 9.9 43.1 52.9 69.9 95.9 60 37-8.5 62.1-41.5 62-77.9 0-6.4 2.5-12.5 7-17s10.6-7 17-7h174.4c8.3-14.3 23.8-24 41.6-24 26.5 0 48 21.5 48 48s-21.5 48-48 48z"/></svg>