<svg height="576" viewBox="0 0 576 576" width="576" xmlns="http://www.w3.org/2000/svg"><path d="m0 0h576v576h-576z" fill="none"/><path d="m269.505 244.757c-23.865 40.119-46.73 78.97-70.071 117.527-5.994 9.898-8.96 17.96-4.171 30.544 13.22 34.76-5.429 68.586-40.483 77.769-33.057 8.662-65.264-13.065-71.823-48.456-5.812-31.327 18.498-62.036 53.036-66.932 2.895-.413 5.847-.462 10.712-.827 16.924-28.379 34.262-57.447 52.538-88.098-33.044-32.857-52.711-71.267-48.358-118.86 3.077-33.644 16.306-62.717 40.487-86.547 46.313-45.632 116.966-53.022 171.496-17.995 52.374 33.643 76.359 99.179 55.913 155.27-15.417-4.18-30.94-8.396-48.006-13.025 6.421-31.185 1.672-59.19-19.361-83.18-13.896-15.839-31.728-24.141-52.005-27.2-40.647-6.141-80.556 19.974-92.398 59.87-13.442 45.281 6.902 82.269 62.494 110.14z" fill="#c73a63"/><g fill="#a9a9a9"><path d="m337.66 197.316c16.813 29.659 33.884 59.768 50.804 89.601 85.519-26.458 149.996 20.881 173.128 71.565 27.938 61.222 8.84 133.735-46.033 171.505-56.322 38.775-127.549 32.15-177.45-17.658 12.718-10.645 25.497-21.34 39.153-32.763 49.288 31.923 92.394 30.42 124.397-7.382 27.289-32.247 26.698-80.329-1.383-111.901-32.408-36.432-75.816-37.544-128.288-2.57-21.766-38.615-43.911-76.924-64.988-115.819-7.106-13.109-14.954-20.713-30.971-23.488-26.752-4.638-44.023-27.609-45.059-53.347-1.018-25.453 13.976-48.46 37.415-57.425 23.216-8.88 50.461-1.712 66.078 18.027 12.762 16.129 16.817 34.28 10.103 54.17-1.868 5.545-4.287 10.912-6.906 17.485z"/><path d="m377.845 439.786c-33.817 0-67.759 0-102.95 0-9.868 40.585-31.181 73.352-67.906 94.19-28.548 16.195-59.319 21.686-92.069 16.399-60.297-9.725-109.602-64.006-113.942-125.13-4.914-69.24 42.679-130.787 106.116-144.611 4.38 15.905 8.804 31.962 13.184 47.828-58.203 29.695-78.346 67.11-62.058 113.894 14.341 41.172 55.072 63.739 99.299 55.01 45.166-8.911 67.937-46.446 65.158-106.685 42.817 0 85.67-.445 128.492.217 16.72.263 29.628-1.471 42.226-16.212 20.739-24.257 58.91-22.069 81.246.84 22.825 23.412 21.731 61.085-2.424 83.509-23.305 21.638-60.124 20.482-81.926-2.832-4.482-4.807-8.013-10.512-12.446-16.417z"/></g></svg>