<svg height="512" viewBox="0 0 512 512" width="512" xmlns="http://www.w3.org/2000/svg"><path d="m0 0h512v512h-512z" fill="none"/><path d="m495.935 226.823-210.758-210.758c-16.083-16.084-42.259-16.084-58.354 0l-210.758 210.758c-16.084 16.083-16.084 42.259 0 58.354l210.758 210.758c8.042 8.042 18.615 12.063 29.177 12.063s21.135-4.021 29.177-12.063l210.758-210.758c16.084-16.083 16.084-42.271 0-58.354zm-239.935 86.454-57.277-57.277 57.277-57.277 57.277 57.277z" fill="#4fc3f7"/><path d="m361.918 92.805-105.918 105.918 57.277 57.277-57.277 57.277 105.918 105.918 134.017-134.018c16.084-16.083 16.084-42.259 0-58.354z" fill="#2979ff"/><path d="m150.082 419.195 76.741 76.74c8.042 8.042 18.615 12.063 29.177 12.063s21.135-4.021 29.177-12.063l76.741-76.74-105.918-105.918z" fill="#2962ff"/></svg>