<svg height="300" viewBox="0 0 300 300" width="300" xmlns="http://www.w3.org/2000/svg"><path d="m0 0h300v300h-300z" fill="none"/><path d="m187.496 262.504h37.502v37.496h-37.502z" fill="#0074bf" opacity=".502"/><path d="m150 262.504h37.496v37.496h-37.496zm-37.496 0h37.496v37.496h-37.496z" fill="#0074bf" opacity=".702"/><path d="m75.002 262.504h37.502v37.496h-37.502z" fill="#0074bf" opacity=".502"/><path d="m225.003 225.003h37.501v37.501h-37.501z" fill="#0082bf" opacity=".702"/><path d="m187.496 225.003h37.502v37.501h-37.502z" fill="#0082bf" opacity=".8"/><path d="m150 225.003h37.496v37.501h-37.496zm-37.496 0h37.496v37.501h-37.496z" fill="#0082bf"/><path d="m75.002 225.003h37.502v37.501h-37.502z" fill="#0082bf" opacity=".8"/><path d="m37.496 225.003h37.501v37.501h-37.501z" fill="#0082bf" opacity=".702"/><g fill="#008fbf"><path d="m262.504 187.496h37.496v37.502h-37.496z" opacity=".502"/><path d="m225.003 187.496h37.501v37.502h-37.501z" opacity=".8"/><path d="m187.496 187.496h37.502v37.502h-37.502zm-37.496 0h37.496v37.502h-37.496zm-37.496 0h37.496v37.502h-37.496z"/><path d="m75.002 187.496h37.502v37.502h-37.502z"/><path d="m37.496 187.496h37.501v37.502h-37.501z" opacity=".8"/><path d="m-0 187.496h37.496v37.502h-37.496z" opacity=".502"/></g><path d="m262.504 150h37.496v37.496h-37.496z" fill="#009dbf" opacity=".702"/><path d="m225.003 150h37.501v37.496h-37.501zm-37.507 0h37.502v37.496h-37.502zm-37.496 0h37.496v37.496h-37.496zm-37.496 0h37.496v37.496h-37.496z" fill="#009dbf"/><path d="m75.002 150h37.502v37.496h-37.502zm-37.506 0h37.501v37.496h-37.501z" fill="#009dbf"/><path d="m-0 150h37.496v37.496h-37.496z" fill="#009dbf" opacity=".702"/><path d="m262.504 112.504h37.496v37.496h-37.496z" fill="#00abbf" opacity=".702"/><path d="m225.003 112.504h37.501v37.496h-37.501zm-37.507 0h37.502v37.496h-37.502zm-37.496 0h37.496v37.496h-37.496zm-37.496 0h37.496v37.496h-37.496z" fill="#00abbf"/><path d="m75.002 112.504h37.502v37.496h-37.502zm-37.506 0h37.501v37.496h-37.501z" fill="#00abbf"/><path d="m-0 112.504h37.496v37.496h-37.496z" fill="#00abbf" opacity=".702"/><path d="m262.504 75.002h37.496v37.502h-37.496z" fill="#00b9bf" opacity=".502"/><path d="m225.003 75.002h37.501v37.502h-37.501z" fill="#00b9bf" opacity=".8"/><path d="m187.496 75.002h37.502v37.502h-37.502zm-37.496 0h37.496v37.502h-37.496zm-37.496 0h37.496v37.502h-37.496z" fill="#00b9bf"/><path d="m75.002 75.002h37.502v37.502h-37.502z" fill="#00b9bf"/><path d="m37.496 75.002h37.501v37.502h-37.501z" fill="#00b9bf" opacity=".8"/><path d="m-0 75.002h37.496v37.502h-37.496z" fill="#00b9bf" opacity=".502"/><path d="m225.003 37.496h37.501v37.501h-37.501z" fill="#00c6bf" opacity=".702"/><path d="m187.496 37.496h37.502v37.501h-37.502z" fill="#00c6bf" opacity=".8"/><path d="m150 37.496h37.496v37.501h-37.496zm-37.496 0h37.496v37.501h-37.496z" fill="#00c6bf"/><path d="m75.002 37.496h37.502v37.501h-37.502z" fill="#00c6bf" opacity=".8"/><path d="m37.496 37.496h37.501v37.501h-37.501z" fill="#00c6bf" opacity=".702"/><path d="m187.496-0h37.502v37.496h-37.502z" fill="#00d4bf" opacity=".502"/><path d="m150-0h37.496v37.496h-37.496zm-37.496 0h37.496v37.496h-37.496z" fill="#00d4bf" opacity=".702"/><path d="m75.002-0h37.502v37.496h-37.502z" fill="#00d4bf" opacity=".502"/><path d="m98.735 138.169 10.449-23.387c3.81-5.993 3.305-13.338-.861-17.504-.14-.14-.28-.275-.431-.406-.145-.13-.295-.26-.445-.38-.308-.247-.628-.476-.962-.686-.711-.438-1.468-.795-2.258-1.067-.791-.275-1.607-.46-2.438-.56-.831-.095-1.672-.1-2.503-.015s-1.653.255-2.444.52c-.896.276-1.767.636-2.598 1.067-.83.434-1.621.94-2.363 1.512-.742.576-1.432 1.216-2.063 1.913-.627.696-1.192 1.447-1.688 2.243-.49.796-14.304 33.375-19.626 48.376-5.323 15-3.2 42.513 17.328 63.081 21.77 21.77 53.288 26.742 73.391 11.656.21-.105.42-.22.62-.336.206-.115.406-.24.601-.37.201-.125.391-.26.581-.401.19-.135.376-.28.556-.43l61.95-51.731c3.009-2.488 7.46-7.61 3.464-13.458-3.9-5.703-11.29-1.823-14.304.105l-35.654 25.925c-.165.135-.361.241-.566.301-.21.06-.425.08-.641.055-.215-.025-.425-.095-.611-.201-.19-.105-.355-.25-.485-.425-.906-1.112-1.067-4.061.355-5.227l54.655-46.384c4.721-4.25 5.377-10.434 1.552-14.67-3.73-4.15-9.658-4.025-14.42.266l-49.207 38.467c-.23.19-.496.331-.781.411s-.586.105-.881.065c-.296-.04-.576-.135-.831-.291-.256-.15-.481-.35-.651-.59-.971-1.092-1.347-2.949-.25-4.041l55.726-54.079c1.046-.976 1.892-2.148 2.483-3.444.591-1.302.926-2.709.976-4.136s-.18-2.854-.681-4.191c-.5-1.342-1.256-2.568-2.228-3.615-.485-.516-1.026-.976-1.602-1.377-.58-.403-1.199-.746-1.847-1.026-.651-.275-1.327-.486-2.018-.631-.691-.14-1.397-.21-2.103-.205-.721-.01-1.442.05-2.148.185-1.419.26-2.774.798-3.985 1.582-.606.391-1.172.841-1.693 1.342l-56.942 53.488c-1.362 1.362-4.026 0-4.351-1.592-.03-.14-.04-.285-.035-.431.005-.145.03-.29.075-.425.04-.14.1-.276.175-.396.075-.125.165-.24.27-.34l43.585-49.628c2.133-1.983 3.366-4.749 3.415-7.661.055-2.909-1.077-5.717-3.13-7.775-2.058-2.063-4.861-3.205-7.77-3.16-2.909.046-5.678 1.267-7.671 3.39l-66.095 73.075c-2.368 2.368-5.858 2.488-7.521 1.112-.255-.201-.465-.451-.62-.731-.161-.281-.261-.591-.301-.912-.04-.325-.015-.651.07-.961s.231-.606.426-.861z" fill="#fff"/></svg>