<svg height="300" viewBox="0 0 300 300" width="300" xmlns="http://www.w3.org/2000/svg"><path d="m0 0h300v300h-300z" fill="none"/><path d="m227.063 99.125v-35.578c9.605-4.497 15.765-14.12 15.826-24.726v-.838c-.042-15.118-12.284-27.366-27.402-27.414h-.838c-15.118.041-27.366 12.283-27.414 27.402v.837c.047 10.545 6.13 20.131 15.651 24.664l.162.075v35.653c-13.602 2.078-26.41 7.729-37.114 16.376l.15-.113-97.857-76.205c3.838-14.395-3.031-29.495-16.404-36.061-13.373-6.565-29.522-2.766-38.564 9.074s-8.457 28.42 1.397 39.593c9.855 11.173 26.231 13.825 39.108 6.333l-.15.075 96.206 74.892c-8.506 12.753-13.023 27.749-12.976 43.078 0 16.789 5.313 32.352 14.339 45.078l-.163-.238-29.277 29.277c-2.343-.756-4.788-1.157-7.25-1.187h-.025c-14.036 0-25.414 11.378-25.414 25.414s11.378 25.414 25.414 25.414 25.414-11.378 25.414-25.414c-.03-2.528-.447-5.037-1.238-7.438l.05.175 28.965-28.964c25.86 19.746 61.253 21.389 88.831 4.123 27.578-17.265 41.562-49.82 35.097-81.708s-32.025-56.426-64.149-61.587l-.45-.062zm-12.051 117.22c-22.121-.056-40.015-18.023-39.978-40.144.037-22.122 17.99-40.03 40.111-40.011 22.121.018 40.044 17.956 40.044 40.077v.025c0 22.134-17.943 40.078-40.077 40.078z" fill="#ff7a59"/></svg>