<svg height="300" viewBox="0 0 300 300" width="300" xmlns="http://www.w3.org/2000/svg"><path d="m0 0h300v300h-300z" fill="none"/><path d="m274.995 287.064c-3.89 2.98-19.615 12.936-34.635 12.936-35.046 0-54.243-23.779-54.243-63.006 0-22.114 6.674-52.154 6.674-71.769 0-11.264-2.503-19.195-10.015-19.195-17.526 0-32.965 53.832-32.965 123.089 0 11.684-7.926 30.457-48.823 30.457-6.257 0-9.18-5.003-9.595-13.764-9.18 7.926-20.865 12.104-32.964 12.104-40.891 0-55.084-32.129-55.084-72.184 0-34.635 4.173-94.715 10.85-108.488 6.681-14.19 28.378-30.04 41.726-30.04 7.099 0 15.859 5.005 15.859 17.524 0 14.19-10.015 47.151-10.015 92.209 0 45.065 5.006 58.418 15.018 58.418 10.017 0 12.521-12.936 17.948-20.445.83-8.761 1.25-17.528 1.665-26.706.417-71.347 1.669-78.859 4.59-88.873 3.76-20.445 35.472-34.216 49.235-34.216 9.598 0 14.608 5.429 14.608 15.442 0 9.183-6.262 21.697-8.763 39.64 10.017-22.536 36.303-51.324 60.506-51.324 27.122 0 34.215 20.447 34.215 45.895 0 27.539-7.093 54.656-7.093 84.7 0 22.951 3.221 37.08 10.849 36.3 17.459-1.786 14.094-18.051 25.872-19.734 24.455-3.494 20.191 31.409-5.42 51.03zm-225.333-211.959c-12.519 0-25.457-5.005-25.457-35.463 0-27.126 25.874-39.642 40.892-39.642 14.19 0 26.291 6.679 26.291 23.368.003 34.63-24.617 51.737-41.726 51.737z" fill="#ff5622"/></svg>