<svg height="200" viewBox="0 0 200 200" width="200" xmlns="http://www.w3.org/2000/svg"><path d="m0 0h200v200h-200z" fill="none"/><path d="m1 50.5c0-27.338 22.162-49.5 49.5-49.5h99c27.338 0 49.5 22.162 49.5 49.5v99c0 27.338-22.162 49.5-49.5 49.5h-99c-27.338 0-49.5-22.162-49.5-49.5z" fill="#1868db"/><path d="m75.033 129.067h-11.156c-16.826 0-28.897-10.306-28.897-25.397h59.989c3.109 0 5.121 2.208 5.121 5.337v60.365c-14.998 0-25.057-12.147-25.057-29.078zm29.629-29.998h-11.156c-16.827 0-28.898-10.123-28.898-25.214h59.989c3.11 0 5.304 2.024 5.304 5.153v60.365c-14.997 0-25.239-12.146-25.239-29.078zm29.812-29.815h-11.157c-16.826 0-28.897-10.307-28.897-25.398h59.989c3.109 0 5.121 2.209 5.121 5.153v60.366c-14.997 0-25.056-12.147-25.056-29.079z" fill="#fff"/></svg>