<svg height="300" viewBox="0 0 300 300" width="300" xmlns="http://www.w3.org/2000/svg" xmlns:xlink="http://www.w3.org/1999/xlink"><linearGradient id="a"><stop offset=".18" stop-color="#0052cc"/><stop offset="1" stop-color="#2684ff"/></linearGradient><linearGradient id="b" gradientTransform="matrix(9.791 0 0 8.743 0 267.806)" gradientUnits="userSpaceOnUse" x1="23.023" x2="16.747" xlink:href="#a" y1="-21.427" y2="-14.947"/><linearGradient id="c" gradientTransform="matrix(9.791 0 0 8.743 0 267.806)" gradientUnits="userSpaceOnUse" x1="16.034" x2="8.883" xlink:href="#a" y1="-14.024" y2="-6.958"/><path d="m0 0h300v300h-300z" fill="none"/><path d="m287.468 15.903h-144.465c0 32.198 29.197 58.3 65.214 58.3h26.612v22.97c.023 32.169 29.187 58.242 65.171 58.263v-128.329c0-6.186-5.609-11.204-12.532-11.204z" fill="#2684ff"/><path d="m215.987 80.253h-144.464c.023 32.169 29.187 58.242 65.172 58.263h26.612v23.044c.045 32.168 29.23 58.224 65.213 58.224v-128.325c0-6.188-5.611-11.205-12.533-11.205z" fill="url(#b)"/><path d="m144.465 144.566h-144.465c0 32.198 29.198 58.3 65.214 58.3h26.695v22.969c.024 32.139 29.137 58.201 65.089 58.262v-128.326c0-6.188-5.612-11.205-12.533-11.205z" fill="url(#c)"/></svg>