<svg height="28" viewBox="0 0 28 28" width="28" xmlns="http://www.w3.org/2000/svg"><path d="m0 0h28v28h-28z" fill="none"/><path d="m14 0c-7.722 0-14 6.278-14 14s6.278 14 14 14 14-6.278 14-14-6.278-14-14-14z" fill="#fddd4c"/><path d="m18.719 13.396c.152-.02.305-.02.456 0 .082-.188.095-.512.022-.864-.11-.523-.257-.84-.562-.791-.305.05-.317.429-.207.953.061.294.17.546.292.702zm-2.621.414c.219.096.353.16.405.105.034-.035.024-.101-.028-.187-.108-.176-.33-.355-.565-.455-.496-.206-1.064-.138-1.498.18-.147.107-.284.256-.266.346.008.029.029.051.08.059.121.013.542-.199 1.027-.229.342-.022.627.086.845.182zm-.44.251c-.284.046-.441.14-.542.227-.086.075-.139.158-.139.217l.022.052.046.018c.065 0 .209-.058.209-.058.293-.111.608-.143.917-.096.142.017.211.026.241-.023.009-.014.021-.045-.007-.092-.067-.108-.355-.291-.746-.244zm2.177.922c.192.096.405.058.475-.082.069-.142-.031-.334-.225-.428-.192-.096-.405-.058-.475.082-.069.142.031.334.225.428zm1.242-1.087c-.157-.003-.288.17-.291.386s.12.392.277.395.288-.169.292-.385c.002-.215-.121-.392-.278-.396zm-10.545 3.89c-.039-.049-.103-.034-.165-.02-.048.013-.097.02-.147.02-.106.003-.207-.048-.268-.135-.071-.11-.067-.274.011-.462l.037-.084c.127-.283.337-.757.101-1.208-.178-.339-.469-.552-.818-.596-.335-.042-.67.079-.901.326-.347.383-.401.906-.334 1.091.025.067.064.086.091.09.06.008.147-.035.202-.184l.015-.047c.034-.119.082-.233.144-.34.092-.14.235-.238.399-.272.164-.035.335-.003.475.089.244.16.337.458.234.743-.054.148-.141.429-.122.66.039.47.327.658.585.679.251.009.427-.133.471-.237.027-.06.004-.098-.009-.114v.001zm14.506-.858c-.009-.034-.072-.263-.158-.538l-.174-.467c.344-.516.349-.977.304-1.238-.049-.323-.183-.599-.454-.883-.271-.286-.825-.578-1.605-.796l-.407-.114c-.002-.016-.021-.965-.04-1.372-.012-.293-.037-.753-.179-1.205-.17-.613-.465-1.149-.835-1.492 1.018-1.056 1.653-2.22 1.651-3.218-.003-1.92-2.356-2.502-5.258-1.298l-.614.261c-.375-.369-.751-.738-1.127-1.106-3.309-2.891-13.65 8.624-10.345 11.421l.723.613c-.195.524-.264 1.087-.201 1.643.078.77.474 1.507 1.116 2.077.61.541 1.412.885 2.19.884 1.286 2.97 4.226 4.792 7.673 4.895 3.697.11 6.801-1.628 8.103-4.75.085-.22.445-1.207.445-2.078 0-.876-.494-1.239-.808-1.239zm-15.128 2.337c-.113.019-.228.028-.343.025-1.116-.03-2.322-1.037-2.443-2.232-.132-1.32.541-2.336 1.733-2.576.165-.033.333-.045.501-.037.669.037 1.653.55 1.878 2.009.199 1.29-.118 2.606-1.326 2.812zm-1.246-5.573c-.743.144-1.397.565-1.797 1.147-.239-.199-.685-.586-.764-.737-.639-1.214.697-3.576 1.63-4.91 2.307-3.296 5.917-5.792 7.59-5.339.271.077 1.172 1.122 1.172 1.122s-1.672.929-3.222 2.224c-2.088 1.611-3.665 3.952-4.61 6.493zm11.721 5.08c.025-.012.04-.038.038-.065-.001-.017-.009-.032-.022-.042s-.029-.015-.045-.013c-.017.002-1.749.259-3.402-.348.179-.585.658-.374 1.382-.315 1.125.067 2.253-.055 3.337-.361.748-.215 1.73-.64 2.495-1.243.257.566.348 1.19.348 1.19s.199-.036.366.067c.157.097.272.298.193.82-.16.974-.573 1.766-1.268 2.493-.434.471-.951.857-1.525 1.141-.319.168-.651.309-.994.421-2.62.857-5.302-.085-6.167-2.108-.07-.155-.128-.315-.174-.478-.367-1.334-.055-2.934.923-3.941.06-.064.121-.14.121-.235 0-.08-.05-.163-.093-.223-.342-.496-1.527-1.343-1.289-2.982.171-1.178 1.199-2.007 2.157-1.957l.243.013c.415.025.777.078 1.12.093.572.025 1.086-.059 1.696-.568.205-.171.37-.32.649-.367.029-.005.102-.031.247-.024.149.006.294.052.418.134.489.325.558 1.114.583 1.691.015.33.054 1.126.068 1.355.031.522.168.596.446.687.155.053.301.091.515.151.646.182 1.029.366 1.271.604.125.122.207.282.232.455.077.558-.431 1.246-1.776 1.871-1.472.684-3.255.857-4.487.72l-.432-.049c-.987-.133-1.548 1.143-.957 2.018.381.564 1.421.93 2.459.93 2.384 0 4.215-1.018 4.896-1.899l.055-.078c.033-.05.006-.078-.037-.049-.556.381-3.028 1.896-5.674 1.44 0 0-.321-.053-.614-.167-.233-.091-.72-.316-.779-.817 2.134.661 3.477.036 3.477.036zm-3.381-.4.001.001v-.002zm-4.083-9.194c.821-.949 1.83-1.774 2.734-2.237.031-.016.064.018.048.048-.073.13-.211.41-.254.621-.004.014.002.029.015.038.012.008.028.008.041 0 .562-.384 1.54-.795 2.399-.848.037-.002.055.045.025.068-.141.109-.268.237-.377.379-.008.011-.009.025-.003.038.006.012.018.02.032.02.602.005 1.452.216 2.005.528.037.021.011.093-.031.084-.838-.193-2.209-.339-3.633.009-1.272.311-2.242.79-2.95 1.306-.037.027-.079-.021-.051-.055z"/></svg>