<svg height="500" viewBox="0 0 500 500" width="500" xmlns="http://www.w3.org/2000/svg"><path d="m0 0h500v500h-500z" fill="none"/><path d="m367.006 88.581c-4.315-.332-8.431-.531-12.68-.531-39.831 0-77.605 16.331-104.691 45.143-27.086-28.679-64.727-45.143-104.161-45.143-79 .066-143.328 64.196-143.328 143.196v180.704h77.207v-178.513c0-32.795 26.953-63.001 58.686-66.254 2.257-.199 4.448-.332 6.506-.332 35.716 0 64.86 29.144 65.059 64.86v180.173h78.933v-178.779c0-32.596 26.754-62.802 58.686-66.055 2.257-.199 4.448-.332 6.506-.332 35.716 0 65.059 29.011 65.192 64.528v180.704h78.933v-178.513c0-36.181-13.41-71.1-37.575-97.987-24.098-27.086-57.225-43.749-93.273-46.869z"/></svg>