<svg height="48" viewBox="0 0 48 48" width="48" xmlns="http://www.w3.org/2000/svg" xmlns:xlink="http://www.w3.org/1999/xlink"><clipPath id="a"><path d="m4.08-0h39.84v48h-39.84z"/></clipPath><path d="m0 0h48v48h-48z" fill="none"/><g clip-path="url(#a)"><path d="m38.062 11.04c0 5.946-5.487 12.96-13.789 12.96h-7.997l-.392 2.477-1.866 11.923h-9.938l5.979-38.4h16.101c5.422 0 9.687 3.022 11.259 7.221.453 1.221.671 2.517.643 3.819z" fill="#002991"/><path d="m43.79 22.08c-1.096 6.657-6.858 11.536-13.604 11.52h-5.553l-2.312 14.4h-9.885l1.582-9.6 1.867-11.923.391-2.477h7.997c8.291 0 13.789-7.014 13.789-12.96 4.08 2.106 6.459 6.361 5.728 11.04z" fill="#60cdff"/><path d="m38.062 11.04c-1.711-.895-3.786-1.44-6.044-1.44h-13.483l-2.259 14.4h7.997c8.291 0 13.789-7.014 13.789-12.96z" fill="#008cff"/></g></svg>