<svg height="300" viewBox="0 0 300 300" width="300" xmlns="http://www.w3.org/2000/svg"><path d="m0 0h300v300h-300z" fill="none"/><path d="m150 300c-82.843 0-150-67.157-150-150s67.157-150 150-150 150 67.157 150 150-67.157 150-150 150z" fill="#027737"/><path d="m131.036 128.126c0 18.463 9.366 38.381 29.978 38.381 15.286 0 30.741-11.934 30.741-38.652 0-23.425-12.149-39.151-30.232-39.151-14.735 0-30.487 10.351-30.487 39.422zm37.748-73.626c36.957 0 61.807 29.271 61.807 72.842 0 42.886-26.178 72.827-63.601 72.827-17.843 0-29.272-7.642-35.248-13.174.043 1.312.071 2.78.071 4.349v58.156h-38.285v-154.951c0-2.252-.721-2.965-2.953-2.965h-13.166v-33.933h32.125c14.792 0 18.578 7.528 19.298 13.331 6.004-6.73 18.45-16.482 39.952-16.482z" fill="#fff"/></svg>