<svg height="512" viewBox="0 0 512 512" width="512" xmlns="http://www.w3.org/2000/svg"><path d="m0 0h512v512h-512z" fill="none"/><path d="m216.694 60.087c-10.045 4.679-16.596 15.228-16.596 26.787v58.712h-41.927c-84.902 0-153.731 72.289-153.731 161.457 0 103.938 71.188 150.357 87.522 159.714 2.183 1.284 4.629 1.743 7.075 1.743 9.521 0 17.207-8.165 17.207-18.072 0-6.88-3.756-13.21-8.56-17.889-8.21-8.164-19.391-24.218-19.391-52.106 0-48.621 37.559-88.068 83.854-88.068h27.951v58.712c0 11.559 6.463 22.108 16.596 26.787 10.132 4.678 21.837 2.752 30.047-4.954l139.756-132.101c5.852-5.596 9.259-13.485 9.259-21.833 0-8.349-3.319-16.238-9.259-21.834l-139.756-132.101c-8.21-7.798-20.002-9.724-30.047-4.954z" fill="#a9a9a9"/><path d="m328.498 60.087c-10.045 4.679-16.596 15.228-16.596 26.787v39.722l74.595 70.546c5.852 5.596 9.259 13.485 9.259 21.834 0 8.348-3.319 16.237-9.259 21.833l-74.595 70.546v39.722c0 11.559 6.464 22.108 16.596 26.787 10.133 4.679 21.837 2.752 30.048-4.954l139.756-132.101c5.852-5.596 9.258-13.485 9.258-21.833 0-8.349-3.319-16.238-9.258-21.834l-139.756-132.101c-8.211-7.798-20.003-9.724-30.048-4.954z" fill="#ff6624"/></svg>