<svg height="300" viewBox="0 0 300 300" width="300" xmlns="http://www.w3.org/2000/svg"><path d="m0 0h300v300h-300z" fill="none"/><path d="m300.722 149.787c-.005-2.155-.055-4.3-.156-6.435v-121.751l-33.64 33.659c-27.531-33.724-69.422-55.26-116.335-55.26-48.827 0-92.201 23.315-119.622 59.425l55.143 55.756c5.399-9.98 13.047-18.566 22.338-25.079 9.628-7.513 23.271-13.662 42.136-13.662 2.281 0 4.04.27 5.333.771 23.381 1.845 43.645 14.755 55.579 33.489l-39.034 39.057c49.439-.196 105.293-.311 128.253.025" fill="#1c3aa9"/><path d="m149.714.005c-2.16.01-4.3.06-6.435.155h-121.692l33.646 33.659c-33.706 27.55-55.233 69.454-55.233 116.394 0 48.85 23.306 92.252 59.398 119.681l55.723-55.169c-9.975-5.403-18.555-13.054-25.06-22.348-7.513-9.633-13.658-23.28-13.658-42.159 0-2.28.266-4.044.767-5.338 1.85-23.389 14.751-43.662 33.476-55.6l39.033 39.052c-.195-49.467-.311-105.348.025-128.322" fill="#4285f4"/><path d="m.005 150.213c.01 2.155.06 4.3.155 6.435v121.751l33.641-33.659c27.536 33.724 69.422 55.26 116.339 55.26 48.823 0 92.197-23.315 119.617-59.425l-55.142-55.756c-5.403 10.004-13.081 18.589-22.339 25.079-9.628 7.513-23.265 13.662-42.136 13.662-2.28 0-4.039-.27-5.332-.771-23.377-1.845-43.645-14.755-55.574-33.489l39.034-39.057c-49.444.196-105.293.311-128.258-.025" fill="#ababab"/></svg>