<svg height="300" viewBox="0 0 300 300" width="300" xmlns="http://www.w3.org/2000/svg"><path d="m0 0h300v300h-300z" fill="none"/><path d="m124.779 67.93c9.696-10.042 23.201-16.391 38.091-16.391 19.854 0 37.053 11.081 46.287 27.472 7.965-3.578 16.853-5.54 26.203-5.54 35.783 0 64.64 29.203 64.64 65.217s-28.973 65.217-64.64 65.217c-4.387 0-8.657-.461-12.697-1.269-8.08 14.428-23.548 24.24-41.324 24.24-7.387 0-14.429-1.732-20.662-4.733-8.195 19.277-27.356 32.897-49.634 32.897-23.202 0-43.055-14.659-50.674-35.321-3.347.693-6.81 1.039-10.273 1.039-27.703 0-50.096-22.624-50.096-50.673 0-18.7 10.042-35.091 25.048-43.863-3.116-7.042-4.848-14.891-4.848-23.202-.115-31.973 26.087-58.06 58.176-58.06 18.931 0 35.783 9.003 46.403 22.97" fill="#00a1e0"/></svg>