<svg height="300" viewBox="0 0 300 300" width="300" xmlns="http://www.w3.org/2000/svg"><path d="m0 0h300v300h-300z" fill="none"/><path d="m45.908 180.375c-1.441 1.73-4.324-3.17-4.324-3.17-5.476-10.088-6.917-23.635-8.935-34.876-3.17-17.294-5.188-34.876-5.764-52.458l-.289 2.018c0-.865.289-1.441.289-2.018-8.359 20.753-10.665 64.564-10.665 64.564s.577 28.534 8.935 31.417c.577.288 1.153 0 1.73 0 6.341-1.153 12.394-4.324 19.023-5.477z" fill="#84c340"/><path d="m26.885 89.871c0 .577-.289 1.153-.289 2.018zm3.17 95.116c-1.729-1.441-3.17-4.035-4.035-6.053-1.153-2.882-2.306-6.053-2.882-8.935-1.441-6.053-2.883-12.106-3.459-18.158-.577-6.918-.577-13.547-.288-20.465 0-2.017.288-4.035.288-6.053 1.153-12.105 3.17-23.634 7.206-35.163-8.359 20.752-11.241 42.369-11.241 64.563v.576c.288 6.053 1.729 25.364 7.782 30.841 2.018 1.441 3.747 0 6.629-1.153z" fill="#1e8b46"/><path d="m277.932 233.121c-2.594-3.747-7.494-11.529-7.494-11.529l-7.782-12.394s-10.953-4.612-16.429-7.494c4.612 7.206 8.647 17.582 15.852 22.482 5.765 3.747 11.53 7.782 17.294 11.529-.288-.865-.865-1.729-1.441-2.594s.576.865 0 0z" fill="#1e8b46"/><path d="m187.14 276.932c-36.317-12.97-49.287-63.41-56.493-96.557-10.088-46.693-13.258-96.268-8.359-144.114-16.429 0-32.858 0-49.575 0-6.341 53.322-3.747 110.68 8.935 162.561 5.477 22.482 12.97 48.711 30.552 64.563 10.088 9.223 25.365 11.817 38.335 14.123 18.447 3.171 36.317 2.883 54.763.577-6.052 1.441-12.393.864-18.158-1.153-56.781-20.176 5.765 2.017 0 0z" fill="#84c340"/><path d="m163.793 289.326c-4.611-3.459-8.646-10.377-14.123-11.529 12.106-12.106 20.464-27.67 27.67-43.235 3.747-8.07 7.206-16.141 10.376-24.211 1.442-3.459 4.9-7.494 2.594-10.376-1.729-2.018-4.323-3.171-6.052-5.477-6.63 17.582-14.124 35.453-24.5 51.017-7.494 10.953-19.888 25.652-35.164 23.635-9.8-.865-17.582-11.241-22.482-18.447-7.782-11.241-12.682-24.499-16.717-37.47-9.223-30.264-12.97-62.257-14.411-93.674-1.441-27.382-1.441-55.628 1.729-83.298h34.876 6.053c1.729 0 2.594-9.512 3.17-11.529 2.018-8.071 3.747-19.312 11.817-23.923-12.393 3.747-22.77 6.917-34.011 13.258-6.052 3.171-11.817 6.629-17.293 10.665-2.594 2.882-6.63 5.764-9.224 8.358-6.341 14.123-7.205 34.011-7.782 48.999-2.306 53.899-.288 113.274 19.6 164.002 6.053 15.276 14.411 31.706 28.823 40.929 11.529 7.206 27.958 9.8 41.216 11.529 15.277 2.018 32.858-.288 26.806-2.594-9.224-2.882-8.935-3.747-12.971-6.629z" fill="#1e8b46"/><path d="m239.598 5.708c-4.9 8.071-12.106 16.43-14.124 25.653-4.9 23.058-15.276 45.828-24.787 67.157-11.529 25.941-24.5 51.305-40.064 74.94-7.494 11.241-15.564 22.193-24.788 32.281-2.882 3.171-5.476 5.188-6.629 9.224-.865 2.594-1.729 5.188-2.594 7.782 31.417-31.129 53.899-71.769 72.922-111.545 9.8-20.176 18.735-40.928 26.517-61.969 3.17-8.647 6.341-17.294 9.223-26.229 1.441-4.611 5.477-12.682 4.324-17.294z" fill="#1e8b46"/><path d="m135.547 54.707c.865-14.411 1.441-29.399-.865-43.522-.576-4.324-1.441-12.682-7.205-10.953-4.612 1.441-9.224 2.882-13.835 4.612-11.53 4.611-22.482 10.088-32.859 17.294-3.747 2.594-7.205 5.476-10.376 8.358-1.729 1.441-1.729 1.441-2.594 2.882-.576 1.153 0 4.612 0 7.206-2.017 35.164-11.817 70.616-21.905 104.051-3.459 12.105-7.206 31.417-17.294 39.775-9.223 7.783-12.682-26.228-12.97-30.264 1.441 24.212 7.782 48.423 20.464 69.175 5.476 8.935 11.529 21.329 21.905 25.364 12.106 4.9 22.77-6.917 28.823-15.852 16.718-23.923 25.653-54.187 32.858-82.145 8.071-30.841 13.835-63.411 15.853-95.981.288-4.035-1.153 19.888 0 0z" fill="#dddddc"/><path d="m284.273 183.257c-.576-31.705-5.188-63.41-12.682-94.25-6.918-28.823-16.141-58.223-31.993-83.298 1.152 4.035-2.306 10.952-3.459 14.699-2.594 8.935-5.765 17.582-8.935 26.229-7.782 21.041-16.429 41.505-26.229 61.681-19.311 40.64-42.082 82.145-74.075 114.139 22.194-4.036 42.946-10.953 63.699-19.6-7.494 20.176-15.853 40.352-27.67 58.222-10.665 16.141-28.247 36.029-49.864 28.535 9.512 5.188 29.688 9.223 48.711 10.088 15.852.865 34.011.288 48.134-7.782 28.246-16.141 43.523-51.593 54.187-80.704 5.188 8.07 10.088 16.429 15.564 24.499 3.459-14.411 4.9-32.57 4.612-52.458-.288-19.887.288 19.888 0 0z" fill="#dedddd"/></svg>