<svg height="256" viewBox="0 0 256 256" width="256" xmlns="http://www.w3.org/2000/svg"><g fill="none" stroke-miterlimit="10" stroke-width="0" transform="matrix(2.81 0 0 2.81 1.406593 1.406593)"><path d="m33.022 0c-4.965.004-8.983 4.033-8.98 8.998-.004 4.965 4.018 8.994 8.983 8.998h8.983v-8.994c.005-4.965-4.017-8.995-8.986-9.002.004 0 .004 0 0 0m0 24h-23.949c-4.965.004-8.987 4.033-8.983 8.998-.007 4.965 4.015 8.995 8.98 9.002h23.952c4.965-.004 8.987-4.033 8.983-8.998.004-4.969-4.018-8.998-8.983-9.002z" fill="#36c5f0"/><path d="m89.91 32.998c.004-4.965-4.018-8.994-8.983-8.998-4.965.004-8.987 4.033-8.983 8.998v9.002h8.983c4.965-.004 8.987-4.033 8.983-9.002zm-23.952 0v-24c.004-4.961-4.015-8.991-8.98-8.998-4.965.004-8.987 4.033-8.983 8.998v24c-.007 4.965 4.015 8.994 8.98 9.002 4.964-.004 8.986-4.033 8.983-9.002z" fill="#2eb67d"/><path d="m56.974 90c4.965-.004 8.987-4.033 8.983-8.998.004-4.965-4.018-8.994-8.983-8.998h-8.983v8.998c-.004 4.961 4.018 8.991 8.983 8.998zm0-24.004h23.952c4.965-.004 8.987-4.033 8.983-8.998.007-4.965-4.015-8.994-8.98-9.002h-23.951c-4.965.004-8.987 4.033-8.983 8.998-.004 4.969 4.014 8.999 8.979 9.002z" fill="#ecb22e"/><path d="m.09 56.998c-.004 4.965 4.018 8.994 8.983 8.998 4.965-.004 8.987-4.033 8.983-8.998v-8.998h-8.983c-4.965.004-8.987 4.033-8.983 8.998zm23.952 0v24c-.007 4.965 4.015 8.994 8.98 9.002 4.965-.004 8.987-4.033 8.983-8.998v-23.996c.007-4.965-4.015-8.994-8.98-9.002-4.968 0-8.986 4.029-8.983 8.994 0 0 0 .004 0 0" fill="#e01e5a"/></g></svg>