<svg enable-background="new 1 0.901 53.201 53.199" height="53.199" viewBox="1 .901 53.201 53.199" width="53.201" xmlns="http://www.w3.org/2000/svg"><path d="m45.333.901h-35.465c-4.876 0-8.868 3.99-8.868 8.868v35.466c0 4.874 3.992 8.865 8.868 8.865h35.466c4.876 0 8.868-3.99 8.868-8.865v-35.466c-.001-4.878-3.993-8.868-8.869-8.868m-.806 40.708c0 1.55-1.269 2.815-2.82 2.815h-28.215c-1.55 0-2.82-1.266-2.82-2.815v-28.214c0-1.55 1.27-2.82 2.82-2.82h28.215c1.551 0 2.82 1.27 2.82 2.82zm-9.67-8.466c0 .889-.726 1.612-1.61 1.612h-11.285c-.887 0-1.61-.724-1.61-1.612v-11.284c0-.887.723-1.611 1.61-1.611h11.284c.885 0 1.61.725 1.61 1.611v11.284z"/></svg>