<svg height="300" viewBox="0 0 300 300" width="300" xmlns="http://www.w3.org/2000/svg"><path d="m174.694 114.375c-27.15-10.075-41.95-17.825-41.95-30.113 0-10.387 8.537-16.312 23.762-16.312 27.838 0 56.438 10.725 76.125 20.388l11.125-68.675c-15.612-7.475-47.55-19.663-91.7-19.663-31.225 0-57.2 8.175-75.762 23.4-19.3 15.938-29.338 39-29.338 66.825 0 50.487 30.838 72 80.95 90.237 32.313 11.5 43.063 19.675 43.063 32.288 0 12.25-10.5 19.312-29.425 19.312-23.438 0-62.063-11.512-87.375-26.362l-11.25 69.438c21.762 12.237 61.887 24.862 103.5 24.862 33.012 0 60.537-7.8 79.1-22.663 20.8-16.312 31.562-40.45 31.562-71.649 0-51.601-31.55-73.138-82.425-91.313z" fill="#635bff"/></svg>