<svg height="800" viewBox="0 0 256 256" width="800" xmlns="http://www.w3.org/2000/svg"><path d="m128.080089-.00018311c7.230964.01328342 14.342428.6243216 21.255574 1.77997904v74.51998367l52.83129-52.6952889c5.835112 4.1443539 11.29393 8.7537116 16.340858 13.7881808 5.04947 5.0344692 9.684507 10.4940498 13.839006 16.3121277l-52.833832 52.6952638h74.714869c1.159395 6.894077 1.772146 13.961047 1.772146 21.18718v.172638c0 7.226132-.612751 14.306323-1.772146 21.200401h-74.727581l52.846544 52.682042c-4.154499 5.818078-8.789536 11.277659-13.823751 16.312128h-.015255c-5.046928 5.034469-10.505746 9.657048-16.325603 13.788155l-52.846545-52.695517v74.52011c-6.900434 1.155836-14.011898 1.766044-21.242861 1.781299h-.185605c-7.233506-.015255-14.317002-.625463-21.230149-1.781299v-74.52011l-52.8312884 52.695517c-11.667683-8.27569-21.8683246-18.463873-30.1798643-30.100283l52.8338316-52.682042h-74.71486887c-1.17210763-6.907553-1.78485803-14.014187-1.78485803-21.240319v-.370926c.01214549-1.87522.1349398-4.166104.31131182-6.536203l.05446101-.71307c.52222335-6.671217 1.4190852-13.699701 1.4190852-13.699701h74.71486887l-52.8338316-52.6952638c4.1417859-5.8180779 8.7641106-11.2644374 13.8110382-16.2854311l.0254253-.0266966c5.0367575-5.0344692 10.5082881-9.6438269 16.3434008-13.7881808l52.8312884 52.6952889v-74.51998367c6.913147-1.15565744 14.011898-1.76669562 21.255574-1.77997904zm-.012712 95.76025451h-.122042c-9.509073 0-18.616425 1.7401095-27.034751 4.9014946-3.1552829 8.381968-4.9020029 17.467709-4.9147156 26.952119v.119499c.0127127 9.48441 1.7594327 18.570405 4.9274276 26.952119 8.405614 3.16164 17.512966 4.901749 27.022039 4.901749h.122042c9.509072 0 18.616425-1.740109 27.022038-4.901749 3.167996-8.394935 4.914716-17.467709 4.914716-26.952119v-.119499c0-9.48441-1.74672-18.570151-4.914716-26.952119-8.405613-3.1613851-17.512966-4.9014946-27.022038-4.9014946z" fill="#ff4a00"/></svg>