<svg height="300" viewBox="0 0 300 300" width="300" xmlns="http://www.w3.org/2000/svg"><path d="m0 0h300v300h-300z" fill="none"/><path d="m205.624 244.392c-25.025 0-48.601-9.693-66.383-27.29l-51.973-51.973c-6.052-6.051-9.373-14.1-9.342-22.655.032-8.555 3.394-16.583 9.476-22.593 12.435-12.29 32.618-12.228 44.98.134l47.597 47.597c5.576 5.576 14.669 5.597 20.265.052 2.742-2.71 4.252-6.321 4.262-10.179.011-3.849-1.479-7.48-4.21-10.201l-51.9-51.9c-14.504-14.348-33.766-22.252-54.187-22.19-20.834.052-40.283 8.235-54.765 23.039-14.504 14.824-22.263 34.469-21.849 55.314.817 41.493 35.266 75.259 76.79 75.259 7.428 0 14.762-1.056 21.807-3.135 4.655-1.376 9.548 1.283 10.914 5.938 1.376 4.655-1.283 9.548-5.938 10.924-8.659 2.555-17.669 3.859-26.783 3.859-51.031 0-93.362-41.493-94.366-92.494-.507-25.603 9.031-49.738 26.856-67.955 17.813-18.207 41.71-28.273 67.293-28.324 24.983-.063 48.766 9.631 66.611 27.289l51.952 51.952c6.051 6.062 9.382 14.111 9.362 22.676-.021 8.566-3.393 16.604-9.476 22.624-12.455 12.321-32.669 12.27-45.063-.124l-47.596-47.596c-5.555-5.556-14.607-5.576-20.193-.062-2.732 2.7-4.242 6.3-4.252 10.148-.011 3.838 1.479 7.458 4.189 10.169l51.921 51.931c14.452 14.297 33.642 22.19 54.001 22.19 42.31 0 76.769-34.418 76.81-76.728.021-20.504-7.965-39.807-22.489-54.352-14.525-14.545-33.818-22.552-54.321-22.552-6.538 0-13.025.817-19.294 2.442-.91.237-1.82.486-2.72.755-4.655 1.386-9.549-1.262-10.935-5.907-1.386-4.655 1.262-9.549 5.907-10.935 1.107-.331 2.224-.641 3.342-.931 7.696-1.986 15.672-3 23.689-3 25.2 0 48.911 9.838 66.756 27.704 17.845 17.865 27.662 41.586 27.631 66.786-.052 51.994-42.404 94.283-94.387 94.283z" fill="#006eb9"/></svg>