<svg height="512" viewBox="0 0 512 512" width="512" xmlns="http://www.w3.org/2000/svg"><path d="m0 0h512v512h-512z" fill="none"/><path d="m373.309 20c32.542 0 59 26.458 59 59v354c0 32.542-26.458 59-59 59h-236c-3.227 0-6.269-.277-9.311-.738-28.947-4.148-46.309-24.46-49.997-54.021l.308-72.552v-285.689c0-32.542 26.458-59 59-59zm0 29.5h-236c-16.317 0-29.5 13.183-29.5 29.5v354c0 14.658 10.694 26.827 24.706 29.131 1.936.277 3.872.369 5.9.369h234.894c16.317 0 29.5-13.183 29.5-29.5v-354c0-16.317-13.183-29.5-29.5-29.5zm-118 29.5c48.877 0 88.5 39.623 88.5 88.5s-39.623 88.5-88.5 88.5c-48.878 0-88.5-39.623-88.5-88.5s39.622-88.5 88.5-88.5zm0 29.5c-32.586 0-59 26.415-59 59s26.414 59 59 59c32.585 0 59-26.415 59-59s-26.415-59-59-59z"/><path d="m147.618 337.771c0 7.573 6.196 13.769 13.769 13.769h188.613c7.573 0 13-6.196 13-13.769s-6.427-13.769-14-13.769h-187.613c-7.573 0-13.769 6.196-13.769 13.769z"/><path d="m174.618 401.231c0 7.573 6.196 13.769 13.769 13.769h134.613c7.573 0 13-6.196 13-13.769s-6.427-14.231-14-14.231l-133.613.462c-7.573 0-13.769 6.196-13.769 13.769z"/></svg>