<svg height="640" viewBox="0 0 640 640" width="640" xmlns="http://www.w3.org/2000/svg"><path d="m0 0h640v640h-640z" fill="none"/><path d="m115 94.5c-11.275 0-20.5 9.225-20.5 20.5v410c0 11.275 9.225 20.5 20.5 20.5h410c11.275 0 20.5-9.225 20.5-20.5v-410c0-11.275-9.225-20.5-20.5-20.5zm-82 20.5c0-45.228 36.772-82 82-82h410c45.228 0 82 36.772 82 82v410c0 45.228-36.772 82-82 82h-410c-45.228 0-82-36.772-82-82zm164 41c22.679 0 41 18.322 41 41 0 22.679-18.321 41-41 41-22.678 0-41-18.321-41-41 0-22.678 18.322-41 41-41zm174.25 92.25c10.89 0 21.012 5.765 26.522 15.119l102.5 174.249c5.637 9.482 5.637 21.269.128 30.879-5.509 9.609-15.631 15.503-26.65 15.503h-307.5c-11.404 0-22.038-6.406-27.291-16.528s-4.484-22.421 2.051-31.775l71.75-102.5c5.765-8.2 15.118-13.068 25.24-13.068 10.121 0 19.475 4.868 25.241 13.068l22.037 31.519 59.579-101.219c5.509-9.353 15.631-15.118 26.521-15.118z"/></svg>