<svg height="300" viewBox="0 0 300 300" width="300" xmlns="http://www.w3.org/2000/svg"><path d="m0 0h300v300h-300z" fill="none"/><path d="m171.566 118.887c-23.711-8.798-36.636-15.567-36.636-26.298 0-9.072 7.455-14.246 20.752-14.246 24.312 0 49.289 9.366 66.482 17.806l9.716-59.977c-13.634-6.528-41.527-17.172-80.084-17.172-27.27 0-49.955 7.139-66.166 20.436-16.855 13.919-25.622 34.06-25.622 58.361 0 44.091 26.932 62.879 70.697 78.806 28.22 10.044 37.608 17.183 37.608 28.199 0 10.698-9.17 16.865-25.698 16.865-20.469 0-54.202-10.053-76.307-23.022l-9.825 60.642c19.005 10.687 54.048 21.713 90.39 21.713 28.83 0 52.869-6.812 69.08-19.792 18.166-14.246 27.564-35.327 27.564-62.574 0-45.065-27.553-63.874-71.984-79.747z" fill="#635bff"/></svg>