<svg height="800" viewBox="0 0 800 800" width="800" xmlns="http://www.w3.org/2000/svg"><path d="m0 0h800v800h-800z" fill="none"/><path d="m342.65 241.575c0-34.85 29.05-48.275 75.625-48.275 67.825 0 153.9 20.775 221.725 57.35v-209.825c-73.9-29.525-147.65-40.775-221.575-40.775-180.775 0-301.25 94.375-301.25 252.175 0 246.725 338.75 206.725 338.75 313.125 0 41.25-35.775 54.525-85.475 54.525-73.75 0-169.075-30.475-243.9-71.1v200.775c76.975 33.225 159.9 50.425 243.75 50.625 185.325 0 312.975-79.7 312.975-240 0-265.925-340.625-218.275-340.625-318.6z" fill="#625bf6"/></svg>